G04 #@! TF.GenerationSoftware,KiCad,Pcbnew,(5.1.10-1-10_14)*
G04 #@! TF.CreationDate,2021-10-20T16:09:14+11:00*
G04 #@! TF.ProjectId,pcb,7063622e-6b69-4636-9164-5f7063625858,rev?*
G04 #@! TF.SameCoordinates,Original*
G04 #@! TF.FileFunction,Legend,Bot*
G04 #@! TF.FilePolarity,Positive*
%FSLAX46Y46*%
G04 Gerber Fmt 4.6, Leading zero omitted, Abs format (unit mm)*
G04 Created by KiCad (PCBNEW (5.1.10-1-10_14)) date 2021-10-20 16:09:14*
%MOMM*%
%LPD*%
G01*
G04 APERTURE LIST*
%ADD10C,0.300000*%
%ADD11C,0.350000*%
%ADD12C,0.120000*%
%ADD13R,2.550000X2.500000*%
%ADD14C,1.750000*%
%ADD15C,3.000000*%
%ADD16C,3.987800*%
%ADD17O,3.400000X3.400000*%
%ADD18R,2.500000X2.550000*%
%ADD19R,1.700000X1.000000*%
%ADD20C,3.048000*%
%ADD21R,1.524000X0.700000*%
%ADD22R,0.700000X1.524000*%
%ADD23O,1.750000X1.200000*%
%ADD24O,1.700000X1.700000*%
%ADD25R,1.700000X1.700000*%
%ADD26C,0.787400*%
%ADD27R,1.200000X0.900000*%
%ADD28C,2.000000*%
%ADD29R,2.000000X3.200000*%
%ADD30R,2.000000X2.000000*%
%ADD31R,3.200000X2.000000*%
%ADD32R,2.450000X0.600000*%
%ADD33R,2.450000X0.300000*%
%ADD34C,0.650000*%
%ADD35R,0.800000X0.900000*%
%ADD36R,1.060000X0.650000*%
%ADD37R,1.000000X0.800000*%
%ADD38R,0.700000X1.500000*%
%ADD39C,0.900000*%
%ADD40R,0.900000X1.200000*%
%ADD41R,1.000000X1.400000*%
%ADD42R,1.200000X1.400000*%
G04 APERTURE END LIST*
D10*
X26181250Y-45781250D02*
X24847916Y-45781250D01*
X23431250Y-45531250D02*
X23181250Y-45614583D01*
X23097916Y-45697916D01*
X23014583Y-45864583D01*
X23014583Y-46114583D01*
X23097916Y-46281250D01*
X23181250Y-46364583D01*
X23347916Y-46447916D01*
X24014583Y-46447916D01*
X24014583Y-44697916D01*
X23431250Y-44697916D01*
X23264583Y-44781250D01*
X23181250Y-44864583D01*
X23097916Y-45031250D01*
X23097916Y-45197916D01*
X23181250Y-45364583D01*
X23264583Y-45447916D01*
X23431250Y-45531250D01*
X24014583Y-45531250D01*
X21431250Y-46447916D02*
X22264583Y-46447916D01*
X22264583Y-44697916D01*
X20931250Y-45947916D02*
X20097916Y-45947916D01*
X21097916Y-46447916D02*
X20514583Y-44697916D01*
X19931250Y-46447916D01*
X18347916Y-46281250D02*
X18431250Y-46364583D01*
X18681250Y-46447916D01*
X18847916Y-46447916D01*
X19097916Y-46364583D01*
X19264583Y-46197916D01*
X19347916Y-46031250D01*
X19431250Y-45697916D01*
X19431250Y-45447916D01*
X19347916Y-45114583D01*
X19264583Y-44947916D01*
X19097916Y-44781250D01*
X18847916Y-44697916D01*
X18681250Y-44697916D01*
X18431250Y-44781250D01*
X18347916Y-44864583D01*
X17597916Y-46447916D02*
X17597916Y-44697916D01*
X16597916Y-46447916D02*
X17347916Y-45447916D01*
X16597916Y-44697916D02*
X17597916Y-45697916D01*
D11*
X24639583Y-41743750D02*
X23306250Y-41743750D01*
X23972916Y-42410416D02*
X23972916Y-41077083D01*
X21472916Y-42410416D02*
X22056250Y-41577083D01*
X22472916Y-42410416D02*
X22472916Y-40660416D01*
X21806250Y-40660416D01*
X21639583Y-40743750D01*
X21556250Y-40827083D01*
X21472916Y-40993750D01*
X21472916Y-41243750D01*
X21556250Y-41410416D01*
X21639583Y-41493750D01*
X21806250Y-41577083D01*
X22472916Y-41577083D01*
X20722916Y-41493750D02*
X20139583Y-41493750D01*
X19889583Y-42410416D02*
X20722916Y-42410416D01*
X20722916Y-40660416D01*
X19889583Y-40660416D01*
X19139583Y-42410416D02*
X19139583Y-40660416D01*
X18722916Y-40660416D01*
X18472916Y-40743750D01*
X18306250Y-40910416D01*
X18222916Y-41077083D01*
X18139583Y-41410416D01*
X18139583Y-41660416D01*
X18222916Y-41993750D01*
X18306250Y-42160416D01*
X18472916Y-42327083D01*
X18722916Y-42410416D01*
X19139583Y-42410416D01*
X234208333Y-46025000D02*
X232875000Y-46025000D01*
X233541666Y-46691666D02*
X233541666Y-45358333D01*
X231041666Y-46691666D02*
X231625000Y-45858333D01*
X232041666Y-46691666D02*
X232041666Y-44941666D01*
X231375000Y-44941666D01*
X231208333Y-45025000D01*
X231125000Y-45108333D01*
X231041666Y-45275000D01*
X231041666Y-45525000D01*
X231125000Y-45691666D01*
X231208333Y-45775000D01*
X231375000Y-45858333D01*
X232041666Y-45858333D01*
X230291666Y-45775000D02*
X229708333Y-45775000D01*
X229458333Y-46691666D02*
X230291666Y-46691666D01*
X230291666Y-44941666D01*
X229458333Y-44941666D01*
X228708333Y-46691666D02*
X228708333Y-44941666D01*
X228291666Y-44941666D01*
X228041666Y-45025000D01*
X227875000Y-45191666D01*
X227791666Y-45358333D01*
X227708333Y-45691666D01*
X227708333Y-45941666D01*
X227791666Y-46275000D01*
X227875000Y-46441666D01*
X228041666Y-46608333D01*
X228291666Y-46691666D01*
X228708333Y-46691666D01*
D10*
X235750000Y-41987500D02*
X234416666Y-41987500D01*
X233000000Y-41737500D02*
X232750000Y-41820833D01*
X232666666Y-41904166D01*
X232583333Y-42070833D01*
X232583333Y-42320833D01*
X232666666Y-42487500D01*
X232750000Y-42570833D01*
X232916666Y-42654166D01*
X233583333Y-42654166D01*
X233583333Y-40904166D01*
X233000000Y-40904166D01*
X232833333Y-40987500D01*
X232750000Y-41070833D01*
X232666666Y-41237500D01*
X232666666Y-41404166D01*
X232750000Y-41570833D01*
X232833333Y-41654166D01*
X233000000Y-41737500D01*
X233583333Y-41737500D01*
X231000000Y-42654166D02*
X231833333Y-42654166D01*
X231833333Y-40904166D01*
X230500000Y-42154166D02*
X229666666Y-42154166D01*
X230666666Y-42654166D02*
X230083333Y-40904166D01*
X229500000Y-42654166D01*
X227916666Y-42487500D02*
X228000000Y-42570833D01*
X228250000Y-42654166D01*
X228416666Y-42654166D01*
X228666666Y-42570833D01*
X228833333Y-42404166D01*
X228916666Y-42237500D01*
X229000000Y-41904166D01*
X229000000Y-41654166D01*
X228916666Y-41320833D01*
X228833333Y-41154166D01*
X228666666Y-40987500D01*
X228416666Y-40904166D01*
X228250000Y-40904166D01*
X228000000Y-40987500D01*
X227916666Y-41070833D01*
X227166666Y-42654166D02*
X227166666Y-40904166D01*
X226166666Y-42654166D02*
X226916666Y-41654166D01*
X226166666Y-40904166D02*
X227166666Y-41904166D01*
D12*
X166746250Y-84441250D02*
X161866250Y-84441250D01*
X160696250Y-79971250D02*
X161746250Y-79971250D01*
X160696250Y-82471250D02*
X160696250Y-79971250D01*
X166866250Y-79971250D02*
X166866250Y-78981250D01*
X167916250Y-79971250D02*
X166866250Y-79971250D01*
X167916250Y-82471250D02*
X167916250Y-79971250D01*
X161866250Y-110821250D02*
X166746250Y-110821250D01*
X167916250Y-115291250D02*
X166866250Y-115291250D01*
X167916250Y-112791250D02*
X167916250Y-115291250D01*
X161746250Y-115291250D02*
X161746250Y-116281250D01*
X160696250Y-115291250D02*
X161746250Y-115291250D01*
X160696250Y-112791250D02*
X160696250Y-115291250D01*
X85666250Y-110821250D02*
X90546250Y-110821250D01*
X91716250Y-115291250D02*
X90666250Y-115291250D01*
X91716250Y-112791250D02*
X91716250Y-115291250D01*
X85546250Y-115291250D02*
X85546250Y-116281250D01*
X84496250Y-115291250D02*
X85546250Y-115291250D01*
X84496250Y-112791250D02*
X84496250Y-115291250D01*
X90546250Y-84441250D02*
X85666250Y-84441250D01*
X84496250Y-79971250D02*
X85546250Y-79971250D01*
X84496250Y-82471250D02*
X84496250Y-79971250D01*
X90666250Y-79971250D02*
X90666250Y-78981250D01*
X91716250Y-79971250D02*
X90666250Y-79971250D01*
X91716250Y-82471250D02*
X91716250Y-79971250D01*
X77450000Y-90118750D02*
X74950000Y-90118750D01*
X78950000Y-91868750D02*
X78950000Y-93868750D01*
X77450000Y-95618750D02*
X74950000Y-95618750D01*
X73450000Y-91868750D02*
X73450000Y-93868750D01*
X77900000Y-90568750D02*
X77450000Y-90118750D01*
X74500000Y-90568750D02*
X74950000Y-90118750D01*
X74500000Y-95168750D02*
X74950000Y-95618750D01*
X77900000Y-95168750D02*
X77450000Y-95618750D01*
X208062500Y-83368750D02*
X207062500Y-83368750D01*
X220562500Y-83368750D02*
X221562500Y-83368750D01*
X221562500Y-84368750D02*
X221562500Y-83368750D01*
X207062500Y-84368750D02*
X207062500Y-83368750D01*
X242747500Y-45722500D02*
X243962500Y-45722500D01*
X238787500Y-45662500D02*
X236527500Y-45662500D01*
X238787500Y-45162500D02*
X236527500Y-45162500D01*
X240387500Y-42562500D02*
X240387500Y-41562500D01*
X238787500Y-42562500D02*
X240387500Y-42562500D01*
X238787500Y-41562500D02*
X238787500Y-42562500D01*
X240387500Y-41562500D02*
X238787500Y-41562500D01*
X240387500Y-45162500D02*
X240387500Y-46162500D01*
X238787500Y-45162500D02*
X240387500Y-45162500D01*
X238787500Y-46162500D02*
X238787500Y-45162500D01*
X240387500Y-46162500D02*
X238787500Y-46162500D01*
X242747500Y-40802500D02*
X242747500Y-41722500D01*
X242747500Y-46922500D02*
X242747500Y-46002500D01*
X240887500Y-43362500D02*
X236527500Y-43362500D01*
X240887500Y-44362500D02*
X240887500Y-43362500D01*
X236527500Y-44362500D02*
X240887500Y-44362500D01*
X242747500Y-41722500D02*
X242747500Y-42002500D01*
X244347500Y-41722500D02*
X242747500Y-41722500D01*
X244347500Y-40802500D02*
X244347500Y-41722500D01*
X236527500Y-40802500D02*
X244347500Y-40802500D01*
X236527500Y-46922500D02*
X236527500Y-40802500D01*
X244347500Y-46922500D02*
X236527500Y-46922500D01*
X244347500Y-46002500D02*
X244347500Y-46922500D01*
X242747500Y-46002500D02*
X244347500Y-46002500D01*
X242747500Y-45722500D02*
X242747500Y-46002500D01*
X9665000Y-42002500D02*
X8450000Y-42002500D01*
X13625000Y-42062500D02*
X15885000Y-42062500D01*
X13625000Y-42562500D02*
X15885000Y-42562500D01*
X12025000Y-45162500D02*
X12025000Y-46162500D01*
X13625000Y-45162500D02*
X12025000Y-45162500D01*
X13625000Y-46162500D02*
X13625000Y-45162500D01*
X12025000Y-46162500D02*
X13625000Y-46162500D01*
X12025000Y-42562500D02*
X12025000Y-41562500D01*
X13625000Y-42562500D02*
X12025000Y-42562500D01*
X13625000Y-41562500D02*
X13625000Y-42562500D01*
X12025000Y-41562500D02*
X13625000Y-41562500D01*
X9665000Y-46922500D02*
X9665000Y-46002500D01*
X9665000Y-40802500D02*
X9665000Y-41722500D01*
X11525000Y-44362500D02*
X15885000Y-44362500D01*
X11525000Y-43362500D02*
X11525000Y-44362500D01*
X15885000Y-43362500D02*
X11525000Y-43362500D01*
X9665000Y-46002500D02*
X9665000Y-45722500D01*
X8065000Y-46002500D02*
X9665000Y-46002500D01*
X8065000Y-46922500D02*
X8065000Y-46002500D01*
X15885000Y-46922500D02*
X8065000Y-46922500D01*
X15885000Y-40802500D02*
X15885000Y-46922500D01*
X8065000Y-40802500D02*
X15885000Y-40802500D01*
X8065000Y-41722500D02*
X8065000Y-40802500D01*
X9665000Y-41722500D02*
X8065000Y-41722500D01*
X9665000Y-42002500D02*
X9665000Y-41722500D01*
X201831250Y-98682500D02*
X201831250Y-101342500D01*
X194151250Y-98682500D02*
X201831250Y-98682500D01*
X194151250Y-101342500D02*
X201831250Y-101342500D01*
X194151250Y-98682500D02*
X194151250Y-101342500D01*
X192881250Y-98682500D02*
X191551250Y-98682500D01*
X191551250Y-98682500D02*
X191551250Y-100012500D01*
X12906250Y-84800000D02*
X10906250Y-84800000D01*
X10906250Y-84800000D02*
X10906250Y-80900000D01*
X12906250Y-84800000D02*
X12906250Y-80900000D01*
X36612500Y-83368750D02*
X35612500Y-83368750D01*
X49112500Y-83368750D02*
X50112500Y-83368750D01*
X50112500Y-84368750D02*
X50112500Y-83368750D01*
X35612500Y-84368750D02*
X35612500Y-83368750D01*
X230128750Y-82777064D02*
X230128750Y-82322936D01*
X228658750Y-82777064D02*
X228658750Y-82322936D01*
X251560000Y-82777064D02*
X251560000Y-82322936D01*
X250090000Y-82777064D02*
X250090000Y-82322936D01*
X177462500Y-90118750D02*
X174962500Y-90118750D01*
X178962500Y-91868750D02*
X178962500Y-93868750D01*
X177462500Y-95618750D02*
X174962500Y-95618750D01*
X173462500Y-91868750D02*
X173462500Y-93868750D01*
X177912500Y-90568750D02*
X177462500Y-90118750D01*
X174512500Y-90568750D02*
X174962500Y-90118750D01*
X174512500Y-95168750D02*
X174962500Y-95618750D01*
X177912500Y-95168750D02*
X177462500Y-95618750D01*
X161337500Y-40350000D02*
X159337500Y-40350000D01*
X159337500Y-40350000D02*
X159337500Y-36450000D01*
X161337500Y-40350000D02*
X161337500Y-36450000D01*
X236530000Y-83310000D02*
X235600000Y-83310000D01*
X233370000Y-83310000D02*
X234300000Y-83310000D01*
X233370000Y-83310000D02*
X233370000Y-81150000D01*
X236530000Y-83310000D02*
X236530000Y-81850000D01*
X246750000Y-80940000D02*
X248550000Y-80940000D01*
X248550000Y-84160000D02*
X246100000Y-84160000D01*
X5662500Y-84160000D02*
X3862500Y-84160000D01*
X3862500Y-80940000D02*
X6312500Y-80940000D01*
X19042500Y-83310000D02*
X18112500Y-83310000D01*
X15882500Y-83310000D02*
X16812500Y-83310000D01*
X15882500Y-83310000D02*
X15882500Y-81150000D01*
X19042500Y-83310000D02*
X19042500Y-81850000D01*
X255775000Y-82223750D02*
X255575000Y-82223750D01*
X258575000Y-86363750D02*
X258375000Y-86573750D01*
X257275000Y-86363750D02*
X257475000Y-86573750D01*
X258575000Y-85073750D02*
X258575000Y-86363750D01*
X258375000Y-86573750D02*
X257475000Y-86573750D01*
X257275000Y-86363750D02*
X257275000Y-85073750D01*
X260025000Y-85073750D02*
X254325000Y-85073750D01*
X258775000Y-82223750D02*
X257075000Y-82223750D01*
X260625000Y-83273750D02*
X260625000Y-84063750D01*
X253725000Y-84063750D02*
X253725000Y-83273750D01*
X-6162500Y-82223750D02*
X-6362500Y-82223750D01*
X-3362500Y-86363750D02*
X-3562500Y-86573750D01*
X-4662500Y-86363750D02*
X-4462500Y-86573750D01*
X-3362500Y-85073750D02*
X-3362500Y-86363750D01*
X-3562500Y-86573750D02*
X-4462500Y-86573750D01*
X-4662500Y-86363750D02*
X-4662500Y-85073750D01*
X-1912500Y-85073750D02*
X-7612500Y-85073750D01*
X-3162500Y-82223750D02*
X-4862500Y-82223750D01*
X-1312500Y-83273750D02*
X-1312500Y-84063750D01*
X-8212500Y-84063750D02*
X-8212500Y-83273750D01*
X242660436Y-69791250D02*
X243114564Y-69791250D01*
X242660436Y-68321250D02*
X243114564Y-68321250D01*
X134710436Y-103922500D02*
X135164564Y-103922500D01*
X134710436Y-102452500D02*
X135164564Y-102452500D01*
X226277500Y-82322936D02*
X226277500Y-82777064D01*
X227747500Y-82322936D02*
X227747500Y-82777064D01*
X242660436Y-28516250D02*
X243114564Y-28516250D01*
X242660436Y-27046250D02*
X243114564Y-27046250D01*
X242660436Y-23753750D02*
X243114564Y-23753750D01*
X242660436Y-22283750D02*
X243114564Y-22283750D01*
X117702064Y-102452500D02*
X117247936Y-102452500D01*
X117702064Y-103922500D02*
X117247936Y-103922500D01*
X23753750Y-82777064D02*
X23753750Y-82322936D01*
X22283750Y-82777064D02*
X22283750Y-82322936D01*
X24665000Y-82322936D02*
X24665000Y-82777064D01*
X26135000Y-82322936D02*
X26135000Y-82777064D01*
X14060436Y-28516250D02*
X14514564Y-28516250D01*
X14060436Y-27046250D02*
X14514564Y-27046250D01*
X9752064Y-22283750D02*
X9297936Y-22283750D01*
X9752064Y-23753750D02*
X9297936Y-23753750D01*
X254852500Y-18822936D02*
X254852500Y-19277064D01*
X256322500Y-18822936D02*
X256322500Y-19277064D01*
X2322500Y-82777064D02*
X2322500Y-82322936D01*
X852500Y-82777064D02*
X852500Y-82322936D01*
X9297936Y-69791250D02*
X9752064Y-69791250D01*
X9297936Y-68321250D02*
X9752064Y-68321250D01*
X9752064Y-27046250D02*
X9297936Y-27046250D01*
X9752064Y-28516250D02*
X9297936Y-28516250D01*
X245261250Y-83310000D02*
X244331250Y-83310000D01*
X242101250Y-83310000D02*
X243031250Y-83310000D01*
X242101250Y-83310000D02*
X242101250Y-81150000D01*
X245261250Y-83310000D02*
X245261250Y-81850000D01*
X10311250Y-83310000D02*
X9381250Y-83310000D01*
X7151250Y-83310000D02*
X8081250Y-83310000D01*
X7151250Y-83310000D02*
X7151250Y-81150000D01*
X10311250Y-83310000D02*
X10311250Y-81850000D01*
X55343750Y-101342500D02*
X55343750Y-98682500D01*
X63023750Y-101342500D02*
X55343750Y-101342500D01*
X63023750Y-98682500D02*
X55343750Y-98682500D01*
X63023750Y-101342500D02*
X63023750Y-98682500D01*
X64293750Y-101342500D02*
X65623750Y-101342500D01*
X65623750Y-101342500D02*
X65623750Y-100012500D01*
X242285436Y-67585000D02*
X243489564Y-67585000D01*
X242285436Y-65765000D02*
X243489564Y-65765000D01*
X8922936Y-67585000D02*
X10127064Y-67585000D01*
X8922936Y-65765000D02*
X10127064Y-65765000D01*
X182768750Y-118931250D02*
X180768750Y-118931250D01*
X180768750Y-118931250D02*
X180768750Y-115031250D01*
X182768750Y-118931250D02*
X182768750Y-115031250D01*
X159412500Y-117268750D02*
X159412500Y-119268750D01*
X159412500Y-119268750D02*
X155512500Y-119268750D01*
X159412500Y-117268750D02*
X155512500Y-117268750D01*
X256587500Y-78450000D02*
X254587500Y-78450000D01*
X254587500Y-78450000D02*
X254587500Y-74550000D01*
X256587500Y-78450000D02*
X256587500Y-74550000D01*
X256587500Y-59400000D02*
X254587500Y-59400000D01*
X254587500Y-59400000D02*
X254587500Y-55500000D01*
X256587500Y-59400000D02*
X256587500Y-55500000D01*
X256587500Y-40350000D02*
X254587500Y-40350000D01*
X254587500Y-40350000D02*
X254587500Y-36450000D01*
X256587500Y-40350000D02*
X256587500Y-36450000D01*
X241431250Y-20843750D02*
X241431250Y-18843750D01*
X241431250Y-18843750D02*
X245331250Y-18843750D01*
X241431250Y-20843750D02*
X245331250Y-20843750D01*
X256587500Y-2250000D02*
X254587500Y-2250000D01*
X254587500Y-2250000D02*
X254587500Y1650000D01*
X256587500Y-2250000D02*
X256587500Y1650000D01*
X140362500Y-117268750D02*
X140362500Y-119268750D01*
X140362500Y-119268750D02*
X136462500Y-119268750D01*
X140362500Y-117268750D02*
X136462500Y-117268750D01*
X237537500Y-78450000D02*
X235537500Y-78450000D01*
X235537500Y-78450000D02*
X235537500Y-74550000D01*
X237537500Y-78450000D02*
X237537500Y-74550000D01*
X237537500Y-59400000D02*
X235537500Y-59400000D01*
X235537500Y-59400000D02*
X235537500Y-55500000D01*
X237537500Y-59400000D02*
X237537500Y-55500000D01*
X237537500Y-40350000D02*
X235537500Y-40350000D01*
X235537500Y-40350000D02*
X235537500Y-36450000D01*
X237537500Y-40350000D02*
X237537500Y-36450000D01*
X237537500Y-21300000D02*
X235537500Y-21300000D01*
X235537500Y-21300000D02*
X235537500Y-17400000D01*
X237537500Y-21300000D02*
X237537500Y-17400000D01*
X237537500Y-2250000D02*
X235537500Y-2250000D01*
X235537500Y-2250000D02*
X235537500Y1650000D01*
X237537500Y-2250000D02*
X237537500Y1650000D01*
X218487500Y-76068750D02*
X216487500Y-76068750D01*
X216487500Y-76068750D02*
X216487500Y-72168750D01*
X218487500Y-76068750D02*
X218487500Y-72168750D01*
X218487500Y-57018750D02*
X216487500Y-57018750D01*
X216487500Y-57018750D02*
X216487500Y-53118750D01*
X218487500Y-57018750D02*
X218487500Y-53118750D01*
X218487500Y-37968750D02*
X216487500Y-37968750D01*
X216487500Y-37968750D02*
X216487500Y-34068750D01*
X218487500Y-37968750D02*
X218487500Y-34068750D01*
X218487500Y-18918750D02*
X216487500Y-18918750D01*
X216487500Y-18918750D02*
X216487500Y-15018750D01*
X218487500Y-18918750D02*
X218487500Y-15018750D01*
X218487500Y131250D02*
X216487500Y131250D01*
X216487500Y131250D02*
X216487500Y4031250D01*
X218487500Y131250D02*
X218487500Y4031250D01*
X197056250Y-95118750D02*
X195056250Y-95118750D01*
X195056250Y-95118750D02*
X195056250Y-91218750D01*
X197056250Y-95118750D02*
X197056250Y-91218750D01*
X199437500Y-73687500D02*
X197437500Y-73687500D01*
X197437500Y-73687500D02*
X197437500Y-69787500D01*
X199437500Y-73687500D02*
X199437500Y-69787500D01*
X199437500Y-54637500D02*
X197437500Y-54637500D01*
X197437500Y-54637500D02*
X197437500Y-50737500D01*
X199437500Y-54637500D02*
X199437500Y-50737500D01*
X199437500Y-35587500D02*
X197437500Y-35587500D01*
X197437500Y-35587500D02*
X197437500Y-31687500D01*
X199437500Y-35587500D02*
X199437500Y-31687500D01*
X199437500Y-16537500D02*
X197437500Y-16537500D01*
X197437500Y-16537500D02*
X197437500Y-12637500D01*
X199437500Y-16537500D02*
X199437500Y-12637500D01*
X199437500Y2512500D02*
X197437500Y2512500D01*
X197437500Y2512500D02*
X197437500Y6412500D01*
X199437500Y2512500D02*
X199437500Y6412500D01*
X256587500Y-121312500D02*
X254587500Y-121312500D01*
X254587500Y-121312500D02*
X254587500Y-117412500D01*
X256587500Y-121312500D02*
X256587500Y-117412500D01*
X180387500Y-76068750D02*
X178387500Y-76068750D01*
X178387500Y-76068750D02*
X178387500Y-72168750D01*
X180387500Y-76068750D02*
X180387500Y-72168750D01*
X180387500Y-57018750D02*
X178387500Y-57018750D01*
X178387500Y-57018750D02*
X178387500Y-53118750D01*
X180387500Y-57018750D02*
X180387500Y-53118750D01*
X180387500Y-37968750D02*
X178387500Y-37968750D01*
X178387500Y-37968750D02*
X178387500Y-34068750D01*
X180387500Y-37968750D02*
X180387500Y-34068750D01*
X180387500Y-18918750D02*
X178387500Y-18918750D01*
X178387500Y-18918750D02*
X178387500Y-15018750D01*
X180387500Y-18918750D02*
X180387500Y-15018750D01*
X180387500Y131250D02*
X178387500Y131250D01*
X178387500Y131250D02*
X178387500Y4031250D01*
X180387500Y131250D02*
X180387500Y4031250D01*
X237537500Y-121312500D02*
X235537500Y-121312500D01*
X235537500Y-121312500D02*
X235537500Y-117412500D01*
X237537500Y-121312500D02*
X237537500Y-117412500D01*
X229187500Y-97762500D02*
X231187500Y-97762500D01*
X231187500Y-97762500D02*
X231187500Y-101662500D01*
X229187500Y-97762500D02*
X229187500Y-101662500D01*
X241506250Y-84800000D02*
X239506250Y-84800000D01*
X239506250Y-84800000D02*
X239506250Y-80900000D01*
X241506250Y-84800000D02*
X241506250Y-80900000D01*
X161337500Y-97500000D02*
X159337500Y-97500000D01*
X159337500Y-97500000D02*
X159337500Y-93600000D01*
X161337500Y-97500000D02*
X161337500Y-93600000D01*
X161337500Y-78450000D02*
X159337500Y-78450000D01*
X159337500Y-78450000D02*
X159337500Y-74550000D01*
X161337500Y-78450000D02*
X161337500Y-74550000D01*
X161337500Y-59400000D02*
X159337500Y-59400000D01*
X159337500Y-59400000D02*
X159337500Y-55500000D01*
X161337500Y-59400000D02*
X161337500Y-55500000D01*
X161337500Y-21300000D02*
X159337500Y-21300000D01*
X159337500Y-21300000D02*
X159337500Y-17400000D01*
X161337500Y-21300000D02*
X161337500Y-17400000D01*
X161337500Y-2250000D02*
X159337500Y-2250000D01*
X159337500Y-2250000D02*
X159337500Y1650000D01*
X161337500Y-2250000D02*
X161337500Y1650000D01*
X218487500Y-121312500D02*
X216487500Y-121312500D01*
X216487500Y-121312500D02*
X216487500Y-117412500D01*
X218487500Y-121312500D02*
X218487500Y-117412500D01*
X142287500Y-87975000D02*
X140287500Y-87975000D01*
X140287500Y-87975000D02*
X140287500Y-84075000D01*
X142287500Y-87975000D02*
X142287500Y-84075000D01*
X140362500Y-48212500D02*
X140362500Y-50212500D01*
X140362500Y-50212500D02*
X136462500Y-50212500D01*
X140362500Y-48212500D02*
X136462500Y-48212500D01*
X145822500Y-37980000D02*
X143822500Y-37980000D01*
X143822500Y-37980000D02*
X143822500Y-34080000D01*
X145822500Y-37980000D02*
X145822500Y-34080000D01*
X142287500Y-11775000D02*
X140287500Y-11775000D01*
X140287500Y-11775000D02*
X140287500Y-7875000D01*
X142287500Y-11775000D02*
X142287500Y-7875000D01*
X129968750Y-102227500D02*
X132653750Y-102227500D01*
X132653750Y-102227500D02*
X132653750Y-104147500D01*
X132653750Y-104147500D02*
X129968750Y-104147500D01*
X253168750Y-24200000D02*
X253168750Y-26600000D01*
X250068750Y-26600000D02*
X250068750Y-23650000D01*
X112050000Y-125618750D02*
X112050000Y-123618750D01*
X112050000Y-123618750D02*
X115950000Y-123618750D01*
X112050000Y-125618750D02*
X115950000Y-125618750D01*
X112050000Y-94662500D02*
X112050000Y-92662500D01*
X112050000Y-92662500D02*
X115950000Y-92662500D01*
X112050000Y-94662500D02*
X115950000Y-94662500D01*
X112050000Y-63706250D02*
X112050000Y-61706250D01*
X112050000Y-61706250D02*
X115950000Y-61706250D01*
X112050000Y-63706250D02*
X115950000Y-63706250D01*
X104906250Y-38306250D02*
X104906250Y-36306250D01*
X104906250Y-36306250D02*
X108806250Y-36306250D01*
X104906250Y-38306250D02*
X108806250Y-38306250D01*
X118475000Y-11775000D02*
X116475000Y-11775000D01*
X116475000Y-11775000D02*
X116475000Y-7875000D01*
X118475000Y-11775000D02*
X118475000Y-7875000D01*
X93000000Y-125618750D02*
X93000000Y-123618750D01*
X93000000Y-123618750D02*
X96900000Y-123618750D01*
X93000000Y-125618750D02*
X96900000Y-125618750D01*
X-756250Y-26600000D02*
X-756250Y-24200000D01*
X2343750Y-24200000D02*
X2343750Y-27150000D01*
X122443750Y-104147500D02*
X119758750Y-104147500D01*
X119758750Y-104147500D02*
X119758750Y-102227500D01*
X119758750Y-102227500D02*
X122443750Y-102227500D01*
X99425000Y-97500000D02*
X97425000Y-97500000D01*
X97425000Y-97500000D02*
X97425000Y-93600000D01*
X99425000Y-97500000D02*
X99425000Y-93600000D01*
X99425000Y-78450000D02*
X97425000Y-78450000D01*
X97425000Y-78450000D02*
X97425000Y-74550000D01*
X99425000Y-78450000D02*
X99425000Y-74550000D01*
X99425000Y-59400000D02*
X97425000Y-59400000D01*
X97425000Y-59400000D02*
X97425000Y-55500000D01*
X99425000Y-59400000D02*
X99425000Y-55500000D01*
X99425000Y-40350000D02*
X97425000Y-40350000D01*
X97425000Y-40350000D02*
X97425000Y-36450000D01*
X99425000Y-40350000D02*
X99425000Y-36450000D01*
X99425000Y-21300000D02*
X97425000Y-21300000D01*
X97425000Y-21300000D02*
X97425000Y-17400000D01*
X99425000Y-21300000D02*
X99425000Y-17400000D01*
X99425000Y-2250000D02*
X97425000Y-2250000D01*
X97425000Y-2250000D02*
X97425000Y1650000D01*
X99425000Y-2250000D02*
X99425000Y1650000D01*
X77993750Y-118931250D02*
X75993750Y-118931250D01*
X75993750Y-118931250D02*
X75993750Y-115031250D01*
X77993750Y-118931250D02*
X77993750Y-115031250D01*
X80375000Y-76068750D02*
X78375000Y-76068750D01*
X78375000Y-76068750D02*
X78375000Y-72168750D01*
X80375000Y-76068750D02*
X80375000Y-72168750D01*
X80375000Y-57018750D02*
X78375000Y-57018750D01*
X78375000Y-57018750D02*
X78375000Y-53118750D01*
X80375000Y-57018750D02*
X80375000Y-53118750D01*
X80375000Y-37968750D02*
X78375000Y-37968750D01*
X78375000Y-37968750D02*
X78375000Y-34068750D01*
X80375000Y-37968750D02*
X80375000Y-34068750D01*
X80375000Y-18918750D02*
X78375000Y-18918750D01*
X78375000Y-18918750D02*
X78375000Y-15018750D01*
X80375000Y-18918750D02*
X80375000Y-15018750D01*
X80375000Y131250D02*
X78375000Y131250D01*
X78375000Y131250D02*
X78375000Y4031250D01*
X80375000Y131250D02*
X80375000Y4031250D01*
X68468750Y-95118750D02*
X66468750Y-95118750D01*
X66468750Y-95118750D02*
X66468750Y-91218750D01*
X68468750Y-95118750D02*
X68468750Y-91218750D01*
X61325000Y-73687500D02*
X59325000Y-73687500D01*
X59325000Y-73687500D02*
X59325000Y-69787500D01*
X61325000Y-73687500D02*
X61325000Y-69787500D01*
X61325000Y-54637500D02*
X59325000Y-54637500D01*
X59325000Y-54637500D02*
X59325000Y-50737500D01*
X61325000Y-54637500D02*
X61325000Y-50737500D01*
X61325000Y-35587500D02*
X59325000Y-35587500D01*
X59325000Y-35587500D02*
X59325000Y-31687500D01*
X61325000Y-35587500D02*
X61325000Y-31687500D01*
X61325000Y-16537500D02*
X59325000Y-16537500D01*
X59325000Y-16537500D02*
X59325000Y-12637500D01*
X61325000Y-16537500D02*
X61325000Y-12637500D01*
X61325000Y2512500D02*
X59325000Y2512500D01*
X59325000Y2512500D02*
X59325000Y6412500D01*
X61325000Y2512500D02*
X61325000Y6412500D01*
X42275000Y-76068750D02*
X40275000Y-76068750D01*
X40275000Y-76068750D02*
X40275000Y-72168750D01*
X42275000Y-76068750D02*
X42275000Y-72168750D01*
X42275000Y-57018750D02*
X40275000Y-57018750D01*
X40275000Y-57018750D02*
X40275000Y-53118750D01*
X42275000Y-57018750D02*
X42275000Y-53118750D01*
X42275000Y-37968750D02*
X40275000Y-37968750D01*
X40275000Y-37968750D02*
X40275000Y-34068750D01*
X42275000Y-37968750D02*
X42275000Y-34068750D01*
X42275000Y-18918750D02*
X40275000Y-18918750D01*
X40275000Y-18918750D02*
X40275000Y-15018750D01*
X42275000Y-18918750D02*
X42275000Y-15018750D01*
X42275000Y131250D02*
X40275000Y131250D01*
X40275000Y131250D02*
X40275000Y4031250D01*
X42275000Y131250D02*
X42275000Y4031250D01*
X42275000Y-121312500D02*
X40275000Y-121312500D01*
X40275000Y-121312500D02*
X40275000Y-117412500D01*
X42275000Y-121312500D02*
X42275000Y-117412500D01*
X23225000Y-78450000D02*
X21225000Y-78450000D01*
X21225000Y-78450000D02*
X21225000Y-74550000D01*
X23225000Y-78450000D02*
X23225000Y-74550000D01*
X23225000Y-59400000D02*
X21225000Y-59400000D01*
X21225000Y-59400000D02*
X21225000Y-55500000D01*
X23225000Y-59400000D02*
X23225000Y-55500000D01*
X23225000Y-40350000D02*
X21225000Y-40350000D01*
X21225000Y-40350000D02*
X21225000Y-36450000D01*
X23225000Y-40350000D02*
X23225000Y-36450000D01*
X23225000Y-21300000D02*
X21225000Y-21300000D01*
X21225000Y-21300000D02*
X21225000Y-17400000D01*
X23225000Y-21300000D02*
X23225000Y-17400000D01*
X23225000Y-2250000D02*
X21225000Y-2250000D01*
X21225000Y-2250000D02*
X21225000Y1650000D01*
X23225000Y-2250000D02*
X23225000Y1650000D01*
X23225000Y-121312500D02*
X21225000Y-121312500D01*
X21225000Y-121312500D02*
X21225000Y-117412500D01*
X23225000Y-121312500D02*
X23225000Y-117412500D01*
X14875000Y-97762500D02*
X16875000Y-97762500D01*
X16875000Y-97762500D02*
X16875000Y-101662500D01*
X14875000Y-97762500D02*
X14875000Y-101662500D01*
X4175000Y-78450000D02*
X2175000Y-78450000D01*
X2175000Y-78450000D02*
X2175000Y-74550000D01*
X4175000Y-78450000D02*
X4175000Y-74550000D01*
X4175000Y-59400000D02*
X2175000Y-59400000D01*
X2175000Y-59400000D02*
X2175000Y-55500000D01*
X4175000Y-59400000D02*
X4175000Y-55500000D01*
X4175000Y-40350000D02*
X2175000Y-40350000D01*
X2175000Y-40350000D02*
X2175000Y-36450000D01*
X4175000Y-40350000D02*
X4175000Y-36450000D01*
X4175000Y-21300000D02*
X2175000Y-21300000D01*
X2175000Y-21300000D02*
X2175000Y-17400000D01*
X4175000Y-21300000D02*
X4175000Y-17400000D01*
X4175000Y-2250000D02*
X2175000Y-2250000D01*
X2175000Y-2250000D02*
X2175000Y1650000D01*
X4175000Y-2250000D02*
X4175000Y1650000D01*
X4175000Y-121312500D02*
X2175000Y-121312500D01*
X2175000Y-121312500D02*
X2175000Y-117412500D01*
X4175000Y-121312500D02*
X4175000Y-117412500D01*
X232510000Y-82811252D02*
X232510000Y-82288748D01*
X231040000Y-82811252D02*
X231040000Y-82288748D01*
X237390000Y-82288748D02*
X237390000Y-82811252D01*
X238860000Y-82288748D02*
X238860000Y-82811252D01*
X225366250Y-82811252D02*
X225366250Y-82288748D01*
X223896250Y-82811252D02*
X223896250Y-82288748D01*
X258821250Y-18788748D02*
X258821250Y-19311252D01*
X260291250Y-18788748D02*
X260291250Y-19311252D01*
X13552500Y-82288748D02*
X13552500Y-82811252D01*
X15022500Y-82288748D02*
X15022500Y-82811252D01*
X19902500Y-82288748D02*
X19902500Y-82811252D01*
X21372500Y-82288748D02*
X21372500Y-82811252D01*
X19311252Y-27046250D02*
X18788748Y-27046250D01*
X19311252Y-28516250D02*
X18788748Y-28516250D01*
X28516250Y-82811252D02*
X28516250Y-82288748D01*
X27046250Y-82811252D02*
X27046250Y-82288748D01*
%LPC*%
D13*
X227520500Y-105092500D03*
X240447500Y-102552500D03*
D14*
X228282500Y-100012500D03*
X238442500Y-100012500D03*
D15*
X237172500Y-102552500D03*
D16*
X233362500Y-100012500D03*
D15*
X230822500Y-105092500D03*
D13*
X239204500Y-52070000D03*
X226277500Y-54610000D03*
D14*
X238442500Y-57150000D03*
X228282500Y-57150000D03*
D15*
X229552500Y-54610000D03*
D16*
X233362500Y-57150000D03*
D15*
X235902500Y-52070000D03*
G36*
G01*
X161606250Y-82981249D02*
X161606250Y-84281251D01*
G75*
G02*
X161356251Y-84531250I-249999J0D01*
G01*
X160656249Y-84531250D01*
G75*
G02*
X160406250Y-84281251I0J249999D01*
G01*
X160406250Y-82981249D01*
G75*
G02*
X160656249Y-82731250I249999J0D01*
G01*
X161356251Y-82731250D01*
G75*
G02*
X161606250Y-82981249I0J-249999D01*
G01*
G37*
G36*
G01*
X168206250Y-82981249D02*
X168206250Y-84281251D01*
G75*
G02*
X167956251Y-84531250I-249999J0D01*
G01*
X167256249Y-84531250D01*
G75*
G02*
X167006250Y-84281251I0J249999D01*
G01*
X167006250Y-82981249D01*
G75*
G02*
X167256249Y-82731250I249999J0D01*
G01*
X167956251Y-82731250D01*
G75*
G02*
X168206250Y-82981249I0J-249999D01*
G01*
G37*
G36*
G01*
X162606250Y-79131250D02*
X162606250Y-80381250D01*
G75*
G02*
X162456250Y-80531250I-150000J0D01*
G01*
X162156250Y-80531250D01*
G75*
G02*
X162006250Y-80381250I0J150000D01*
G01*
X162006250Y-79131250D01*
G75*
G02*
X162156250Y-78981250I150000J0D01*
G01*
X162456250Y-78981250D01*
G75*
G02*
X162606250Y-79131250I0J-150000D01*
G01*
G37*
G36*
G01*
X163606250Y-79131250D02*
X163606250Y-80381250D01*
G75*
G02*
X163456250Y-80531250I-150000J0D01*
G01*
X163156250Y-80531250D01*
G75*
G02*
X163006250Y-80381250I0J150000D01*
G01*
X163006250Y-79131250D01*
G75*
G02*
X163156250Y-78981250I150000J0D01*
G01*
X163456250Y-78981250D01*
G75*
G02*
X163606250Y-79131250I0J-150000D01*
G01*
G37*
G36*
G01*
X164606250Y-79131250D02*
X164606250Y-80381250D01*
G75*
G02*
X164456250Y-80531250I-150000J0D01*
G01*
X164156250Y-80531250D01*
G75*
G02*
X164006250Y-80381250I0J150000D01*
G01*
X164006250Y-79131250D01*
G75*
G02*
X164156250Y-78981250I150000J0D01*
G01*
X164456250Y-78981250D01*
G75*
G02*
X164606250Y-79131250I0J-150000D01*
G01*
G37*
G36*
G01*
X165606250Y-79131250D02*
X165606250Y-80381250D01*
G75*
G02*
X165456250Y-80531250I-150000J0D01*
G01*
X165156250Y-80531250D01*
G75*
G02*
X165006250Y-80381250I0J150000D01*
G01*
X165006250Y-79131250D01*
G75*
G02*
X165156250Y-78981250I150000J0D01*
G01*
X165456250Y-78981250D01*
G75*
G02*
X165606250Y-79131250I0J-150000D01*
G01*
G37*
G36*
G01*
X166606250Y-79131250D02*
X166606250Y-80381250D01*
G75*
G02*
X166456250Y-80531250I-150000J0D01*
G01*
X166156250Y-80531250D01*
G75*
G02*
X166006250Y-80381250I0J150000D01*
G01*
X166006250Y-79131250D01*
G75*
G02*
X166156250Y-78981250I150000J0D01*
G01*
X166456250Y-78981250D01*
G75*
G02*
X166606250Y-79131250I0J-150000D01*
G01*
G37*
G36*
G01*
X167006250Y-112281251D02*
X167006250Y-110981249D01*
G75*
G02*
X167256249Y-110731250I249999J0D01*
G01*
X167956251Y-110731250D01*
G75*
G02*
X168206250Y-110981249I0J-249999D01*
G01*
X168206250Y-112281251D01*
G75*
G02*
X167956251Y-112531250I-249999J0D01*
G01*
X167256249Y-112531250D01*
G75*
G02*
X167006250Y-112281251I0J249999D01*
G01*
G37*
G36*
G01*
X160406250Y-112281251D02*
X160406250Y-110981249D01*
G75*
G02*
X160656249Y-110731250I249999J0D01*
G01*
X161356251Y-110731250D01*
G75*
G02*
X161606250Y-110981249I0J-249999D01*
G01*
X161606250Y-112281251D01*
G75*
G02*
X161356251Y-112531250I-249999J0D01*
G01*
X160656249Y-112531250D01*
G75*
G02*
X160406250Y-112281251I0J249999D01*
G01*
G37*
G36*
G01*
X166006250Y-116131250D02*
X166006250Y-114881250D01*
G75*
G02*
X166156250Y-114731250I150000J0D01*
G01*
X166456250Y-114731250D01*
G75*
G02*
X166606250Y-114881250I0J-150000D01*
G01*
X166606250Y-116131250D01*
G75*
G02*
X166456250Y-116281250I-150000J0D01*
G01*
X166156250Y-116281250D01*
G75*
G02*
X166006250Y-116131250I0J150000D01*
G01*
G37*
G36*
G01*
X165006250Y-116131250D02*
X165006250Y-114881250D01*
G75*
G02*
X165156250Y-114731250I150000J0D01*
G01*
X165456250Y-114731250D01*
G75*
G02*
X165606250Y-114881250I0J-150000D01*
G01*
X165606250Y-116131250D01*
G75*
G02*
X165456250Y-116281250I-150000J0D01*
G01*
X165156250Y-116281250D01*
G75*
G02*
X165006250Y-116131250I0J150000D01*
G01*
G37*
G36*
G01*
X164006250Y-116131250D02*
X164006250Y-114881250D01*
G75*
G02*
X164156250Y-114731250I150000J0D01*
G01*
X164456250Y-114731250D01*
G75*
G02*
X164606250Y-114881250I0J-150000D01*
G01*
X164606250Y-116131250D01*
G75*
G02*
X164456250Y-116281250I-150000J0D01*
G01*
X164156250Y-116281250D01*
G75*
G02*
X164006250Y-116131250I0J150000D01*
G01*
G37*
G36*
G01*
X163006250Y-116131250D02*
X163006250Y-114881250D01*
G75*
G02*
X163156250Y-114731250I150000J0D01*
G01*
X163456250Y-114731250D01*
G75*
G02*
X163606250Y-114881250I0J-150000D01*
G01*
X163606250Y-116131250D01*
G75*
G02*
X163456250Y-116281250I-150000J0D01*
G01*
X163156250Y-116281250D01*
G75*
G02*
X163006250Y-116131250I0J150000D01*
G01*
G37*
G36*
G01*
X162006250Y-116131250D02*
X162006250Y-114881250D01*
G75*
G02*
X162156250Y-114731250I150000J0D01*
G01*
X162456250Y-114731250D01*
G75*
G02*
X162606250Y-114881250I0J-150000D01*
G01*
X162606250Y-116131250D01*
G75*
G02*
X162456250Y-116281250I-150000J0D01*
G01*
X162156250Y-116281250D01*
G75*
G02*
X162006250Y-116131250I0J150000D01*
G01*
G37*
G36*
G01*
X90806250Y-112281251D02*
X90806250Y-110981249D01*
G75*
G02*
X91056249Y-110731250I249999J0D01*
G01*
X91756251Y-110731250D01*
G75*
G02*
X92006250Y-110981249I0J-249999D01*
G01*
X92006250Y-112281251D01*
G75*
G02*
X91756251Y-112531250I-249999J0D01*
G01*
X91056249Y-112531250D01*
G75*
G02*
X90806250Y-112281251I0J249999D01*
G01*
G37*
G36*
G01*
X84206250Y-112281251D02*
X84206250Y-110981249D01*
G75*
G02*
X84456249Y-110731250I249999J0D01*
G01*
X85156251Y-110731250D01*
G75*
G02*
X85406250Y-110981249I0J-249999D01*
G01*
X85406250Y-112281251D01*
G75*
G02*
X85156251Y-112531250I-249999J0D01*
G01*
X84456249Y-112531250D01*
G75*
G02*
X84206250Y-112281251I0J249999D01*
G01*
G37*
G36*
G01*
X89806250Y-116131250D02*
X89806250Y-114881250D01*
G75*
G02*
X89956250Y-114731250I150000J0D01*
G01*
X90256250Y-114731250D01*
G75*
G02*
X90406250Y-114881250I0J-150000D01*
G01*
X90406250Y-116131250D01*
G75*
G02*
X90256250Y-116281250I-150000J0D01*
G01*
X89956250Y-116281250D01*
G75*
G02*
X89806250Y-116131250I0J150000D01*
G01*
G37*
G36*
G01*
X88806250Y-116131250D02*
X88806250Y-114881250D01*
G75*
G02*
X88956250Y-114731250I150000J0D01*
G01*
X89256250Y-114731250D01*
G75*
G02*
X89406250Y-114881250I0J-150000D01*
G01*
X89406250Y-116131250D01*
G75*
G02*
X89256250Y-116281250I-150000J0D01*
G01*
X88956250Y-116281250D01*
G75*
G02*
X88806250Y-116131250I0J150000D01*
G01*
G37*
G36*
G01*
X87806250Y-116131250D02*
X87806250Y-114881250D01*
G75*
G02*
X87956250Y-114731250I150000J0D01*
G01*
X88256250Y-114731250D01*
G75*
G02*
X88406250Y-114881250I0J-150000D01*
G01*
X88406250Y-116131250D01*
G75*
G02*
X88256250Y-116281250I-150000J0D01*
G01*
X87956250Y-116281250D01*
G75*
G02*
X87806250Y-116131250I0J150000D01*
G01*
G37*
G36*
G01*
X86806250Y-116131250D02*
X86806250Y-114881250D01*
G75*
G02*
X86956250Y-114731250I150000J0D01*
G01*
X87256250Y-114731250D01*
G75*
G02*
X87406250Y-114881250I0J-150000D01*
G01*
X87406250Y-116131250D01*
G75*
G02*
X87256250Y-116281250I-150000J0D01*
G01*
X86956250Y-116281250D01*
G75*
G02*
X86806250Y-116131250I0J150000D01*
G01*
G37*
G36*
G01*
X85806250Y-116131250D02*
X85806250Y-114881250D01*
G75*
G02*
X85956250Y-114731250I150000J0D01*
G01*
X86256250Y-114731250D01*
G75*
G02*
X86406250Y-114881250I0J-150000D01*
G01*
X86406250Y-116131250D01*
G75*
G02*
X86256250Y-116281250I-150000J0D01*
G01*
X85956250Y-116281250D01*
G75*
G02*
X85806250Y-116131250I0J150000D01*
G01*
G37*
G36*
G01*
X85406250Y-82981249D02*
X85406250Y-84281251D01*
G75*
G02*
X85156251Y-84531250I-249999J0D01*
G01*
X84456249Y-84531250D01*
G75*
G02*
X84206250Y-84281251I0J249999D01*
G01*
X84206250Y-82981249D01*
G75*
G02*
X84456249Y-82731250I249999J0D01*
G01*
X85156251Y-82731250D01*
G75*
G02*
X85406250Y-82981249I0J-249999D01*
G01*
G37*
G36*
G01*
X92006250Y-82981249D02*
X92006250Y-84281251D01*
G75*
G02*
X91756251Y-84531250I-249999J0D01*
G01*
X91056249Y-84531250D01*
G75*
G02*
X90806250Y-84281251I0J249999D01*
G01*
X90806250Y-82981249D01*
G75*
G02*
X91056249Y-82731250I249999J0D01*
G01*
X91756251Y-82731250D01*
G75*
G02*
X92006250Y-82981249I0J-249999D01*
G01*
G37*
G36*
G01*
X86406250Y-79131250D02*
X86406250Y-80381250D01*
G75*
G02*
X86256250Y-80531250I-150000J0D01*
G01*
X85956250Y-80531250D01*
G75*
G02*
X85806250Y-80381250I0J150000D01*
G01*
X85806250Y-79131250D01*
G75*
G02*
X85956250Y-78981250I150000J0D01*
G01*
X86256250Y-78981250D01*
G75*
G02*
X86406250Y-79131250I0J-150000D01*
G01*
G37*
G36*
G01*
X87406250Y-79131250D02*
X87406250Y-80381250D01*
G75*
G02*
X87256250Y-80531250I-150000J0D01*
G01*
X86956250Y-80531250D01*
G75*
G02*
X86806250Y-80381250I0J150000D01*
G01*
X86806250Y-79131250D01*
G75*
G02*
X86956250Y-78981250I150000J0D01*
G01*
X87256250Y-78981250D01*
G75*
G02*
X87406250Y-79131250I0J-150000D01*
G01*
G37*
G36*
G01*
X88406250Y-79131250D02*
X88406250Y-80381250D01*
G75*
G02*
X88256250Y-80531250I-150000J0D01*
G01*
X87956250Y-80531250D01*
G75*
G02*
X87806250Y-80381250I0J150000D01*
G01*
X87806250Y-79131250D01*
G75*
G02*
X87956250Y-78981250I150000J0D01*
G01*
X88256250Y-78981250D01*
G75*
G02*
X88406250Y-79131250I0J-150000D01*
G01*
G37*
G36*
G01*
X89406250Y-79131250D02*
X89406250Y-80381250D01*
G75*
G02*
X89256250Y-80531250I-150000J0D01*
G01*
X88956250Y-80531250D01*
G75*
G02*
X88806250Y-80381250I0J150000D01*
G01*
X88806250Y-79131250D01*
G75*
G02*
X88956250Y-78981250I150000J0D01*
G01*
X89256250Y-78981250D01*
G75*
G02*
X89406250Y-79131250I0J-150000D01*
G01*
G37*
G36*
G01*
X90406250Y-79131250D02*
X90406250Y-80381250D01*
G75*
G02*
X90256250Y-80531250I-150000J0D01*
G01*
X89956250Y-80531250D01*
G75*
G02*
X89806250Y-80381250I0J150000D01*
G01*
X89806250Y-79131250D01*
G75*
G02*
X89956250Y-78981250I150000J0D01*
G01*
X90256250Y-78981250D01*
G75*
G02*
X90406250Y-79131250I0J-150000D01*
G01*
G37*
D17*
X223837500Y-45862500D03*
X223837500Y-41862500D03*
X28575000Y-41862500D03*
X28575000Y-45862500D03*
D15*
X119380000Y-93027500D03*
D16*
X114300000Y-90487500D03*
D15*
X116840000Y-86677500D03*
D14*
X114300000Y-85407500D03*
X114300000Y-95567500D03*
D18*
X116840000Y-83402500D03*
X119380000Y-96329500D03*
D19*
X79350000Y-90968750D03*
X73050000Y-90968750D03*
X79350000Y-94768750D03*
X73050000Y-94768750D03*
D13*
X5842000Y-113982500D03*
X-7085000Y-116522500D03*
D14*
X5080000Y-119062500D03*
X-5080000Y-119062500D03*
D15*
X-3810000Y-116522500D03*
D16*
X0Y-119062500D03*
D15*
X2540000Y-113982500D03*
D13*
X163004500Y-52070000D03*
X150077500Y-54610000D03*
D14*
X162242500Y-57150000D03*
X152082500Y-57150000D03*
D15*
X153352500Y-54610000D03*
D16*
X157162500Y-57150000D03*
D15*
X159702500Y-52070000D03*
X140652500Y-80645000D03*
D16*
X138112500Y-85725000D03*
D15*
X134302500Y-83185000D03*
D14*
X133032500Y-85725000D03*
X143192500Y-85725000D03*
D13*
X131027500Y-83185000D03*
X143954500Y-80645000D03*
D20*
X131127500Y-73787000D03*
D16*
X146367500Y-73787000D03*
X146367500Y-97663000D03*
D20*
X131127500Y-97663000D03*
D21*
X221062500Y-98568750D03*
X221062500Y-97468750D03*
X221062500Y-96368750D03*
X221062500Y-95268750D03*
X221062500Y-94168750D03*
X221062500Y-93068750D03*
X221062500Y-91968750D03*
X221062500Y-90868750D03*
X221062500Y-89768750D03*
X221062500Y-88668750D03*
X221062500Y-87568750D03*
X221062500Y-86468750D03*
X221062500Y-85368750D03*
D22*
X219812500Y-83868750D03*
X218712500Y-83868750D03*
X217612500Y-83868750D03*
X216512500Y-83868750D03*
X215412500Y-83868750D03*
X214312500Y-83868750D03*
X213212500Y-83868750D03*
X212112500Y-83868750D03*
X211012500Y-83868750D03*
X209912500Y-83868750D03*
X208812500Y-83868750D03*
D21*
X207562500Y-85368750D03*
X207562500Y-86468750D03*
X207562500Y-87568750D03*
X207562500Y-88668750D03*
X207562500Y-89768750D03*
X207562500Y-90868750D03*
X207562500Y-91968750D03*
X207562500Y-93068750D03*
X207562500Y-94168750D03*
X207562500Y-95268750D03*
X207562500Y-96368750D03*
X207562500Y-97468750D03*
X207562500Y-98568750D03*
D13*
X43942000Y-68738750D03*
X31015000Y-71278750D03*
D14*
X43180000Y-73818750D03*
X33020000Y-73818750D03*
D15*
X34290000Y-71278750D03*
D16*
X38100000Y-73818750D03*
D15*
X40640000Y-68738750D03*
D23*
X242887500Y-42862500D03*
G36*
G01*
X243512501Y-45462500D02*
X242262499Y-45462500D01*
G75*
G02*
X242012500Y-45212501I0J249999D01*
G01*
X242012500Y-44512499D01*
G75*
G02*
X242262499Y-44262500I249999J0D01*
G01*
X243512501Y-44262500D01*
G75*
G02*
X243762500Y-44512499I0J-249999D01*
G01*
X243762500Y-45212501D01*
G75*
G02*
X243512501Y-45462500I-249999J0D01*
G01*
G37*
X9525000Y-44862500D03*
G36*
G01*
X8899999Y-42262500D02*
X10150001Y-42262500D01*
G75*
G02*
X10400000Y-42512499I0J-249999D01*
G01*
X10400000Y-43212501D01*
G75*
G02*
X10150001Y-43462500I-249999J0D01*
G01*
X8899999Y-43462500D01*
G75*
G02*
X8650000Y-43212501I0J249999D01*
G01*
X8650000Y-42512499D01*
G75*
G02*
X8899999Y-42262500I249999J0D01*
G01*
G37*
D24*
X200501250Y-100012500D03*
X197961250Y-100012500D03*
X195421250Y-100012500D03*
D25*
X192881250Y-100012500D03*
D26*
X97790000Y-8985250D03*
X96520000Y-8985250D03*
X92710000Y-8985250D03*
X93980000Y-8985250D03*
X95250000Y-8985250D03*
X92710000Y-10858500D03*
X93980000Y-10858500D03*
X97790000Y-10858500D03*
X96520000Y-10858500D03*
X95250000Y-10858500D03*
D13*
X5842000Y5080000D03*
X-7085000Y2540000D03*
D14*
X5080000Y0D03*
X-5080000Y0D03*
D15*
X-3810000Y2540000D03*
D16*
X0Y0D03*
D15*
X2540000Y5080000D03*
D26*
X19050000Y-8985250D03*
X17780000Y-8985250D03*
X16510000Y-8985250D03*
X20320000Y-8985250D03*
X21590000Y-8985250D03*
D13*
X24892000Y-13970000D03*
X11965000Y-16510000D03*
D14*
X24130000Y-19050000D03*
X13970000Y-19050000D03*
D15*
X15240000Y-16510000D03*
D16*
X19050000Y-19050000D03*
D15*
X21590000Y-13970000D03*
D13*
X182054500Y7461250D03*
X169127500Y4921250D03*
D14*
X181292500Y2381250D03*
X171132500Y2381250D03*
D15*
X172402500Y4921250D03*
D16*
X176212500Y2381250D03*
D15*
X178752500Y7461250D03*
D26*
X233362500Y-10858500D03*
X234632500Y-10858500D03*
X235902500Y-10858500D03*
X232092500Y-10858500D03*
X230822500Y-10858500D03*
D13*
X220154500Y-68738750D03*
X207227500Y-71278750D03*
D14*
X219392500Y-73818750D03*
X209232500Y-73818750D03*
D15*
X210502500Y-71278750D03*
D16*
X214312500Y-73818750D03*
D15*
X216852500Y-68738750D03*
D13*
X258254500Y-71120000D03*
X245327500Y-73660000D03*
D14*
X257492500Y-76200000D03*
X247332500Y-76200000D03*
D15*
X248602500Y-73660000D03*
D16*
X252412500Y-76200000D03*
D15*
X254952500Y-71120000D03*
D27*
X11906250Y-80900000D03*
X11906250Y-84200000D03*
D21*
X49612500Y-98568750D03*
X49612500Y-97468750D03*
X49612500Y-96368750D03*
X49612500Y-95268750D03*
X49612500Y-94168750D03*
X49612500Y-93068750D03*
X49612500Y-91968750D03*
X49612500Y-90868750D03*
X49612500Y-89768750D03*
X49612500Y-88668750D03*
X49612500Y-87568750D03*
X49612500Y-86468750D03*
X49612500Y-85368750D03*
D22*
X48362500Y-83868750D03*
X47262500Y-83868750D03*
X46162500Y-83868750D03*
X45062500Y-83868750D03*
X43962500Y-83868750D03*
X42862500Y-83868750D03*
X41762500Y-83868750D03*
X40662500Y-83868750D03*
X39562500Y-83868750D03*
X38462500Y-83868750D03*
X37362500Y-83868750D03*
D21*
X36112500Y-85368750D03*
X36112500Y-86468750D03*
X36112500Y-87568750D03*
X36112500Y-88668750D03*
X36112500Y-89768750D03*
X36112500Y-90868750D03*
X36112500Y-91968750D03*
X36112500Y-93068750D03*
X36112500Y-94168750D03*
X36112500Y-95268750D03*
X36112500Y-96368750D03*
X36112500Y-97468750D03*
X36112500Y-98568750D03*
D13*
X220154500Y-113982500D03*
X207227500Y-116522500D03*
D14*
X219392500Y-119062500D03*
X209232500Y-119062500D03*
D15*
X210502500Y-116522500D03*
D16*
X214312500Y-119062500D03*
D15*
X216852500Y-113982500D03*
D13*
X258254500Y-113982500D03*
X245327500Y-116522500D03*
D14*
X257492500Y-119062500D03*
X247332500Y-119062500D03*
D15*
X248602500Y-116522500D03*
D16*
X252412500Y-119062500D03*
D15*
X254952500Y-113982500D03*
D26*
X19050000Y-85979000D03*
X17780000Y-85979000D03*
X16510000Y-85979000D03*
X20320000Y-85979000D03*
X21590000Y-85979000D03*
X19050000Y-91027250D03*
X20320000Y-91027250D03*
X21590000Y-91027250D03*
X17780000Y-91027250D03*
X16510000Y-91027250D03*
G36*
G01*
X229843752Y-82150000D02*
X228943748Y-82150000D01*
G75*
G02*
X228693750Y-81900002I0J249998D01*
G01*
X228693750Y-81374998D01*
G75*
G02*
X228943748Y-81125000I249998J0D01*
G01*
X229843752Y-81125000D01*
G75*
G02*
X230093750Y-81374998I0J-249998D01*
G01*
X230093750Y-81900002D01*
G75*
G02*
X229843752Y-82150000I-249998J0D01*
G01*
G37*
G36*
G01*
X229843752Y-83975000D02*
X228943748Y-83975000D01*
G75*
G02*
X228693750Y-83725002I0J249998D01*
G01*
X228693750Y-83199998D01*
G75*
G02*
X228943748Y-82950000I249998J0D01*
G01*
X229843752Y-82950000D01*
G75*
G02*
X230093750Y-83199998I0J-249998D01*
G01*
X230093750Y-83725002D01*
G75*
G02*
X229843752Y-83975000I-249998J0D01*
G01*
G37*
G36*
G01*
X251275002Y-82150000D02*
X250374998Y-82150000D01*
G75*
G02*
X250125000Y-81900002I0J249998D01*
G01*
X250125000Y-81374998D01*
G75*
G02*
X250374998Y-81125000I249998J0D01*
G01*
X251275002Y-81125000D01*
G75*
G02*
X251525000Y-81374998I0J-249998D01*
G01*
X251525000Y-81900002D01*
G75*
G02*
X251275002Y-82150000I-249998J0D01*
G01*
G37*
G36*
G01*
X251275002Y-83975000D02*
X250374998Y-83975000D01*
G75*
G02*
X250125000Y-83725002I0J249998D01*
G01*
X250125000Y-83199998D01*
G75*
G02*
X250374998Y-82950000I249998J0D01*
G01*
X251275002Y-82950000D01*
G75*
G02*
X251525000Y-83199998I0J-249998D01*
G01*
X251525000Y-83725002D01*
G75*
G02*
X251275002Y-83975000I-249998J0D01*
G01*
G37*
X233362500Y-85979000D03*
X232092500Y-85979000D03*
X230822500Y-85979000D03*
X234632500Y-85979000D03*
X235902500Y-85979000D03*
X233362500Y-91027250D03*
X234632500Y-91027250D03*
X235902500Y-91027250D03*
X232092500Y-91027250D03*
X230822500Y-91027250D03*
D28*
X135612500Y-35575000D03*
X140612500Y-35575000D03*
D29*
X132512500Y-28575000D03*
X143712500Y-28575000D03*
D28*
X135612500Y-21075000D03*
X138112500Y-21075000D03*
D30*
X140612500Y-21075000D03*
D28*
X107300000Y-28456250D03*
X107300000Y-33456250D03*
D31*
X114300000Y-25356250D03*
X114300000Y-36556250D03*
D28*
X121800000Y-28456250D03*
X121800000Y-30956250D03*
D30*
X121800000Y-33456250D03*
D26*
X145097500Y-109283500D03*
X146367500Y-109283500D03*
X150177500Y-109283500D03*
X148907500Y-109283500D03*
X147637500Y-109283500D03*
X150177500Y-105029000D03*
X148907500Y-105029000D03*
X145097500Y-105029000D03*
X146367500Y-105029000D03*
X147637500Y-105029000D03*
D13*
X184435750Y-111601250D03*
X171508750Y-114141250D03*
D14*
X183673750Y-116681250D03*
X173513750Y-116681250D03*
D15*
X174783750Y-114141250D03*
D16*
X178593750Y-116681250D03*
D15*
X181133750Y-111601250D03*
D18*
X152082500Y-115601750D03*
X154622500Y-128528750D03*
D14*
X157162500Y-116363750D03*
X157162500Y-126523750D03*
D15*
X154622500Y-125253750D03*
D16*
X157162500Y-121443750D03*
D15*
X152082500Y-118903750D03*
D18*
X133032500Y-115601750D03*
X135572500Y-128528750D03*
D14*
X138112500Y-116363750D03*
X138112500Y-126523750D03*
D15*
X135572500Y-125253750D03*
D16*
X138112500Y-121443750D03*
D15*
X133032500Y-118903750D03*
D26*
X104775000Y-105029000D03*
X103505000Y-105029000D03*
X102235000Y-105029000D03*
X106045000Y-105029000D03*
X107315000Y-105029000D03*
X104775000Y-109283500D03*
X106045000Y-109283500D03*
X107315000Y-109283500D03*
X103505000Y-109283500D03*
X102235000Y-109283500D03*
X235902500Y-8985250D03*
X234632500Y-8985250D03*
X230822500Y-8985250D03*
X232092500Y-8985250D03*
X233362500Y-8985250D03*
X154622500Y-10858500D03*
X155892500Y-10858500D03*
X159702500Y-10858500D03*
X158432500Y-10858500D03*
X157162500Y-10858500D03*
X159702500Y-8985250D03*
X158432500Y-8985250D03*
X154622500Y-8985250D03*
X155892500Y-8985250D03*
X157162500Y-8985250D03*
X16510000Y-10858500D03*
X17780000Y-10858500D03*
X21590000Y-10858500D03*
X20320000Y-10858500D03*
X19050000Y-10858500D03*
X124079000Y-32385000D03*
X124079000Y-33655000D03*
X124079000Y-37465000D03*
X124079000Y-36195000D03*
X124079000Y-34925000D03*
X128333500Y-37465000D03*
X128333500Y-36195000D03*
X128333500Y-32385000D03*
X128333500Y-33655000D03*
X128333500Y-34925000D03*
X128333500Y-91440000D03*
X128333500Y-90170000D03*
X128333500Y-86360000D03*
X128333500Y-87630000D03*
X128333500Y-88900000D03*
X124079000Y-86360000D03*
X124079000Y-87630000D03*
X124079000Y-91440000D03*
X124079000Y-90170000D03*
X124079000Y-88900000D03*
D19*
X179362500Y-90968750D03*
X173062500Y-90968750D03*
X179362500Y-94768750D03*
X173062500Y-94768750D03*
D18*
X119380000Y-127285750D03*
X116840000Y-114358750D03*
D14*
X114300000Y-126523750D03*
X114300000Y-116363750D03*
D15*
X116840000Y-117633750D03*
D16*
X114300000Y-121443750D03*
D15*
X119380000Y-123983750D03*
D18*
X100330000Y-127285750D03*
X97790000Y-114358750D03*
D14*
X95250000Y-126523750D03*
X95250000Y-116363750D03*
D15*
X97790000Y-117633750D03*
D16*
X95250000Y-121443750D03*
D15*
X100330000Y-123983750D03*
D13*
X79660750Y-111601250D03*
X66733750Y-114141250D03*
D14*
X78898750Y-116681250D03*
X68738750Y-116681250D03*
D15*
X70008750Y-114141250D03*
D16*
X73818750Y-116681250D03*
D15*
X76358750Y-111601250D03*
D13*
X120142000Y-4445000D03*
X107215000Y-6985000D03*
D14*
X119380000Y-9525000D03*
X109220000Y-9525000D03*
D15*
X110490000Y-6985000D03*
D16*
X114300000Y-9525000D03*
D15*
X116840000Y-4445000D03*
D27*
X160337500Y-36450000D03*
X160337500Y-39750000D03*
D16*
X180943250Y-84613750D03*
X204819250Y-84613750D03*
D20*
X180943250Y-99853750D03*
X204819250Y-99853750D03*
D13*
X198723250Y-87788750D03*
X185796250Y-90328750D03*
D14*
X197961250Y-92868750D03*
X187801250Y-92868750D03*
D15*
X189071250Y-90328750D03*
D16*
X192881250Y-92868750D03*
D15*
X195421250Y-87788750D03*
D13*
X201104500Y-66357500D03*
X188177500Y-68897500D03*
D14*
X200342500Y-71437500D03*
X190182500Y-71437500D03*
D15*
X191452500Y-68897500D03*
D16*
X195262500Y-71437500D03*
D15*
X197802500Y-66357500D03*
X133032500Y-49847500D03*
D16*
X138112500Y-52387500D03*
D15*
X135572500Y-56197500D03*
D14*
X138112500Y-57467500D03*
X138112500Y-47307500D03*
D18*
X135572500Y-59472500D03*
X133032500Y-46545500D03*
X119380000Y-65373250D03*
X116840000Y-52446250D03*
D14*
X114300000Y-64611250D03*
X114300000Y-54451250D03*
D15*
X116840000Y-55721250D03*
D16*
X114300000Y-59531250D03*
D15*
X119380000Y-62071250D03*
D18*
X119380000Y-36798250D03*
X116840000Y-23871250D03*
D14*
X114300000Y-36036250D03*
X114300000Y-25876250D03*
D15*
X116840000Y-27146250D03*
D16*
X114300000Y-30956250D03*
D15*
X119380000Y-33496250D03*
D16*
X52355750Y-84613750D03*
X76231750Y-84613750D03*
D20*
X52355750Y-99853750D03*
X76231750Y-99853750D03*
D13*
X70135750Y-87788750D03*
X57208750Y-90328750D03*
D14*
X69373750Y-92868750D03*
X59213750Y-92868750D03*
D15*
X60483750Y-90328750D03*
D16*
X64293750Y-92868750D03*
D15*
X66833750Y-87788750D03*
D32*
X255330000Y-28625000D03*
X255330000Y-22175000D03*
X255330000Y-27850000D03*
X255330000Y-22950000D03*
D33*
X255330000Y-23650000D03*
X255330000Y-27150000D03*
X255330000Y-24150000D03*
X255330000Y-26650000D03*
X255330000Y-24650000D03*
X255330000Y-26150000D03*
X255330000Y-25650000D03*
X255330000Y-25150000D03*
D34*
X257275000Y-28290000D03*
X257275000Y-22510000D03*
D32*
X-2917500Y-22175000D03*
X-2917500Y-28625000D03*
X-2917500Y-22950000D03*
X-2917500Y-27850000D03*
D33*
X-2917500Y-27150000D03*
X-2917500Y-23650000D03*
X-2917500Y-26650000D03*
X-2917500Y-24150000D03*
X-2917500Y-26150000D03*
X-2917500Y-24650000D03*
X-2917500Y-25150000D03*
X-2917500Y-25650000D03*
D34*
X-4862500Y-22510000D03*
X-4862500Y-28290000D03*
D35*
X234950000Y-83550000D03*
X235900000Y-81550000D03*
X234000000Y-81550000D03*
D36*
X248750000Y-83500000D03*
X248750000Y-81600000D03*
X246550000Y-81600000D03*
X246550000Y-82550000D03*
X246550000Y-83500000D03*
X3662500Y-81600000D03*
X3662500Y-83500000D03*
X5862500Y-83500000D03*
X5862500Y-82550000D03*
X5862500Y-81600000D03*
D35*
X17462500Y-83550000D03*
X18412500Y-81550000D03*
X16512500Y-81550000D03*
D13*
X258254500Y-52070000D03*
X245327500Y-54610000D03*
D14*
X257492500Y-57150000D03*
X247332500Y-57150000D03*
D15*
X248602500Y-54610000D03*
D16*
X252412500Y-57150000D03*
D15*
X254952500Y-52070000D03*
D13*
X258254500Y-33020000D03*
X245327500Y-35560000D03*
D14*
X257492500Y-38100000D03*
X247332500Y-38100000D03*
D15*
X248602500Y-35560000D03*
D16*
X252412500Y-38100000D03*
D15*
X254952500Y-33020000D03*
D13*
X258254500Y-13970000D03*
X245327500Y-16510000D03*
D14*
X257492500Y-19050000D03*
X247332500Y-19050000D03*
D15*
X248602500Y-16510000D03*
D16*
X252412500Y-19050000D03*
D15*
X254952500Y-13970000D03*
D13*
X258254500Y5080000D03*
X245327500Y2540000D03*
D14*
X257492500Y0D03*
X247332500Y0D03*
D15*
X248602500Y2540000D03*
D16*
X252412500Y0D03*
D15*
X254952500Y5080000D03*
D13*
X239204500Y-71120000D03*
X226277500Y-73660000D03*
D14*
X238442500Y-76200000D03*
X228282500Y-76200000D03*
D15*
X229552500Y-73660000D03*
D16*
X233362500Y-76200000D03*
D15*
X235902500Y-71120000D03*
D13*
X239204500Y-33020000D03*
X226277500Y-35560000D03*
D14*
X238442500Y-38100000D03*
X228282500Y-38100000D03*
D15*
X229552500Y-35560000D03*
D16*
X233362500Y-38100000D03*
D15*
X235902500Y-33020000D03*
D13*
X239204500Y-13970000D03*
X226277500Y-16510000D03*
D14*
X238442500Y-19050000D03*
X228282500Y-19050000D03*
D15*
X229552500Y-16510000D03*
D16*
X233362500Y-19050000D03*
D15*
X235902500Y-13970000D03*
D13*
X239204500Y5080000D03*
X226277500Y2540000D03*
D14*
X238442500Y0D03*
X228282500Y0D03*
D15*
X229552500Y2540000D03*
D16*
X233362500Y0D03*
D15*
X235902500Y5080000D03*
D13*
X220154500Y-49688750D03*
X207227500Y-52228750D03*
D14*
X219392500Y-54768750D03*
X209232500Y-54768750D03*
D15*
X210502500Y-52228750D03*
D16*
X214312500Y-54768750D03*
D15*
X216852500Y-49688750D03*
D13*
X220154500Y-30638750D03*
X207227500Y-33178750D03*
D14*
X219392500Y-35718750D03*
X209232500Y-35718750D03*
D15*
X210502500Y-33178750D03*
D16*
X214312500Y-35718750D03*
D15*
X216852500Y-30638750D03*
D13*
X220154500Y-11588750D03*
X207227500Y-14128750D03*
D14*
X219392500Y-16668750D03*
X209232500Y-16668750D03*
D15*
X210502500Y-14128750D03*
D16*
X214312500Y-16668750D03*
D15*
X216852500Y-11588750D03*
D13*
X220154500Y7461250D03*
X207227500Y4921250D03*
D14*
X219392500Y2381250D03*
X209232500Y2381250D03*
D15*
X210502500Y4921250D03*
D16*
X214312500Y2381250D03*
D15*
X216852500Y7461250D03*
D13*
X201104500Y-47307500D03*
X188177500Y-49847500D03*
D14*
X200342500Y-52387500D03*
X190182500Y-52387500D03*
D15*
X191452500Y-49847500D03*
D16*
X195262500Y-52387500D03*
D15*
X197802500Y-47307500D03*
D13*
X201104500Y-28257500D03*
X188177500Y-30797500D03*
D14*
X200342500Y-33337500D03*
X190182500Y-33337500D03*
D15*
X191452500Y-30797500D03*
D16*
X195262500Y-33337500D03*
D15*
X197802500Y-28257500D03*
D13*
X201104500Y-9207500D03*
X188177500Y-11747500D03*
D14*
X200342500Y-14287500D03*
X190182500Y-14287500D03*
D15*
X191452500Y-11747500D03*
D16*
X195262500Y-14287500D03*
D15*
X197802500Y-9207500D03*
D13*
X201104500Y9842500D03*
X188177500Y7302500D03*
D14*
X200342500Y4762500D03*
X190182500Y4762500D03*
D15*
X191452500Y7302500D03*
D16*
X195262500Y4762500D03*
D15*
X197802500Y9842500D03*
D13*
X182054500Y-68738750D03*
X169127500Y-71278750D03*
D14*
X181292500Y-73818750D03*
X171132500Y-73818750D03*
D15*
X172402500Y-71278750D03*
D16*
X176212500Y-73818750D03*
D15*
X178752500Y-68738750D03*
D13*
X182054500Y-49688750D03*
X169127500Y-52228750D03*
D14*
X181292500Y-54768750D03*
X171132500Y-54768750D03*
D15*
X172402500Y-52228750D03*
D16*
X176212500Y-54768750D03*
D15*
X178752500Y-49688750D03*
D13*
X182054500Y-30638750D03*
X169127500Y-33178750D03*
D14*
X181292500Y-35718750D03*
X171132500Y-35718750D03*
D15*
X172402500Y-33178750D03*
D16*
X176212500Y-35718750D03*
D15*
X178752500Y-30638750D03*
D13*
X182054500Y-11588750D03*
X169127500Y-14128750D03*
D14*
X181292500Y-16668750D03*
X171132500Y-16668750D03*
D15*
X172402500Y-14128750D03*
D16*
X176212500Y-16668750D03*
D15*
X178752500Y-11588750D03*
D13*
X239204500Y-113982500D03*
X226277500Y-116522500D03*
D14*
X238442500Y-119062500D03*
X228282500Y-119062500D03*
D15*
X229552500Y-116522500D03*
D16*
X233362500Y-119062500D03*
D15*
X235902500Y-113982500D03*
D13*
X163004500Y-90170000D03*
X150077500Y-92710000D03*
D14*
X162242500Y-95250000D03*
X152082500Y-95250000D03*
D15*
X153352500Y-92710000D03*
D16*
X157162500Y-95250000D03*
D15*
X159702500Y-90170000D03*
D13*
X163004500Y-71120000D03*
X150077500Y-73660000D03*
D14*
X162242500Y-76200000D03*
X152082500Y-76200000D03*
D15*
X153352500Y-73660000D03*
D16*
X157162500Y-76200000D03*
D15*
X159702500Y-71120000D03*
D13*
X163004500Y-33020000D03*
X150077500Y-35560000D03*
D14*
X162242500Y-38100000D03*
X152082500Y-38100000D03*
D15*
X153352500Y-35560000D03*
D16*
X157162500Y-38100000D03*
D15*
X159702500Y-33020000D03*
D13*
X163004500Y-13970000D03*
X150077500Y-16510000D03*
D14*
X162242500Y-19050000D03*
X152082500Y-19050000D03*
D15*
X153352500Y-16510000D03*
D16*
X157162500Y-19050000D03*
D15*
X159702500Y-13970000D03*
D13*
X163004500Y5080000D03*
X150077500Y2540000D03*
D14*
X162242500Y0D03*
X152082500Y0D03*
D15*
X153352500Y2540000D03*
D16*
X157162500Y0D03*
D15*
X159702500Y5080000D03*
D13*
X143954500Y-23495000D03*
X131027500Y-26035000D03*
D14*
X143192500Y-28575000D03*
X133032500Y-28575000D03*
D15*
X134302500Y-26035000D03*
D16*
X138112500Y-28575000D03*
D15*
X140652500Y-23495000D03*
D13*
X143954500Y-4445000D03*
X131027500Y-6985000D03*
D14*
X143192500Y-9525000D03*
X133032500Y-9525000D03*
D15*
X134302500Y-6985000D03*
D16*
X138112500Y-9525000D03*
D15*
X140652500Y-4445000D03*
D37*
X260825000Y-82563750D03*
X253525000Y-82563750D03*
X253525000Y-84773750D03*
X260825000Y-84773750D03*
D38*
X254925000Y-81913750D03*
X256425000Y-81913750D03*
X259425000Y-81913750D03*
D39*
X255675000Y-83673750D03*
X258675000Y-83673750D03*
D13*
X101092000Y-90170000D03*
X88165000Y-92710000D03*
D14*
X100330000Y-95250000D03*
X90170000Y-95250000D03*
D15*
X91440000Y-92710000D03*
D16*
X95250000Y-95250000D03*
D15*
X97790000Y-90170000D03*
D37*
X-1112500Y-82563750D03*
X-8412500Y-82563750D03*
X-8412500Y-84773750D03*
X-1112500Y-84773750D03*
D38*
X-7012500Y-81913750D03*
X-5512500Y-81913750D03*
X-2512500Y-81913750D03*
D39*
X-6262500Y-83673750D03*
X-3262500Y-83673750D03*
D13*
X101092000Y-71120000D03*
X88165000Y-73660000D03*
D14*
X100330000Y-76200000D03*
X90170000Y-76200000D03*
D15*
X91440000Y-73660000D03*
D16*
X95250000Y-76200000D03*
D15*
X97790000Y-71120000D03*
D13*
X101092000Y-52070000D03*
X88165000Y-54610000D03*
D14*
X100330000Y-57150000D03*
X90170000Y-57150000D03*
D15*
X91440000Y-54610000D03*
D16*
X95250000Y-57150000D03*
D15*
X97790000Y-52070000D03*
D13*
X101092000Y-33020000D03*
X88165000Y-35560000D03*
D14*
X100330000Y-38100000D03*
X90170000Y-38100000D03*
D15*
X91440000Y-35560000D03*
D16*
X95250000Y-38100000D03*
D15*
X97790000Y-33020000D03*
D13*
X101092000Y-13970000D03*
X88165000Y-16510000D03*
D14*
X100330000Y-19050000D03*
X90170000Y-19050000D03*
D15*
X91440000Y-16510000D03*
D16*
X95250000Y-19050000D03*
D15*
X97790000Y-13970000D03*
D13*
X101092000Y5080000D03*
X88165000Y2540000D03*
D14*
X100330000Y0D03*
X90170000Y0D03*
D15*
X91440000Y2540000D03*
D16*
X95250000Y0D03*
D15*
X97790000Y5080000D03*
D13*
X82042000Y-68738750D03*
X69115000Y-71278750D03*
D14*
X81280000Y-73818750D03*
X71120000Y-73818750D03*
D15*
X72390000Y-71278750D03*
D16*
X76200000Y-73818750D03*
D15*
X78740000Y-68738750D03*
D13*
X82042000Y-49688750D03*
X69115000Y-52228750D03*
D14*
X81280000Y-54768750D03*
X71120000Y-54768750D03*
D15*
X72390000Y-52228750D03*
D16*
X76200000Y-54768750D03*
D15*
X78740000Y-49688750D03*
D13*
X82042000Y-30638750D03*
X69115000Y-33178750D03*
D14*
X81280000Y-35718750D03*
X71120000Y-35718750D03*
D15*
X72390000Y-33178750D03*
D16*
X76200000Y-35718750D03*
D15*
X78740000Y-30638750D03*
D13*
X82042000Y-11588750D03*
X69115000Y-14128750D03*
D14*
X81280000Y-16668750D03*
X71120000Y-16668750D03*
D15*
X72390000Y-14128750D03*
D16*
X76200000Y-16668750D03*
D15*
X78740000Y-11588750D03*
D13*
X82042000Y7461250D03*
X69115000Y4921250D03*
D14*
X81280000Y2381250D03*
X71120000Y2381250D03*
D15*
X72390000Y4921250D03*
D16*
X76200000Y2381250D03*
D15*
X78740000Y7461250D03*
D13*
X62992000Y-66357500D03*
X50065000Y-68897500D03*
D14*
X62230000Y-71437500D03*
X52070000Y-71437500D03*
D15*
X53340000Y-68897500D03*
D16*
X57150000Y-71437500D03*
D15*
X59690000Y-66357500D03*
D13*
X62992000Y-47307500D03*
X50065000Y-49847500D03*
D14*
X62230000Y-52387500D03*
X52070000Y-52387500D03*
D15*
X53340000Y-49847500D03*
D16*
X57150000Y-52387500D03*
D15*
X59690000Y-47307500D03*
D13*
X62992000Y-28257500D03*
X50065000Y-30797500D03*
D14*
X62230000Y-33337500D03*
X52070000Y-33337500D03*
D15*
X53340000Y-30797500D03*
D16*
X57150000Y-33337500D03*
D15*
X59690000Y-28257500D03*
D13*
X62992000Y-9207500D03*
X50065000Y-11747500D03*
D14*
X62230000Y-14287500D03*
X52070000Y-14287500D03*
D15*
X53340000Y-11747500D03*
D16*
X57150000Y-14287500D03*
D15*
X59690000Y-9207500D03*
D13*
X62992000Y9842500D03*
X50065000Y7302500D03*
D14*
X62230000Y4762500D03*
X52070000Y4762500D03*
D15*
X53340000Y7302500D03*
D16*
X57150000Y4762500D03*
D15*
X59690000Y9842500D03*
D13*
X43942000Y-49688750D03*
X31015000Y-52228750D03*
D14*
X43180000Y-54768750D03*
X33020000Y-54768750D03*
D15*
X34290000Y-52228750D03*
D16*
X38100000Y-54768750D03*
D15*
X40640000Y-49688750D03*
D13*
X43942000Y-30638750D03*
X31015000Y-33178750D03*
D14*
X43180000Y-35718750D03*
X33020000Y-35718750D03*
D15*
X34290000Y-33178750D03*
D16*
X38100000Y-35718750D03*
D15*
X40640000Y-30638750D03*
D13*
X43942000Y-11588750D03*
X31015000Y-14128750D03*
D14*
X43180000Y-16668750D03*
X33020000Y-16668750D03*
D15*
X34290000Y-14128750D03*
D16*
X38100000Y-16668750D03*
D15*
X40640000Y-11588750D03*
D13*
X43942000Y7461250D03*
X31015000Y4921250D03*
D14*
X43180000Y2381250D03*
X33020000Y2381250D03*
D15*
X34290000Y4921250D03*
D16*
X38100000Y2381250D03*
D15*
X40640000Y7461250D03*
D13*
X43942000Y-113982500D03*
X31015000Y-116522500D03*
D14*
X43180000Y-119062500D03*
X33020000Y-119062500D03*
D15*
X34290000Y-116522500D03*
D16*
X38100000Y-119062500D03*
D15*
X40640000Y-113982500D03*
D13*
X24892000Y-71120000D03*
X11965000Y-73660000D03*
D14*
X24130000Y-76200000D03*
X13970000Y-76200000D03*
D15*
X15240000Y-73660000D03*
D16*
X19050000Y-76200000D03*
D15*
X21590000Y-71120000D03*
D13*
X24892000Y-52070000D03*
X11965000Y-54610000D03*
D14*
X24130000Y-57150000D03*
X13970000Y-57150000D03*
D15*
X15240000Y-54610000D03*
D16*
X19050000Y-57150000D03*
D15*
X21590000Y-52070000D03*
D13*
X24892000Y-33020000D03*
X11965000Y-35560000D03*
D14*
X24130000Y-38100000D03*
X13970000Y-38100000D03*
D15*
X15240000Y-35560000D03*
D16*
X19050000Y-38100000D03*
D15*
X21590000Y-33020000D03*
D13*
X24892000Y5080000D03*
X11965000Y2540000D03*
D14*
X24130000Y0D03*
X13970000Y0D03*
D15*
X15240000Y2540000D03*
D16*
X19050000Y0D03*
D15*
X21590000Y5080000D03*
D13*
X24892000Y-113982500D03*
X11965000Y-116522500D03*
D14*
X24130000Y-119062500D03*
X13970000Y-119062500D03*
D15*
X15240000Y-116522500D03*
D16*
X19050000Y-119062500D03*
D15*
X21590000Y-113982500D03*
D13*
X13208000Y-105092500D03*
X26135000Y-102552500D03*
D14*
X13970000Y-100012500D03*
X24130000Y-100012500D03*
D15*
X22860000Y-102552500D03*
D16*
X19050000Y-100012500D03*
D15*
X16510000Y-105092500D03*
D13*
X5842000Y-71120000D03*
X-7085000Y-73660000D03*
D14*
X5080000Y-76200000D03*
X-5080000Y-76200000D03*
D15*
X-3810000Y-73660000D03*
D16*
X0Y-76200000D03*
D15*
X2540000Y-71120000D03*
D13*
X5842000Y-52070000D03*
X-7085000Y-54610000D03*
D14*
X5080000Y-57150000D03*
X-5080000Y-57150000D03*
D15*
X-3810000Y-54610000D03*
D16*
X0Y-57150000D03*
D15*
X2540000Y-52070000D03*
D13*
X5842000Y-33020000D03*
X-7085000Y-35560000D03*
D14*
X5080000Y-38100000D03*
X-5080000Y-38100000D03*
D15*
X-3810000Y-35560000D03*
D16*
X0Y-38100000D03*
D15*
X2540000Y-33020000D03*
D13*
X5842000Y-13970000D03*
X-7085000Y-16510000D03*
D14*
X5080000Y-19050000D03*
X-5080000Y-19050000D03*
D15*
X-3810000Y-16510000D03*
D16*
X0Y-19050000D03*
D15*
X2540000Y-13970000D03*
G36*
G01*
X243287500Y-69506252D02*
X243287500Y-68606248D01*
G75*
G02*
X243537498Y-68356250I249998J0D01*
G01*
X244062502Y-68356250D01*
G75*
G02*
X244312500Y-68606248I0J-249998D01*
G01*
X244312500Y-69506252D01*
G75*
G02*
X244062502Y-69756250I-249998J0D01*
G01*
X243537498Y-69756250D01*
G75*
G02*
X243287500Y-69506252I0J249998D01*
G01*
G37*
G36*
G01*
X241462500Y-69506252D02*
X241462500Y-68606248D01*
G75*
G02*
X241712498Y-68356250I249998J0D01*
G01*
X242237502Y-68356250D01*
G75*
G02*
X242487500Y-68606248I0J-249998D01*
G01*
X242487500Y-69506252D01*
G75*
G02*
X242237502Y-69756250I-249998J0D01*
G01*
X241712498Y-69756250D01*
G75*
G02*
X241462500Y-69506252I0J249998D01*
G01*
G37*
G36*
G01*
X135337500Y-103637502D02*
X135337500Y-102737498D01*
G75*
G02*
X135587498Y-102487500I249998J0D01*
G01*
X136112502Y-102487500D01*
G75*
G02*
X136362500Y-102737498I0J-249998D01*
G01*
X136362500Y-103637502D01*
G75*
G02*
X136112502Y-103887500I-249998J0D01*
G01*
X135587498Y-103887500D01*
G75*
G02*
X135337500Y-103637502I0J249998D01*
G01*
G37*
G36*
G01*
X133512500Y-103637502D02*
X133512500Y-102737498D01*
G75*
G02*
X133762498Y-102487500I249998J0D01*
G01*
X134287502Y-102487500D01*
G75*
G02*
X134537500Y-102737498I0J-249998D01*
G01*
X134537500Y-103637502D01*
G75*
G02*
X134287502Y-103887500I-249998J0D01*
G01*
X133762498Y-103887500D01*
G75*
G02*
X133512500Y-103637502I0J249998D01*
G01*
G37*
G36*
G01*
X226562498Y-82950000D02*
X227462502Y-82950000D01*
G75*
G02*
X227712500Y-83199998I0J-249998D01*
G01*
X227712500Y-83725002D01*
G75*
G02*
X227462502Y-83975000I-249998J0D01*
G01*
X226562498Y-83975000D01*
G75*
G02*
X226312500Y-83725002I0J249998D01*
G01*
X226312500Y-83199998D01*
G75*
G02*
X226562498Y-82950000I249998J0D01*
G01*
G37*
G36*
G01*
X226562498Y-81125000D02*
X227462502Y-81125000D01*
G75*
G02*
X227712500Y-81374998I0J-249998D01*
G01*
X227712500Y-81900002D01*
G75*
G02*
X227462502Y-82150000I-249998J0D01*
G01*
X226562498Y-82150000D01*
G75*
G02*
X226312500Y-81900002I0J249998D01*
G01*
X226312500Y-81374998D01*
G75*
G02*
X226562498Y-81125000I249998J0D01*
G01*
G37*
G36*
G01*
X243287500Y-28231252D02*
X243287500Y-27331248D01*
G75*
G02*
X243537498Y-27081250I249998J0D01*
G01*
X244062502Y-27081250D01*
G75*
G02*
X244312500Y-27331248I0J-249998D01*
G01*
X244312500Y-28231252D01*
G75*
G02*
X244062502Y-28481250I-249998J0D01*
G01*
X243537498Y-28481250D01*
G75*
G02*
X243287500Y-28231252I0J249998D01*
G01*
G37*
G36*
G01*
X241462500Y-28231252D02*
X241462500Y-27331248D01*
G75*
G02*
X241712498Y-27081250I249998J0D01*
G01*
X242237502Y-27081250D01*
G75*
G02*
X242487500Y-27331248I0J-249998D01*
G01*
X242487500Y-28231252D01*
G75*
G02*
X242237502Y-28481250I-249998J0D01*
G01*
X241712498Y-28481250D01*
G75*
G02*
X241462500Y-28231252I0J249998D01*
G01*
G37*
G36*
G01*
X243287500Y-23468752D02*
X243287500Y-22568748D01*
G75*
G02*
X243537498Y-22318750I249998J0D01*
G01*
X244062502Y-22318750D01*
G75*
G02*
X244312500Y-22568748I0J-249998D01*
G01*
X244312500Y-23468752D01*
G75*
G02*
X244062502Y-23718750I-249998J0D01*
G01*
X243537498Y-23718750D01*
G75*
G02*
X243287500Y-23468752I0J249998D01*
G01*
G37*
G36*
G01*
X241462500Y-23468752D02*
X241462500Y-22568748D01*
G75*
G02*
X241712498Y-22318750I249998J0D01*
G01*
X242237502Y-22318750D01*
G75*
G02*
X242487500Y-22568748I0J-249998D01*
G01*
X242487500Y-23468752D01*
G75*
G02*
X242237502Y-23718750I-249998J0D01*
G01*
X241712498Y-23718750D01*
G75*
G02*
X241462500Y-23468752I0J249998D01*
G01*
G37*
G36*
G01*
X117075000Y-102737498D02*
X117075000Y-103637502D01*
G75*
G02*
X116825002Y-103887500I-249998J0D01*
G01*
X116299998Y-103887500D01*
G75*
G02*
X116050000Y-103637502I0J249998D01*
G01*
X116050000Y-102737498D01*
G75*
G02*
X116299998Y-102487500I249998J0D01*
G01*
X116825002Y-102487500D01*
G75*
G02*
X117075000Y-102737498I0J-249998D01*
G01*
G37*
G36*
G01*
X118900000Y-102737498D02*
X118900000Y-103637502D01*
G75*
G02*
X118650002Y-103887500I-249998J0D01*
G01*
X118124998Y-103887500D01*
G75*
G02*
X117875000Y-103637502I0J249998D01*
G01*
X117875000Y-102737498D01*
G75*
G02*
X118124998Y-102487500I249998J0D01*
G01*
X118650002Y-102487500D01*
G75*
G02*
X118900000Y-102737498I0J-249998D01*
G01*
G37*
G36*
G01*
X23468752Y-82150000D02*
X22568748Y-82150000D01*
G75*
G02*
X22318750Y-81900002I0J249998D01*
G01*
X22318750Y-81374998D01*
G75*
G02*
X22568748Y-81125000I249998J0D01*
G01*
X23468752Y-81125000D01*
G75*
G02*
X23718750Y-81374998I0J-249998D01*
G01*
X23718750Y-81900002D01*
G75*
G02*
X23468752Y-82150000I-249998J0D01*
G01*
G37*
G36*
G01*
X23468752Y-83975000D02*
X22568748Y-83975000D01*
G75*
G02*
X22318750Y-83725002I0J249998D01*
G01*
X22318750Y-83199998D01*
G75*
G02*
X22568748Y-82950000I249998J0D01*
G01*
X23468752Y-82950000D01*
G75*
G02*
X23718750Y-83199998I0J-249998D01*
G01*
X23718750Y-83725002D01*
G75*
G02*
X23468752Y-83975000I-249998J0D01*
G01*
G37*
G36*
G01*
X24949998Y-82950000D02*
X25850002Y-82950000D01*
G75*
G02*
X26100000Y-83199998I0J-249998D01*
G01*
X26100000Y-83725002D01*
G75*
G02*
X25850002Y-83975000I-249998J0D01*
G01*
X24949998Y-83975000D01*
G75*
G02*
X24700000Y-83725002I0J249998D01*
G01*
X24700000Y-83199998D01*
G75*
G02*
X24949998Y-82950000I249998J0D01*
G01*
G37*
G36*
G01*
X24949998Y-81125000D02*
X25850002Y-81125000D01*
G75*
G02*
X26100000Y-81374998I0J-249998D01*
G01*
X26100000Y-81900002D01*
G75*
G02*
X25850002Y-82150000I-249998J0D01*
G01*
X24949998Y-82150000D01*
G75*
G02*
X24700000Y-81900002I0J249998D01*
G01*
X24700000Y-81374998D01*
G75*
G02*
X24949998Y-81125000I249998J0D01*
G01*
G37*
G36*
G01*
X14687500Y-28231252D02*
X14687500Y-27331248D01*
G75*
G02*
X14937498Y-27081250I249998J0D01*
G01*
X15462502Y-27081250D01*
G75*
G02*
X15712500Y-27331248I0J-249998D01*
G01*
X15712500Y-28231252D01*
G75*
G02*
X15462502Y-28481250I-249998J0D01*
G01*
X14937498Y-28481250D01*
G75*
G02*
X14687500Y-28231252I0J249998D01*
G01*
G37*
G36*
G01*
X12862500Y-28231252D02*
X12862500Y-27331248D01*
G75*
G02*
X13112498Y-27081250I249998J0D01*
G01*
X13637502Y-27081250D01*
G75*
G02*
X13887500Y-27331248I0J-249998D01*
G01*
X13887500Y-28231252D01*
G75*
G02*
X13637502Y-28481250I-249998J0D01*
G01*
X13112498Y-28481250D01*
G75*
G02*
X12862500Y-28231252I0J249998D01*
G01*
G37*
G36*
G01*
X9125000Y-22568748D02*
X9125000Y-23468752D01*
G75*
G02*
X8875002Y-23718750I-249998J0D01*
G01*
X8349998Y-23718750D01*
G75*
G02*
X8100000Y-23468752I0J249998D01*
G01*
X8100000Y-22568748D01*
G75*
G02*
X8349998Y-22318750I249998J0D01*
G01*
X8875002Y-22318750D01*
G75*
G02*
X9125000Y-22568748I0J-249998D01*
G01*
G37*
G36*
G01*
X10950000Y-22568748D02*
X10950000Y-23468752D01*
G75*
G02*
X10700002Y-23718750I-249998J0D01*
G01*
X10174998Y-23718750D01*
G75*
G02*
X9925000Y-23468752I0J249998D01*
G01*
X9925000Y-22568748D01*
G75*
G02*
X10174998Y-22318750I249998J0D01*
G01*
X10700002Y-22318750D01*
G75*
G02*
X10950000Y-22568748I0J-249998D01*
G01*
G37*
G36*
G01*
X255137498Y-19450000D02*
X256037502Y-19450000D01*
G75*
G02*
X256287500Y-19699998I0J-249998D01*
G01*
X256287500Y-20225002D01*
G75*
G02*
X256037502Y-20475000I-249998J0D01*
G01*
X255137498Y-20475000D01*
G75*
G02*
X254887500Y-20225002I0J249998D01*
G01*
X254887500Y-19699998D01*
G75*
G02*
X255137498Y-19450000I249998J0D01*
G01*
G37*
G36*
G01*
X255137498Y-17625000D02*
X256037502Y-17625000D01*
G75*
G02*
X256287500Y-17874998I0J-249998D01*
G01*
X256287500Y-18400002D01*
G75*
G02*
X256037502Y-18650000I-249998J0D01*
G01*
X255137498Y-18650000D01*
G75*
G02*
X254887500Y-18400002I0J249998D01*
G01*
X254887500Y-17874998D01*
G75*
G02*
X255137498Y-17625000I249998J0D01*
G01*
G37*
G36*
G01*
X2037502Y-82150000D02*
X1137498Y-82150000D01*
G75*
G02*
X887500Y-81900002I0J249998D01*
G01*
X887500Y-81374998D01*
G75*
G02*
X1137498Y-81125000I249998J0D01*
G01*
X2037502Y-81125000D01*
G75*
G02*
X2287500Y-81374998I0J-249998D01*
G01*
X2287500Y-81900002D01*
G75*
G02*
X2037502Y-82150000I-249998J0D01*
G01*
G37*
G36*
G01*
X2037502Y-83975000D02*
X1137498Y-83975000D01*
G75*
G02*
X887500Y-83725002I0J249998D01*
G01*
X887500Y-83199998D01*
G75*
G02*
X1137498Y-82950000I249998J0D01*
G01*
X2037502Y-82950000D01*
G75*
G02*
X2287500Y-83199998I0J-249998D01*
G01*
X2287500Y-83725002D01*
G75*
G02*
X2037502Y-83975000I-249998J0D01*
G01*
G37*
G36*
G01*
X9925000Y-69506252D02*
X9925000Y-68606248D01*
G75*
G02*
X10174998Y-68356250I249998J0D01*
G01*
X10700002Y-68356250D01*
G75*
G02*
X10950000Y-68606248I0J-249998D01*
G01*
X10950000Y-69506252D01*
G75*
G02*
X10700002Y-69756250I-249998J0D01*
G01*
X10174998Y-69756250D01*
G75*
G02*
X9925000Y-69506252I0J249998D01*
G01*
G37*
G36*
G01*
X8100000Y-69506252D02*
X8100000Y-68606248D01*
G75*
G02*
X8349998Y-68356250I249998J0D01*
G01*
X8875002Y-68356250D01*
G75*
G02*
X9125000Y-68606248I0J-249998D01*
G01*
X9125000Y-69506252D01*
G75*
G02*
X8875002Y-69756250I-249998J0D01*
G01*
X8349998Y-69756250D01*
G75*
G02*
X8100000Y-69506252I0J249998D01*
G01*
G37*
G36*
G01*
X9125000Y-27331248D02*
X9125000Y-28231252D01*
G75*
G02*
X8875002Y-28481250I-249998J0D01*
G01*
X8349998Y-28481250D01*
G75*
G02*
X8100000Y-28231252I0J249998D01*
G01*
X8100000Y-27331248D01*
G75*
G02*
X8349998Y-27081250I249998J0D01*
G01*
X8875002Y-27081250D01*
G75*
G02*
X9125000Y-27331248I0J-249998D01*
G01*
G37*
G36*
G01*
X10950000Y-27331248D02*
X10950000Y-28231252D01*
G75*
G02*
X10700002Y-28481250I-249998J0D01*
G01*
X10174998Y-28481250D01*
G75*
G02*
X9925000Y-28231252I0J249998D01*
G01*
X9925000Y-27331248D01*
G75*
G02*
X10174998Y-27081250I249998J0D01*
G01*
X10700002Y-27081250D01*
G75*
G02*
X10950000Y-27331248I0J-249998D01*
G01*
G37*
D35*
X243681250Y-83550000D03*
X244631250Y-81550000D03*
X242731250Y-81550000D03*
X8731250Y-83550000D03*
X9681250Y-81550000D03*
X7781250Y-81550000D03*
D24*
X56673750Y-100012500D03*
X59213750Y-100012500D03*
X61753750Y-100012500D03*
D25*
X64293750Y-100012500D03*
G36*
G01*
X243662500Y-67300000D02*
X243662500Y-66050000D01*
G75*
G02*
X243912500Y-65800000I250000J0D01*
G01*
X244662500Y-65800000D01*
G75*
G02*
X244912500Y-66050000I0J-250000D01*
G01*
X244912500Y-67300000D01*
G75*
G02*
X244662500Y-67550000I-250000J0D01*
G01*
X243912500Y-67550000D01*
G75*
G02*
X243662500Y-67300000I0J250000D01*
G01*
G37*
G36*
G01*
X240862500Y-67300000D02*
X240862500Y-66050000D01*
G75*
G02*
X241112500Y-65800000I250000J0D01*
G01*
X241862500Y-65800000D01*
G75*
G02*
X242112500Y-66050000I0J-250000D01*
G01*
X242112500Y-67300000D01*
G75*
G02*
X241862500Y-67550000I-250000J0D01*
G01*
X241112500Y-67550000D01*
G75*
G02*
X240862500Y-67300000I0J250000D01*
G01*
G37*
G36*
G01*
X10300000Y-67300000D02*
X10300000Y-66050000D01*
G75*
G02*
X10550000Y-65800000I250000J0D01*
G01*
X11300000Y-65800000D01*
G75*
G02*
X11550000Y-66050000I0J-250000D01*
G01*
X11550000Y-67300000D01*
G75*
G02*
X11300000Y-67550000I-250000J0D01*
G01*
X10550000Y-67550000D01*
G75*
G02*
X10300000Y-67300000I0J250000D01*
G01*
G37*
G36*
G01*
X7500000Y-67300000D02*
X7500000Y-66050000D01*
G75*
G02*
X7750000Y-65800000I250000J0D01*
G01*
X8500000Y-65800000D01*
G75*
G02*
X8750000Y-66050000I0J-250000D01*
G01*
X8750000Y-67300000D01*
G75*
G02*
X8500000Y-67550000I-250000J0D01*
G01*
X7750000Y-67550000D01*
G75*
G02*
X7500000Y-67300000I0J250000D01*
G01*
G37*
D27*
X181768750Y-115031250D03*
X181768750Y-118331250D03*
D40*
X155512500Y-118268750D03*
X158812500Y-118268750D03*
D27*
X255587500Y-74550000D03*
X255587500Y-77850000D03*
X255587500Y-55500000D03*
X255587500Y-58800000D03*
X255587500Y-36450000D03*
X255587500Y-39750000D03*
D40*
X245331250Y-19843750D03*
X242031250Y-19843750D03*
D27*
X255587500Y1650000D03*
X255587500Y-1650000D03*
D40*
X136462500Y-118268750D03*
X139762500Y-118268750D03*
D27*
X236537500Y-74550000D03*
X236537500Y-77850000D03*
X236537500Y-55500000D03*
X236537500Y-58800000D03*
X236537500Y-36450000D03*
X236537500Y-39750000D03*
X236537500Y-17400000D03*
X236537500Y-20700000D03*
X236537500Y1650000D03*
X236537500Y-1650000D03*
X217487500Y-72168750D03*
X217487500Y-75468750D03*
X217487500Y-53118750D03*
X217487500Y-56418750D03*
X217487500Y-34068750D03*
X217487500Y-37368750D03*
X217487500Y-15018750D03*
X217487500Y-18318750D03*
X217487500Y4031250D03*
X217487500Y731250D03*
X196056250Y-91218750D03*
X196056250Y-94518750D03*
X198437500Y-69787500D03*
X198437500Y-73087500D03*
X198437500Y-50737500D03*
X198437500Y-54037500D03*
X198437500Y-31687500D03*
X198437500Y-34987500D03*
X198437500Y-12637500D03*
X198437500Y-15937500D03*
X198437500Y6412500D03*
X198437500Y3112500D03*
X255587500Y-117412500D03*
X255587500Y-120712500D03*
X179387500Y-72168750D03*
X179387500Y-75468750D03*
X179387500Y-53118750D03*
X179387500Y-56418750D03*
X179387500Y-34068750D03*
X179387500Y-37368750D03*
X179387500Y-15018750D03*
X179387500Y-18318750D03*
X179387500Y4031250D03*
X179387500Y731250D03*
X236537500Y-117412500D03*
X236537500Y-120712500D03*
X230187500Y-101662500D03*
X230187500Y-98362500D03*
X240506250Y-80900000D03*
X240506250Y-84200000D03*
X160337500Y-93600000D03*
X160337500Y-96900000D03*
X160337500Y-74550000D03*
X160337500Y-77850000D03*
X160337500Y-55500000D03*
X160337500Y-58800000D03*
X160337500Y-17400000D03*
X160337500Y-20700000D03*
X160337500Y1650000D03*
X160337500Y-1650000D03*
X217487500Y-117412500D03*
X217487500Y-120712500D03*
X141287500Y-84075000D03*
X141287500Y-87375000D03*
D40*
X136462500Y-49212500D03*
X139762500Y-49212500D03*
D27*
X144822500Y-34080000D03*
X144822500Y-37380000D03*
X141287500Y-7875000D03*
X141287500Y-11175000D03*
G36*
G01*
X130518750Y-102731250D02*
X130518750Y-103643750D01*
G75*
G02*
X130275000Y-103887500I-243750J0D01*
G01*
X129787500Y-103887500D01*
G75*
G02*
X129543750Y-103643750I0J243750D01*
G01*
X129543750Y-102731250D01*
G75*
G02*
X129787500Y-102487500I243750J0D01*
G01*
X130275000Y-102487500D01*
G75*
G02*
X130518750Y-102731250I0J-243750D01*
G01*
G37*
G36*
G01*
X132393750Y-102731250D02*
X132393750Y-103643750D01*
G75*
G02*
X132150000Y-103887500I-243750J0D01*
G01*
X131662500Y-103887500D01*
G75*
G02*
X131418750Y-103643750I0J243750D01*
G01*
X131418750Y-102731250D01*
G75*
G02*
X131662500Y-102487500I243750J0D01*
G01*
X132150000Y-102487500D01*
G75*
G02*
X132393750Y-102731250I0J-243750D01*
G01*
G37*
D41*
X250668750Y-26500000D03*
X252568750Y-26500000D03*
X252568750Y-24300000D03*
D42*
X250848750Y-24300000D03*
D40*
X115950000Y-124618750D03*
X112650000Y-124618750D03*
X115950000Y-93662500D03*
X112650000Y-93662500D03*
X115950000Y-62706250D03*
X112650000Y-62706250D03*
X108806250Y-37306250D03*
X105506250Y-37306250D03*
D27*
X117475000Y-7875000D03*
X117475000Y-11175000D03*
D40*
X96900000Y-124618750D03*
X93600000Y-124618750D03*
D41*
X1743750Y-24300000D03*
X-156250Y-24300000D03*
X-156250Y-26500000D03*
D42*
X1563750Y-26500000D03*
G36*
G01*
X121893750Y-103643750D02*
X121893750Y-102731250D01*
G75*
G02*
X122137500Y-102487500I243750J0D01*
G01*
X122625000Y-102487500D01*
G75*
G02*
X122868750Y-102731250I0J-243750D01*
G01*
X122868750Y-103643750D01*
G75*
G02*
X122625000Y-103887500I-243750J0D01*
G01*
X122137500Y-103887500D01*
G75*
G02*
X121893750Y-103643750I0J243750D01*
G01*
G37*
G36*
G01*
X120018750Y-103643750D02*
X120018750Y-102731250D01*
G75*
G02*
X120262500Y-102487500I243750J0D01*
G01*
X120750000Y-102487500D01*
G75*
G02*
X120993750Y-102731250I0J-243750D01*
G01*
X120993750Y-103643750D01*
G75*
G02*
X120750000Y-103887500I-243750J0D01*
G01*
X120262500Y-103887500D01*
G75*
G02*
X120018750Y-103643750I0J243750D01*
G01*
G37*
D27*
X98425000Y-93600000D03*
X98425000Y-96900000D03*
X98425000Y-74550000D03*
X98425000Y-77850000D03*
X98425000Y-55500000D03*
X98425000Y-58800000D03*
X98425000Y-36450000D03*
X98425000Y-39750000D03*
X98425000Y-17400000D03*
X98425000Y-20700000D03*
X98425000Y1650000D03*
X98425000Y-1650000D03*
X76993750Y-115031250D03*
X76993750Y-118331250D03*
X79375000Y-72168750D03*
X79375000Y-75468750D03*
X79375000Y-53118750D03*
X79375000Y-56418750D03*
X79375000Y-34068750D03*
X79375000Y-37368750D03*
X79375000Y-15018750D03*
X79375000Y-18318750D03*
X79375000Y4031250D03*
X79375000Y731250D03*
X67468750Y-91218750D03*
X67468750Y-94518750D03*
X60325000Y-69787500D03*
X60325000Y-73087500D03*
X60325000Y-50737500D03*
X60325000Y-54037500D03*
X60325000Y-31687500D03*
X60325000Y-34987500D03*
X60325000Y-12637500D03*
X60325000Y-15937500D03*
X60325000Y6412500D03*
X60325000Y3112500D03*
X41275000Y-72168750D03*
X41275000Y-75468750D03*
X41275000Y-53118750D03*
X41275000Y-56418750D03*
X41275000Y-34068750D03*
X41275000Y-37368750D03*
X41275000Y-15018750D03*
X41275000Y-18318750D03*
X41275000Y4031250D03*
X41275000Y731250D03*
X41275000Y-117412500D03*
X41275000Y-120712500D03*
X22225000Y-74550000D03*
X22225000Y-77850000D03*
X22225000Y-55500000D03*
X22225000Y-58800000D03*
X22225000Y-36450000D03*
X22225000Y-39750000D03*
X22225000Y-17400000D03*
X22225000Y-20700000D03*
X22225000Y1650000D03*
X22225000Y-1650000D03*
X22225000Y-117412500D03*
X22225000Y-120712500D03*
X15875000Y-101662500D03*
X15875000Y-98362500D03*
X3175000Y-74550000D03*
X3175000Y-77850000D03*
X3175000Y-55500000D03*
X3175000Y-58800000D03*
X3175000Y-36450000D03*
X3175000Y-39750000D03*
X3175000Y-17400000D03*
X3175000Y-20700000D03*
X3175000Y1650000D03*
X3175000Y-1650000D03*
X3175000Y-117412500D03*
X3175000Y-120712500D03*
G36*
G01*
X232250000Y-82100000D02*
X231300000Y-82100000D01*
G75*
G02*
X231050000Y-81850000I0J250000D01*
G01*
X231050000Y-81350000D01*
G75*
G02*
X231300000Y-81100000I250000J0D01*
G01*
X232250000Y-81100000D01*
G75*
G02*
X232500000Y-81350000I0J-250000D01*
G01*
X232500000Y-81850000D01*
G75*
G02*
X232250000Y-82100000I-250000J0D01*
G01*
G37*
G36*
G01*
X232250000Y-84000000D02*
X231300000Y-84000000D01*
G75*
G02*
X231050000Y-83750000I0J250000D01*
G01*
X231050000Y-83250000D01*
G75*
G02*
X231300000Y-83000000I250000J0D01*
G01*
X232250000Y-83000000D01*
G75*
G02*
X232500000Y-83250000I0J-250000D01*
G01*
X232500000Y-83750000D01*
G75*
G02*
X232250000Y-84000000I-250000J0D01*
G01*
G37*
G36*
G01*
X237650000Y-83000000D02*
X238600000Y-83000000D01*
G75*
G02*
X238850000Y-83250000I0J-250000D01*
G01*
X238850000Y-83750000D01*
G75*
G02*
X238600000Y-84000000I-250000J0D01*
G01*
X237650000Y-84000000D01*
G75*
G02*
X237400000Y-83750000I0J250000D01*
G01*
X237400000Y-83250000D01*
G75*
G02*
X237650000Y-83000000I250000J0D01*
G01*
G37*
G36*
G01*
X237650000Y-81100000D02*
X238600000Y-81100000D01*
G75*
G02*
X238850000Y-81350000I0J-250000D01*
G01*
X238850000Y-81850000D01*
G75*
G02*
X238600000Y-82100000I-250000J0D01*
G01*
X237650000Y-82100000D01*
G75*
G02*
X237400000Y-81850000I0J250000D01*
G01*
X237400000Y-81350000D01*
G75*
G02*
X237650000Y-81100000I250000J0D01*
G01*
G37*
G36*
G01*
X225106250Y-82100000D02*
X224156250Y-82100000D01*
G75*
G02*
X223906250Y-81850000I0J250000D01*
G01*
X223906250Y-81350000D01*
G75*
G02*
X224156250Y-81100000I250000J0D01*
G01*
X225106250Y-81100000D01*
G75*
G02*
X225356250Y-81350000I0J-250000D01*
G01*
X225356250Y-81850000D01*
G75*
G02*
X225106250Y-82100000I-250000J0D01*
G01*
G37*
G36*
G01*
X225106250Y-84000000D02*
X224156250Y-84000000D01*
G75*
G02*
X223906250Y-83750000I0J250000D01*
G01*
X223906250Y-83250000D01*
G75*
G02*
X224156250Y-83000000I250000J0D01*
G01*
X225106250Y-83000000D01*
G75*
G02*
X225356250Y-83250000I0J-250000D01*
G01*
X225356250Y-83750000D01*
G75*
G02*
X225106250Y-84000000I-250000J0D01*
G01*
G37*
G36*
G01*
X259081250Y-19500000D02*
X260031250Y-19500000D01*
G75*
G02*
X260281250Y-19750000I0J-250000D01*
G01*
X260281250Y-20250000D01*
G75*
G02*
X260031250Y-20500000I-250000J0D01*
G01*
X259081250Y-20500000D01*
G75*
G02*
X258831250Y-20250000I0J250000D01*
G01*
X258831250Y-19750000D01*
G75*
G02*
X259081250Y-19500000I250000J0D01*
G01*
G37*
G36*
G01*
X259081250Y-17600000D02*
X260031250Y-17600000D01*
G75*
G02*
X260281250Y-17850000I0J-250000D01*
G01*
X260281250Y-18350000D01*
G75*
G02*
X260031250Y-18600000I-250000J0D01*
G01*
X259081250Y-18600000D01*
G75*
G02*
X258831250Y-18350000I0J250000D01*
G01*
X258831250Y-17850000D01*
G75*
G02*
X259081250Y-17600000I250000J0D01*
G01*
G37*
G36*
G01*
X13812500Y-83000000D02*
X14762500Y-83000000D01*
G75*
G02*
X15012500Y-83250000I0J-250000D01*
G01*
X15012500Y-83750000D01*
G75*
G02*
X14762500Y-84000000I-250000J0D01*
G01*
X13812500Y-84000000D01*
G75*
G02*
X13562500Y-83750000I0J250000D01*
G01*
X13562500Y-83250000D01*
G75*
G02*
X13812500Y-83000000I250000J0D01*
G01*
G37*
G36*
G01*
X13812500Y-81100000D02*
X14762500Y-81100000D01*
G75*
G02*
X15012500Y-81350000I0J-250000D01*
G01*
X15012500Y-81850000D01*
G75*
G02*
X14762500Y-82100000I-250000J0D01*
G01*
X13812500Y-82100000D01*
G75*
G02*
X13562500Y-81850000I0J250000D01*
G01*
X13562500Y-81350000D01*
G75*
G02*
X13812500Y-81100000I250000J0D01*
G01*
G37*
G36*
G01*
X20162500Y-83000000D02*
X21112500Y-83000000D01*
G75*
G02*
X21362500Y-83250000I0J-250000D01*
G01*
X21362500Y-83750000D01*
G75*
G02*
X21112500Y-84000000I-250000J0D01*
G01*
X20162500Y-84000000D01*
G75*
G02*
X19912500Y-83750000I0J250000D01*
G01*
X19912500Y-83250000D01*
G75*
G02*
X20162500Y-83000000I250000J0D01*
G01*
G37*
G36*
G01*
X20162500Y-81100000D02*
X21112500Y-81100000D01*
G75*
G02*
X21362500Y-81350000I0J-250000D01*
G01*
X21362500Y-81850000D01*
G75*
G02*
X21112500Y-82100000I-250000J0D01*
G01*
X20162500Y-82100000D01*
G75*
G02*
X19912500Y-81850000I0J250000D01*
G01*
X19912500Y-81350000D01*
G75*
G02*
X20162500Y-81100000I250000J0D01*
G01*
G37*
G36*
G01*
X18600000Y-27306250D02*
X18600000Y-28256250D01*
G75*
G02*
X18350000Y-28506250I-250000J0D01*
G01*
X17850000Y-28506250D01*
G75*
G02*
X17600000Y-28256250I0J250000D01*
G01*
X17600000Y-27306250D01*
G75*
G02*
X17850000Y-27056250I250000J0D01*
G01*
X18350000Y-27056250D01*
G75*
G02*
X18600000Y-27306250I0J-250000D01*
G01*
G37*
G36*
G01*
X20500000Y-27306250D02*
X20500000Y-28256250D01*
G75*
G02*
X20250000Y-28506250I-250000J0D01*
G01*
X19750000Y-28506250D01*
G75*
G02*
X19500000Y-28256250I0J250000D01*
G01*
X19500000Y-27306250D01*
G75*
G02*
X19750000Y-27056250I250000J0D01*
G01*
X20250000Y-27056250D01*
G75*
G02*
X20500000Y-27306250I0J-250000D01*
G01*
G37*
G36*
G01*
X28256250Y-82100000D02*
X27306250Y-82100000D01*
G75*
G02*
X27056250Y-81850000I0J250000D01*
G01*
X27056250Y-81350000D01*
G75*
G02*
X27306250Y-81100000I250000J0D01*
G01*
X28256250Y-81100000D01*
G75*
G02*
X28506250Y-81350000I0J-250000D01*
G01*
X28506250Y-81850000D01*
G75*
G02*
X28256250Y-82100000I-250000J0D01*
G01*
G37*
G36*
G01*
X28256250Y-84000000D02*
X27306250Y-84000000D01*
G75*
G02*
X27056250Y-83750000I0J250000D01*
G01*
X27056250Y-83250000D01*
G75*
G02*
X27306250Y-83000000I250000J0D01*
G01*
X28256250Y-83000000D01*
G75*
G02*
X28506250Y-83250000I0J-250000D01*
G01*
X28506250Y-83750000D01*
G75*
G02*
X28256250Y-84000000I-250000J0D01*
G01*
G37*
M02*
