G04 #@! TF.GenerationSoftware,KiCad,Pcbnew,(5.1.10-1-10_14)*
G04 #@! TF.CreationDate,2021-10-20T16:09:14+11:00*
G04 #@! TF.ProjectId,pcb,7063622e-6b69-4636-9164-5f7063625858,rev?*
G04 #@! TF.SameCoordinates,Original*
G04 #@! TF.FileFunction,Legend,Top*
G04 #@! TF.FilePolarity,Positive*
%FSLAX46Y46*%
G04 Gerber Fmt 4.6, Leading zero omitted, Abs format (unit mm)*
G04 Created by KiCad (PCBNEW (5.1.10-1-10_14)) date 2021-10-20 16:09:14*
%MOMM*%
%LPD*%
G01*
G04 APERTURE LIST*
%ADD10C,0.120000*%
%ADD11C,1.750000*%
%ADD12C,3.000000*%
%ADD13C,3.987800*%
%ADD14O,3.400000X3.400000*%
%ADD15C,3.048000*%
%ADD16O,1.750000X1.200000*%
%ADD17O,1.700000X1.700000*%
%ADD18R,1.700000X1.700000*%
%ADD19C,0.787400*%
%ADD20C,2.000000*%
%ADD21R,2.000000X3.200000*%
%ADD22R,2.000000X2.000000*%
%ADD23R,3.200000X2.000000*%
%ADD24C,0.650000*%
%ADD25O,2.100000X1.000000*%
%ADD26O,1.600000X1.000000*%
%ADD27C,0.900000*%
G04 APERTURE END LIST*
D10*
X138112500Y-28075000D02*
X138112500Y-29075000D01*
X138612500Y-28575000D02*
X137612500Y-28575000D01*
X134612500Y-34675000D02*
X132212500Y-34675000D01*
X139412500Y-34675000D02*
X136812500Y-34675000D01*
X144012500Y-34675000D02*
X141612500Y-34675000D01*
X142212500Y-21375000D02*
X141912500Y-21075000D01*
X142212500Y-20775000D02*
X142212500Y-21375000D01*
X141912500Y-21075000D02*
X142212500Y-20775000D01*
X144012500Y-22475000D02*
X132212500Y-22475000D01*
X144012500Y-26575000D02*
X144012500Y-22475000D01*
X132212500Y-26575000D02*
X132212500Y-22475000D01*
X132212500Y-34675000D02*
X132212500Y-30575000D01*
X144012500Y-30575000D02*
X144012500Y-34675000D01*
X141112500Y-28575000D02*
G75*
G03*
X141112500Y-28575000I-3000000J0D01*
G01*
X114800000Y-30956250D02*
X113800000Y-30956250D01*
X114300000Y-31456250D02*
X114300000Y-30456250D01*
X108200000Y-27456250D02*
X108200000Y-25056250D01*
X108200000Y-32256250D02*
X108200000Y-29656250D01*
X108200000Y-36856250D02*
X108200000Y-34456250D01*
X121500000Y-35056250D02*
X121800000Y-34756250D01*
X122100000Y-35056250D02*
X121500000Y-35056250D01*
X121800000Y-34756250D02*
X122100000Y-35056250D01*
X120400000Y-36856250D02*
X120400000Y-25056250D01*
X116300000Y-36856250D02*
X120400000Y-36856250D01*
X116300000Y-25056250D02*
X120400000Y-25056250D01*
X108200000Y-25056250D02*
X112300000Y-25056250D01*
X112300000Y-36856250D02*
X108200000Y-36856250D01*
X117300000Y-30956250D02*
G75*
G03*
X117300000Y-30956250I-3000000J0D01*
G01*
%LPC*%
D11*
X228282500Y-100012500D03*
X238442500Y-100012500D03*
D12*
X237172500Y-102552500D03*
D13*
X233362500Y-100012500D03*
D12*
X230822500Y-105092500D03*
D11*
X238442500Y-57150000D03*
X228282500Y-57150000D03*
D12*
X229552500Y-54610000D03*
D13*
X233362500Y-57150000D03*
D12*
X235902500Y-52070000D03*
D14*
X223837500Y-45862500D03*
X223837500Y-41862500D03*
X28575000Y-41862500D03*
X28575000Y-45862500D03*
D12*
X119380000Y-93027500D03*
D13*
X114300000Y-90487500D03*
D12*
X116840000Y-86677500D03*
D11*
X114300000Y-85407500D03*
X114300000Y-95567500D03*
X5080000Y-119062500D03*
X-5080000Y-119062500D03*
D12*
X-3810000Y-116522500D03*
D13*
X0Y-119062500D03*
D12*
X2540000Y-113982500D03*
D11*
X162242500Y-57150000D03*
X152082500Y-57150000D03*
D12*
X153352500Y-54610000D03*
D13*
X157162500Y-57150000D03*
D12*
X159702500Y-52070000D03*
X140652500Y-80645000D03*
D13*
X138112500Y-85725000D03*
D12*
X134302500Y-83185000D03*
D11*
X133032500Y-85725000D03*
X143192500Y-85725000D03*
D15*
X131127500Y-73787000D03*
D13*
X146367500Y-73787000D03*
X146367500Y-97663000D03*
D15*
X131127500Y-97663000D03*
D11*
X43180000Y-73818750D03*
X33020000Y-73818750D03*
D12*
X34290000Y-71278750D03*
D13*
X38100000Y-73818750D03*
D12*
X40640000Y-68738750D03*
D16*
X242887500Y-42862500D03*
G36*
G01*
X243512501Y-45462500D02*
X242262499Y-45462500D01*
G75*
G02*
X242012500Y-45212501I0J249999D01*
G01*
X242012500Y-44512499D01*
G75*
G02*
X242262499Y-44262500I249999J0D01*
G01*
X243512501Y-44262500D01*
G75*
G02*
X243762500Y-44512499I0J-249999D01*
G01*
X243762500Y-45212501D01*
G75*
G02*
X243512501Y-45462500I-249999J0D01*
G01*
G37*
X9525000Y-44862500D03*
G36*
G01*
X8899999Y-42262500D02*
X10150001Y-42262500D01*
G75*
G02*
X10400000Y-42512499I0J-249999D01*
G01*
X10400000Y-43212501D01*
G75*
G02*
X10150001Y-43462500I-249999J0D01*
G01*
X8899999Y-43462500D01*
G75*
G02*
X8650000Y-43212501I0J249999D01*
G01*
X8650000Y-42512499D01*
G75*
G02*
X8899999Y-42262500I249999J0D01*
G01*
G37*
D17*
X200501250Y-100012500D03*
X197961250Y-100012500D03*
X195421250Y-100012500D03*
D18*
X192881250Y-100012500D03*
D19*
X97790000Y-8985250D03*
X96520000Y-8985250D03*
X92710000Y-8985250D03*
X93980000Y-8985250D03*
X95250000Y-8985250D03*
X92710000Y-10858500D03*
X93980000Y-10858500D03*
X97790000Y-10858500D03*
X96520000Y-10858500D03*
X95250000Y-10858500D03*
D11*
X5080000Y0D03*
X-5080000Y0D03*
D12*
X-3810000Y2540000D03*
D13*
X0Y0D03*
D12*
X2540000Y5080000D03*
D19*
X19050000Y-8985250D03*
X17780000Y-8985250D03*
X16510000Y-8985250D03*
X20320000Y-8985250D03*
X21590000Y-8985250D03*
D11*
X24130000Y-19050000D03*
X13970000Y-19050000D03*
D12*
X15240000Y-16510000D03*
D13*
X19050000Y-19050000D03*
D12*
X21590000Y-13970000D03*
D11*
X181292500Y2381250D03*
X171132500Y2381250D03*
D12*
X172402500Y4921250D03*
D13*
X176212500Y2381250D03*
D12*
X178752500Y7461250D03*
D19*
X233362500Y-10858500D03*
X234632500Y-10858500D03*
X235902500Y-10858500D03*
X232092500Y-10858500D03*
X230822500Y-10858500D03*
D11*
X219392500Y-73818750D03*
X209232500Y-73818750D03*
D12*
X210502500Y-71278750D03*
D13*
X214312500Y-73818750D03*
D12*
X216852500Y-68738750D03*
D11*
X257492500Y-76200000D03*
X247332500Y-76200000D03*
D12*
X248602500Y-73660000D03*
D13*
X252412500Y-76200000D03*
D12*
X254952500Y-71120000D03*
D11*
X219392500Y-119062500D03*
X209232500Y-119062500D03*
D12*
X210502500Y-116522500D03*
D13*
X214312500Y-119062500D03*
D12*
X216852500Y-113982500D03*
D11*
X257492500Y-119062500D03*
X247332500Y-119062500D03*
D12*
X248602500Y-116522500D03*
D13*
X252412500Y-119062500D03*
D12*
X254952500Y-113982500D03*
D19*
X19050000Y-85979000D03*
X17780000Y-85979000D03*
X16510000Y-85979000D03*
X20320000Y-85979000D03*
X21590000Y-85979000D03*
X19050000Y-91027250D03*
X20320000Y-91027250D03*
X21590000Y-91027250D03*
X17780000Y-91027250D03*
X16510000Y-91027250D03*
X233362500Y-85979000D03*
X232092500Y-85979000D03*
X230822500Y-85979000D03*
X234632500Y-85979000D03*
X235902500Y-85979000D03*
X233362500Y-91027250D03*
X234632500Y-91027250D03*
X235902500Y-91027250D03*
X232092500Y-91027250D03*
X230822500Y-91027250D03*
D20*
X135612500Y-35575000D03*
X140612500Y-35575000D03*
D21*
X132512500Y-28575000D03*
X143712500Y-28575000D03*
D20*
X135612500Y-21075000D03*
X138112500Y-21075000D03*
D22*
X140612500Y-21075000D03*
D20*
X107300000Y-28456250D03*
X107300000Y-33456250D03*
D23*
X114300000Y-25356250D03*
X114300000Y-36556250D03*
D20*
X121800000Y-28456250D03*
X121800000Y-30956250D03*
D22*
X121800000Y-33456250D03*
D19*
X145097500Y-109283500D03*
X146367500Y-109283500D03*
X150177500Y-109283500D03*
X148907500Y-109283500D03*
X147637500Y-109283500D03*
X150177500Y-105029000D03*
X148907500Y-105029000D03*
X145097500Y-105029000D03*
X146367500Y-105029000D03*
X147637500Y-105029000D03*
D11*
X183673750Y-116681250D03*
X173513750Y-116681250D03*
D12*
X174783750Y-114141250D03*
D13*
X178593750Y-116681250D03*
D12*
X181133750Y-111601250D03*
D11*
X157162500Y-116363750D03*
X157162500Y-126523750D03*
D12*
X154622500Y-125253750D03*
D13*
X157162500Y-121443750D03*
D12*
X152082500Y-118903750D03*
D11*
X138112500Y-116363750D03*
X138112500Y-126523750D03*
D12*
X135572500Y-125253750D03*
D13*
X138112500Y-121443750D03*
D12*
X133032500Y-118903750D03*
D19*
X104775000Y-105029000D03*
X103505000Y-105029000D03*
X102235000Y-105029000D03*
X106045000Y-105029000D03*
X107315000Y-105029000D03*
X104775000Y-109283500D03*
X106045000Y-109283500D03*
X107315000Y-109283500D03*
X103505000Y-109283500D03*
X102235000Y-109283500D03*
X235902500Y-8985250D03*
X234632500Y-8985250D03*
X230822500Y-8985250D03*
X232092500Y-8985250D03*
X233362500Y-8985250D03*
X154622500Y-10858500D03*
X155892500Y-10858500D03*
X159702500Y-10858500D03*
X158432500Y-10858500D03*
X157162500Y-10858500D03*
X159702500Y-8985250D03*
X158432500Y-8985250D03*
X154622500Y-8985250D03*
X155892500Y-8985250D03*
X157162500Y-8985250D03*
X16510000Y-10858500D03*
X17780000Y-10858500D03*
X21590000Y-10858500D03*
X20320000Y-10858500D03*
X19050000Y-10858500D03*
X124079000Y-32385000D03*
X124079000Y-33655000D03*
X124079000Y-37465000D03*
X124079000Y-36195000D03*
X124079000Y-34925000D03*
X128333500Y-37465000D03*
X128333500Y-36195000D03*
X128333500Y-32385000D03*
X128333500Y-33655000D03*
X128333500Y-34925000D03*
X128333500Y-91440000D03*
X128333500Y-90170000D03*
X128333500Y-86360000D03*
X128333500Y-87630000D03*
X128333500Y-88900000D03*
X124079000Y-86360000D03*
X124079000Y-87630000D03*
X124079000Y-91440000D03*
X124079000Y-90170000D03*
X124079000Y-88900000D03*
D11*
X114300000Y-126523750D03*
X114300000Y-116363750D03*
D12*
X116840000Y-117633750D03*
D13*
X114300000Y-121443750D03*
D12*
X119380000Y-123983750D03*
D11*
X95250000Y-126523750D03*
X95250000Y-116363750D03*
D12*
X97790000Y-117633750D03*
D13*
X95250000Y-121443750D03*
D12*
X100330000Y-123983750D03*
D11*
X78898750Y-116681250D03*
X68738750Y-116681250D03*
D12*
X70008750Y-114141250D03*
D13*
X73818750Y-116681250D03*
D12*
X76358750Y-111601250D03*
D11*
X119380000Y-9525000D03*
X109220000Y-9525000D03*
D12*
X110490000Y-6985000D03*
D13*
X114300000Y-9525000D03*
D12*
X116840000Y-4445000D03*
D13*
X180943250Y-84613750D03*
X204819250Y-84613750D03*
D15*
X180943250Y-99853750D03*
X204819250Y-99853750D03*
D11*
X197961250Y-92868750D03*
X187801250Y-92868750D03*
D12*
X189071250Y-90328750D03*
D13*
X192881250Y-92868750D03*
D12*
X195421250Y-87788750D03*
D11*
X200342500Y-71437500D03*
X190182500Y-71437500D03*
D12*
X191452500Y-68897500D03*
D13*
X195262500Y-71437500D03*
D12*
X197802500Y-66357500D03*
X133032500Y-49847500D03*
D13*
X138112500Y-52387500D03*
D12*
X135572500Y-56197500D03*
D11*
X138112500Y-57467500D03*
X138112500Y-47307500D03*
X114300000Y-64611250D03*
X114300000Y-54451250D03*
D12*
X116840000Y-55721250D03*
D13*
X114300000Y-59531250D03*
D12*
X119380000Y-62071250D03*
D11*
X114300000Y-36036250D03*
X114300000Y-25876250D03*
D12*
X116840000Y-27146250D03*
D13*
X114300000Y-30956250D03*
D12*
X119380000Y-33496250D03*
D13*
X52355750Y-84613750D03*
X76231750Y-84613750D03*
D15*
X52355750Y-99853750D03*
X76231750Y-99853750D03*
D11*
X69373750Y-92868750D03*
X59213750Y-92868750D03*
D12*
X60483750Y-90328750D03*
D13*
X64293750Y-92868750D03*
D12*
X66833750Y-87788750D03*
D24*
X257275000Y-28290000D03*
X257275000Y-22510000D03*
D25*
X256745000Y-21080000D03*
X256745000Y-29720000D03*
D26*
X260925000Y-21080000D03*
X260925000Y-29720000D03*
D24*
X-4862500Y-22510000D03*
X-4862500Y-28290000D03*
D25*
X-4332500Y-29720000D03*
X-4332500Y-21080000D03*
D26*
X-8512500Y-29720000D03*
X-8512500Y-21080000D03*
D11*
X257492500Y-57150000D03*
X247332500Y-57150000D03*
D12*
X248602500Y-54610000D03*
D13*
X252412500Y-57150000D03*
D12*
X254952500Y-52070000D03*
D11*
X257492500Y-38100000D03*
X247332500Y-38100000D03*
D12*
X248602500Y-35560000D03*
D13*
X252412500Y-38100000D03*
D12*
X254952500Y-33020000D03*
D11*
X257492500Y-19050000D03*
X247332500Y-19050000D03*
D12*
X248602500Y-16510000D03*
D13*
X252412500Y-19050000D03*
D12*
X254952500Y-13970000D03*
D11*
X257492500Y0D03*
X247332500Y0D03*
D12*
X248602500Y2540000D03*
D13*
X252412500Y0D03*
D12*
X254952500Y5080000D03*
D11*
X238442500Y-76200000D03*
X228282500Y-76200000D03*
D12*
X229552500Y-73660000D03*
D13*
X233362500Y-76200000D03*
D12*
X235902500Y-71120000D03*
D11*
X238442500Y-38100000D03*
X228282500Y-38100000D03*
D12*
X229552500Y-35560000D03*
D13*
X233362500Y-38100000D03*
D12*
X235902500Y-33020000D03*
D11*
X238442500Y-19050000D03*
X228282500Y-19050000D03*
D12*
X229552500Y-16510000D03*
D13*
X233362500Y-19050000D03*
D12*
X235902500Y-13970000D03*
D11*
X238442500Y0D03*
X228282500Y0D03*
D12*
X229552500Y2540000D03*
D13*
X233362500Y0D03*
D12*
X235902500Y5080000D03*
D11*
X219392500Y-54768750D03*
X209232500Y-54768750D03*
D12*
X210502500Y-52228750D03*
D13*
X214312500Y-54768750D03*
D12*
X216852500Y-49688750D03*
D11*
X219392500Y-35718750D03*
X209232500Y-35718750D03*
D12*
X210502500Y-33178750D03*
D13*
X214312500Y-35718750D03*
D12*
X216852500Y-30638750D03*
D11*
X219392500Y-16668750D03*
X209232500Y-16668750D03*
D12*
X210502500Y-14128750D03*
D13*
X214312500Y-16668750D03*
D12*
X216852500Y-11588750D03*
D11*
X219392500Y2381250D03*
X209232500Y2381250D03*
D12*
X210502500Y4921250D03*
D13*
X214312500Y2381250D03*
D12*
X216852500Y7461250D03*
D11*
X200342500Y-52387500D03*
X190182500Y-52387500D03*
D12*
X191452500Y-49847500D03*
D13*
X195262500Y-52387500D03*
D12*
X197802500Y-47307500D03*
D11*
X200342500Y-33337500D03*
X190182500Y-33337500D03*
D12*
X191452500Y-30797500D03*
D13*
X195262500Y-33337500D03*
D12*
X197802500Y-28257500D03*
D11*
X200342500Y-14287500D03*
X190182500Y-14287500D03*
D12*
X191452500Y-11747500D03*
D13*
X195262500Y-14287500D03*
D12*
X197802500Y-9207500D03*
D11*
X200342500Y4762500D03*
X190182500Y4762500D03*
D12*
X191452500Y7302500D03*
D13*
X195262500Y4762500D03*
D12*
X197802500Y9842500D03*
D11*
X181292500Y-73818750D03*
X171132500Y-73818750D03*
D12*
X172402500Y-71278750D03*
D13*
X176212500Y-73818750D03*
D12*
X178752500Y-68738750D03*
D11*
X181292500Y-54768750D03*
X171132500Y-54768750D03*
D12*
X172402500Y-52228750D03*
D13*
X176212500Y-54768750D03*
D12*
X178752500Y-49688750D03*
D11*
X181292500Y-35718750D03*
X171132500Y-35718750D03*
D12*
X172402500Y-33178750D03*
D13*
X176212500Y-35718750D03*
D12*
X178752500Y-30638750D03*
D11*
X181292500Y-16668750D03*
X171132500Y-16668750D03*
D12*
X172402500Y-14128750D03*
D13*
X176212500Y-16668750D03*
D12*
X178752500Y-11588750D03*
D11*
X238442500Y-119062500D03*
X228282500Y-119062500D03*
D12*
X229552500Y-116522500D03*
D13*
X233362500Y-119062500D03*
D12*
X235902500Y-113982500D03*
D11*
X162242500Y-95250000D03*
X152082500Y-95250000D03*
D12*
X153352500Y-92710000D03*
D13*
X157162500Y-95250000D03*
D12*
X159702500Y-90170000D03*
D11*
X162242500Y-76200000D03*
X152082500Y-76200000D03*
D12*
X153352500Y-73660000D03*
D13*
X157162500Y-76200000D03*
D12*
X159702500Y-71120000D03*
D11*
X162242500Y-38100000D03*
X152082500Y-38100000D03*
D12*
X153352500Y-35560000D03*
D13*
X157162500Y-38100000D03*
D12*
X159702500Y-33020000D03*
D11*
X162242500Y-19050000D03*
X152082500Y-19050000D03*
D12*
X153352500Y-16510000D03*
D13*
X157162500Y-19050000D03*
D12*
X159702500Y-13970000D03*
D11*
X162242500Y0D03*
X152082500Y0D03*
D12*
X153352500Y2540000D03*
D13*
X157162500Y0D03*
D12*
X159702500Y5080000D03*
D11*
X143192500Y-28575000D03*
X133032500Y-28575000D03*
D12*
X134302500Y-26035000D03*
D13*
X138112500Y-28575000D03*
D12*
X140652500Y-23495000D03*
D11*
X143192500Y-9525000D03*
X133032500Y-9525000D03*
D12*
X134302500Y-6985000D03*
D13*
X138112500Y-9525000D03*
D12*
X140652500Y-4445000D03*
D27*
X255675000Y-83673750D03*
X258675000Y-83673750D03*
D11*
X100330000Y-95250000D03*
X90170000Y-95250000D03*
D12*
X91440000Y-92710000D03*
D13*
X95250000Y-95250000D03*
D12*
X97790000Y-90170000D03*
D27*
X-6262500Y-83673750D03*
X-3262500Y-83673750D03*
D11*
X100330000Y-76200000D03*
X90170000Y-76200000D03*
D12*
X91440000Y-73660000D03*
D13*
X95250000Y-76200000D03*
D12*
X97790000Y-71120000D03*
D11*
X100330000Y-57150000D03*
X90170000Y-57150000D03*
D12*
X91440000Y-54610000D03*
D13*
X95250000Y-57150000D03*
D12*
X97790000Y-52070000D03*
D11*
X100330000Y-38100000D03*
X90170000Y-38100000D03*
D12*
X91440000Y-35560000D03*
D13*
X95250000Y-38100000D03*
D12*
X97790000Y-33020000D03*
D11*
X100330000Y-19050000D03*
X90170000Y-19050000D03*
D12*
X91440000Y-16510000D03*
D13*
X95250000Y-19050000D03*
D12*
X97790000Y-13970000D03*
D11*
X100330000Y0D03*
X90170000Y0D03*
D12*
X91440000Y2540000D03*
D13*
X95250000Y0D03*
D12*
X97790000Y5080000D03*
D11*
X81280000Y-73818750D03*
X71120000Y-73818750D03*
D12*
X72390000Y-71278750D03*
D13*
X76200000Y-73818750D03*
D12*
X78740000Y-68738750D03*
D11*
X81280000Y-54768750D03*
X71120000Y-54768750D03*
D12*
X72390000Y-52228750D03*
D13*
X76200000Y-54768750D03*
D12*
X78740000Y-49688750D03*
D11*
X81280000Y-35718750D03*
X71120000Y-35718750D03*
D12*
X72390000Y-33178750D03*
D13*
X76200000Y-35718750D03*
D12*
X78740000Y-30638750D03*
D11*
X81280000Y-16668750D03*
X71120000Y-16668750D03*
D12*
X72390000Y-14128750D03*
D13*
X76200000Y-16668750D03*
D12*
X78740000Y-11588750D03*
D11*
X81280000Y2381250D03*
X71120000Y2381250D03*
D12*
X72390000Y4921250D03*
D13*
X76200000Y2381250D03*
D12*
X78740000Y7461250D03*
D11*
X62230000Y-71437500D03*
X52070000Y-71437500D03*
D12*
X53340000Y-68897500D03*
D13*
X57150000Y-71437500D03*
D12*
X59690000Y-66357500D03*
D11*
X62230000Y-52387500D03*
X52070000Y-52387500D03*
D12*
X53340000Y-49847500D03*
D13*
X57150000Y-52387500D03*
D12*
X59690000Y-47307500D03*
D11*
X62230000Y-33337500D03*
X52070000Y-33337500D03*
D12*
X53340000Y-30797500D03*
D13*
X57150000Y-33337500D03*
D12*
X59690000Y-28257500D03*
D11*
X62230000Y-14287500D03*
X52070000Y-14287500D03*
D12*
X53340000Y-11747500D03*
D13*
X57150000Y-14287500D03*
D12*
X59690000Y-9207500D03*
D11*
X62230000Y4762500D03*
X52070000Y4762500D03*
D12*
X53340000Y7302500D03*
D13*
X57150000Y4762500D03*
D12*
X59690000Y9842500D03*
D11*
X43180000Y-54768750D03*
X33020000Y-54768750D03*
D12*
X34290000Y-52228750D03*
D13*
X38100000Y-54768750D03*
D12*
X40640000Y-49688750D03*
D11*
X43180000Y-35718750D03*
X33020000Y-35718750D03*
D12*
X34290000Y-33178750D03*
D13*
X38100000Y-35718750D03*
D12*
X40640000Y-30638750D03*
D11*
X43180000Y-16668750D03*
X33020000Y-16668750D03*
D12*
X34290000Y-14128750D03*
D13*
X38100000Y-16668750D03*
D12*
X40640000Y-11588750D03*
D11*
X43180000Y2381250D03*
X33020000Y2381250D03*
D12*
X34290000Y4921250D03*
D13*
X38100000Y2381250D03*
D12*
X40640000Y7461250D03*
D11*
X43180000Y-119062500D03*
X33020000Y-119062500D03*
D12*
X34290000Y-116522500D03*
D13*
X38100000Y-119062500D03*
D12*
X40640000Y-113982500D03*
D11*
X24130000Y-76200000D03*
X13970000Y-76200000D03*
D12*
X15240000Y-73660000D03*
D13*
X19050000Y-76200000D03*
D12*
X21590000Y-71120000D03*
D11*
X24130000Y-57150000D03*
X13970000Y-57150000D03*
D12*
X15240000Y-54610000D03*
D13*
X19050000Y-57150000D03*
D12*
X21590000Y-52070000D03*
D11*
X24130000Y-38100000D03*
X13970000Y-38100000D03*
D12*
X15240000Y-35560000D03*
D13*
X19050000Y-38100000D03*
D12*
X21590000Y-33020000D03*
D11*
X24130000Y0D03*
X13970000Y0D03*
D12*
X15240000Y2540000D03*
D13*
X19050000Y0D03*
D12*
X21590000Y5080000D03*
D11*
X24130000Y-119062500D03*
X13970000Y-119062500D03*
D12*
X15240000Y-116522500D03*
D13*
X19050000Y-119062500D03*
D12*
X21590000Y-113982500D03*
D11*
X13970000Y-100012500D03*
X24130000Y-100012500D03*
D12*
X22860000Y-102552500D03*
D13*
X19050000Y-100012500D03*
D12*
X16510000Y-105092500D03*
D11*
X5080000Y-76200000D03*
X-5080000Y-76200000D03*
D12*
X-3810000Y-73660000D03*
D13*
X0Y-76200000D03*
D12*
X2540000Y-71120000D03*
D11*
X5080000Y-57150000D03*
X-5080000Y-57150000D03*
D12*
X-3810000Y-54610000D03*
D13*
X0Y-57150000D03*
D12*
X2540000Y-52070000D03*
D11*
X5080000Y-38100000D03*
X-5080000Y-38100000D03*
D12*
X-3810000Y-35560000D03*
D13*
X0Y-38100000D03*
D12*
X2540000Y-33020000D03*
D11*
X5080000Y-19050000D03*
X-5080000Y-19050000D03*
D12*
X-3810000Y-16510000D03*
D13*
X0Y-19050000D03*
D12*
X2540000Y-13970000D03*
D17*
X56673750Y-100012500D03*
X59213750Y-100012500D03*
X61753750Y-100012500D03*
D18*
X64293750Y-100012500D03*
M02*
