  0
SECTION
  2
HEADER
  9
$ACADVER
  1
AC1009
  9
$EXTMIN
 10
0.0
 20
0.0
 30
0.0
  9
$EXTMAX
 10
1000.0
 20
1000.0
 30
0.0
  9
$FILLMODE
 70
 0
  9
$SPLFRAME
 70
 1
  0
ENDSEC
  0
SECTION
  2
TABLES
  0
TABLE
  2
LAYER
 70
1
  0
LAYER
  2
0
 70
     0
 62
     7
  6
CONTINUOUS
  0
ENDTAB
  0
ENDSEC
  0
SECTION
  2
ENTITIES
  0
LINE
  8
0
 62
     0
 10
0.0950846
 20
150.541
 30
0.0
 11
133.445
 21
150.541
 31
0.0
  0
LINE
  8
0
 62
     0
 10
133.445
 20
150.541
 30
0.0
 11
133.445
 21
0.237023
 31
0.0
  0
LINE
  8
0
 62
     0
 10
133.445
 20
0.237023
 30
0.0
 11
0.0950846
 21
0.237023
 31
0.0
  0
LINE
  8
0
 62
     0
 10
0.0950846
 20
0.237023
 30
0.0
 11
0.0950846
 21
150.541
 31
0.0
  0
LINE
  8
0
 62
     0
 10
116.92
 20
16.7624
 30
0.0
 11
116.92
 21
15.762
 31
0.0
  0
LINE
  8
0
 62
     0
 10
116.92
 20
15.762
 30
0.0
 11
116.119
 21
15.762
 31
0.0
  0
LINE
  8
0
 62
     0
 10
116.119
 20
15.762
 30
0.0
 11
116.119
 21
12.6628
 31
0.0
  0
LINE
  8
0
 62
     0
 10
116.119
 20
12.6628
 30
0.0
 11
116.92
 21
12.6628
 31
0.0
  0
LINE
  8
0
 62
     0
 10
116.92
 20
12.6628
 30
0.0
 11
116.92
 21
6.86262
 31
0.0
  0
LINE
  8
0
 62
     0
 10
116.92
 20
6.86262
 30
0.0
 11
116.119
 21
6.86262
 31
0.0
  0
LINE
  8
0
 62
     0
 10
116.119
 20
6.86262
 30
0.0
 11
116.119
 21
3.76206
 31
0.0
  0
LINE
  8
0
 62
     0
 10
116.119
 20
3.76206
 30
0.0
 11
116.92
 21
3.76206
 31
0.0
  0
LINE
  8
0
 62
     0
 10
116.92
 20
3.76206
 30
0.0
 11
116.92
 21
2.76297
 31
0.0
  0
LINE
  8
0
 62
     0
 10
116.92
 20
2.76297
 30
0.0
 11
130.919
 21
2.76297
 31
0.0
  0
LINE
  8
0
 62
     0
 10
130.919
 20
2.76297
 30
0.0
 11
130.919
 21
3.76206
 31
0.0
  0
LINE
  8
0
 62
     0
 10
130.919
 20
3.76206
 30
0.0
 11
131.72
 21
3.76206
 31
0.0
  0
LINE
  8
0
 62
     0
 10
131.72
 20
3.76206
 30
0.0
 11
131.72
 21
6.86262
 31
0.0
  0
LINE
  8
0
 62
     0
 10
131.72
 20
6.86262
 30
0.0
 11
130.919
 21
6.86262
 31
0.0
  0
LINE
  8
0
 62
     0
 10
130.919
 20
6.86262
 30
0.0
 11
130.919
 21
12.6628
 31
0.0
  0
LINE
  8
0
 62
     0
 10
130.919
 20
12.6628
 30
0.0
 11
131.72
 21
12.6628
 31
0.0
  0
LINE
  8
0
 62
     0
 10
131.72
 20
12.6628
 30
0.0
 11
131.72
 21
15.762
 31
0.0
  0
LINE
  8
0
 62
     0
 10
131.72
 20
15.762
 30
0.0
 11
130.919
 21
15.762
 31
0.0
  0
LINE
  8
0
 62
     0
 10
130.919
 20
15.762
 30
0.0
 11
130.919
 21
16.7624
 31
0.0
  0
LINE
  8
0
 62
     0
 10
130.919
 20
16.7624
 30
0.0
 11
116.92
 21
16.7624
 31
0.0
  0
LINE
  8
0
 62
     0
 10
97.8697
 20
16.7624
 30
0.0
 11
97.8697
 21
15.762
 31
0.0
  0
LINE
  8
0
 62
     0
 10
97.8697
 20
15.762
 30
0.0
 11
97.0689
 21
15.762
 31
0.0
  0
LINE
  8
0
 62
     0
 10
97.0689
 20
15.762
 30
0.0
 11
97.0689
 21
12.6628
 31
0.0
  0
LINE
  8
0
 62
     0
 10
97.0689
 20
12.6628
 30
0.0
 11
97.8697
 21
12.6628
 31
0.0
  0
LINE
  8
0
 62
     0
 10
97.8697
 20
12.6628
 30
0.0
 11
97.8697
 21
6.86262
 31
0.0
  0
LINE
  8
0
 62
     0
 10
97.8697
 20
6.86262
 30
0.0
 11
97.0689
 21
6.86262
 31
0.0
  0
LINE
  8
0
 62
     0
 10
97.0689
 20
6.86262
 30
0.0
 11
97.0689
 21
3.76206
 31
0.0
  0
LINE
  8
0
 62
     0
 10
97.0689
 20
3.76206
 30
0.0
 11
97.8697
 21
3.76206
 31
0.0
  0
LINE
  8
0
 62
     0
 10
97.8697
 20
3.76206
 30
0.0
 11
97.8697
 21
2.76297
 31
0.0
  0
LINE
  8
0
 62
     0
 10
97.8697
 20
2.76297
 30
0.0
 11
111.869
 21
2.76297
 31
0.0
  0
LINE
  8
0
 62
     0
 10
111.869
 20
2.76297
 30
0.0
 11
111.869
 21
3.76206
 31
0.0
  0
LINE
  8
0
 62
     0
 10
111.869
 20
3.76206
 30
0.0
 11
112.67
 21
3.76206
 31
0.0
  0
LINE
  8
0
 62
     0
 10
112.67
 20
3.76206
 30
0.0
 11
112.67
 21
6.86262
 31
0.0
  0
LINE
  8
0
 62
     0
 10
112.67
 20
6.86262
 30
0.0
 11
111.869
 21
6.86262
 31
0.0
  0
LINE
  8
0
 62
     0
 10
111.869
 20
6.86262
 30
0.0
 11
111.869
 21
12.6628
 31
0.0
  0
LINE
  8
0
 62
     0
 10
111.869
 20
12.6628
 30
0.0
 11
112.67
 21
12.6628
 31
0.0
  0
LINE
  8
0
 62
     0
 10
112.67
 20
12.6628
 30
0.0
 11
112.67
 21
15.762
 31
0.0
  0
LINE
  8
0
 62
     0
 10
112.67
 20
15.762
 30
0.0
 11
111.869
 21
15.762
 31
0.0
  0
LINE
  8
0
 62
     0
 10
111.869
 20
15.762
 30
0.0
 11
111.869
 21
16.7624
 31
0.0
  0
LINE
  8
0
 62
     0
 10
111.869
 20
16.7624
 30
0.0
 11
97.8697
 21
16.7624
 31
0.0
  0
LINE
  8
0
 62
     0
 10
78.8197
 20
16.7624
 30
0.0
 11
78.8197
 21
15.762
 31
0.0
  0
LINE
  8
0
 62
     0
 10
78.8197
 20
15.762
 30
0.0
 11
78.0189
 21
15.762
 31
0.0
  0
LINE
  8
0
 62
     0
 10
78.0189
 20
15.762
 30
0.0
 11
78.0189
 21
12.6628
 31
0.0
  0
LINE
  8
0
 62
     0
 10
78.0189
 20
12.6628
 30
0.0
 11
78.8197
 21
12.6628
 31
0.0
  0
LINE
  8
0
 62
     0
 10
78.8197
 20
12.6628
 30
0.0
 11
78.8197
 21
6.86262
 31
0.0
  0
LINE
  8
0
 62
     0
 10
78.8197
 20
6.86262
 30
0.0
 11
78.0189
 21
6.86262
 31
0.0
  0
LINE
  8
0
 62
     0
 10
78.0189
 20
6.86262
 30
0.0
 11
78.0189
 21
3.76206
 31
0.0
  0
LINE
  8
0
 62
     0
 10
78.0189
 20
3.76206
 30
0.0
 11
78.8197
 21
3.76206
 31
0.0
  0
LINE
  8
0
 62
     0
 10
78.8197
 20
3.76206
 30
0.0
 11
78.8197
 21
2.76297
 31
0.0
  0
LINE
  8
0
 62
     0
 10
78.8197
 20
2.76297
 30
0.0
 11
92.819
 21
2.76297
 31
0.0
  0
LINE
  8
0
 62
     0
 10
92.819
 20
2.76297
 30
0.0
 11
92.819
 21
3.76206
 31
0.0
  0
LINE
  8
0
 62
     0
 10
92.819
 20
3.76206
 30
0.0
 11
93.6198
 21
3.76206
 31
0.0
  0
LINE
  8
0
 62
     0
 10
93.6198
 20
3.76206
 30
0.0
 11
93.6198
 21
6.86262
 31
0.0
  0
LINE
  8
0
 62
     0
 10
93.6198
 20
6.86262
 30
0.0
 11
92.819
 21
6.86262
 31
0.0
  0
LINE
  8
0
 62
     0
 10
92.819
 20
6.86262
 30
0.0
 11
92.819
 21
12.6628
 31
0.0
  0
LINE
  8
0
 62
     0
 10
92.819
 20
12.6628
 30
0.0
 11
93.6198
 21
12.6628
 31
0.0
  0
LINE
  8
0
 62
     0
 10
93.6198
 20
12.6628
 30
0.0
 11
93.6198
 21
15.762
 31
0.0
  0
LINE
  8
0
 62
     0
 10
93.6198
 20
15.762
 30
0.0
 11
92.819
 21
15.762
 31
0.0
  0
LINE
  8
0
 62
     0
 10
92.819
 20
15.762
 30
0.0
 11
92.819
 21
16.7624
 31
0.0
  0
LINE
  8
0
 62
     0
 10
92.819
 20
16.7624
 30
0.0
 11
78.8197
 21
16.7624
 31
0.0
  0
LINE
  8
0
 62
     0
 10
22.6701
 20
19.943
 30
0.0
 11
22.6701
 21
19.1437
 31
0.0
  0
LINE
  8
0
 62
     0
 10
22.6701
 20
19.1437
 30
0.0
 11
21.6697
 21
19.1437
 31
0.0
  0
LINE
  8
0
 62
     0
 10
21.6697
 20
19.1437
 30
0.0
 11
21.6697
 21
5.14421
 31
0.0
  0
LINE
  8
0
 62
     0
 10
21.6697
 20
5.14421
 30
0.0
 11
22.6701
 21
5.14421
 31
0.0
  0
LINE
  8
0
 62
     0
 10
22.6701
 20
5.14421
 30
0.0
 11
22.6701
 21
4.34358
 31
0.0
  0
LINE
  8
0
 62
     0
 10
22.6701
 20
4.34358
 30
0.0
 11
25.7693
 21
4.34358
 31
0.0
  0
LINE
  8
0
 62
     0
 10
25.7693
 20
4.34358
 30
0.0
 11
25.7693
 21
5.14421
 31
0.0
  0
LINE
  8
0
 62
     0
 10
25.7693
 20
5.14421
 30
0.0
 11
31.5695
 21
5.14421
 31
0.0
  0
LINE
  8
0
 62
     0
 10
31.5695
 20
5.14421
 30
0.0
 11
31.5695
 21
4.34358
 31
0.0
  0
LINE
  8
0
 62
     0
 10
31.5695
 20
4.34358
 30
0.0
 11
34.67
 21
4.34358
 31
0.0
  0
LINE
  8
0
 62
     0
 10
34.67
 20
4.34358
 30
0.0
 11
34.67
 21
5.14421
 31
0.0
  0
LINE
  8
0
 62
     0
 10
34.67
 20
5.14421
 30
0.0
 11
35.669
 21
5.14421
 31
0.0
  0
LINE
  8
0
 62
     0
 10
35.669
 20
5.14421
 30
0.0
 11
35.669
 21
19.1437
 31
0.0
  0
LINE
  8
0
 62
     0
 10
35.669
 20
19.1437
 30
0.0
 11
34.67
 21
19.1437
 31
0.0
  0
LINE
  8
0
 62
     0
 10
34.67
 20
19.1437
 30
0.0
 11
34.67
 21
19.943
 31
0.0
  0
LINE
  8
0
 62
     0
 10
34.67
 20
19.943
 30
0.0
 11
31.5695
 21
19.943
 31
0.0
  0
LINE
  8
0
 62
     0
 10
31.5695
 20
19.943
 30
0.0
 11
31.5695
 21
19.1437
 31
0.0
  0
LINE
  8
0
 62
     0
 10
31.5695
 20
19.1437
 30
0.0
 11
25.7693
 21
19.1437
 31
0.0
  0
LINE
  8
0
 62
     0
 10
25.7693
 20
19.1437
 30
0.0
 11
25.7693
 21
19.943
 31
0.0
  0
LINE
  8
0
 62
     0
 10
25.7693
 20
19.943
 30
0.0
 11
22.6701
 21
19.943
 31
0.0
  0
LINE
  8
0
 62
     0
 10
3.61872
 20
19.943
 30
0.0
 11
3.6201
 21
19.1437
 31
0.0
  0
LINE
  8
0
 62
     0
 10
3.6201
 20
19.1437
 30
0.0
 11
2.61965
 21
19.1437
 31
0.0
  0
LINE
  8
0
 62
     0
 10
2.61965
 20
19.1437
 30
0.0
 11
2.61965
 21
5.14421
 31
0.0
  0
LINE
  8
0
 62
     0
 10
2.61965
 20
5.14421
 30
0.0
 11
3.6201
 21
5.14421
 31
0.0
  0
LINE
  8
0
 62
     0
 10
3.6201
 20
5.14421
 30
0.0
 11
3.6201
 21
4.34358
 31
0.0
  0
LINE
  8
0
 62
     0
 10
3.6201
 20
4.34358
 30
0.0
 11
6.71932
 21
4.34358
 31
0.0
  0
LINE
  8
0
 62
     0
 10
6.71932
 20
4.34358
 30
0.0
 11
6.71932
 21
5.14421
 31
0.0
  0
LINE
  8
0
 62
     0
 10
6.71932
 20
5.14421
 30
0.0
 11
12.5195
 21
5.14421
 31
0.0
  0
LINE
  8
0
 62
     0
 10
12.5195
 20
5.14421
 30
0.0
 11
12.5195
 21
4.34358
 31
0.0
  0
LINE
  8
0
 62
     0
 10
12.5195
 20
4.34358
 30
0.0
 11
15.62
 21
4.34358
 31
0.0
  0
LINE
  8
0
 62
     0
 10
15.62
 20
4.34358
 30
0.0
 11
15.62
 21
5.14421
 31
0.0
  0
LINE
  8
0
 62
     0
 10
15.62
 20
5.14421
 30
0.0
 11
16.6192
 21
5.14421
 31
0.0
  0
LINE
  8
0
 62
     0
 10
16.6192
 20
5.14421
 30
0.0
 11
16.6192
 21
19.1437
 31
0.0
  0
LINE
  8
0
 62
     0
 10
16.6192
 20
19.1437
 30
0.0
 11
15.62
 21
19.1437
 31
0.0
  0
LINE
  8
0
 62
     0
 10
15.62
 20
19.1437
 30
0.0
 11
15.62
 21
19.943
 31
0.0
  0
LINE
  8
0
 62
     0
 10
15.62
 20
19.943
 30
0.0
 11
12.5195
 21
19.943
 31
0.0
  0
LINE
  8
0
 62
     0
 10
12.5195
 20
19.943
 30
0.0
 11
12.5195
 21
19.1437
 31
0.0
  0
LINE
  8
0
 62
     0
 10
12.5195
 20
19.1437
 30
0.0
 11
6.71932
 21
19.1437
 31
0.0
  0
LINE
  8
0
 62
     0
 10
6.71932
 20
19.1437
 30
0.0
 11
6.71932
 21
19.943
 31
0.0
  0
LINE
  8
0
 62
     0
 10
6.71932
 20
19.943
 30
0.0
 11
3.61872
 21
19.943
 31
0.0
  0
LINE
  8
0
 62
     0
 10
43.101
 20
23.8111
 30
0.0
 11
43.101
 21
22.8107
 31
0.0
  0
LINE
  8
0
 62
     0
 10
43.101
 20
22.8107
 30
0.0
 11
42.3002
 21
22.8107
 31
0.0
  0
LINE
  8
0
 62
     0
 10
42.3002
 20
22.8107
 30
0.0
 11
42.3002
 21
19.7101
 31
0.0
  0
LINE
  8
0
 62
     0
 10
42.3002
 20
19.7101
 30
0.0
 11
43.101
 21
19.7101
 31
0.0
  0
LINE
  8
0
 62
     0
 10
43.101
 20
19.7101
 30
0.0
 11
43.101
 21
13.9113
 31
0.0
  0
LINE
  8
0
 62
     0
 10
43.101
 20
13.9113
 30
0.0
 11
42.3002
 21
13.9113
 31
0.0
  0
LINE
  8
0
 62
     0
 10
42.3002
 20
13.9113
 30
0.0
 11
42.3002
 21
10.8107
 31
0.0
  0
LINE
  8
0
 62
     0
 10
42.3002
 20
10.8107
 30
0.0
 11
43.101
 21
10.8107
 31
0.0
  0
LINE
  8
0
 62
     0
 10
43.101
 20
10.8107
 30
0.0
 11
43.101
 21
9.81026
 31
0.0
  0
LINE
  8
0
 62
     0
 10
43.101
 20
9.81026
 30
0.0
 11
57.1003
 21
9.81026
 31
0.0
  0
LINE
  8
0
 62
     0
 10
57.1003
 20
9.81026
 30
0.0
 11
57.1003
 21
10.8107
 31
0.0
  0
LINE
  8
0
 62
     0
 10
57.1003
 20
10.8107
 30
0.0
 11
57.9011
 21
10.8107
 31
0.0
  0
LINE
  8
0
 62
     0
 10
57.9011
 20
10.8107
 30
0.0
 11
57.9011
 21
13.9113
 31
0.0
  0
LINE
  8
0
 62
     0
 10
57.9011
 20
13.9113
 30
0.0
 11
57.1003
 21
13.9113
 31
0.0
  0
LINE
  8
0
 62
     0
 10
57.1003
 20
13.9113
 30
0.0
 11
57.1003
 21
19.7101
 31
0.0
  0
LINE
  8
0
 62
     0
 10
57.1003
 20
19.7101
 30
0.0
 11
57.9011
 21
19.7101
 31
0.0
  0
LINE
  8
0
 62
     0
 10
57.9011
 20
19.7101
 30
0.0
 11
57.9011
 21
22.8107
 31
0.0
  0
LINE
  8
0
 62
     0
 10
57.9011
 20
22.8107
 30
0.0
 11
57.1003
 21
22.8107
 31
0.0
  0
LINE
  8
0
 62
     0
 10
57.1003
 20
22.8107
 30
0.0
 11
57.1003
 21
23.8111
 31
0.0
  0
LINE
  8
0
 62
     0
 10
57.1003
 20
23.8111
 30
0.0
 11
43.101
 21
23.8111
 31
0.0
  0
LINE
  8
0
 62
     0
 10
97.8697
 20
35.8126
 30
0.0
 11
97.8697
 21
34.812
 31
0.0
  0
LINE
  8
0
 62
     0
 10
97.8697
 20
34.812
 30
0.0
 11
97.0689
 21
34.812
 31
0.0
  0
LINE
  8
0
 62
     0
 10
97.0689
 20
34.812
 30
0.0
 11
97.0689
 21
31.7128
 31
0.0
  0
LINE
  8
0
 62
     0
 10
97.0689
 20
31.7128
 30
0.0
 11
97.8697
 21
31.7128
 31
0.0
  0
LINE
  8
0
 62
     0
 10
97.8697
 20
31.7128
 30
0.0
 11
97.8697
 21
25.914
 31
0.0
  0
LINE
  8
0
 62
     0
 10
97.8697
 20
25.914
 30
0.0
 11
97.0689
 21
25.914
 31
0.0
  0
LINE
  8
0
 62
     0
 10
97.0689
 20
25.914
 30
0.0
 11
97.0689
 21
22.8121
 31
0.0
  0
LINE
  8
0
 62
     0
 10
97.0689
 20
22.8121
 30
0.0
 11
97.8697
 21
22.8121
 31
0.0
  0
LINE
  8
0
 62
     0
 10
97.8697
 20
22.8121
 30
0.0
 11
97.8697
 21
21.813
 31
0.0
  0
LINE
  8
0
 62
     0
 10
97.8697
 20
21.813
 30
0.0
 11
111.869
 21
21.813
 31
0.0
  0
LINE
  8
0
 62
     0
 10
111.869
 20
21.813
 30
0.0
 11
111.869
 21
22.8121
 31
0.0
  0
LINE
  8
0
 62
     0
 10
111.869
 20
22.8121
 30
0.0
 11
112.67
 21
22.8121
 31
0.0
  0
LINE
  8
0
 62
     0
 10
112.67
 20
22.8121
 30
0.0
 11
112.67
 21
25.914
 31
0.0
  0
LINE
  8
0
 62
     0
 10
112.67
 20
25.914
 30
0.0
 11
111.869
 21
25.914
 31
0.0
  0
LINE
  8
0
 62
     0
 10
111.869
 20
25.914
 30
0.0
 11
111.869
 21
31.7128
 31
0.0
  0
LINE
  8
0
 62
     0
 10
111.869
 20
31.7128
 30
0.0
 11
112.67
 21
31.7128
 31
0.0
  0
LINE
  8
0
 62
     0
 10
112.67
 20
31.7128
 30
0.0
 11
112.67
 21
34.812
 31
0.0
  0
LINE
  8
0
 62
     0
 10
112.67
 20
34.812
 30
0.0
 11
111.869
 21
34.812
 31
0.0
  0
LINE
  8
0
 62
     0
 10
111.869
 20
34.812
 30
0.0
 11
111.869
 21
35.8126
 31
0.0
  0
LINE
  8
0
 62
     0
 10
111.869
 20
35.8126
 30
0.0
 11
97.8697
 21
35.8126
 31
0.0
  0
LINE
  8
0
 62
     0
 10
21.6697
 20
40.5751
 30
0.0
 11
21.6697
 21
39.5746
 31
0.0
  0
LINE
  8
0
 62
     0
 10
21.6697
 20
39.5746
 30
0.0
 11
20.869
 21
39.5746
 31
0.0
  0
LINE
  8
0
 62
     0
 10
20.869
 20
39.5746
 30
0.0
 11
20.869
 21
36.4755
 31
0.0
  0
LINE
  8
0
 62
     0
 10
20.869
 20
36.4755
 30
0.0
 11
21.6697
 21
36.4755
 31
0.0
  0
LINE
  8
0
 62
     0
 10
21.6697
 20
36.4755
 30
0.0
 11
21.6697
 21
30.6751
 31
0.0
  0
LINE
  8
0
 62
     0
 10
21.6697
 20
30.6751
 30
0.0
 11
20.869
 21
30.6751
 31
0.0
  0
LINE
  8
0
 62
     0
 10
20.869
 20
30.6751
 30
0.0
 11
20.869
 21
27.5746
 31
0.0
  0
LINE
  8
0
 62
     0
 10
20.869
 20
27.5746
 30
0.0
 11
21.6697
 21
27.5746
 31
0.0
  0
LINE
  8
0
 62
     0
 10
21.6697
 20
27.5746
 30
0.0
 11
21.6697
 21
26.5741
 31
0.0
  0
LINE
  8
0
 62
     0
 10
21.6697
 20
26.5741
 30
0.0
 11
35.669
 21
26.5741
 31
0.0
  0
LINE
  8
0
 62
     0
 10
35.669
 20
26.5741
 30
0.0
 11
35.669
 21
27.5746
 31
0.0
  0
LINE
  8
0
 62
     0
 10
35.669
 20
27.5746
 30
0.0
 11
36.4698
 21
27.5746
 31
0.0
  0
LINE
  8
0
 62
     0
 10
36.4698
 20
27.5746
 30
0.0
 11
36.4698
 21
30.6751
 31
0.0
  0
LINE
  8
0
 62
     0
 10
36.4698
 20
30.6751
 30
0.0
 11
35.669
 21
30.6751
 31
0.0
  0
LINE
  8
0
 62
     0
 10
35.669
 20
30.6751
 30
0.0
 11
35.669
 21
36.4755
 31
0.0
  0
LINE
  8
0
 62
     0
 10
35.669
 20
36.4755
 30
0.0
 11
36.4698
 21
36.4755
 31
0.0
  0
LINE
  8
0
 62
     0
 10
36.4698
 20
36.4755
 30
0.0
 11
36.4698
 21
39.5746
 31
0.0
  0
LINE
  8
0
 62
     0
 10
36.4698
 20
39.5746
 30
0.0
 11
35.669
 21
39.5746
 31
0.0
  0
LINE
  8
0
 62
     0
 10
35.669
 20
39.5746
 30
0.0
 11
35.669
 21
40.5751
 31
0.0
  0
LINE
  8
0
 62
     0
 10
35.669
 20
40.5751
 30
0.0
 11
21.6697
 21
40.5751
 31
0.0
  0
LINE
  8
0
 62
     0
 10
9.11849
 20
59.1993
 30
0.0
 11
9.11849
 21
58.3752
 31
0.0
  0
LINE
  8
0
 62
     0
 10
9.11849
 20
58.3752
 30
0.0
 11
2.84978
 21
58.3752
 31
0.0
  0
LINE
  8
0
 62
     0
 10
2.84978
 20
58.3752
 30
0.0
 11
2.84978
 21
56.6498
 31
0.0
  0
LINE
  8
0
 62
     0
 10
2.84978
 20
56.6498
 30
0.0
 11
1.86862
 21
56.6498
 31
0.0
  0
LINE
  8
0
 62
     0
 10
1.86862
 20
56.6498
 30
0.0
 11
1.86862
 21
53.3495
 31
0.0
  0
LINE
  8
0
 62
     0
 10
1.86862
 20
53.3495
 30
0.0
 11
2.84978
 21
53.3495
 31
0.0
  0
LINE
  8
0
 62
     0
 10
2.84978
 20
53.3495
 30
0.0
 11
2.84978
 21
51.6241
 31
0.0
  0
LINE
  8
0
 62
     0
 10
2.84978
 20
51.6241
 30
0.0
 11
7.32014
 21
51.6241
 31
0.0
  0
LINE
  8
0
 62
     0
 10
7.32014
 20
51.6241
 30
0.0
 11
7.32014
 21
50.1001
 31
0.0
  0
LINE
  8
0
 62
     0
 10
7.32014
 20
50.1001
 30
0.0
 11
6.71932
 21
50.1001
 31
0.0
  0
LINE
  8
0
 62
     0
 10
6.71932
 20
50.1001
 30
0.0
 11
6.71932
 21
50.8991
 31
0.0
  0
LINE
  8
0
 62
     0
 10
6.71932
 20
50.8991
 30
0.0
 11
3.61872
 21
50.8991
 31
0.0
  0
LINE
  8
0
 62
     0
 10
3.61872
 20
50.8991
 30
0.0
 11
3.6201
 21
50.1001
 31
0.0
  0
LINE
  8
0
 62
     0
 10
3.6201
 20
50.1001
 30
0.0
 11
2.61965
 21
50.1001
 31
0.0
  0
LINE
  8
0
 62
     0
 10
2.61965
 20
50.1001
 30
0.0
 11
2.61965
 21
36.099
 31
0.0
  0
LINE
  8
0
 62
     0
 10
2.61965
 20
36.099
 30
0.0
 11
3.6201
 21
36.099
 31
0.0
  0
LINE
  8
0
 62
     0
 10
3.6201
 20
36.099
 30
0.0
 11
3.6201
 21
35.3
 31
0.0
  0
LINE
  8
0
 62
     0
 10
3.6201
 20
35.3
 30
0.0
 11
6.71932
 21
35.3
 31
0.0
  0
LINE
  8
0
 62
     0
 10
6.71932
 20
35.3
 30
0.0
 11
6.71932
 21
36.099
 31
0.0
  0
LINE
  8
0
 62
     0
 10
6.71932
 20
36.099
 30
0.0
 11
7.32014
 21
36.099
 31
0.0
  0
LINE
  8
0
 62
     0
 10
7.32014
 20
36.099
 30
0.0
 11
7.32014
 21
34.575
 31
0.0
  0
LINE
  8
0
 62
     0
 10
7.32014
 20
34.575
 30
0.0
 11
2.84978
 21
34.575
 31
0.0
  0
LINE
  8
0
 62
     0
 10
2.84978
 20
34.575
 30
0.0
 11
2.84978
 21
32.8497
 31
0.0
  0
LINE
  8
0
 62
     0
 10
2.84978
 20
32.8497
 30
0.0
 11
1.87
 21
32.8497
 31
0.0
  0
LINE
  8
0
 62
     0
 10
1.87
 20
32.8497
 30
0.0
 11
1.87
 21
29.5493
 31
0.0
  0
LINE
  8
0
 62
     0
 10
1.87
 20
29.5493
 30
0.0
 11
2.84978
 21
29.5493
 31
0.0
  0
LINE
  8
0
 62
     0
 10
2.84978
 20
29.5493
 30
0.0
 11
2.84978
 21
27.824
 31
0.0
  0
LINE
  8
0
 62
     0
 10
2.84978
 20
27.824
 30
0.0
 11
9.11987
 21
27.824
 31
0.0
  0
LINE
  8
0
 62
     0
 10
9.11987
 20
27.824
 30
0.0
 11
9.11987
 21
26.9999
 31
0.0
  0
LINE
  8
0
 62
     0
 10
9.11987
 20
26.9999
 30
0.0
 11
11.92
 21
26.9999
 31
0.0
  0
LINE
  8
0
 62
     0
 10
11.92
 20
26.9999
 30
0.0
 11
11.92
 21
27.824
 31
0.0
  0
LINE
  8
0
 62
     0
 10
11.92
 20
27.824
 30
0.0
 11
15.1501
 21
27.824
 31
0.0
  0
LINE
  8
0
 62
     0
 10
15.1501
 20
27.824
 30
0.0
 11
15.1501
 21
29.5493
 31
0.0
  0
LINE
  8
0
 62
     0
 10
15.1501
 20
29.5493
 30
0.0
 11
16.0693
 21
29.5493
 31
0.0
  0
LINE
  8
0
 62
     0
 10
16.0693
 20
29.5493
 30
0.0
 11
16.0693
 21
32.8497
 31
0.0
  0
LINE
  8
0
 62
     0
 10
16.0693
 20
32.8497
 30
0.0
 11
15.1501
 21
32.8497
 31
0.0
  0
LINE
  8
0
 62
     0
 10
15.1501
 20
32.8497
 30
0.0
 11
15.1501
 21
34.575
 31
0.0
  0
LINE
  8
0
 62
     0
 10
15.1501
 20
34.575
 30
0.0
 11
11.92
 21
34.575
 31
0.0
  0
LINE
  8
0
 62
     0
 10
11.92
 20
34.575
 30
0.0
 11
11.92
 21
36.099
 31
0.0
  0
LINE
  8
0
 62
     0
 10
11.92
 20
36.099
 30
0.0
 11
12.5195
 21
36.099
 31
0.0
  0
LINE
  8
0
 62
     0
 10
12.5195
 20
36.099
 30
0.0
 11
12.5195
 21
35.3
 31
0.0
  0
LINE
  8
0
 62
     0
 10
12.5195
 20
35.3
 30
0.0
 11
15.62
 21
35.3
 31
0.0
  0
LINE
  8
0
 62
     0
 10
15.62
 20
35.3
 30
0.0
 11
15.62
 21
36.099
 31
0.0
  0
LINE
  8
0
 62
     0
 10
15.62
 20
36.099
 30
0.0
 11
16.6192
 21
36.099
 31
0.0
  0
LINE
  8
0
 62
     0
 10
16.6192
 20
36.099
 30
0.0
 11
16.6192
 21
50.1001
 31
0.0
  0
LINE
  8
0
 62
     0
 10
16.6192
 20
50.1001
 30
0.0
 11
15.62
 21
50.1001
 31
0.0
  0
LINE
  8
0
 62
     0
 10
15.62
 20
50.1001
 30
0.0
 11
15.62
 21
50.8991
 31
0.0
  0
LINE
  8
0
 62
     0
 10
15.62
 20
50.8991
 30
0.0
 11
12.5195
 21
50.8991
 31
0.0
  0
LINE
  8
0
 62
     0
 10
12.5195
 20
50.8991
 30
0.0
 11
12.5195
 21
50.1001
 31
0.0
  0
LINE
  8
0
 62
     0
 10
12.5195
 20
50.1001
 30
0.0
 11
11.92
 21
50.1001
 31
0.0
  0
LINE
  8
0
 62
     0
 10
11.92
 20
50.1001
 30
0.0
 11
11.92
 21
51.6241
 31
0.0
  0
LINE
  8
0
 62
     0
 10
11.92
 20
51.6241
 30
0.0
 11
15.1501
 21
51.6241
 31
0.0
  0
LINE
  8
0
 62
     0
 10
15.1501
 20
51.6241
 30
0.0
 11
15.1501
 21
53.3495
 31
0.0
  0
LINE
  8
0
 62
     0
 10
15.1501
 20
53.3495
 30
0.0
 11
16.0693
 21
53.3495
 31
0.0
  0
LINE
  8
0
 62
     0
 10
16.0693
 20
53.3495
 30
0.0
 11
16.0693
 21
56.6498
 31
0.0
  0
LINE
  8
0
 62
     0
 10
16.0693
 20
56.6498
 30
0.0
 11
15.1501
 21
56.6498
 31
0.0
  0
LINE
  8
0
 62
     0
 10
15.1501
 20
56.6498
 30
0.0
 11
15.1501
 21
58.3752
 31
0.0
  0
LINE
  8
0
 62
     0
 10
15.1501
 20
58.3752
 30
0.0
 11
11.92
 21
58.3752
 31
0.0
  0
LINE
  8
0
 62
     0
 10
11.92
 20
58.3752
 30
0.0
 11
11.92
 21
59.1993
 31
0.0
  0
LINE
  8
0
 62
     0
 10
11.92
 20
59.1993
 30
0.0
 11
9.11849
 21
59.1993
 31
0.0
  0
LINE
  8
0
 62
     0
 10
57.3871
 20
42.8611
 30
0.0
 11
57.3871
 21
41.8606
 31
0.0
  0
LINE
  8
0
 62
     0
 10
57.3871
 20
41.8606
 30
0.0
 11
56.5877
 21
41.8606
 31
0.0
  0
LINE
  8
0
 62
     0
 10
56.5877
 20
41.8606
 30
0.0
 11
56.5877
 21
38.76
 31
0.0
  0
LINE
  8
0
 62
     0
 10
56.5877
 20
38.76
 30
0.0
 11
57.3871
 21
38.76
 31
0.0
  0
LINE
  8
0
 62
     0
 10
57.3871
 20
38.76
 30
0.0
 11
57.3871
 21
38.1607
 31
0.0
  0
LINE
  8
0
 62
     0
 10
57.3871
 20
38.1607
 30
0.0
 11
55.8631
 21
38.1607
 31
0.0
  0
LINE
  8
0
 62
     0
 10
55.8631
 20
38.1607
 30
0.0
 11
55.8631
 21
41.3907
 31
0.0
  0
LINE
  8
0
 62
     0
 10
55.8631
 20
41.3907
 30
0.0
 11
54.1376
 21
41.3907
 31
0.0
  0
LINE
  8
0
 62
     0
 10
54.1376
 20
41.3907
 30
0.0
 11
54.1376
 21
42.3115
 31
0.0
  0
LINE
  8
0
 62
     0
 10
54.1376
 20
42.3115
 30
0.0
 11
50.837
 21
42.3115
 31
0.0
  0
LINE
  8
0
 62
     0
 10
50.837
 20
42.3115
 30
0.0
 11
50.837
 21
41.3907
 31
0.0
  0
LINE
  8
0
 62
     0
 10
50.837
 20
41.3907
 30
0.0
 11
49.112
 21
41.3907
 31
0.0
  0
LINE
  8
0
 62
     0
 10
49.112
 20
41.3907
 30
0.0
 11
49.112
 21
38.1607
 31
0.0
  0
LINE
  8
0
 62
     0
 10
49.112
 20
38.1607
 30
0.0
 11
48.2879
 21
38.1607
 31
0.0
  0
LINE
  8
0
 62
     0
 10
48.2879
 20
38.1607
 30
0.0
 11
48.2879
 21
35.3603
 31
0.0
  0
LINE
  8
0
 62
     0
 10
48.2879
 20
35.3603
 30
0.0
 11
49.112
 21
35.3603
 31
0.0
  0
LINE
  8
0
 62
     0
 10
49.112
 20
35.3603
 30
0.0
 11
49.112
 21
29.0904
 31
0.0
  0
LINE
  8
0
 62
     0
 10
49.112
 20
29.0904
 30
0.0
 11
50.837
 21
29.0904
 31
0.0
  0
LINE
  8
0
 62
     0
 10
50.837
 20
29.0904
 30
0.0
 11
50.837
 21
28.1106
 31
0.0
  0
LINE
  8
0
 62
     0
 10
50.837
 20
28.1106
 30
0.0
 11
54.1376
 21
28.1106
 31
0.0
  0
LINE
  8
0
 62
     0
 10
54.1376
 20
28.1106
 30
0.0
 11
54.1376
 21
29.0904
 31
0.0
  0
LINE
  8
0
 62
     0
 10
54.1376
 20
29.0904
 30
0.0
 11
55.8631
 21
29.0904
 31
0.0
  0
LINE
  8
0
 62
     0
 10
55.8631
 20
29.0904
 30
0.0
 11
55.8631
 21
33.5607
 31
0.0
  0
LINE
  8
0
 62
     0
 10
55.8631
 20
33.5607
 30
0.0
 11
57.3871
 21
33.5607
 31
0.0
  0
LINE
  8
0
 62
     0
 10
57.3871
 20
33.5607
 30
0.0
 11
57.3871
 21
32.9613
 31
0.0
  0
LINE
  8
0
 62
     0
 10
57.3871
 20
32.9613
 30
0.0
 11
56.5877
 21
32.9613
 31
0.0
  0
LINE
  8
0
 62
     0
 10
56.5877
 20
32.9613
 30
0.0
 11
56.5877
 21
29.8607
 31
0.0
  0
LINE
  8
0
 62
     0
 10
56.5877
 20
29.8607
 30
0.0
 11
57.3871
 21
29.8607
 31
0.0
  0
LINE
  8
0
 62
     0
 10
57.3871
 20
29.8607
 30
0.0
 11
57.3871
 21
28.8603
 31
0.0
  0
LINE
  8
0
 62
     0
 10
57.3871
 20
28.8603
 30
0.0
 11
71.3878
 21
28.8603
 31
0.0
  0
LINE
  8
0
 62
     0
 10
71.3878
 20
28.8603
 30
0.0
 11
71.3878
 21
29.8607
 31
0.0
  0
LINE
  8
0
 62
     0
 10
71.3878
 20
29.8607
 30
0.0
 11
72.1872
 21
29.8607
 31
0.0
  0
LINE
  8
0
 62
     0
 10
72.1872
 20
29.8607
 30
0.0
 11
72.1872
 21
32.9613
 31
0.0
  0
LINE
  8
0
 62
     0
 10
72.1872
 20
32.9613
 30
0.0
 11
71.3878
 21
32.9613
 31
0.0
  0
LINE
  8
0
 62
     0
 10
71.3878
 20
32.9613
 30
0.0
 11
71.3878
 21
33.5607
 31
0.0
  0
LINE
  8
0
 62
     0
 10
71.3878
 20
33.5607
 30
0.0
 11
72.9121
 21
33.5607
 31
0.0
  0
LINE
  8
0
 62
     0
 10
72.9121
 20
33.5607
 30
0.0
 11
72.9121
 21
29.0904
 31
0.0
  0
LINE
  8
0
 62
     0
 10
72.9121
 20
29.0904
 30
0.0
 11
74.6372
 21
29.0904
 31
0.0
  0
LINE
  8
0
 62
     0
 10
74.6372
 20
29.0904
 30
0.0
 11
74.6372
 21
28.1106
 31
0.0
  0
LINE
  8
0
 62
     0
 10
74.6372
 20
28.1106
 30
0.0
 11
77.9378
 21
28.1106
 31
0.0
  0
LINE
  8
0
 62
     0
 10
77.9378
 20
28.1106
 30
0.0
 11
77.9378
 21
29.0904
 31
0.0
  0
LINE
  8
0
 62
     0
 10
77.9378
 20
29.0904
 30
0.0
 11
79.6629
 21
29.0904
 31
0.0
  0
LINE
  8
0
 62
     0
 10
79.6629
 20
29.0904
 30
0.0
 11
79.6629
 21
35.3603
 31
0.0
  0
LINE
  8
0
 62
     0
 10
79.6629
 20
35.3603
 30
0.0
 11
80.487
 21
35.3603
 31
0.0
  0
LINE
  8
0
 62
     0
 10
80.487
 20
35.3603
 30
0.0
 11
80.487
 21
38.1607
 31
0.0
  0
LINE
  8
0
 62
     0
 10
80.487
 20
38.1607
 30
0.0
 11
79.6629
 21
38.1607
 31
0.0
  0
LINE
  8
0
 62
     0
 10
79.6629
 20
38.1607
 30
0.0
 11
79.6629
 21
41.3907
 31
0.0
  0
LINE
  8
0
 62
     0
 10
79.6629
 20
41.3907
 30
0.0
 11
77.9378
 21
41.3907
 31
0.0
  0
LINE
  8
0
 62
     0
 10
77.9378
 20
41.3907
 30
0.0
 11
77.9378
 21
42.3115
 31
0.0
  0
LINE
  8
0
 62
     0
 10
77.9378
 20
42.3115
 30
0.0
 11
74.6372
 21
42.3115
 31
0.0
  0
LINE
  8
0
 62
     0
 10
74.6372
 20
42.3115
 30
0.0
 11
74.6372
 21
41.3907
 31
0.0
  0
LINE
  8
0
 62
     0
 10
74.6372
 20
41.3907
 30
0.0
 11
72.9121
 21
41.3907
 31
0.0
  0
LINE
  8
0
 62
     0
 10
72.9121
 20
41.3907
 30
0.0
 11
72.9121
 21
38.1607
 31
0.0
  0
LINE
  8
0
 62
     0
 10
72.9121
 20
38.1607
 30
0.0
 11
71.3878
 21
38.1607
 31
0.0
  0
LINE
  8
0
 62
     0
 10
71.3878
 20
38.1607
 30
0.0
 11
71.3878
 21
38.76
 31
0.0
  0
LINE
  8
0
 62
     0
 10
71.3878
 20
38.76
 30
0.0
 11
72.1872
 21
38.76
 31
0.0
  0
LINE
  8
0
 62
     0
 10
72.1872
 20
38.76
 30
0.0
 11
72.1872
 21
41.8606
 31
0.0
  0
LINE
  8
0
 62
     0
 10
72.1872
 20
41.8606
 30
0.0
 11
71.3878
 21
41.8606
 31
0.0
  0
LINE
  8
0
 62
     0
 10
71.3878
 20
41.8606
 30
0.0
 11
71.3878
 21
42.8611
 31
0.0
  0
LINE
  8
0
 62
     0
 10
71.3878
 20
42.8611
 30
0.0
 11
57.3871
 21
42.8611
 31
0.0
  0
LINE
  8
0
 62
     0
 10
116.92
 20
59.6251
 30
0.0
 11
116.92
 21
58.6246
 31
0.0
  0
LINE
  8
0
 62
     0
 10
116.92
 20
58.6246
 30
0.0
 11
116.119
 21
58.6246
 31
0.0
  0
LINE
  8
0
 62
     0
 10
116.119
 20
58.6246
 30
0.0
 11
116.119
 21
55.5255
 31
0.0
  0
LINE
  8
0
 62
     0
 10
116.119
 20
55.5255
 30
0.0
 11
116.92
 21
55.5255
 31
0.0
  0
LINE
  8
0
 62
     0
 10
116.92
 20
55.5255
 30
0.0
 11
116.92
 21
49.7251
 31
0.0
  0
LINE
  8
0
 62
     0
 10
116.92
 20
49.7251
 30
0.0
 11
116.119
 21
49.7251
 31
0.0
  0
LINE
  8
0
 62
     0
 10
116.119
 20
49.7251
 30
0.0
 11
116.119
 21
46.6245
 31
0.0
  0
LINE
  8
0
 62
     0
 10
116.119
 20
46.6245
 30
0.0
 11
116.92
 21
46.6245
 31
0.0
  0
LINE
  8
0
 62
     0
 10
116.92
 20
46.6245
 30
0.0
 11
116.92
 21
45.624
 31
0.0
  0
LINE
  8
0
 62
     0
 10
116.92
 20
45.624
 30
0.0
 11
130.919
 21
45.624
 31
0.0
  0
LINE
  8
0
 62
     0
 10
130.919
 20
45.624
 30
0.0
 11
130.919
 21
46.6245
 31
0.0
  0
LINE
  8
0
 62
     0
 10
130.919
 20
46.6245
 30
0.0
 11
131.72
 21
46.6245
 31
0.0
  0
LINE
  8
0
 62
     0
 10
131.72
 20
46.6245
 30
0.0
 11
131.72
 21
49.7251
 31
0.0
  0
LINE
  8
0
 62
     0
 10
131.72
 20
49.7251
 30
0.0
 11
130.919
 21
49.7251
 31
0.0
  0
LINE
  8
0
 62
     0
 10
130.919
 20
49.7251
 30
0.0
 11
130.919
 21
55.5255
 31
0.0
  0
LINE
  8
0
 62
     0
 10
130.919
 20
55.5255
 30
0.0
 11
131.72
 21
55.5255
 31
0.0
  0
LINE
  8
0
 62
     0
 10
131.72
 20
55.5255
 30
0.0
 11
131.72
 21
58.6246
 31
0.0
  0
LINE
  8
0
 62
     0
 10
131.72
 20
58.6246
 30
0.0
 11
130.919
 21
58.6246
 31
0.0
  0
LINE
  8
0
 62
     0
 10
130.919
 20
58.6246
 30
0.0
 11
130.919
 21
59.6251
 31
0.0
  0
LINE
  8
0
 62
     0
 10
130.919
 20
59.6251
 30
0.0
 11
116.92
 21
59.6251
 31
0.0
  0
LINE
  8
0
 62
     0
 10
97.8697
 20
59.6251
 30
0.0
 11
97.8697
 21
58.6246
 31
0.0
  0
LINE
  8
0
 62
     0
 10
97.8697
 20
58.6246
 30
0.0
 11
97.0689
 21
58.6246
 31
0.0
  0
LINE
  8
0
 62
     0
 10
97.0689
 20
58.6246
 30
0.0
 11
97.0689
 21
55.5255
 31
0.0
  0
LINE
  8
0
 62
     0
 10
97.0689
 20
55.5255
 30
0.0
 11
97.8697
 21
55.5255
 31
0.0
  0
LINE
  8
0
 62
     0
 10
97.8697
 20
55.5255
 30
0.0
 11
97.8697
 21
49.7251
 31
0.0
  0
LINE
  8
0
 62
     0
 10
97.8697
 20
49.7251
 30
0.0
 11
97.0689
 21
49.7251
 31
0.0
  0
LINE
  8
0
 62
     0
 10
97.0689
 20
49.7251
 30
0.0
 11
97.0689
 21
46.6245
 31
0.0
  0
LINE
  8
0
 62
     0
 10
97.0689
 20
46.6245
 30
0.0
 11
97.8697
 21
46.6245
 31
0.0
  0
LINE
  8
0
 62
     0
 10
97.8697
 20
46.6245
 30
0.0
 11
97.8697
 21
45.624
 31
0.0
  0
LINE
  8
0
 62
     0
 10
97.8697
 20
45.624
 30
0.0
 11
111.869
 21
45.624
 31
0.0
  0
LINE
  8
0
 62
     0
 10
111.869
 20
45.624
 30
0.0
 11
111.869
 21
46.6245
 31
0.0
  0
LINE
  8
0
 62
     0
 10
111.869
 20
46.6245
 30
0.0
 11
112.67
 21
46.6245
 31
0.0
  0
LINE
  8
0
 62
     0
 10
112.67
 20
46.6245
 30
0.0
 11
112.67
 21
49.7251
 31
0.0
  0
LINE
  8
0
 62
     0
 10
112.67
 20
49.7251
 30
0.0
 11
111.869
 21
49.7251
 31
0.0
  0
LINE
  8
0
 62
     0
 10
111.869
 20
49.7251
 30
0.0
 11
111.869
 21
55.5255
 31
0.0
  0
LINE
  8
0
 62
     0
 10
111.869
 20
55.5255
 30
0.0
 11
112.67
 21
55.5255
 31
0.0
  0
LINE
  8
0
 62
     0
 10
112.67
 20
55.5255
 30
0.0
 11
112.67
 21
58.6246
 31
0.0
  0
LINE
  8
0
 62
     0
 10
112.67
 20
58.6246
 30
0.0
 11
111.869
 21
58.6246
 31
0.0
  0
LINE
  8
0
 62
     0
 10
111.869
 20
58.6246
 30
0.0
 11
111.869
 21
59.6251
 31
0.0
  0
LINE
  8
0
 62
     0
 10
111.869
 20
59.6251
 30
0.0
 11
97.8697
 21
59.6251
 31
0.0
  0
LINE
  8
0
 62
     0
 10
21.6697
 20
59.6251
 30
0.0
 11
21.6697
 21
58.6246
 31
0.0
  0
LINE
  8
0
 62
     0
 10
21.6697
 20
58.6246
 30
0.0
 11
20.869
 21
58.6246
 31
0.0
  0
LINE
  8
0
 62
     0
 10
20.869
 20
58.6246
 30
0.0
 11
20.869
 21
55.5255
 31
0.0
  0
LINE
  8
0
 62
     0
 10
20.869
 20
55.5255
 30
0.0
 11
21.6697
 21
55.5255
 31
0.0
  0
LINE
  8
0
 62
     0
 10
21.6697
 20
55.5255
 30
0.0
 11
21.6697
 21
49.7251
 31
0.0
  0
LINE
  8
0
 62
     0
 10
21.6697
 20
49.7251
 30
0.0
 11
20.869
 21
49.7251
 31
0.0
  0
LINE
  8
0
 62
     0
 10
20.869
 20
49.7251
 30
0.0
 11
20.869
 21
46.6245
 31
0.0
  0
LINE
  8
0
 62
     0
 10
20.869
 20
46.6245
 30
0.0
 11
21.6697
 21
46.6245
 31
0.0
  0
LINE
  8
0
 62
     0
 10
21.6697
 20
46.6245
 30
0.0
 11
21.6697
 21
45.624
 31
0.0
  0
LINE
  8
0
 62
     0
 10
21.6697
 20
45.624
 30
0.0
 11
35.669
 21
45.624
 31
0.0
  0
LINE
  8
0
 62
     0
 10
35.669
 20
45.624
 30
0.0
 11
35.669
 21
46.6245
 31
0.0
  0
LINE
  8
0
 62
     0
 10
35.669
 20
46.6245
 30
0.0
 11
36.4698
 21
46.6245
 31
0.0
  0
LINE
  8
0
 62
     0
 10
36.4698
 20
46.6245
 30
0.0
 11
36.4698
 21
49.7251
 31
0.0
  0
LINE
  8
0
 62
     0
 10
36.4698
 20
49.7251
 30
0.0
 11
35.669
 21
49.7251
 31
0.0
  0
LINE
  8
0
 62
     0
 10
35.669
 20
49.7251
 30
0.0
 11
35.669
 21
55.5255
 31
0.0
  0
LINE
  8
0
 62
     0
 10
35.669
 20
55.5255
 30
0.0
 11
36.4698
 21
55.5255
 31
0.0
  0
LINE
  8
0
 62
     0
 10
36.4698
 20
55.5255
 30
0.0
 11
36.4698
 21
58.6246
 31
0.0
  0
LINE
  8
0
 62
     0
 10
36.4698
 20
58.6246
 30
0.0
 11
35.669
 21
58.6246
 31
0.0
  0
LINE
  8
0
 62
     0
 10
35.669
 20
58.6246
 30
0.0
 11
35.669
 21
59.6251
 31
0.0
  0
LINE
  8
0
 62
     0
 10
35.669
 20
59.6251
 30
0.0
 11
21.6697
 21
59.6251
 31
0.0
  0
LINE
  8
0
 62
     0
 10
78.8197
 20
61.9111
 30
0.0
 11
78.8197
 21
60.9106
 31
0.0
  0
LINE
  8
0
 62
     0
 10
78.8197
 20
60.9106
 30
0.0
 11
78.0189
 21
60.9106
 31
0.0
  0
LINE
  8
0
 62
     0
 10
78.0189
 20
60.9106
 30
0.0
 11
78.0189
 21
57.81
 31
0.0
  0
LINE
  8
0
 62
     0
 10
78.0189
 20
57.81
 30
0.0
 11
78.8197
 21
57.81
 31
0.0
  0
LINE
  8
0
 62
     0
 10
78.8197
 20
57.81
 30
0.0
 11
78.8197
 21
52.0114
 31
0.0
  0
LINE
  8
0
 62
     0
 10
78.8197
 20
52.0114
 30
0.0
 11
78.0189
 21
52.0114
 31
0.0
  0
LINE
  8
0
 62
     0
 10
78.0189
 20
52.0114
 30
0.0
 11
78.0189
 21
48.9109
 31
0.0
  0
LINE
  8
0
 62
     0
 10
78.0189
 20
48.9109
 30
0.0
 11
78.8197
 21
48.9109
 31
0.0
  0
LINE
  8
0
 62
     0
 10
78.8197
 20
48.9109
 30
0.0
 11
78.8197
 21
47.9104
 31
0.0
  0
LINE
  8
0
 62
     0
 10
78.8197
 20
47.9104
 30
0.0
 11
92.819
 21
47.9104
 31
0.0
  0
LINE
  8
0
 62
     0
 10
92.819
 20
47.9104
 30
0.0
 11
92.819
 21
48.9109
 31
0.0
  0
LINE
  8
0
 62
     0
 10
92.819
 20
48.9109
 30
0.0
 11
93.6184
 21
48.9109
 31
0.0
  0
LINE
  8
0
 62
     0
 10
93.6184
 20
48.9109
 30
0.0
 11
93.6184
 21
52.0114
 31
0.0
  0
LINE
  8
0
 62
     0
 10
93.6184
 20
52.0114
 30
0.0
 11
92.819
 21
52.0114
 31
0.0
  0
LINE
  8
0
 62
     0
 10
92.819
 20
52.0114
 30
0.0
 11
92.819
 21
57.81
 31
0.0
  0
LINE
  8
0
 62
     0
 10
92.819
 20
57.81
 30
0.0
 11
93.6184
 21
57.81
 31
0.0
  0
LINE
  8
0
 62
     0
 10
93.6184
 20
57.81
 30
0.0
 11
93.6184
 21
60.9106
 31
0.0
  0
LINE
  8
0
 62
     0
 10
93.6184
 20
60.9106
 30
0.0
 11
92.819
 21
60.9106
 31
0.0
  0
LINE
  8
0
 62
     0
 10
92.819
 20
60.9106
 30
0.0
 11
92.819
 21
61.9111
 31
0.0
  0
LINE
  8
0
 62
     0
 10
92.819
 20
61.9111
 30
0.0
 11
78.8197
 21
61.9111
 31
0.0
  0
LINE
  8
0
 62
     0
 10
40.7197
 20
61.9111
 30
0.0
 11
40.7197
 21
60.9106
 31
0.0
  0
LINE
  8
0
 62
     0
 10
40.7197
 20
60.9106
 30
0.0
 11
39.9189
 21
60.9106
 31
0.0
  0
LINE
  8
0
 62
     0
 10
39.9189
 20
60.9106
 30
0.0
 11
39.9189
 21
57.81
 31
0.0
  0
LINE
  8
0
 62
     0
 10
39.9189
 20
57.81
 30
0.0
 11
40.7197
 21
57.81
 31
0.0
  0
LINE
  8
0
 62
     0
 10
40.7197
 20
57.81
 30
0.0
 11
40.7197
 21
52.0114
 31
0.0
  0
LINE
  8
0
 62
     0
 10
40.7197
 20
52.0114
 30
0.0
 11
39.9189
 21
52.0114
 31
0.0
  0
LINE
  8
0
 62
     0
 10
39.9189
 20
52.0114
 30
0.0
 11
39.9189
 21
48.9109
 31
0.0
  0
LINE
  8
0
 62
     0
 10
39.9189
 20
48.9109
 30
0.0
 11
40.7197
 21
48.9109
 31
0.0
  0
LINE
  8
0
 62
     0
 10
40.7197
 20
48.9109
 30
0.0
 11
40.7197
 21
47.9104
 31
0.0
  0
LINE
  8
0
 62
     0
 10
40.7197
 20
47.9104
 30
0.0
 11
54.719
 21
47.9104
 31
0.0
  0
LINE
  8
0
 62
     0
 10
54.719
 20
47.9104
 30
0.0
 11
54.719
 21
48.9109
 31
0.0
  0
LINE
  8
0
 62
     0
 10
54.719
 20
48.9109
 30
0.0
 11
55.5198
 21
48.9109
 31
0.0
  0
LINE
  8
0
 62
     0
 10
55.5198
 20
48.9109
 30
0.0
 11
55.5198
 21
52.0114
 31
0.0
  0
LINE
  8
0
 62
     0
 10
55.5198
 20
52.0114
 30
0.0
 11
54.719
 21
52.0114
 31
0.0
  0
LINE
  8
0
 62
     0
 10
54.719
 20
52.0114
 30
0.0
 11
54.719
 21
57.81
 31
0.0
  0
LINE
  8
0
 62
     0
 10
54.719
 20
57.81
 30
0.0
 11
55.5198
 21
57.81
 31
0.0
  0
LINE
  8
0
 62
     0
 10
55.5198
 20
57.81
 30
0.0
 11
55.5198
 21
60.9106
 31
0.0
  0
LINE
  8
0
 62
     0
 10
55.5198
 20
60.9106
 30
0.0
 11
54.719
 21
60.9106
 31
0.0
  0
LINE
  8
0
 62
     0
 10
54.719
 20
60.9106
 30
0.0
 11
54.719
 21
61.9111
 31
0.0
  0
LINE
  8
0
 62
     0
 10
54.719
 20
61.9111
 30
0.0
 11
40.7197
 21
61.9111
 31
0.0
  0
LINE
  8
0
 62
     0
 10
59.7697
 20
65.3397
 30
0.0
 11
59.7697
 21
64.3393
 31
0.0
  0
LINE
  8
0
 62
     0
 10
59.7697
 20
64.3393
 30
0.0
 11
58.9689
 21
64.3393
 31
0.0
  0
LINE
  8
0
 62
     0
 10
58.9689
 20
64.3393
 30
0.0
 11
58.9689
 21
61.2401
 31
0.0
  0
LINE
  8
0
 62
     0
 10
58.9689
 20
61.2401
 30
0.0
 11
59.7697
 21
61.2401
 31
0.0
  0
LINE
  8
0
 62
     0
 10
59.7697
 20
61.2401
 30
0.0
 11
59.7697
 21
55.4397
 31
0.0
  0
LINE
  8
0
 62
     0
 10
59.7697
 20
55.4397
 30
0.0
 11
58.9689
 21
55.4397
 31
0.0
  0
LINE
  8
0
 62
     0
 10
58.9689
 20
55.4397
 30
0.0
 11
58.9689
 21
52.3392
 31
0.0
  0
LINE
  8
0
 62
     0
 10
58.9689
 20
52.3392
 30
0.0
 11
59.7697
 21
52.3392
 31
0.0
  0
LINE
  8
0
 62
     0
 10
59.7697
 20
52.3392
 30
0.0
 11
59.7697
 21
51.3401
 31
0.0
  0
LINE
  8
0
 62
     0
 10
59.7697
 20
51.3401
 30
0.0
 11
73.769
 21
51.3401
 31
0.0
  0
LINE
  8
0
 62
     0
 10
73.769
 20
51.3401
 30
0.0
 11
73.769
 21
52.3392
 31
0.0
  0
LINE
  8
0
 62
     0
 10
73.769
 20
52.3392
 30
0.0
 11
74.5698
 21
52.3392
 31
0.0
  0
LINE
  8
0
 62
     0
 10
74.5698
 20
52.3392
 30
0.0
 11
74.5698
 21
55.4397
 31
0.0
  0
LINE
  8
0
 62
     0
 10
74.5698
 20
55.4397
 30
0.0
 11
73.769
 21
55.4397
 31
0.0
  0
LINE
  8
0
 62
     0
 10
73.769
 20
55.4397
 30
0.0
 11
73.769
 21
61.2401
 31
0.0
  0
LINE
  8
0
 62
     0
 10
73.769
 20
61.2401
 30
0.0
 11
74.5698
 21
61.2401
 31
0.0
  0
LINE
  8
0
 62
     0
 10
74.5698
 20
61.2401
 30
0.0
 11
74.5698
 21
64.3393
 31
0.0
  0
LINE
  8
0
 62
     0
 10
74.5698
 20
64.3393
 30
0.0
 11
73.769
 21
64.3393
 31
0.0
  0
LINE
  8
0
 62
     0
 10
73.769
 20
64.3393
 30
0.0
 11
73.769
 21
65.3397
 31
0.0
  0
LINE
  8
0
 62
     0
 10
73.769
 20
65.3397
 30
0.0
 11
59.7697
 21
65.3397
 31
0.0
  0
LINE
  8
0
 62
     0
 10
116.92
 20
78.6751
 30
0.0
 11
116.92
 21
77.6746
 31
0.0
  0
LINE
  8
0
 62
     0
 10
116.92
 20
77.6746
 30
0.0
 11
116.119
 21
77.6746
 31
0.0
  0
LINE
  8
0
 62
     0
 10
116.119
 20
77.6746
 30
0.0
 11
116.119
 21
74.5755
 31
0.0
  0
LINE
  8
0
 62
     0
 10
116.119
 20
74.5755
 30
0.0
 11
116.92
 21
74.5755
 31
0.0
  0
LINE
  8
0
 62
     0
 10
116.92
 20
74.5755
 30
0.0
 11
116.92
 21
68.7751
 31
0.0
  0
LINE
  8
0
 62
     0
 10
116.92
 20
68.7751
 30
0.0
 11
116.119
 21
68.7751
 31
0.0
  0
LINE
  8
0
 62
     0
 10
116.119
 20
68.7751
 30
0.0
 11
116.119
 21
65.6745
 31
0.0
  0
LINE
  8
0
 62
     0
 10
116.119
 20
65.6745
 30
0.0
 11
116.92
 21
65.6745
 31
0.0
  0
LINE
  8
0
 62
     0
 10
116.92
 20
65.6745
 30
0.0
 11
116.92
 21
64.674
 31
0.0
  0
LINE
  8
0
 62
     0
 10
116.92
 20
64.674
 30
0.0
 11
130.919
 21
64.674
 31
0.0
  0
LINE
  8
0
 62
     0
 10
130.919
 20
64.674
 30
0.0
 11
130.919
 21
65.6745
 31
0.0
  0
LINE
  8
0
 62
     0
 10
130.919
 20
65.6745
 30
0.0
 11
131.72
 21
65.6745
 31
0.0
  0
LINE
  8
0
 62
     0
 10
131.72
 20
65.6745
 30
0.0
 11
131.72
 21
68.7751
 31
0.0
  0
LINE
  8
0
 62
     0
 10
131.72
 20
68.7751
 30
0.0
 11
130.919
 21
68.7751
 31
0.0
  0
LINE
  8
0
 62
     0
 10
130.919
 20
68.7751
 30
0.0
 11
130.919
 21
74.5755
 31
0.0
  0
LINE
  8
0
 62
     0
 10
130.919
 20
74.5755
 30
0.0
 11
131.72
 21
74.5755
 31
0.0
  0
LINE
  8
0
 62
     0
 10
131.72
 20
74.5755
 30
0.0
 11
131.72
 21
77.6746
 31
0.0
  0
LINE
  8
0
 62
     0
 10
131.72
 20
77.6746
 30
0.0
 11
130.919
 21
77.6746
 31
0.0
  0
LINE
  8
0
 62
     0
 10
130.919
 20
77.6746
 30
0.0
 11
130.919
 21
78.6751
 31
0.0
  0
LINE
  8
0
 62
     0
 10
130.919
 20
78.6751
 30
0.0
 11
116.92
 21
78.6751
 31
0.0
  0
LINE
  8
0
 62
     0
 10
97.8697
 20
78.6751
 30
0.0
 11
97.8697
 21
77.6746
 31
0.0
  0
LINE
  8
0
 62
     0
 10
97.8697
 20
77.6746
 30
0.0
 11
97.0689
 21
77.6746
 31
0.0
  0
LINE
  8
0
 62
     0
 10
97.0689
 20
77.6746
 30
0.0
 11
97.0689
 21
74.5755
 31
0.0
  0
LINE
  8
0
 62
     0
 10
97.0689
 20
74.5755
 30
0.0
 11
97.8697
 21
74.5755
 31
0.0
  0
LINE
  8
0
 62
     0
 10
97.8697
 20
74.5755
 30
0.0
 11
97.8697
 21
68.7751
 31
0.0
  0
LINE
  8
0
 62
     0
 10
97.8697
 20
68.7751
 30
0.0
 11
97.0689
 21
68.7751
 31
0.0
  0
LINE
  8
0
 62
     0
 10
97.0689
 20
68.7751
 30
0.0
 11
97.0689
 21
65.6745
 31
0.0
  0
LINE
  8
0
 62
     0
 10
97.0689
 20
65.6745
 30
0.0
 11
97.8697
 21
65.6745
 31
0.0
  0
LINE
  8
0
 62
     0
 10
97.8697
 20
65.6745
 30
0.0
 11
97.8697
 21
64.674
 31
0.0
  0
LINE
  8
0
 62
     0
 10
97.8697
 20
64.674
 30
0.0
 11
111.869
 21
64.674
 31
0.0
  0
LINE
  8
0
 62
     0
 10
111.869
 20
64.674
 30
0.0
 11
111.869
 21
65.6745
 31
0.0
  0
LINE
  8
0
 62
     0
 10
111.869
 20
65.6745
 30
0.0
 11
112.67
 21
65.6745
 31
0.0
  0
LINE
  8
0
 62
     0
 10
112.67
 20
65.6745
 30
0.0
 11
112.67
 21
68.7751
 31
0.0
  0
LINE
  8
0
 62
     0
 10
112.67
 20
68.7751
 30
0.0
 11
111.869
 21
68.7751
 31
0.0
  0
LINE
  8
0
 62
     0
 10
111.869
 20
68.7751
 30
0.0
 11
111.869
 21
74.5755
 31
0.0
  0
LINE
  8
0
 62
     0
 10
111.869
 20
74.5755
 30
0.0
 11
112.67
 21
74.5755
 31
0.0
  0
LINE
  8
0
 62
     0
 10
112.67
 20
74.5755
 30
0.0
 11
112.67
 21
77.6746
 31
0.0
  0
LINE
  8
0
 62
     0
 10
112.67
 20
77.6746
 30
0.0
 11
111.869
 21
77.6746
 31
0.0
  0
LINE
  8
0
 62
     0
 10
111.869
 20
77.6746
 30
0.0
 11
111.869
 21
78.6751
 31
0.0
  0
LINE
  8
0
 62
     0
 10
111.869
 20
78.6751
 30
0.0
 11
97.8697
 21
78.6751
 31
0.0
  0
LINE
  8
0
 62
     0
 10
21.6697
 20
78.6751
 30
0.0
 11
21.6697
 21
77.6746
 31
0.0
  0
LINE
  8
0
 62
     0
 10
21.6697
 20
77.6746
 30
0.0
 11
20.869
 21
77.6746
 31
0.0
  0
LINE
  8
0
 62
     0
 10
20.869
 20
77.6746
 30
0.0
 11
20.869
 21
74.5755
 31
0.0
  0
LINE
  8
0
 62
     0
 10
20.869
 20
74.5755
 30
0.0
 11
21.6697
 21
74.5755
 31
0.0
  0
LINE
  8
0
 62
     0
 10
21.6697
 20
74.5755
 30
0.0
 11
21.6697
 21
68.7751
 31
0.0
  0
LINE
  8
0
 62
     0
 10
21.6697
 20
68.7751
 30
0.0
 11
20.869
 21
68.7751
 31
0.0
  0
LINE
  8
0
 62
     0
 10
20.869
 20
68.7751
 30
0.0
 11
20.869
 21
65.6745
 31
0.0
  0
LINE
  8
0
 62
     0
 10
20.869
 20
65.6745
 30
0.0
 11
21.6697
 21
65.6745
 31
0.0
  0
LINE
  8
0
 62
     0
 10
21.6697
 20
65.6745
 30
0.0
 11
21.6697
 21
64.674
 31
0.0
  0
LINE
  8
0
 62
     0
 10
21.6697
 20
64.674
 30
0.0
 11
35.669
 21
64.674
 31
0.0
  0
LINE
  8
0
 62
     0
 10
35.669
 20
64.674
 30
0.0
 11
35.669
 21
65.6745
 31
0.0
  0
LINE
  8
0
 62
     0
 10
35.669
 20
65.6745
 30
0.0
 11
36.4698
 21
65.6745
 31
0.0
  0
LINE
  8
0
 62
     0
 10
36.4698
 20
65.6745
 30
0.0
 11
36.4698
 21
68.7751
 31
0.0
  0
LINE
  8
0
 62
     0
 10
36.4698
 20
68.7751
 30
0.0
 11
35.669
 21
68.7751
 31
0.0
  0
LINE
  8
0
 62
     0
 10
35.669
 20
68.7751
 30
0.0
 11
35.669
 21
74.5755
 31
0.0
  0
LINE
  8
0
 62
     0
 10
35.669
 20
74.5755
 30
0.0
 11
36.4698
 21
74.5755
 31
0.0
  0
LINE
  8
0
 62
     0
 10
36.4698
 20
74.5755
 30
0.0
 11
36.4698
 21
77.6746
 31
0.0
  0
LINE
  8
0
 62
     0
 10
36.4698
 20
77.6746
 30
0.0
 11
35.669
 21
77.6746
 31
0.0
  0
LINE
  8
0
 62
     0
 10
35.669
 20
77.6746
 30
0.0
 11
35.669
 21
78.6751
 31
0.0
  0
LINE
  8
0
 62
     0
 10
35.669
 20
78.6751
 30
0.0
 11
21.6697
 21
78.6751
 31
0.0
  0
LINE
  8
0
 62
     0
 10
78.8197
 20
80.9611
 30
0.0
 11
78.8197
 21
79.9606
 31
0.0
  0
LINE
  8
0
 62
     0
 10
78.8197
 20
79.9606
 30
0.0
 11
78.0189
 21
79.9606
 31
0.0
  0
LINE
  8
0
 62
     0
 10
78.0189
 20
79.9606
 30
0.0
 11
78.0189
 21
76.86
 31
0.0
  0
LINE
  8
0
 62
     0
 10
78.0189
 20
76.86
 30
0.0
 11
78.8197
 21
76.86
 31
0.0
  0
LINE
  8
0
 62
     0
 10
78.8197
 20
76.86
 30
0.0
 11
78.8197
 21
71.0614
 31
0.0
  0
LINE
  8
0
 62
     0
 10
78.8197
 20
71.0614
 30
0.0
 11
78.0189
 21
71.0614
 31
0.0
  0
LINE
  8
0
 62
     0
 10
78.0189
 20
71.0614
 30
0.0
 11
78.0189
 21
67.9609
 31
0.0
  0
LINE
  8
0
 62
     0
 10
78.0189
 20
67.9609
 30
0.0
 11
78.8197
 21
67.9609
 31
0.0
  0
LINE
  8
0
 62
     0
 10
78.8197
 20
67.9609
 30
0.0
 11
78.8197
 21
66.9604
 31
0.0
  0
LINE
  8
0
 62
     0
 10
78.8197
 20
66.9604
 30
0.0
 11
92.819
 21
66.9604
 31
0.0
  0
LINE
  8
0
 62
     0
 10
92.819
 20
66.9604
 30
0.0
 11
92.819
 21
67.9609
 31
0.0
  0
LINE
  8
0
 62
     0
 10
92.819
 20
67.9609
 30
0.0
 11
93.6184
 21
67.9609
 31
0.0
  0
LINE
  8
0
 62
     0
 10
93.6184
 20
67.9609
 30
0.0
 11
93.6184
 21
71.0614
 31
0.0
  0
LINE
  8
0
 62
     0
 10
93.6184
 20
71.0614
 30
0.0
 11
92.819
 21
71.0614
 31
0.0
  0
LINE
  8
0
 62
     0
 10
92.819
 20
71.0614
 30
0.0
 11
92.819
 21
76.86
 31
0.0
  0
LINE
  8
0
 62
     0
 10
92.819
 20
76.86
 30
0.0
 11
93.6184
 21
76.86
 31
0.0
  0
LINE
  8
0
 62
     0
 10
93.6184
 20
76.86
 30
0.0
 11
93.6184
 21
79.9606
 31
0.0
  0
LINE
  8
0
 62
     0
 10
93.6184
 20
79.9606
 30
0.0
 11
92.819
 21
79.9606
 31
0.0
  0
LINE
  8
0
 62
     0
 10
92.819
 20
79.9606
 30
0.0
 11
92.819
 21
80.9611
 31
0.0
  0
LINE
  8
0
 62
     0
 10
92.819
 20
80.9611
 30
0.0
 11
78.8197
 21
80.9611
 31
0.0
  0
LINE
  8
0
 62
     0
 10
40.7197
 20
80.9611
 30
0.0
 11
40.7197
 21
79.9606
 31
0.0
  0
LINE
  8
0
 62
     0
 10
40.7197
 20
79.9606
 30
0.0
 11
39.9189
 21
79.9606
 31
0.0
  0
LINE
  8
0
 62
     0
 10
39.9189
 20
79.9606
 30
0.0
 11
39.9189
 21
76.86
 31
0.0
  0
LINE
  8
0
 62
     0
 10
39.9189
 20
76.86
 30
0.0
 11
40.7197
 21
76.86
 31
0.0
  0
LINE
  8
0
 62
     0
 10
40.7197
 20
76.86
 30
0.0
 11
40.7197
 21
71.0614
 31
0.0
  0
LINE
  8
0
 62
     0
 10
40.7197
 20
71.0614
 30
0.0
 11
39.9189
 21
71.0614
 31
0.0
  0
LINE
  8
0
 62
     0
 10
39.9189
 20
71.0614
 30
0.0
 11
39.9189
 21
67.9609
 31
0.0
  0
LINE
  8
0
 62
     0
 10
39.9189
 20
67.9609
 30
0.0
 11
40.7197
 21
67.9609
 31
0.0
  0
LINE
  8
0
 62
     0
 10
40.7197
 20
67.9609
 30
0.0
 11
40.7197
 21
66.9604
 31
0.0
  0
LINE
  8
0
 62
     0
 10
40.7197
 20
66.9604
 30
0.0
 11
54.719
 21
66.9604
 31
0.0
  0
LINE
  8
0
 62
     0
 10
54.719
 20
66.9604
 30
0.0
 11
54.719
 21
67.9609
 31
0.0
  0
LINE
  8
0
 62
     0
 10
54.719
 20
67.9609
 30
0.0
 11
55.5198
 21
67.9609
 31
0.0
  0
LINE
  8
0
 62
     0
 10
55.5198
 20
67.9609
 30
0.0
 11
55.5198
 21
71.0614
 31
0.0
  0
LINE
  8
0
 62
     0
 10
55.5198
 20
71.0614
 30
0.0
 11
54.719
 21
71.0614
 31
0.0
  0
LINE
  8
0
 62
     0
 10
54.719
 20
71.0614
 30
0.0
 11
54.719
 21
76.86
 31
0.0
  0
LINE
  8
0
 62
     0
 10
54.719
 20
76.86
 30
0.0
 11
55.5198
 21
76.86
 31
0.0
  0
LINE
  8
0
 62
     0
 10
55.5198
 20
76.86
 30
0.0
 11
55.5198
 21
79.9606
 31
0.0
  0
LINE
  8
0
 62
     0
 10
55.5198
 20
79.9606
 30
0.0
 11
54.719
 21
79.9606
 31
0.0
  0
LINE
  8
0
 62
     0
 10
54.719
 20
79.9606
 30
0.0
 11
54.719
 21
80.9611
 31
0.0
  0
LINE
  8
0
 62
     0
 10
54.719
 20
80.9611
 30
0.0
 11
40.7197
 21
80.9611
 31
0.0
  0
LINE
  8
0
 62
     0
 10
3.61872
 20
84.238
 30
0.0
 11
3.6201
 21
83.4376
 31
0.0
  0
LINE
  8
0
 62
     0
 10
3.6201
 20
83.4376
 30
0.0
 11
2.61965
 21
83.4376
 31
0.0
  0
LINE
  8
0
 62
     0
 10
2.61965
 20
83.4376
 30
0.0
 11
2.61965
 21
69.438
 31
0.0
  0
LINE
  8
0
 62
     0
 10
2.61965
 20
69.438
 30
0.0
 11
3.6201
 21
69.438
 31
0.0
  0
LINE
  8
0
 62
     0
 10
3.6201
 20
69.438
 30
0.0
 11
3.6201
 21
68.6375
 31
0.0
  0
LINE
  8
0
 62
     0
 10
3.6201
 20
68.6375
 30
0.0
 11
6.71932
 21
68.6375
 31
0.0
  0
LINE
  8
0
 62
     0
 10
6.71932
 20
68.6375
 30
0.0
 11
6.71932
 21
69.438
 31
0.0
  0
LINE
  8
0
 62
     0
 10
6.71932
 20
69.438
 30
0.0
 11
12.5195
 21
69.438
 31
0.0
  0
LINE
  8
0
 62
     0
 10
12.5195
 20
69.438
 30
0.0
 11
12.5195
 21
68.6375
 31
0.0
  0
LINE
  8
0
 62
     0
 10
12.5195
 20
68.6375
 30
0.0
 11
15.62
 21
68.6375
 31
0.0
  0
LINE
  8
0
 62
     0
 10
15.62
 20
68.6375
 30
0.0
 11
15.62
 21
69.438
 31
0.0
  0
LINE
  8
0
 62
     0
 10
15.62
 20
69.438
 30
0.0
 11
16.6192
 21
69.438
 31
0.0
  0
LINE
  8
0
 62
     0
 10
16.6192
 20
69.438
 30
0.0
 11
16.6192
 21
83.4376
 31
0.0
  0
LINE
  8
0
 62
     0
 10
16.6192
 20
83.4376
 30
0.0
 11
15.62
 21
83.4376
 31
0.0
  0
LINE
  8
0
 62
     0
 10
15.62
 20
83.4376
 30
0.0
 11
15.62
 21
84.238
 31
0.0
  0
LINE
  8
0
 62
     0
 10
15.62
 20
84.238
 30
0.0
 11
12.5195
 21
84.238
 31
0.0
  0
LINE
  8
0
 62
     0
 10
12.5195
 20
84.238
 30
0.0
 11
12.5195
 21
83.4376
 31
0.0
  0
LINE
  8
0
 62
     0
 10
12.5195
 20
83.4376
 30
0.0
 11
6.71932
 21
83.4376
 31
0.0
  0
LINE
  8
0
 62
     0
 10
6.71932
 20
83.4376
 30
0.0
 11
6.71932
 21
84.238
 31
0.0
  0
LINE
  8
0
 62
     0
 10
6.71932
 20
84.238
 30
0.0
 11
3.61872
 21
84.238
 31
0.0
  0
LINE
  8
0
 62
     0
 10
59.7697
 20
84.3897
 30
0.0
 11
59.7697
 21
83.3893
 31
0.0
  0
LINE
  8
0
 62
     0
 10
59.7697
 20
83.3893
 30
0.0
 11
58.9689
 21
83.3893
 31
0.0
  0
LINE
  8
0
 62
     0
 10
58.9689
 20
83.3893
 30
0.0
 11
58.9689
 21
80.2901
 31
0.0
  0
LINE
  8
0
 62
     0
 10
58.9689
 20
80.2901
 30
0.0
 11
59.7697
 21
80.2901
 31
0.0
  0
LINE
  8
0
 62
     0
 10
59.7697
 20
80.2901
 30
0.0
 11
59.7697
 21
74.4897
 31
0.0
  0
LINE
  8
0
 62
     0
 10
59.7697
 20
74.4897
 30
0.0
 11
58.9689
 21
74.4897
 31
0.0
  0
LINE
  8
0
 62
     0
 10
58.9689
 20
74.4897
 30
0.0
 11
58.9689
 21
71.3892
 31
0.0
  0
LINE
  8
0
 62
     0
 10
58.9689
 20
71.3892
 30
0.0
 11
59.7697
 21
71.3892
 31
0.0
  0
LINE
  8
0
 62
     0
 10
59.7697
 20
71.3892
 30
0.0
 11
59.7697
 21
70.3901
 31
0.0
  0
LINE
  8
0
 62
     0
 10
59.7697
 20
70.3901
 30
0.0
 11
73.769
 21
70.3901
 31
0.0
  0
LINE
  8
0
 62
     0
 10
73.769
 20
70.3901
 30
0.0
 11
73.769
 21
71.3892
 31
0.0
  0
LINE
  8
0
 62
     0
 10
73.769
 20
71.3892
 30
0.0
 11
74.5698
 21
71.3892
 31
0.0
  0
LINE
  8
0
 62
     0
 10
74.5698
 20
71.3892
 30
0.0
 11
74.5698
 21
74.4897
 31
0.0
  0
LINE
  8
0
 62
     0
 10
74.5698
 20
74.4897
 30
0.0
 11
73.769
 21
74.4897
 31
0.0
  0
LINE
  8
0
 62
     0
 10
73.769
 20
74.4897
 30
0.0
 11
73.769
 21
80.2901
 31
0.0
  0
LINE
  8
0
 62
     0
 10
73.769
 20
80.2901
 30
0.0
 11
74.5698
 21
80.2901
 31
0.0
  0
LINE
  8
0
 62
     0
 10
74.5698
 20
80.2901
 30
0.0
 11
74.5698
 21
83.3893
 31
0.0
  0
LINE
  8
0
 62
     0
 10
74.5698
 20
83.3893
 30
0.0
 11
73.769
 21
83.3893
 31
0.0
  0
LINE
  8
0
 62
     0
 10
73.769
 20
83.3893
 30
0.0
 11
73.769
 21
84.3897
 31
0.0
  0
LINE
  8
0
 62
     0
 10
73.769
 20
84.3897
 30
0.0
 11
59.7697
 21
84.3897
 31
0.0
  0
LINE
  8
0
 62
     0
 10
116.92
 20
97.7251
 30
0.0
 11
116.92
 21
96.7246
 31
0.0
  0
LINE
  8
0
 62
     0
 10
116.92
 20
96.7246
 30
0.0
 11
116.119
 21
96.7246
 31
0.0
  0
LINE
  8
0
 62
     0
 10
116.119
 20
96.7246
 30
0.0
 11
116.119
 21
93.6255
 31
0.0
  0
LINE
  8
0
 62
     0
 10
116.119
 20
93.6255
 30
0.0
 11
116.92
 21
93.6255
 31
0.0
  0
LINE
  8
0
 62
     0
 10
116.92
 20
93.6255
 30
0.0
 11
116.92
 21
87.8251
 31
0.0
  0
LINE
  8
0
 62
     0
 10
116.92
 20
87.8251
 30
0.0
 11
116.119
 21
87.8251
 31
0.0
  0
LINE
  8
0
 62
     0
 10
116.119
 20
87.8251
 30
0.0
 11
116.119
 21
84.7245
 31
0.0
  0
LINE
  8
0
 62
     0
 10
116.119
 20
84.7245
 30
0.0
 11
116.92
 21
84.7245
 31
0.0
  0
LINE
  8
0
 62
     0
 10
116.92
 20
84.7245
 30
0.0
 11
116.92
 21
83.724
 31
0.0
  0
LINE
  8
0
 62
     0
 10
116.92
 20
83.724
 30
0.0
 11
130.919
 21
83.724
 31
0.0
  0
LINE
  8
0
 62
     0
 10
130.919
 20
83.724
 30
0.0
 11
130.919
 21
84.7245
 31
0.0
  0
LINE
  8
0
 62
     0
 10
130.919
 20
84.7245
 30
0.0
 11
131.72
 21
84.7245
 31
0.0
  0
LINE
  8
0
 62
     0
 10
131.72
 20
84.7245
 30
0.0
 11
131.72
 21
87.8251
 31
0.0
  0
LINE
  8
0
 62
     0
 10
131.72
 20
87.8251
 30
0.0
 11
130.919
 21
87.8251
 31
0.0
  0
LINE
  8
0
 62
     0
 10
130.919
 20
87.8251
 30
0.0
 11
130.919
 21
93.6255
 31
0.0
  0
LINE
  8
0
 62
     0
 10
130.919
 20
93.6255
 30
0.0
 11
131.72
 21
93.6255
 31
0.0
  0
LINE
  8
0
 62
     0
 10
131.72
 20
93.6255
 30
0.0
 11
131.72
 21
96.7246
 31
0.0
  0
LINE
  8
0
 62
     0
 10
131.72
 20
96.7246
 30
0.0
 11
130.919
 21
96.7246
 31
0.0
  0
LINE
  8
0
 62
     0
 10
130.919
 20
96.7246
 30
0.0
 11
130.919
 21
97.7251
 31
0.0
  0
LINE
  8
0
 62
     0
 10
130.919
 20
97.7251
 30
0.0
 11
116.92
 21
97.7251
 31
0.0
  0
LINE
  8
0
 62
     0
 10
97.8697
 20
97.7251
 30
0.0
 11
97.8697
 21
96.7246
 31
0.0
  0
LINE
  8
0
 62
     0
 10
97.8697
 20
96.7246
 30
0.0
 11
97.0689
 21
96.7246
 31
0.0
  0
LINE
  8
0
 62
     0
 10
97.0689
 20
96.7246
 30
0.0
 11
97.0689
 21
93.6255
 31
0.0
  0
LINE
  8
0
 62
     0
 10
97.0689
 20
93.6255
 30
0.0
 11
97.8697
 21
93.6255
 31
0.0
  0
LINE
  8
0
 62
     0
 10
97.8697
 20
93.6255
 30
0.0
 11
97.8697
 21
87.8251
 31
0.0
  0
LINE
  8
0
 62
     0
 10
97.8697
 20
87.8251
 30
0.0
 11
97.0689
 21
87.8251
 31
0.0
  0
LINE
  8
0
 62
     0
 10
97.0689
 20
87.8251
 30
0.0
 11
97.0689
 21
84.7245
 31
0.0
  0
LINE
  8
0
 62
     0
 10
97.0689
 20
84.7245
 30
0.0
 11
97.8697
 21
84.7245
 31
0.0
  0
LINE
  8
0
 62
     0
 10
97.8697
 20
84.7245
 30
0.0
 11
97.8697
 21
83.724
 31
0.0
  0
LINE
  8
0
 62
     0
 10
97.8697
 20
83.724
 30
0.0
 11
111.869
 21
83.724
 31
0.0
  0
LINE
  8
0
 62
     0
 10
111.869
 20
83.724
 30
0.0
 11
111.869
 21
84.7245
 31
0.0
  0
LINE
  8
0
 62
     0
 10
111.869
 20
84.7245
 30
0.0
 11
112.67
 21
84.7245
 31
0.0
  0
LINE
  8
0
 62
     0
 10
112.67
 20
84.7245
 30
0.0
 11
112.67
 21
87.8251
 31
0.0
  0
LINE
  8
0
 62
     0
 10
112.67
 20
87.8251
 30
0.0
 11
111.869
 21
87.8251
 31
0.0
  0
LINE
  8
0
 62
     0
 10
111.869
 20
87.8251
 30
0.0
 11
111.869
 21
93.6255
 31
0.0
  0
LINE
  8
0
 62
     0
 10
111.869
 20
93.6255
 30
0.0
 11
112.67
 21
93.6255
 31
0.0
  0
LINE
  8
0
 62
     0
 10
112.67
 20
93.6255
 30
0.0
 11
112.67
 21
96.7246
 31
0.0
  0
LINE
  8
0
 62
     0
 10
112.67
 20
96.7246
 30
0.0
 11
111.869
 21
96.7246
 31
0.0
  0
LINE
  8
0
 62
     0
 10
111.869
 20
96.7246
 30
0.0
 11
111.869
 21
97.7251
 31
0.0
  0
LINE
  8
0
 62
     0
 10
111.869
 20
97.7251
 30
0.0
 11
97.8697
 21
97.7251
 31
0.0
  0
LINE
  8
0
 62
     0
 10
21.6697
 20
97.7251
 30
0.0
 11
21.6697
 21
96.7246
 31
0.0
  0
LINE
  8
0
 62
     0
 10
21.6697
 20
96.7246
 30
0.0
 11
20.869
 21
96.7246
 31
0.0
  0
LINE
  8
0
 62
     0
 10
20.869
 20
96.7246
 30
0.0
 11
20.869
 21
93.6255
 31
0.0
  0
LINE
  8
0
 62
     0
 10
20.869
 20
93.6255
 30
0.0
 11
21.6697
 21
93.6255
 31
0.0
  0
LINE
  8
0
 62
     0
 10
21.6697
 20
93.6255
 30
0.0
 11
21.6697
 21
87.8251
 31
0.0
  0
LINE
  8
0
 62
     0
 10
21.6697
 20
87.8251
 30
0.0
 11
20.869
 21
87.8251
 31
0.0
  0
LINE
  8
0
 62
     0
 10
20.869
 20
87.8251
 30
0.0
 11
20.869
 21
84.7245
 31
0.0
  0
LINE
  8
0
 62
     0
 10
20.869
 20
84.7245
 30
0.0
 11
21.6697
 21
84.7245
 31
0.0
  0
LINE
  8
0
 62
     0
 10
21.6697
 20
84.7245
 30
0.0
 11
21.6697
 21
83.724
 31
0.0
  0
LINE
  8
0
 62
     0
 10
21.6697
 20
83.724
 30
0.0
 11
35.669
 21
83.724
 31
0.0
  0
LINE
  8
0
 62
     0
 10
35.669
 20
83.724
 30
0.0
 11
35.669
 21
84.7245
 31
0.0
  0
LINE
  8
0
 62
     0
 10
35.669
 20
84.7245
 30
0.0
 11
36.4698
 21
84.7245
 31
0.0
  0
LINE
  8
0
 62
     0
 10
36.4698
 20
84.7245
 30
0.0
 11
36.4698
 21
87.8251
 31
0.0
  0
LINE
  8
0
 62
     0
 10
36.4698
 20
87.8251
 30
0.0
 11
35.669
 21
87.8251
 31
0.0
  0
LINE
  8
0
 62
     0
 10
35.669
 20
87.8251
 30
0.0
 11
35.669
 21
93.6255
 31
0.0
  0
LINE
  8
0
 62
     0
 10
35.669
 20
93.6255
 30
0.0
 11
36.4698
 21
93.6255
 31
0.0
  0
LINE
  8
0
 62
     0
 10
36.4698
 20
93.6255
 30
0.0
 11
36.4698
 21
96.7246
 31
0.0
  0
LINE
  8
0
 62
     0
 10
36.4698
 20
96.7246
 30
0.0
 11
35.669
 21
96.7246
 31
0.0
  0
LINE
  8
0
 62
     0
 10
35.669
 20
96.7246
 30
0.0
 11
35.669
 21
97.7251
 31
0.0
  0
LINE
  8
0
 62
     0
 10
35.669
 20
97.7251
 30
0.0
 11
21.6697
 21
97.7251
 31
0.0
  0
LINE
  8
0
 62
     0
 10
78.8197
 20
100.011
 30
0.0
 11
78.8197
 21
99.0106
 31
0.0
  0
LINE
  8
0
 62
     0
 10
78.8197
 20
99.0106
 30
0.0
 11
78.0189
 21
99.0106
 31
0.0
  0
LINE
  8
0
 62
     0
 10
78.0189
 20
99.0106
 30
0.0
 11
78.0189
 21
95.91
 31
0.0
  0
LINE
  8
0
 62
     0
 10
78.0189
 20
95.91
 30
0.0
 11
78.8197
 21
95.91
 31
0.0
  0
LINE
  8
0
 62
     0
 10
78.8197
 20
95.91
 30
0.0
 11
78.8197
 21
90.1114
 31
0.0
  0
LINE
  8
0
 62
     0
 10
78.8197
 20
90.1114
 30
0.0
 11
78.0189
 21
90.1114
 31
0.0
  0
LINE
  8
0
 62
     0
 10
78.0189
 20
90.1114
 30
0.0
 11
78.0189
 21
87.0109
 31
0.0
  0
LINE
  8
0
 62
     0
 10
78.0189
 20
87.0109
 30
0.0
 11
78.8197
 21
87.0109
 31
0.0
  0
LINE
  8
0
 62
     0
 10
78.8197
 20
87.0109
 30
0.0
 11
78.8197
 21
86.0104
 31
0.0
  0
LINE
  8
0
 62
     0
 10
78.8197
 20
86.0104
 30
0.0
 11
92.819
 21
86.0104
 31
0.0
  0
LINE
  8
0
 62
     0
 10
92.819
 20
86.0104
 30
0.0
 11
92.819
 21
87.0109
 31
0.0
  0
LINE
  8
0
 62
     0
 10
92.819
 20
87.0109
 30
0.0
 11
93.6184
 21
87.0109
 31
0.0
  0
LINE
  8
0
 62
     0
 10
93.6184
 20
87.0109
 30
0.0
 11
93.6184
 21
90.1114
 31
0.0
  0
LINE
  8
0
 62
     0
 10
93.6184
 20
90.1114
 30
0.0
 11
92.819
 21
90.1114
 31
0.0
  0
LINE
  8
0
 62
     0
 10
92.819
 20
90.1114
 30
0.0
 11
92.819
 21
95.91
 31
0.0
  0
LINE
  8
0
 62
     0
 10
92.819
 20
95.91
 30
0.0
 11
93.6184
 21
95.91
 31
0.0
  0
LINE
  8
0
 62
     0
 10
93.6184
 20
95.91
 30
0.0
 11
93.6184
 21
99.0106
 31
0.0
  0
LINE
  8
0
 62
     0
 10
93.6184
 20
99.0106
 30
0.0
 11
92.819
 21
99.0106
 31
0.0
  0
LINE
  8
0
 62
     0
 10
92.819
 20
99.0106
 30
0.0
 11
92.819
 21
100.011
 31
0.0
  0
LINE
  8
0
 62
     0
 10
92.819
 20
100.011
 30
0.0
 11
78.8197
 21
100.011
 31
0.0
  0
LINE
  8
0
 62
     0
 10
40.7197
 20
100.011
 30
0.0
 11
40.7197
 21
99.0106
 31
0.0
  0
LINE
  8
0
 62
     0
 10
40.7197
 20
99.0106
 30
0.0
 11
39.9189
 21
99.0106
 31
0.0
  0
LINE
  8
0
 62
     0
 10
39.9189
 20
99.0106
 30
0.0
 11
39.9189
 21
95.91
 31
0.0
  0
LINE
  8
0
 62
     0
 10
39.9189
 20
95.91
 30
0.0
 11
40.7197
 21
95.91
 31
0.0
  0
LINE
  8
0
 62
     0
 10
40.7197
 20
95.91
 30
0.0
 11
40.7197
 21
90.1114
 31
0.0
  0
LINE
  8
0
 62
     0
 10
40.7197
 20
90.1114
 30
0.0
 11
39.9189
 21
90.1114
 31
0.0
  0
LINE
  8
0
 62
     0
 10
39.9189
 20
90.1114
 30
0.0
 11
39.9189
 21
87.0109
 31
0.0
  0
LINE
  8
0
 62
     0
 10
39.9189
 20
87.0109
 30
0.0
 11
40.7197
 21
87.0109
 31
0.0
  0
LINE
  8
0
 62
     0
 10
40.7197
 20
87.0109
 30
0.0
 11
40.7197
 21
86.0104
 31
0.0
  0
LINE
  8
0
 62
     0
 10
40.7197
 20
86.0104
 30
0.0
 11
54.719
 21
86.0104
 31
0.0
  0
LINE
  8
0
 62
     0
 10
54.719
 20
86.0104
 30
0.0
 11
54.719
 21
87.0109
 31
0.0
  0
LINE
  8
0
 62
     0
 10
54.719
 20
87.0109
 30
0.0
 11
55.5198
 21
87.0109
 31
0.0
  0
LINE
  8
0
 62
     0
 10
55.5198
 20
87.0109
 30
0.0
 11
55.5198
 21
90.1114
 31
0.0
  0
LINE
  8
0
 62
     0
 10
55.5198
 20
90.1114
 30
0.0
 11
54.719
 21
90.1114
 31
0.0
  0
LINE
  8
0
 62
     0
 10
54.719
 20
90.1114
 30
0.0
 11
54.719
 21
95.91
 31
0.0
  0
LINE
  8
0
 62
     0
 10
54.719
 20
95.91
 30
0.0
 11
55.5198
 21
95.91
 31
0.0
  0
LINE
  8
0
 62
     0
 10
55.5198
 20
95.91
 30
0.0
 11
55.5198
 21
99.0106
 31
0.0
  0
LINE
  8
0
 62
     0
 10
55.5198
 20
99.0106
 30
0.0
 11
54.719
 21
99.0106
 31
0.0
  0
LINE
  8
0
 62
     0
 10
54.719
 20
99.0106
 30
0.0
 11
54.719
 21
100.011
 31
0.0
  0
LINE
  8
0
 62
     0
 10
54.719
 20
100.011
 30
0.0
 11
40.7197
 21
100.011
 31
0.0
  0
LINE
  8
0
 62
     0
 10
59.7697
 20
103.44
 30
0.0
 11
59.7697
 21
102.439
 31
0.0
  0
LINE
  8
0
 62
     0
 10
59.7697
 20
102.439
 30
0.0
 11
58.9689
 21
102.439
 31
0.0
  0
LINE
  8
0
 62
     0
 10
58.9689
 20
102.439
 30
0.0
 11
58.9689
 21
99.3401
 31
0.0
  0
LINE
  8
0
 62
     0
 10
58.9689
 20
99.3401
 30
0.0
 11
59.7697
 21
99.3401
 31
0.0
  0
LINE
  8
0
 62
     0
 10
59.7697
 20
99.3401
 30
0.0
 11
59.7697
 21
93.5397
 31
0.0
  0
LINE
  8
0
 62
     0
 10
59.7697
 20
93.5397
 30
0.0
 11
58.9689
 21
93.5397
 31
0.0
  0
LINE
  8
0
 62
     0
 10
58.9689
 20
93.5397
 30
0.0
 11
58.9689
 21
90.4392
 31
0.0
  0
LINE
  8
0
 62
     0
 10
58.9689
 20
90.4392
 30
0.0
 11
59.7697
 21
90.4392
 31
0.0
  0
LINE
  8
0
 62
     0
 10
59.7697
 20
90.4392
 30
0.0
 11
59.7697
 21
89.4401
 31
0.0
  0
LINE
  8
0
 62
     0
 10
59.7697
 20
89.4401
 30
0.0
 11
73.769
 21
89.4401
 31
0.0
  0
LINE
  8
0
 62
     0
 10
73.769
 20
89.4401
 30
0.0
 11
73.769
 21
90.4392
 31
0.0
  0
LINE
  8
0
 62
     0
 10
73.769
 20
90.4392
 30
0.0
 11
74.5698
 21
90.4392
 31
0.0
  0
LINE
  8
0
 62
     0
 10
74.5698
 20
90.4392
 30
0.0
 11
74.5698
 21
93.5397
 31
0.0
  0
LINE
  8
0
 62
     0
 10
74.5698
 20
93.5397
 30
0.0
 11
73.769
 21
93.5397
 31
0.0
  0
LINE
  8
0
 62
     0
 10
73.769
 20
93.5397
 30
0.0
 11
73.769
 21
99.3401
 31
0.0
  0
LINE
  8
0
 62
     0
 10
73.769
 20
99.3401
 30
0.0
 11
74.5698
 21
99.3401
 31
0.0
  0
LINE
  8
0
 62
     0
 10
74.5698
 20
99.3401
 30
0.0
 11
74.5698
 21
102.439
 31
0.0
  0
LINE
  8
0
 62
     0
 10
74.5698
 20
102.439
 30
0.0
 11
73.769
 21
102.439
 31
0.0
  0
LINE
  8
0
 62
     0
 10
73.769
 20
102.439
 30
0.0
 11
73.769
 21
103.44
 31
0.0
  0
LINE
  8
0
 62
     0
 10
73.769
 20
103.44
 30
0.0
 11
59.7697
 21
103.44
 31
0.0
  0
LINE
  8
0
 62
     0
 10
2.61965
 20
107.25
 30
0.0
 11
2.61965
 21
106.25
 31
0.0
  0
LINE
  8
0
 62
     0
 10
2.61965
 20
106.25
 30
0.0
 11
1.81901
 21
106.25
 31
0.0
  0
LINE
  8
0
 62
     0
 10
1.81901
 20
106.25
 30
0.0
 11
1.81901
 21
103.15
 31
0.0
  0
LINE
  8
0
 62
     0
 10
1.81901
 20
103.15
 30
0.0
 11
2.61965
 21
103.15
 31
0.0
  0
LINE
  8
0
 62
     0
 10
2.61965
 20
103.15
 30
0.0
 11
2.61965
 21
97.3501
 31
0.0
  0
LINE
  8
0
 62
     0
 10
2.61965
 20
97.3501
 30
0.0
 11
1.81901
 21
97.3501
 31
0.0
  0
LINE
  8
0
 62
     0
 10
1.81901
 20
97.3501
 30
0.0
 11
1.81901
 21
94.2495
 31
0.0
  0
LINE
  8
0
 62
     0
 10
1.81901
 20
94.2495
 30
0.0
 11
2.61965
 21
94.2495
 31
0.0
  0
LINE
  8
0
 62
     0
 10
2.61965
 20
94.2495
 30
0.0
 11
2.61965
 21
93.249
 31
0.0
  0
LINE
  8
0
 62
     0
 10
2.61965
 20
93.249
 30
0.0
 11
16.6192
 21
93.249
 31
0.0
  0
LINE
  8
0
 62
     0
 10
16.6192
 20
93.249
 30
0.0
 11
16.6192
 21
94.2495
 31
0.0
  0
LINE
  8
0
 62
     0
 10
16.6192
 20
94.2495
 30
0.0
 11
17.4198
 21
94.2495
 31
0.0
  0
LINE
  8
0
 62
     0
 10
17.4198
 20
94.2495
 30
0.0
 11
17.4198
 21
97.3501
 31
0.0
  0
LINE
  8
0
 62
     0
 10
17.4198
 20
97.3501
 30
0.0
 11
16.6192
 21
97.3501
 31
0.0
  0
LINE
  8
0
 62
     0
 10
16.6192
 20
97.3501
 30
0.0
 11
16.6192
 21
103.15
 31
0.0
  0
LINE
  8
0
 62
     0
 10
16.6192
 20
103.15
 30
0.0
 11
17.4198
 21
103.15
 31
0.0
  0
LINE
  8
0
 62
     0
 10
17.4198
 20
103.15
 30
0.0
 11
17.4198
 21
106.25
 31
0.0
  0
LINE
  8
0
 62
     0
 10
17.4198
 20
106.25
 30
0.0
 11
16.6192
 21
106.25
 31
0.0
  0
LINE
  8
0
 62
     0
 10
16.6192
 20
106.25
 30
0.0
 11
16.6192
 21
107.25
 31
0.0
  0
LINE
  8
0
 62
     0
 10
16.6192
 20
107.25
 30
0.0
 11
2.61965
 21
107.25
 31
0.0
  0
LINE
  8
0
 62
     0
 10
116.92
 20
116.775
 30
0.0
 11
116.92
 21
115.775
 31
0.0
  0
LINE
  8
0
 62
     0
 10
116.92
 20
115.775
 30
0.0
 11
116.119
 21
115.775
 31
0.0
  0
LINE
  8
0
 62
     0
 10
116.119
 20
115.775
 30
0.0
 11
116.119
 21
112.675
 31
0.0
  0
LINE
  8
0
 62
     0
 10
116.119
 20
112.675
 30
0.0
 11
116.92
 21
112.675
 31
0.0
  0
LINE
  8
0
 62
     0
 10
116.92
 20
112.675
 30
0.0
 11
116.92
 21
106.875
 31
0.0
  0
LINE
  8
0
 62
     0
 10
116.92
 20
106.875
 30
0.0
 11
116.119
 21
106.875
 31
0.0
  0
LINE
  8
0
 62
     0
 10
116.119
 20
106.875
 30
0.0
 11
116.119
 21
103.775
 31
0.0
  0
LINE
  8
0
 62
     0
 10
116.119
 20
103.775
 30
0.0
 11
116.92
 21
103.775
 31
0.0
  0
LINE
  8
0
 62
     0
 10
116.92
 20
103.775
 30
0.0
 11
116.92
 21
102.774
 31
0.0
  0
LINE
  8
0
 62
     0
 10
116.92
 20
102.774
 30
0.0
 11
130.919
 21
102.774
 31
0.0
  0
LINE
  8
0
 62
     0
 10
130.919
 20
102.774
 30
0.0
 11
130.919
 21
103.775
 31
0.0
  0
LINE
  8
0
 62
     0
 10
130.919
 20
103.775
 30
0.0
 11
131.72
 21
103.775
 31
0.0
  0
LINE
  8
0
 62
     0
 10
131.72
 20
103.775
 30
0.0
 11
131.72
 21
106.875
 31
0.0
  0
LINE
  8
0
 62
     0
 10
131.72
 20
106.875
 30
0.0
 11
130.919
 21
106.875
 31
0.0
  0
LINE
  8
0
 62
     0
 10
130.919
 20
106.875
 30
0.0
 11
130.919
 21
112.675
 31
0.0
  0
LINE
  8
0
 62
     0
 10
130.919
 20
112.675
 30
0.0
 11
131.72
 21
112.675
 31
0.0
  0
LINE
  8
0
 62
     0
 10
131.72
 20
112.675
 30
0.0
 11
131.72
 21
115.775
 31
0.0
  0
LINE
  8
0
 62
     0
 10
131.72
 20
115.775
 30
0.0
 11
130.919
 21
115.775
 31
0.0
  0
LINE
  8
0
 62
     0
 10
130.919
 20
115.775
 30
0.0
 11
130.919
 21
116.775
 31
0.0
  0
LINE
  8
0
 62
     0
 10
130.919
 20
116.775
 30
0.0
 11
116.92
 21
116.775
 31
0.0
  0
LINE
  8
0
 62
     0
 10
97.8697
 20
116.775
 30
0.0
 11
97.8697
 21
115.775
 31
0.0
  0
LINE
  8
0
 62
     0
 10
97.8697
 20
115.775
 30
0.0
 11
97.0689
 21
115.775
 31
0.0
  0
LINE
  8
0
 62
     0
 10
97.0689
 20
115.775
 30
0.0
 11
97.0689
 21
112.675
 31
0.0
  0
LINE
  8
0
 62
     0
 10
97.0689
 20
112.675
 30
0.0
 11
97.8697
 21
112.675
 31
0.0
  0
LINE
  8
0
 62
     0
 10
97.8697
 20
112.675
 30
0.0
 11
97.8697
 21
106.875
 31
0.0
  0
LINE
  8
0
 62
     0
 10
97.8697
 20
106.875
 30
0.0
 11
97.0689
 21
106.875
 31
0.0
  0
LINE
  8
0
 62
     0
 10
97.0689
 20
106.875
 30
0.0
 11
97.0689
 21
103.775
 31
0.0
  0
LINE
  8
0
 62
     0
 10
97.0689
 20
103.775
 30
0.0
 11
97.8697
 21
103.775
 31
0.0
  0
LINE
  8
0
 62
     0
 10
97.8697
 20
103.775
 30
0.0
 11
97.8697
 21
102.774
 31
0.0
  0
LINE
  8
0
 62
     0
 10
97.8697
 20
102.774
 30
0.0
 11
111.869
 21
102.774
 31
0.0
  0
LINE
  8
0
 62
     0
 10
111.869
 20
102.774
 30
0.0
 11
111.869
 21
103.775
 31
0.0
  0
LINE
  8
0
 62
     0
 10
111.869
 20
103.775
 30
0.0
 11
112.67
 21
103.775
 31
0.0
  0
LINE
  8
0
 62
     0
 10
112.67
 20
103.775
 30
0.0
 11
112.67
 21
106.875
 31
0.0
  0
LINE
  8
0
 62
     0
 10
112.67
 20
106.875
 30
0.0
 11
111.869
 21
106.875
 31
0.0
  0
LINE
  8
0
 62
     0
 10
111.869
 20
106.875
 30
0.0
 11
111.869
 21
112.675
 31
0.0
  0
LINE
  8
0
 62
     0
 10
111.869
 20
112.675
 30
0.0
 11
112.67
 21
112.675
 31
0.0
  0
LINE
  8
0
 62
     0
 10
112.67
 20
112.675
 30
0.0
 11
112.67
 21
115.775
 31
0.0
  0
LINE
  8
0
 62
     0
 10
112.67
 20
115.775
 30
0.0
 11
111.869
 21
115.775
 31
0.0
  0
LINE
  8
0
 62
     0
 10
111.869
 20
115.775
 30
0.0
 11
111.869
 21
116.775
 31
0.0
  0
LINE
  8
0
 62
     0
 10
111.869
 20
116.775
 30
0.0
 11
97.8697
 21
116.775
 31
0.0
  0
LINE
  8
0
 62
     0
 10
21.6697
 20
116.775
 30
0.0
 11
21.6697
 21
115.775
 31
0.0
  0
LINE
  8
0
 62
     0
 10
21.6697
 20
115.775
 30
0.0
 11
20.869
 21
115.775
 31
0.0
  0
LINE
  8
0
 62
     0
 10
20.869
 20
115.775
 30
0.0
 11
20.869
 21
112.675
 31
0.0
  0
LINE
  8
0
 62
     0
 10
20.869
 20
112.675
 30
0.0
 11
21.6697
 21
112.675
 31
0.0
  0
LINE
  8
0
 62
     0
 10
21.6697
 20
112.675
 30
0.0
 11
21.6697
 21
106.875
 31
0.0
  0
LINE
  8
0
 62
     0
 10
21.6697
 20
106.875
 30
0.0
 11
20.869
 21
106.875
 31
0.0
  0
LINE
  8
0
 62
     0
 10
20.869
 20
106.875
 30
0.0
 11
20.869
 21
103.775
 31
0.0
  0
LINE
  8
0
 62
     0
 10
20.869
 20
103.775
 30
0.0
 11
21.6697
 21
103.775
 31
0.0
  0
LINE
  8
0
 62
     0
 10
21.6697
 20
103.775
 30
0.0
 11
21.6697
 21
102.774
 31
0.0
  0
LINE
  8
0
 62
     0
 10
21.6697
 20
102.774
 30
0.0
 11
35.669
 21
102.774
 31
0.0
  0
LINE
  8
0
 62
     0
 10
35.669
 20
102.774
 30
0.0
 11
35.669
 21
103.775
 31
0.0
  0
LINE
  8
0
 62
     0
 10
35.669
 20
103.775
 30
0.0
 11
36.4698
 21
103.775
 31
0.0
  0
LINE
  8
0
 62
     0
 10
36.4698
 20
103.775
 30
0.0
 11
36.4698
 21
106.875
 31
0.0
  0
LINE
  8
0
 62
     0
 10
36.4698
 20
106.875
 30
0.0
 11
35.669
 21
106.875
 31
0.0
  0
LINE
  8
0
 62
     0
 10
35.669
 20
106.875
 30
0.0
 11
35.669
 21
112.675
 31
0.0
  0
LINE
  8
0
 62
     0
 10
35.669
 20
112.675
 30
0.0
 11
36.4698
 21
112.675
 31
0.0
  0
LINE
  8
0
 62
     0
 10
36.4698
 20
112.675
 30
0.0
 11
36.4698
 21
115.775
 31
0.0
  0
LINE
  8
0
 62
     0
 10
36.4698
 20
115.775
 30
0.0
 11
35.669
 21
115.775
 31
0.0
  0
LINE
  8
0
 62
     0
 10
35.669
 20
115.775
 30
0.0
 11
35.669
 21
116.775
 31
0.0
  0
LINE
  8
0
 62
     0
 10
35.669
 20
116.775
 30
0.0
 11
21.6697
 21
116.775
 31
0.0
  0
LINE
  8
0
 62
     0
 10
78.8197
 20
119.061
 30
0.0
 11
78.8197
 21
118.061
 31
0.0
  0
LINE
  8
0
 62
     0
 10
78.8197
 20
118.061
 30
0.0
 11
78.0189
 21
118.061
 31
0.0
  0
LINE
  8
0
 62
     0
 10
78.0189
 20
118.061
 30
0.0
 11
78.0189
 21
114.96
 31
0.0
  0
LINE
  8
0
 62
     0
 10
78.0189
 20
114.96
 30
0.0
 11
78.8197
 21
114.96
 31
0.0
  0
LINE
  8
0
 62
     0
 10
78.8197
 20
114.96
 30
0.0
 11
78.8197
 21
109.161
 31
0.0
  0
LINE
  8
0
 62
     0
 10
78.8197
 20
109.161
 30
0.0
 11
78.0189
 21
109.161
 31
0.0
  0
LINE
  8
0
 62
     0
 10
78.0189
 20
109.161
 30
0.0
 11
78.0189
 21
106.061
 31
0.0
  0
LINE
  8
0
 62
     0
 10
78.0189
 20
106.061
 30
0.0
 11
78.8197
 21
106.061
 31
0.0
  0
LINE
  8
0
 62
     0
 10
78.8197
 20
106.061
 30
0.0
 11
78.8197
 21
105.06
 31
0.0
  0
LINE
  8
0
 62
     0
 10
78.8197
 20
105.06
 30
0.0
 11
92.819
 21
105.06
 31
0.0
  0
LINE
  8
0
 62
     0
 10
92.819
 20
105.06
 30
0.0
 11
92.819
 21
106.061
 31
0.0
  0
LINE
  8
0
 62
     0
 10
92.819
 20
106.061
 30
0.0
 11
93.6184
 21
106.061
 31
0.0
  0
LINE
  8
0
 62
     0
 10
93.6184
 20
106.061
 30
0.0
 11
93.6184
 21
109.161
 31
0.0
  0
LINE
  8
0
 62
     0
 10
93.6184
 20
109.161
 30
0.0
 11
92.819
 21
109.161
 31
0.0
  0
LINE
  8
0
 62
     0
 10
92.819
 20
109.161
 30
0.0
 11
92.819
 21
114.96
 31
0.0
  0
LINE
  8
0
 62
     0
 10
92.819
 20
114.96
 30
0.0
 11
93.6184
 21
114.96
 31
0.0
  0
LINE
  8
0
 62
     0
 10
93.6184
 20
114.96
 30
0.0
 11
93.6184
 21
118.061
 31
0.0
  0
LINE
  8
0
 62
     0
 10
93.6184
 20
118.061
 30
0.0
 11
92.819
 21
118.061
 31
0.0
  0
LINE
  8
0
 62
     0
 10
92.819
 20
118.061
 30
0.0
 11
92.819
 21
119.061
 31
0.0
  0
LINE
  8
0
 62
     0
 10
92.819
 20
119.061
 30
0.0
 11
78.8197
 21
119.061
 31
0.0
  0
LINE
  8
0
 62
     0
 10
40.7197
 20
119.061
 30
0.0
 11
40.7197
 21
118.061
 31
0.0
  0
LINE
  8
0
 62
     0
 10
40.7197
 20
118.061
 30
0.0
 11
39.9189
 21
118.061
 31
0.0
  0
LINE
  8
0
 62
     0
 10
39.9189
 20
118.061
 30
0.0
 11
39.9189
 21
114.96
 31
0.0
  0
LINE
  8
0
 62
     0
 10
39.9189
 20
114.96
 30
0.0
 11
40.7197
 21
114.96
 31
0.0
  0
LINE
  8
0
 62
     0
 10
40.7197
 20
114.96
 30
0.0
 11
40.7197
 21
109.161
 31
0.0
  0
LINE
  8
0
 62
     0
 10
40.7197
 20
109.161
 30
0.0
 11
39.9189
 21
109.161
 31
0.0
  0
LINE
  8
0
 62
     0
 10
39.9189
 20
109.161
 30
0.0
 11
39.9189
 21
106.061
 31
0.0
  0
LINE
  8
0
 62
     0
 10
39.9189
 20
106.061
 30
0.0
 11
40.7197
 21
106.061
 31
0.0
  0
LINE
  8
0
 62
     0
 10
40.7197
 20
106.061
 30
0.0
 11
40.7197
 21
105.06
 31
0.0
  0
LINE
  8
0
 62
     0
 10
40.7197
 20
105.06
 30
0.0
 11
54.719
 21
105.06
 31
0.0
  0
LINE
  8
0
 62
     0
 10
54.719
 20
105.06
 30
0.0
 11
54.719
 21
106.061
 31
0.0
  0
LINE
  8
0
 62
     0
 10
54.719
 20
106.061
 30
0.0
 11
55.5198
 21
106.061
 31
0.0
  0
LINE
  8
0
 62
     0
 10
55.5198
 20
106.061
 30
0.0
 11
55.5198
 21
109.161
 31
0.0
  0
LINE
  8
0
 62
     0
 10
55.5198
 20
109.161
 30
0.0
 11
54.719
 21
109.161
 31
0.0
  0
LINE
  8
0
 62
     0
 10
54.719
 20
109.161
 30
0.0
 11
54.719
 21
114.96
 31
0.0
  0
LINE
  8
0
 62
     0
 10
54.719
 20
114.96
 30
0.0
 11
55.5198
 21
114.96
 31
0.0
  0
LINE
  8
0
 62
     0
 10
55.5198
 20
114.96
 30
0.0
 11
55.5198
 21
118.061
 31
0.0
  0
LINE
  8
0
 62
     0
 10
55.5198
 20
118.061
 30
0.0
 11
54.719
 21
118.061
 31
0.0
  0
LINE
  8
0
 62
     0
 10
54.719
 20
118.061
 30
0.0
 11
54.719
 21
119.061
 31
0.0
  0
LINE
  8
0
 62
     0
 10
54.719
 20
119.061
 30
0.0
 11
40.7197
 21
119.061
 31
0.0
  0
LINE
  8
0
 62
     0
 10
59.7697
 20
122.49
 30
0.0
 11
59.7697
 21
121.489
 31
0.0
  0
LINE
  8
0
 62
     0
 10
59.7697
 20
121.489
 30
0.0
 11
58.9689
 21
121.489
 31
0.0
  0
LINE
  8
0
 62
     0
 10
58.9689
 20
121.489
 30
0.0
 11
58.9689
 21
118.39
 31
0.0
  0
LINE
  8
0
 62
     0
 10
58.9689
 20
118.39
 30
0.0
 11
59.7697
 21
118.39
 31
0.0
  0
LINE
  8
0
 62
     0
 10
59.7697
 20
118.39
 30
0.0
 11
59.7697
 21
112.59
 31
0.0
  0
LINE
  8
0
 62
     0
 10
59.7697
 20
112.59
 30
0.0
 11
58.9689
 21
112.59
 31
0.0
  0
LINE
  8
0
 62
     0
 10
58.9689
 20
112.59
 30
0.0
 11
58.9689
 21
109.489
 31
0.0
  0
LINE
  8
0
 62
     0
 10
58.9689
 20
109.489
 30
0.0
 11
59.7697
 21
109.489
 31
0.0
  0
LINE
  8
0
 62
     0
 10
59.7697
 20
109.489
 30
0.0
 11
59.7697
 21
108.49
 31
0.0
  0
LINE
  8
0
 62
     0
 10
59.7697
 20
108.49
 30
0.0
 11
73.769
 21
108.49
 31
0.0
  0
LINE
  8
0
 62
     0
 10
73.769
 20
108.49
 30
0.0
 11
73.769
 21
109.489
 31
0.0
  0
LINE
  8
0
 62
     0
 10
73.769
 20
109.489
 30
0.0
 11
74.5698
 21
109.489
 31
0.0
  0
LINE
  8
0
 62
     0
 10
74.5698
 20
109.489
 30
0.0
 11
74.5698
 21
112.59
 31
0.0
  0
LINE
  8
0
 62
     0
 10
74.5698
 20
112.59
 30
0.0
 11
73.769
 21
112.59
 31
0.0
  0
LINE
  8
0
 62
     0
 10
73.769
 20
112.59
 30
0.0
 11
73.769
 21
118.39
 31
0.0
  0
LINE
  8
0
 62
     0
 10
73.769
 20
118.39
 30
0.0
 11
74.5698
 21
118.39
 31
0.0
  0
LINE
  8
0
 62
     0
 10
74.5698
 20
118.39
 30
0.0
 11
74.5698
 21
121.489
 31
0.0
  0
LINE
  8
0
 62
     0
 10
74.5698
 20
121.489
 30
0.0
 11
73.769
 21
121.489
 31
0.0
  0
LINE
  8
0
 62
     0
 10
73.769
 20
121.489
 30
0.0
 11
73.769
 21
122.49
 31
0.0
  0
LINE
  8
0
 62
     0
 10
73.769
 20
122.49
 30
0.0
 11
59.7697
 21
122.49
 31
0.0
  0
LINE
  8
0
 62
     0
 10
2.61965
 20
133.539
 30
0.0
 11
2.61965
 21
132.538
 31
0.0
  0
LINE
  8
0
 62
     0
 10
2.61965
 20
132.538
 30
0.0
 11
1.81901
 21
132.538
 31
0.0
  0
LINE
  8
0
 62
     0
 10
1.81901
 20
132.538
 30
0.0
 11
1.81901
 21
129.439
 31
0.0
  0
LINE
  8
0
 62
     0
 10
1.81901
 20
129.439
 30
0.0
 11
2.61965
 21
129.439
 31
0.0
  0
LINE
  8
0
 62
     0
 10
2.61965
 20
129.439
 30
0.0
 11
2.61965
 21
123.639
 31
0.0
  0
LINE
  8
0
 62
     0
 10
2.61965
 20
123.639
 30
0.0
 11
1.81901
 21
123.639
 31
0.0
  0
LINE
  8
0
 62
     0
 10
1.81901
 20
123.639
 30
0.0
 11
1.81901
 21
120.539
 31
0.0
  0
LINE
  8
0
 62
     0
 10
1.81901
 20
120.539
 30
0.0
 11
2.61965
 21
120.539
 31
0.0
  0
LINE
  8
0
 62
     0
 10
2.61965
 20
120.539
 30
0.0
 11
2.61965
 21
119.539
 31
0.0
  0
LINE
  8
0
 62
     0
 10
2.61965
 20
119.539
 30
0.0
 11
16.6192
 21
119.539
 31
0.0
  0
LINE
  8
0
 62
     0
 10
16.6192
 20
119.539
 30
0.0
 11
16.6192
 21
120.539
 31
0.0
  0
LINE
  8
0
 62
     0
 10
16.6192
 20
120.539
 30
0.0
 11
17.4198
 21
120.539
 31
0.0
  0
LINE
  8
0
 62
     0
 10
17.4198
 20
120.539
 30
0.0
 11
17.4198
 21
123.639
 31
0.0
  0
LINE
  8
0
 62
     0
 10
17.4198
 20
123.639
 30
0.0
 11
16.6192
 21
123.639
 31
0.0
  0
LINE
  8
0
 62
     0
 10
16.6192
 20
123.639
 30
0.0
 11
16.6192
 21
129.439
 31
0.0
  0
LINE
  8
0
 62
     0
 10
16.6192
 20
129.439
 30
0.0
 11
17.4198
 21
129.439
 31
0.0
  0
LINE
  8
0
 62
     0
 10
17.4198
 20
129.439
 30
0.0
 11
17.4198
 21
132.538
 31
0.0
  0
LINE
  8
0
 62
     0
 10
17.4198
 20
132.538
 30
0.0
 11
16.6192
 21
132.538
 31
0.0
  0
LINE
  8
0
 62
     0
 10
16.6192
 20
132.538
 30
0.0
 11
16.6192
 21
133.539
 31
0.0
  0
LINE
  8
0
 62
     0
 10
16.6192
 20
133.539
 30
0.0
 11
2.61965
 21
133.539
 31
0.0
  0
LINE
  8
0
 62
     0
 10
116.92
 20
143.064
 30
0.0
 11
116.92
 21
142.063
 31
0.0
  0
LINE
  8
0
 62
     0
 10
116.92
 20
142.063
 30
0.0
 11
116.119
 21
142.063
 31
0.0
  0
LINE
  8
0
 62
     0
 10
116.119
 20
142.063
 30
0.0
 11
116.119
 21
138.964
 31
0.0
  0
LINE
  8
0
 62
     0
 10
116.119
 20
138.964
 30
0.0
 11
116.92
 21
138.964
 31
0.0
  0
LINE
  8
0
 62
     0
 10
116.92
 20
138.964
 30
0.0
 11
116.92
 21
133.164
 31
0.0
  0
LINE
  8
0
 62
     0
 10
116.92
 20
133.164
 30
0.0
 11
116.119
 21
133.164
 31
0.0
  0
LINE
  8
0
 62
     0
 10
116.119
 20
133.164
 30
0.0
 11
116.119
 21
130.064
 31
0.0
  0
LINE
  8
0
 62
     0
 10
116.119
 20
130.064
 30
0.0
 11
116.92
 21
130.064
 31
0.0
  0
LINE
  8
0
 62
     0
 10
116.92
 20
130.064
 30
0.0
 11
116.92
 21
129.064
 31
0.0
  0
LINE
  8
0
 62
     0
 10
116.92
 20
129.064
 30
0.0
 11
130.919
 21
129.064
 31
0.0
  0
LINE
  8
0
 62
     0
 10
130.919
 20
129.064
 30
0.0
 11
130.919
 21
130.064
 31
0.0
  0
LINE
  8
0
 62
     0
 10
130.919
 20
130.064
 30
0.0
 11
131.72
 21
130.064
 31
0.0
  0
LINE
  8
0
 62
     0
 10
131.72
 20
130.064
 30
0.0
 11
131.72
 21
133.164
 31
0.0
  0
LINE
  8
0
 62
     0
 10
131.72
 20
133.164
 30
0.0
 11
130.919
 21
133.164
 31
0.0
  0
LINE
  8
0
 62
     0
 10
130.919
 20
133.164
 30
0.0
 11
130.919
 21
138.964
 31
0.0
  0
LINE
  8
0
 62
     0
 10
130.919
 20
138.964
 30
0.0
 11
131.72
 21
138.964
 31
0.0
  0
LINE
  8
0
 62
     0
 10
131.72
 20
138.964
 30
0.0
 11
131.72
 21
142.063
 31
0.0
  0
LINE
  8
0
 62
     0
 10
131.72
 20
142.063
 30
0.0
 11
130.919
 21
142.063
 31
0.0
  0
LINE
  8
0
 62
     0
 10
130.919
 20
142.063
 30
0.0
 11
130.919
 21
143.064
 31
0.0
  0
LINE
  8
0
 62
     0
 10
130.919
 20
143.064
 30
0.0
 11
116.92
 21
143.064
 31
0.0
  0
LINE
  8
0
 62
     0
 10
97.8697
 20
143.064
 30
0.0
 11
97.8697
 21
142.063
 31
0.0
  0
LINE
  8
0
 62
     0
 10
97.8697
 20
142.063
 30
0.0
 11
97.0689
 21
142.063
 31
0.0
  0
LINE
  8
0
 62
     0
 10
97.0689
 20
142.063
 30
0.0
 11
97.0689
 21
138.964
 31
0.0
  0
LINE
  8
0
 62
     0
 10
97.0689
 20
138.964
 30
0.0
 11
97.8697
 21
138.964
 31
0.0
  0
LINE
  8
0
 62
     0
 10
97.8697
 20
138.964
 30
0.0
 11
97.8697
 21
133.164
 31
0.0
  0
LINE
  8
0
 62
     0
 10
97.8697
 20
133.164
 30
0.0
 11
97.0689
 21
133.164
 31
0.0
  0
LINE
  8
0
 62
     0
 10
97.0689
 20
133.164
 30
0.0
 11
97.0689
 21
130.064
 31
0.0
  0
LINE
  8
0
 62
     0
 10
97.0689
 20
130.064
 30
0.0
 11
97.8697
 21
130.064
 31
0.0
  0
LINE
  8
0
 62
     0
 10
97.8697
 20
130.064
 30
0.0
 11
97.8697
 21
129.064
 31
0.0
  0
LINE
  8
0
 62
     0
 10
97.8697
 20
129.064
 30
0.0
 11
111.869
 21
129.064
 31
0.0
  0
LINE
  8
0
 62
     0
 10
111.869
 20
129.064
 30
0.0
 11
111.869
 21
130.064
 31
0.0
  0
LINE
  8
0
 62
     0
 10
111.869
 20
130.064
 30
0.0
 11
112.67
 21
130.064
 31
0.0
  0
LINE
  8
0
 62
     0
 10
112.67
 20
130.064
 30
0.0
 11
112.67
 21
133.164
 31
0.0
  0
LINE
  8
0
 62
     0
 10
112.67
 20
133.164
 30
0.0
 11
111.869
 21
133.164
 31
0.0
  0
LINE
  8
0
 62
     0
 10
111.869
 20
133.164
 30
0.0
 11
111.869
 21
138.964
 31
0.0
  0
LINE
  8
0
 62
     0
 10
111.869
 20
138.964
 30
0.0
 11
112.67
 21
138.964
 31
0.0
  0
LINE
  8
0
 62
     0
 10
112.67
 20
138.964
 30
0.0
 11
112.67
 21
142.063
 31
0.0
  0
LINE
  8
0
 62
     0
 10
112.67
 20
142.063
 30
0.0
 11
111.869
 21
142.063
 31
0.0
  0
LINE
  8
0
 62
     0
 10
111.869
 20
142.063
 30
0.0
 11
111.869
 21
143.064
 31
0.0
  0
LINE
  8
0
 62
     0
 10
111.869
 20
143.064
 30
0.0
 11
97.8697
 21
143.064
 31
0.0
  0
LINE
  8
0
 62
     0
 10
21.6697
 20
143.064
 30
0.0
 11
21.6697
 21
142.063
 31
0.0
  0
LINE
  8
0
 62
     0
 10
21.6697
 20
142.063
 30
0.0
 11
20.869
 21
142.063
 31
0.0
  0
LINE
  8
0
 62
     0
 10
20.869
 20
142.063
 30
0.0
 11
20.869
 21
138.964
 31
0.0
  0
LINE
  8
0
 62
     0
 10
20.869
 20
138.964
 30
0.0
 11
21.6697
 21
138.964
 31
0.0
  0
LINE
  8
0
 62
     0
 10
21.6697
 20
138.964
 30
0.0
 11
21.6697
 21
133.164
 31
0.0
  0
LINE
  8
0
 62
     0
 10
21.6697
 20
133.164
 30
0.0
 11
20.869
 21
133.164
 31
0.0
  0
LINE
  8
0
 62
     0
 10
20.869
 20
133.164
 30
0.0
 11
20.869
 21
130.064
 31
0.0
  0
LINE
  8
0
 62
     0
 10
20.869
 20
130.064
 30
0.0
 11
21.6697
 21
130.064
 31
0.0
  0
LINE
  8
0
 62
     0
 10
21.6697
 20
130.064
 30
0.0
 11
21.6697
 21
129.064
 31
0.0
  0
LINE
  8
0
 62
     0
 10
21.6697
 20
129.064
 30
0.0
 11
35.669
 21
129.064
 31
0.0
  0
LINE
  8
0
 62
     0
 10
35.669
 20
129.064
 30
0.0
 11
35.669
 21
130.064
 31
0.0
  0
LINE
  8
0
 62
     0
 10
35.669
 20
130.064
 30
0.0
 11
36.4698
 21
130.064
 31
0.0
  0
LINE
  8
0
 62
     0
 10
36.4698
 20
130.064
 30
0.0
 11
36.4698
 21
133.164
 31
0.0
  0
LINE
  8
0
 62
     0
 10
36.4698
 20
133.164
 30
0.0
 11
35.669
 21
133.164
 31
0.0
  0
LINE
  8
0
 62
     0
 10
35.669
 20
133.164
 30
0.0
 11
35.669
 21
138.964
 31
0.0
  0
LINE
  8
0
 62
     0
 10
35.669
 20
138.964
 30
0.0
 11
36.4698
 21
138.964
 31
0.0
  0
LINE
  8
0
 62
     0
 10
36.4698
 20
138.964
 30
0.0
 11
36.4698
 21
142.063
 31
0.0
  0
LINE
  8
0
 62
     0
 10
36.4698
 20
142.063
 30
0.0
 11
35.669
 21
142.063
 31
0.0
  0
LINE
  8
0
 62
     0
 10
35.669
 20
142.063
 30
0.0
 11
35.669
 21
143.064
 31
0.0
  0
LINE
  8
0
 62
     0
 10
35.669
 20
143.064
 30
0.0
 11
21.6697
 21
143.064
 31
0.0
  0
LINE
  8
0
 62
     0
 10
78.8197
 20
145.35
 30
0.0
 11
78.8197
 21
144.35
 31
0.0
  0
LINE
  8
0
 62
     0
 10
78.8197
 20
144.35
 30
0.0
 11
78.0189
 21
144.35
 31
0.0
  0
LINE
  8
0
 62
     0
 10
78.0189
 20
144.35
 30
0.0
 11
78.0189
 21
141.25
 31
0.0
  0
LINE
  8
0
 62
     0
 10
78.0189
 20
141.25
 30
0.0
 11
78.8197
 21
141.25
 31
0.0
  0
LINE
  8
0
 62
     0
 10
78.8197
 20
141.25
 30
0.0
 11
78.8197
 21
135.45
 31
0.0
  0
LINE
  8
0
 62
     0
 10
78.8197
 20
135.45
 30
0.0
 11
78.0189
 21
135.45
 31
0.0
  0
LINE
  8
0
 62
     0
 10
78.0189
 20
135.45
 30
0.0
 11
78.0189
 21
132.35
 31
0.0
  0
LINE
  8
0
 62
     0
 10
78.0189
 20
132.35
 30
0.0
 11
78.8197
 21
132.35
 31
0.0
  0
LINE
  8
0
 62
     0
 10
78.8197
 20
132.35
 30
0.0
 11
78.8197
 21
131.349
 31
0.0
  0
LINE
  8
0
 62
     0
 10
78.8197
 20
131.349
 30
0.0
 11
92.819
 21
131.349
 31
0.0
  0
LINE
  8
0
 62
     0
 10
92.819
 20
131.349
 30
0.0
 11
92.819
 21
132.35
 31
0.0
  0
LINE
  8
0
 62
     0
 10
92.819
 20
132.35
 30
0.0
 11
93.6184
 21
132.35
 31
0.0
  0
LINE
  8
0
 62
     0
 10
93.6184
 20
132.35
 30
0.0
 11
93.6184
 21
135.45
 31
0.0
  0
LINE
  8
0
 62
     0
 10
93.6184
 20
135.45
 30
0.0
 11
92.819
 21
135.45
 31
0.0
  0
LINE
  8
0
 62
     0
 10
92.819
 20
135.45
 30
0.0
 11
92.819
 21
141.25
 31
0.0
  0
LINE
  8
0
 62
     0
 10
92.819
 20
141.25
 30
0.0
 11
93.6184
 21
141.25
 31
0.0
  0
LINE
  8
0
 62
     0
 10
93.6184
 20
141.25
 30
0.0
 11
93.6184
 21
144.35
 31
0.0
  0
LINE
  8
0
 62
     0
 10
93.6184
 20
144.35
 30
0.0
 11
92.819
 21
144.35
 31
0.0
  0
LINE
  8
0
 62
     0
 10
92.819
 20
144.35
 30
0.0
 11
92.819
 21
145.35
 31
0.0
  0
LINE
  8
0
 62
     0
 10
92.819
 20
145.35
 30
0.0
 11
78.8197
 21
145.35
 31
0.0
  0
LINE
  8
0
 62
     0
 10
40.7197
 20
145.35
 30
0.0
 11
40.7197
 21
144.35
 31
0.0
  0
LINE
  8
0
 62
     0
 10
40.7197
 20
144.35
 30
0.0
 11
39.9189
 21
144.35
 31
0.0
  0
LINE
  8
0
 62
     0
 10
39.9189
 20
144.35
 30
0.0
 11
39.9189
 21
141.25
 31
0.0
  0
LINE
  8
0
 62
     0
 10
39.9189
 20
141.25
 30
0.0
 11
40.7197
 21
141.25
 31
0.0
  0
LINE
  8
0
 62
     0
 10
40.7197
 20
141.25
 30
0.0
 11
40.7197
 21
135.45
 31
0.0
  0
LINE
  8
0
 62
     0
 10
40.7197
 20
135.45
 30
0.0
 11
39.9189
 21
135.45
 31
0.0
  0
LINE
  8
0
 62
     0
 10
39.9189
 20
135.45
 30
0.0
 11
39.9189
 21
132.35
 31
0.0
  0
LINE
  8
0
 62
     0
 10
39.9189
 20
132.35
 30
0.0
 11
40.7197
 21
132.35
 31
0.0
  0
LINE
  8
0
 62
     0
 10
40.7197
 20
132.35
 30
0.0
 11
40.7197
 21
131.349
 31
0.0
  0
LINE
  8
0
 62
     0
 10
40.7197
 20
131.349
 30
0.0
 11
54.719
 21
131.349
 31
0.0
  0
LINE
  8
0
 62
     0
 10
54.719
 20
131.349
 30
0.0
 11
54.719
 21
132.35
 31
0.0
  0
LINE
  8
0
 62
     0
 10
54.719
 20
132.35
 30
0.0
 11
55.5198
 21
132.35
 31
0.0
  0
LINE
  8
0
 62
     0
 10
55.5198
 20
132.35
 30
0.0
 11
55.5198
 21
135.45
 31
0.0
  0
LINE
  8
0
 62
     0
 10
55.5198
 20
135.45
 30
0.0
 11
54.719
 21
135.45
 31
0.0
  0
LINE
  8
0
 62
     0
 10
54.719
 20
135.45
 30
0.0
 11
54.719
 21
141.25
 31
0.0
  0
LINE
  8
0
 62
     0
 10
54.719
 20
141.25
 30
0.0
 11
55.5198
 21
141.25
 31
0.0
  0
LINE
  8
0
 62
     0
 10
55.5198
 20
141.25
 30
0.0
 11
55.5198
 21
144.35
 31
0.0
  0
LINE
  8
0
 62
     0
 10
55.5198
 20
144.35
 30
0.0
 11
54.719
 21
144.35
 31
0.0
  0
LINE
  8
0
 62
     0
 10
54.719
 20
144.35
 30
0.0
 11
54.719
 21
145.35
 31
0.0
  0
LINE
  8
0
 62
     0
 10
54.719
 20
145.35
 30
0.0
 11
40.7197
 21
145.35
 31
0.0
  0
LINE
  8
0
 62
     0
 10
59.7697
 20
147.826
 30
0.0
 11
59.7697
 21
146.827
 31
0.0
  0
LINE
  8
0
 62
     0
 10
59.7697
 20
146.827
 30
0.0
 11
58.9689
 21
146.827
 31
0.0
  0
LINE
  8
0
 62
     0
 10
58.9689
 20
146.827
 30
0.0
 11
58.9689
 21
143.727
 31
0.0
  0
LINE
  8
0
 62
     0
 10
58.9689
 20
143.727
 30
0.0
 11
59.7697
 21
143.727
 31
0.0
  0
LINE
  8
0
 62
     0
 10
59.7697
 20
143.727
 30
0.0
 11
59.7697
 21
137.927
 31
0.0
  0
LINE
  8
0
 62
     0
 10
59.7697
 20
137.927
 30
0.0
 11
58.9689
 21
137.927
 31
0.0
  0
LINE
  8
0
 62
     0
 10
58.9689
 20
137.927
 30
0.0
 11
58.9689
 21
134.827
 31
0.0
  0
LINE
  8
0
 62
     0
 10
58.9689
 20
134.827
 30
0.0
 11
59.7697
 21
134.827
 31
0.0
  0
LINE
  8
0
 62
     0
 10
59.7697
 20
134.827
 30
0.0
 11
59.7697
 21
133.827
 31
0.0
  0
LINE
  8
0
 62
     0
 10
59.7697
 20
133.827
 30
0.0
 11
73.769
 21
133.827
 31
0.0
  0
LINE
  8
0
 62
     0
 10
73.769
 20
133.827
 30
0.0
 11
73.769
 21
134.827
 31
0.0
  0
LINE
  8
0
 62
     0
 10
73.769
 20
134.827
 30
0.0
 11
74.5698
 21
134.827
 31
0.0
  0
LINE
  8
0
 62
     0
 10
74.5698
 20
134.827
 30
0.0
 11
74.5698
 21
137.927
 31
0.0
  0
LINE
  8
0
 62
     0
 10
74.5698
 20
137.927
 30
0.0
 11
73.769
 21
137.927
 31
0.0
  0
LINE
  8
0
 62
     0
 10
73.769
 20
137.927
 30
0.0
 11
73.769
 21
143.727
 31
0.0
  0
LINE
  8
0
 62
     0
 10
73.769
 20
143.727
 30
0.0
 11
74.5698
 21
143.727
 31
0.0
  0
LINE
  8
0
 62
     0
 10
74.5698
 20
143.727
 30
0.0
 11
74.5698
 21
146.827
 31
0.0
  0
LINE
  8
0
 62
     0
 10
74.5698
 20
146.827
 30
0.0
 11
73.769
 21
146.827
 31
0.0
  0
LINE
  8
0
 62
     0
 10
73.769
 20
146.827
 30
0.0
 11
73.769
 21
147.826
 31
0.0
  0
LINE
  8
0
 62
     0
 10
73.769
 20
147.826
 30
0.0
 11
59.7697
 21
147.826
 31
0.0
  0
ENDSEC
  0
EOF
