0
SECTION
2
HEADER
9
$INSUNITS
70
4
9
$ACADVER
1
AC1014
9
$HANDSEED
5
FFFF
0
ENDSEC
0
SECTION
2
TABLES
0
TABLE
2
VPORT
5
8
100
AcDbSymbolTable
0
ENDTAB
0
TABLE
2
LTYPE
5
5
100
AcDbSymbolTable
0
LTYPE
5
14
100
AcDbSymbolTableRecord
100
AcDbLinetypeTableRecord
2
BYBLOCK
70
0
0
LTYPE
5
15
100
AcDbSymbolTableRecord
100
AcDbLinetypeTableRecord
2
BYLAYER
70
0
0
ENDTAB
0
TABLE
2
LAYER
5
2
100
AcDbSymbolTable
70
2
0
LAYER
5
50
100
AcDbSymbolTableRecord
100
AcDbLayerTableRecord
2
0
70
0
6
CONTINUOUS
0
ENDTAB
0
TABLE
2
STYLE
5
3
100
AcDbSymbolTable
70
1
0
STYLE
5
11
100
AcDbSymbolTableRecord
100
AcDbTextStyleTableRecord
2
STANDARD
70
0
0
ENDTAB
0
TABLE
2
VIEW
5
6
100
AcDbSymbolTable
70
0
0
ENDTAB
0
TABLE
2
UCS
5
7
100
AcDbSymbolTable
70
0
0
ENDTAB
0
TABLE
2
APPID
5
9
100
AcDbSymbolTable
70
2
0
APPID
5
12
100
AcDbSymbolTableRecord
100
AcDbRegAppTableRecord
2
ACAD
70
0
0
ENDTAB
0
TABLE
2
DIMSTYLE
5
A
100
AcDbSymbolTable
70
1
0
ENDTAB
0
TABLE
2
BLOCK_RECORD
5
1
100
AcDbSymbolTable
70
1
0
BLOCK_RECORD
5
1F
100
AcDbSymbolTableRecord
100
AcDbBlockTableRecord
2
*MODEL_SPACE
0
BLOCK_RECORD
5
1B
100
AcDbSymbolTableRecord
100
AcDbBlockTableRecord
2
*PAPER_SPACE
0
ENDTAB
0
ENDSEC
0
SECTION
2
BLOCKS
0
BLOCK
5
20
100
AcDbEntity
100
AcDbBlockBegin
2
*MODEL_SPACE
0
ENDBLK
5
21
100
AcDbEntity
100
AcDbBlockEnd
0
BLOCK
5
1C
100
AcDbEntity
100
AcDbBlockBegin
2
*PAPER_SPACE
0
ENDBLK
5
1D
100
AcDbEntity
100
AcDbBlockEnd
0
ENDSEC
0
SECTION
2
ENTITIES
0
LWPOLYLINE
5
100
100
AcDbEntity
8
0
100
AcDbPolyline
90
8
70
1
43
0.0
10
12.550000000000001
20
-50.150000000000006
10
25.550000000000001
20
-50.150000000000006
42
-0.41421356237309509
10
26.050000000000004
20
-50.650000000000006
10
26.050000000000001
20
-63.650000000000006
42
-0.41421356237309509
10
25.550000000000001
20
-64.150000000000006
10
12.550000000000001
20
-64.150000000000006
42
-0.41421356237309509
10
12.050000000000001
20
-63.650000000000006
10
12.050000000000002
20
-50.650000000000006
42
-0.41421356237309509
0
LWPOLYLINE
5
101
100
AcDbEntity
8
0
100
AcDbPolyline
90
8
70
1
43
0.0
10
-6.5
20
-26.050000000000004
42
-0.41421356237309509
10
-7.0000000000000009
20
-25.550000000000001
10
-7.0000000000000009
20
-12.550000000000001
42
-0.41421356237309509
10
-6.5
20
-12.050000000000001
10
6.5
20
-12.050000000000001
42
-0.41421356237309509
10
7.0000000000000009
20
-12.550000000000001
10
6.9999999999999982
20
-25.550000000000001
42
-0.41421356237309509
10
6.5
20
-26.050000000000001
0
LWPOLYLINE
5
102
100
AcDbEntity
8
0
100
AcDbPolyline
90
8
70
1
43
0.0
10
25.550000000000001
20
-45.100000000000009
10
12.550000000000001
20
-45.099999999999994
42
-0.41421356237309509
10
12.050000000000001
20
-44.600000000000001
10
12.050000000000002
20
-31.600000000000001
42
-0.41421356237309509
10
12.550000000000001
20
-31.100000000000001
10
25.550000000000001
20
-31.100000000000001
42
-0.41421356237309509
10
26.050000000000001
20
-31.600000000000001
10
26.050000000000001
20
-44.600000000000001
42
-0.41421356237309509
0
LWPOLYLINE
5
103
100
AcDbEntity
8
0
100
AcDbPolyline
90
8
70
1
43
0.0
10
-6.5
20
-7.0000000000000009
42
-0.41421356237309509
10
-7.0000000000000009
20
-6.5
10
-7.0000000000000009
20
6.5
42
-0.41421356237309509
10
-6.5
20
7.0000000000000009
10
6.5
20
7.0000000000000009
42
-0.41421356237309509
10
7.0000000000000009
20
6.5
10
7.0000000000000009
20
-6.5
42
-0.41421356237309509
10
6.5
20
-7.0000000000000009
0
LWPOLYLINE
5
104
100
AcDbEntity
8
0
100
AcDbPolyline
90
8
70
1
43
0.0
10
-6.9999999999999982
20
-69.700000000000003
42
-0.41421356237309509
10
-6.5
20
-69.200000000000003
10
6.5
20
-69.200000000000003
42
-0.41421356237309509
10
7.0000000000000009
20
-69.700000000000003
10
7.0000000000000071
20
-82.700000000000017
42
-0.41421356237309509
10
6.5
20
-83.200000000000003
10
-6.5
20
-83.200000000000017
42
-0.41421356237309509
10
-7.0000000000000009
20
-82.700000000000017
0
LWPOLYLINE
5
105
100
AcDbEntity
8
0
100
AcDbPolyline
90
8
70
1
43
0.0
10
7.0000000000000009
20
-31.600000000000001
10
6.9999999999999982
20
-44.600000000000001
42
-0.41421356237309509
10
6.5
20
-45.099999999999994
10
-6.5
20
-45.099999999999994
42
-0.41421356237309509
10
-7.0000000000000009
20
-44.600000000000001
10
-6.9999999999999982
20
-31.600000000000001
42
-0.41421356237309509
10
-6.5
20
-31.100000000000001
10
6.5
20
-31.100000000000001
42
-0.41421356237309509
0
LWPOLYLINE
5
106
100
AcDbEntity
8
0
100
AcDbPolyline
90
8
70
1
43
0.0
10
12.550000000000001
20
-12.050000000000001
10
25.550000000000001
20
-12.050000000000002
42
-0.41421356237309509
10
26.050000000000004
20
-12.550000000000001
10
26.050000000000001
20
-25.550000000000001
42
-0.41421356237309509
10
25.550000000000001
20
-26.050000000000001
10
12.550000000000001
20
-26.050000000000004
42
-0.41421356237309509
10
12.050000000000001
20
-25.550000000000001
10
12.050000000000001
20
-12.550000000000001
42
-0.41421356237309509
0
LWPOLYLINE
5
107
100
AcDbEntity
8
0
100
AcDbPolyline
90
8
70
1
43
0.0
10
7.0000000000000009
20
-50.650000000000006
10
6.9999999999999982
20
-63.650000000000006
42
-0.41421356237309509
10
6.5
20
-64.150000000000006
10
-6.5
20
-64.150000000000006
42
-0.41421356237309509
10
-7.0000000000000009
20
-63.650000000000006
10
-6.9999999999999982
20
-50.650000000000006
42
-0.41421356237309509
10
-6.5
20
-50.150000000000006
10
6.5
20
-50.150000000000006
42
-0.41421356237309509
0
LWPOLYLINE
5
108
100
AcDbEntity
8
0
100
AcDbPolyline
90
8
70
1
43
0.0
10
26.050000000000004
20
-69.700000000000003
10
26.050000000000008
20
-82.700000000000017
42
-0.41421356237309509
10
25.550000000000001
20
-83.200000000000017
10
12.550000000000001
20
-83.200000000000017
42
-0.41421356237309509
10
12.050000000000001
20
-82.700000000000017
10
12.050000000000002
20
-69.700000000000003
42
-0.41421356237309509
10
12.550000000000001
20
-69.200000000000003
10
25.550000000000001
20
-69.200000000000003
42
-0.41421356237309509
0
LWPOLYLINE
5
109
100
AcDbEntity
8
0
100
AcDbPolyline
90
8
70
1
43
0.0
10
44.600000000000001
20
-80.818700000000007
10
31.600000000000001
20
-80.818700000000021
42
-0.41421356237309509
10
31.100000000000001
20
-80.318700000000007
10
31.100000000000001
20
-67.318700000000007
42
-0.41421356237309509
10
31.600000000000001
20
-66.818700000000007
10
44.600000000000001
20
-66.818700000000007
42
-0.41421356237309509
10
45.099999999999994
20
-67.318700000000007
10
45.100000000000009
20
-80.318700000000007
42
-0.41421356237309509
0
LWPOLYLINE
5
110
100
AcDbEntity
8
0
100
AcDbPolyline
90
8
70
1
43
0.0
10
31.600000000000001
20
-47.76870000000001
10
44.600000000000001
20
-47.76870000000001
42
-0.41421356237309509
10
45.100000000000009
20
-48.268700000000003
10
45.099999999999994
20
-61.268700000000003
42
-0.41421356237309509
10
44.600000000000001
20
-61.768700000000003
10
31.600000000000001
20
-61.768700000000003
42
-0.41421356237309509
10
31.100000000000001
20
-61.268700000000003
10
31.100000000000001
20
-48.268700000000003
42
-0.41421356237309509
0
LWPOLYLINE
5
111
100
AcDbEntity
8
0
100
AcDbPolyline
90
8
70
1
43
0.0
10
107.80000000000001
20
-83.487500000000011
10
120.8
20
-83.487499999999983
42
-0.41421356237309509
10
121.30000000000001
20
-83.987499999999997
10
121.30000000000001
20
-96.987500000000011
42
-0.41421356237309509
10
120.8
20
-97.487500000000011
10
107.80000000000001
20
-97.487500000000011
42
-0.41421356237309509
10
107.30000000000001
20
-96.987500000000011
10
107.30000000000001
20
-83.987499999999997
42
-0.41421356237309509
0
LWPOLYLINE
5
112
100
AcDbEntity
8
0
100
AcDbPolyline
90
8
70
1
43
0.0
10
120.8
20
-16.524999999999999
10
107.80000000000001
20
-16.525000000000006
42
-0.41421356237309509
10
107.30000000000001
20
-16.024999999999999
10
107.30000000000001
20
-3.0249999999999999
42
-0.41421356237309509
10
107.80000000000001
20
-2.5249999999999999
10
120.8
20
-2.5249999999999928
42
-0.41421356237309509
10
121.30000000000001
20
-3.0249999999999999
10
121.30000000000001
20
-16.024999999999999
42
-0.41421356237309509
0
LWPOLYLINE
5
113
100
AcDbEntity
8
0
100
AcDbPolyline
90
8
70
1
43
0.0
10
69.700000000000003
20
9.3812499999999996
10
82.700000000000017
20
9.3812500000000085
42
-0.41421356237309509
10
83.200000000000003
20
8.8812500000000014
10
83.200000000000017
20
-4.1187500000000004
42
-0.41421356237309509
10
82.700000000000017
20
-4.6187500000000004
10
69.700000000000003
20
-4.6187499999999986
42
-0.41421356237309509
10
69.200000000000003
20
-4.1187500000000004
10
69.200000000000003
20
8.8812500000000014
42
-0.41421356237309509
0
LWPOLYLINE
5
114
100
AcDbEntity
8
0
100
AcDbPolyline
90
8
70
1
43
0.0
10
45.100000000000009
20
8.8812500000000014
10
45.099999999999994
20
-4.1187500000000004
42
-0.41421356237309509
10
44.600000000000001
20
-4.6187500000000004
10
31.600000000000001
20
-4.6187499999999986
42
-0.41421356237309509
10
31.100000000000001
20
-4.1187500000000004
10
31.100000000000001
20
8.8812500000000014
42
-0.41421356237309509
10
31.600000000000001
20
9.3812500000000014
10
44.600000000000001
20
9.3812499999999979
42
-0.41421356237309509
0
LWPOLYLINE
5
115
100
AcDbEntity
8
0
100
AcDbPolyline
90
8
70
1
43
0.0
10
69.700000000000003
20
-61.768700000000003
42
-0.41421356237309509
10
69.200000000000003
20
-61.268700000000003
10
69.200000000000003
20
-48.268700000000003
42
-0.41421356237309509
10
69.700000000000003
20
-47.76870000000001
10
82.700000000000017
20
-47.768699999999995
42
-0.41421356237309509
10
83.200000000000017
20
-48.268700000000003
10
83.200000000000003
20
-61.268700000000003
42
-0.41421356237309509
10
82.700000000000017
20
-61.768700000000003
0
LWPOLYLINE
5
116
100
AcDbEntity
8
0
100
AcDbPolyline
90
8
70
1
43
0.0
10
69.200000000000003
20
-80.318700000000007
10
69.200000000000003
20
-67.318700000000007
42
-0.41421356237309509
10
69.700000000000003
20
-66.818700000000007
10
82.700000000000017
20
-66.818700000000007
42
-0.41421356237309509
10
83.200000000000003
20
-67.318700000000007
10
83.200000000000017
20
-80.318700000000007
42
-0.41421356237309509
10
82.700000000000017
20
-80.818700000000007
10
69.700000000000003
20
-80.818700000000021
42
-0.41421356237309509
0
LWPOLYLINE
5
117
100
AcDbEntity
8
0
100
AcDbPolyline
90
8
70
1
43
0.0
10
101.75
20
7.0000000000000071
42
-0.41421356237309509
10
102.25000000000001
20
6.5
10
102.25000000000001
20
-6.5
42
-0.41421356237309509
10
101.75
20
-7.0000000000000009
10
88.75
20
-7.0000000000000071
42
-0.41421356237309509
10
88.25
20
-6.5
10
88.25
20
6.5
42
-0.41421356237309509
10
88.75
20
7.0000000000000009
0
LWPOLYLINE
5
118
100
AcDbEntity
8
0
100
AcDbPolyline
90
8
70
1
43
0.0
10
101.75
20
-26.050000000000004
10
88.75
20
-26.050000000000008
42
-0.41421356237309509
10
88.25
20
-25.550000000000001
10
88.25
20
-12.550000000000001
42
-0.41421356237309509
10
88.75
20
-12.050000000000001
10
101.75
20
-12.049999999999994
42
-0.41421356237309509
10
102.25000000000001
20
-12.550000000000001
10
102.25000000000001
20
-25.550000000000001
42
-0.41421356237309509
0
LWPOLYLINE
5
119
100
AcDbEntity
8
0
100
AcDbPolyline
90
8
70
1
43
0.0
10
50.150000000000006
20
-77.9375
10
50.150000000000006
20
-64.9375
42
-0.41421356237309509
10
50.650000000000006
20
-64.4375
10
63.650000000000006
20
-64.4375
42
-0.41421356237309509
10
64.150000000000006
20
-64.9375
10
64.150000000000006
20
-77.9375
42
-0.41421356237309509
10
63.650000000000006
20
-78.4375
10
50.650000000000006
20
-78.4375
42
-0.41421356237309509
0
LWPOLYLINE
5
120
100
AcDbEntity
8
0
100
AcDbPolyline
90
8
70
1
43
0.0
10
64.150000000000006
20
-39.837499999999999
42
-0.41421356237309509
10
63.650000000000006
20
-40.337500000000006
10
50.650000000000006
20
-40.337499999999991
42
-0.41421356237309509
10
50.150000000000006
20
-39.837499999999999
10
50.150000000000006
20
-26.837499999999999
42
-0.41421356237309509
10
50.650000000000006
20
-26.337499999999999
10
63.650000000000006
20
-26.337499999999999
42
-0.41421356237309509
10
64.150000000000006
20
-26.837499999999999
0
LWPOLYLINE
5
121
100
AcDbEntity
8
0
100
AcDbPolyline
90
8
70
1
43
0.0
10
102.25000000000001
20
-69.700000000000003
10
102.25000000000001
20
-82.700000000000017
42
-0.41421356237309509
10
101.75
20
-83.200000000000017
10
88.75
20
-83.200000000000017
42
-0.41421356237309509
10
88.25
20
-82.700000000000017
10
88.25
20
-69.700000000000003
42
-0.41421356237309509
10
88.75
20
-69.200000000000003
10
101.75
20
-69.200000000000003
42
-0.41421356237309509
0
LWPOLYLINE
5
122
100
AcDbEntity
8
0
100
AcDbPolyline
90
8
70
1
43
0.0
10
12.550000000000001
20
-7.0000000000000009
42
-0.41421356237309509
10
12.050000000000001
20
-6.5
10
12.050000000000001
20
6.5
42
-0.41421356237309509
10
12.550000000000001
20
7.0000000000000009
10
25.550000000000001
20
6.9999999999999982
42
-0.41421356237309509
10
26.050000000000001
20
6.5
10
26.050000000000004
20
-6.5
42
-0.41421356237309509
10
25.550000000000001
20
-7.0000000000000009
0
LWPOLYLINE
5
123
100
AcDbEntity
8
0
100
AcDbPolyline
90
8
70
1
43
0.0
10
69.200000000000003
20
-29.218800000000002
42
-0.41421356237309509
10
69.700000000000003
20
-28.718800000000005
10
82.700000000000017
20
-28.718799999999995
42
-0.41421356237309509
10
83.200000000000017
20
-29.218800000000002
10
83.200000000000003
20
-42.218800000000002
42
-0.41421356237309509
10
82.700000000000017
20
-42.718800000000002
10
69.700000000000003
20
-42.718800000000002
42
-0.41421356237309509
10
69.200000000000003
20
-42.218800000000002
0
LWPOLYLINE
5
124
100
AcDbEntity
8
0
100
AcDbPolyline
90
8
70
1
43
0.0
10
88.75
20
-102.25000000000001
42
-0.41421356237309509
10
88.25
20
-101.75
10
88.25
20
-88.75
42
-0.41421356237309509
10
88.75
20
-88.250000000000014
10
101.75
20
-88.25
42
-0.41421356237309509
10
102.25000000000001
20
-88.75
10
102.25000000000001
20
-101.75
42
-0.41421356237309509
10
101.75
20
-102.25000000000001
0
LWPOLYLINE
5
125
100
AcDbEntity
8
0
100
AcDbPolyline
90
8
70
1
43
0.0
10
31.100000000000001
20
-42.218800000000002
10
31.100000000000001
20
-29.218800000000002
42
-0.41421356237309509
10
31.600000000000001
20
-28.718800000000005
10
44.600000000000001
20
-28.718800000000005
42
-0.41421356237309509
10
45.099999999999994
20
-29.218800000000002
10
45.099999999999994
20
-42.218800000000002
42
-0.41421356237309509
10
44.600000000000001
20
-42.718800000000002
10
31.600000000000001
20
-42.718800000000002
42
-0.41421356237309509
0
LWPOLYLINE
5
126
100
AcDbEntity
8
0
100
AcDbPolyline
90
8
70
1
43
0.0
10
101.75
20
-45.100000000000009
10
88.75
20
-45.100000000000009
42
-0.41421356237309509
10
88.25
20
-44.600000000000001
10
88.25
20
-31.600000000000001
42
-0.41421356237309509
10
88.75
20
-31.100000000000001
10
101.75
20
-31.099999999999994
42
-0.41421356237309509
10
102.25000000000001
20
-31.600000000000001
10
102.25000000000001
20
-44.600000000000001
42
-0.41421356237309509
0
LWPOLYLINE
5
127
100
AcDbEntity
8
0
100
AcDbPolyline
90
8
70
1
43
0.0
10
50.150000000000006
20
11.262499999999999
42
-0.41421356237309509
10
50.650000000000006
20
11.762499999999999
10
63.650000000000006
20
11.762499999999998
42
-0.41421356237309509
10
64.150000000000006
20
11.262499999999999
10
64.150000000000006
20
-1.7375000000000003
42
-0.41421356237309509
10
63.650000000000006
20
-2.2374999999999998
10
50.650000000000006
20
-2.2374999999999985
42
-0.41421356237309509
10
50.150000000000006
20
-1.7375000000000007
0
LWPOLYLINE
5
128
100
AcDbEntity
8
0
100
AcDbPolyline
90
8
70
1
43
0.0
10
50.150000000000006
20
-45.887500000000003
42
-0.41421356237309509
10
50.650000000000006
20
-45.387500000000003
10
63.650000000000006
20
-45.387500000000003
42
-0.41421356237309509
10
64.150000000000006
20
-45.887500000000003
10
64.150000000000006
20
-58.88750000000001
42
-0.41421356237309509
10
63.650000000000006
20
-59.387500000000003
10
50.650000000000006
20
-59.387500000000003
42
-0.41421356237309509
10
50.150000000000006
20
-58.88750000000001
0
LWPOLYLINE
5
129
100
AcDbEntity
8
0
100
AcDbPolyline
90
8
70
1
43
0.0
10
102.25000000000001
20
-50.650000000000006
10
102.25000000000001
20
-63.650000000000006
42
-0.41421356237309509
10
101.75
20
-64.150000000000006
10
88.75
20
-64.150000000000006
42
-0.41421356237309509
10
88.250000000000014
20
-63.650000000000006
10
88.25
20
-50.650000000000006
42
-0.41421356237309509
10
88.75
20
-50.150000000000006
10
101.75
20
-50.149999999999999
42
-0.41421356237309509
0
LWPOLYLINE
5
130
100
AcDbEntity
8
0
100
AcDbPolyline
90
8
70
1
43
0.0
10
121.29999999999998
20
-66.031200000000013
42
-0.41421356237309509
10
120.8
20
-66.531199999999998
10
107.80000000000001
20
-66.531200000000013
42
-0.41421356237309509
10
107.30000000000001
20
-66.031200000000013
10
107.30000000000001
20
-53.031199999999998
42
-0.41421356237309509
10
107.80000000000001
20
-52.531199999999998
10
120.8
20
-52.531199999999991
42
-0.41421356237309509
10
121.30000000000001
20
-53.031199999999998
0
LWPOLYLINE
5
131
100
AcDbEntity
8
0
100
AcDbPolyline
90
8
70
1
43
0.0
10
6.5
20
-112.06200000000001
42
-0.41421356237309509
10
7.0000000000000009
20
-112.56200000000001
10
7.0000000000000071
20
-125.56200000000003
42
-0.41421356237309509
10
6.5
20
-126.06200000000003
10
-6.5
20
-126.06200000000003
42
-0.41421356237309509
10
-7.0000000000000009
20
-125.56200000000003
10
-7.0000000000000071
20
-112.56200000000001
42
-0.41421356237309509
10
-6.5
20
-112.06200000000001
0
LWPOLYLINE
5
132
100
AcDbEntity
8
0
100
AcDbPolyline
90
8
70
1
43
0.0
10
69.200000000000003
20
-107.80000000000001
42
-0.41421356237309509
10
69.700000000000003
20
-107.30000000000001
10
82.700000000000017
20
-107.30000000000001
42
-0.41421356237309509
10
83.200000000000003
20
-107.80000000000001
10
83.200000000000017
20
-120.8
42
-0.41421356237309509
10
82.700000000000017
20
-121.30000000000001
10
69.700000000000003
20
-121.29999999999998
42
-0.41421356237309509
10
69.200000000000003
20
-120.8
0
LWPOLYLINE
5
133
100
AcDbEntity
8
0
100
AcDbPolyline
90
8
70
1
43
0.0
10
44.600000000000001
20
-112.06200000000003
42
-0.41421356237309509
10
45.099999999999994
20
-112.56200000000001
10
45.100000000000009
20
-125.56200000000003
42
-0.41421356237309509
10
44.600000000000001
20
-126.06200000000003
10
31.600000000000001
20
-126.06200000000001
42
-0.41421356237309509
10
31.100000000000001
20
-125.56200000000003
10
31.099999999999994
20
-112.56200000000001
42
-0.41421356237309509
10
31.600000000000001
20
-112.06200000000003
0
LWPOLYLINE
5
134
100
AcDbEntity
8
0
100
AcDbPolyline
90
15
70
1
43
0.0
10
66.675000000000011
20
14.2875
10
47.625
20
14.2875
10
47.625
20
11.9062
10
28.574999999999999
20
11.9062
10
28.574999999999999
20
9.5250000000000021
10
-9.5250000000000021
20
9.5250000000000057
10
-9.5250000000000057
20
-128.58799999999999
10
85.724999999999994
20
-128.58799999999999
10
123.825
20
-128.58799999999999
10
123.825
20
0
10
104.77500000000001
20
0
10
104.77500000000001
20
9.5250000000000021
10
85.724999999999994
20
9.5250000000000021
10
85.724999999999994
20
11.9062
10
66.675000000000011
20
11.9062
0
LWPOLYLINE
5
135
100
AcDbEntity
8
0
100
AcDbPolyline
90
8
70
1
43
0.0
10
12.550000000000001
20
-107.01200000000001
42
-0.41421356237309509
10
12.050000000000001
20
-106.51200000000001
10
12.049999999999994
20
-93.512500000000003
42
-0.41421356237309509
10
12.550000000000001
20
-93.012500000000017
10
25.550000000000001
20
-93.012499999999989
42
-0.41421356237309509
10
26.050000000000004
20
-93.512500000000003
10
26.050000000000008
20
-106.51200000000001
42
-0.41421356237309509
10
25.550000000000001
20
-107.01200000000001
0
LWPOLYLINE
5
136
100
AcDbEntity
8
0
100
AcDbPolyline
90
8
70
1
43
0.0
10
121.30000000000001
20
-24.456199999999999
10
121.29999999999998
20
-37.45620000000001
42
-0.41421356237309509
10
120.8
20
-37.956200000000003
10
107.80000000000001
20
-37.95620000000001
42
-0.41421356237309509
10
107.30000000000001
20
-37.45620000000001
10
107.30000000000001
20
-24.456199999999999
42
-0.41421356237309509
10
107.80000000000001
20
-23.956200000000003
10
120.8
20
-23.956199999999992
42
-0.41421356237309509
0
LWPOLYLINE
5
137
100
AcDbEntity
8
0
100
AcDbPolyline
90
8
70
1
43
0.0
10
49.480800000000009
20
-98.868700000000018
10
55.230800000000002
20
-98.868700000000018
42
0.41421356237309509
10
55.730800000000009
20
-98.368700000000018
10
55.730800000000002
20
-85.368700000000004
42
0.41421356237309509
10
55.230800000000002
20
-84.86869999999999
10
49.480800000000009
20
-84.86869999999999
42
0.41421356237309509
10
48.980800000000009
20
-85.368700000000004
10
48.980800000000009
20
-98.368700000000018
42
0.41421356237309509
0
LWPOLYLINE
5
138
100
AcDbEntity
8
0
100
AcDbPolyline
90
8
70
1
43
0.0
10
63.650000000000006
20
-7.2875000000000023
42
-0.41421356237309509
10
64.150000000000006
20
-7.7875000000000005
10
64.150000000000006
20
-20.787500000000001
42
-0.41421356237309509
10
63.650000000000006
20
-21.287500000000001
10
50.650000000000006
20
-21.287500000000001
42
-0.41421356237309509
10
50.150000000000006
20
-20.787500000000001
10
50.150000000000006
20
-7.7875000000000005
42
-0.41421356237309509
10
50.650000000000006
20
-7.2874999999999996
0
LWPOLYLINE
5
139
100
AcDbEntity
8
0
100
AcDbPolyline
90
8
70
1
43
0.0
10
57.293699999999994
20
-86.368700000000004
42
-0.41421356237309509
10
57.793700000000001
20
-85.86869999999999
10
70.793800000000005
20
-85.868700000000018
42
-0.41421356237309509
10
71.293800000000005
20
-86.368700000000004
10
71.293800000000005
20
-99.368700000000004
42
-0.41421356237309509
10
70.793800000000005
20
-99.868700000000018
10
57.793700000000001
20
-99.86869999999999
42
-0.41421356237309509
10
57.293700000000001
20
-99.368700000000004
0
LWPOLYLINE
5
140
100
AcDbEntity
8
0
100
AcDbPolyline
90
8
70
1
43
0.0
10
88.25
20
-110.18100000000001
42
-0.41421356237309509
10
88.75
20
-109.681
10
101.75
20
-109.681
42
-0.41421356237309509
10
102.25000000000001
20
-110.18100000000001
10
102.25000000000001
20
-123.18100000000001
42
-0.41421356237309509
10
101.75
20
-123.68100000000001
10
88.75
20
-123.68100000000001
42
-0.41421356237309509
10
88.250000000000014
20
-123.18100000000001
0
LWPOLYLINE
5
141
100
AcDbEntity
8
0
100
AcDbPolyline
90
8
70
1
43
0.0
10
107.80000000000001
20
-109.681
10
120.8
20
-109.681
42
-0.41421356237309509
10
121.30000000000001
20
-110.18100000000001
10
121.30000000000001
20
-123.18100000000001
42
-0.41421356237309509
10
120.8
20
-123.681
10
107.80000000000001
20
-123.68100000000001
42
-0.41421356237309509
10
107.30000000000001
20
-123.18100000000001
10
107.30000000000001
20
-110.18100000000001
42
-0.41421356237309509
0
LWPOLYLINE
5
142
100
AcDbEntity
8
0
100
AcDbPolyline
90
8
70
1
43
0.0
10
83.200000000000003
20
-23.168700000000001
42
-0.41421356237309509
10
82.700000000000017
20
-23.668700000000001
10
69.700000000000003
20
-23.668700000000001
42
-0.41421356237309509
10
69.200000000000003
20
-23.168700000000001
10
69.200000000000003
20
-10.168699999999999
42
-0.41421356237309509
10
69.700000000000003
20
-9.6686999999999994
10
82.700000000000017
20
-9.6686999999999923
42
-0.41421356237309509
10
83.200000000000003
20
-10.168699999999999
0
LWPOLYLINE
5
143
100
AcDbEntity
8
0
100
AcDbPolyline
90
8
70
1
43
0.0
10
12.550000000000001
20
-112.06200000000003
10
25.550000000000001
20
-112.06200000000003
42
-0.41421356237309509
10
26.050000000000004
20
-112.56200000000001
10
26.050000000000008
20
-125.56200000000003
42
-0.41421356237309509
10
25.550000000000001
20
-126.06200000000001
10
12.550000000000001
20
-126.06200000000003
42
-0.41421356237309509
10
12.050000000000001
20
-125.56200000000003
10
12.049999999999994
20
-112.56200000000001
42
-0.41421356237309509
0
LWPOLYLINE
5
144
100
AcDbEntity
8
0
100
AcDbPolyline
90
8
70
1
43
0.0
10
72.856699999999989
20
-85.368700000000004
42
-0.41421356237309509
10
73.356700000000004
20
-84.86869999999999
10
79.106700000000004
20
-84.86869999999999
42
-0.41421356237309509
10
79.606700000000004
20
-85.368700000000004
10
79.606700000000018
20
-98.368700000000018
42
-0.41421356237309509
10
79.106700000000004
20
-98.868700000000018
10
73.356700000000004
20
-98.868700000000018
42
-0.41421356237309509
10
72.856700000000004
20
-98.368700000000018
0
LWPOLYLINE
5
145
100
AcDbEntity
8
0
100
AcDbPolyline
90
8
70
1
43
0.0
10
45.099999999999994
20
-23.168700000000001
42
-0.41421356237309509
10
44.600000000000001
20
-23.668700000000001
10
31.600000000000001
20
-23.668700000000001
42
-0.41421356237309509
10
31.100000000000001
20
-23.168700000000001
10
31.100000000000001
20
-10.168699999999999
42
-0.41421356237309509
10
31.600000000000001
20
-9.6686999999999994
10
44.600000000000001
20
-9.6687000000000012
42
-0.41421356237309509
10
45.100000000000009
20
-10.168699999999999
0
ENDSEC
0
SECTION
2
OBJECTS
0
DICTIONARY
5
C
100
AcDbDictionary
3
ACAD_GROUP
350
D
3
ACAD_MLINESTYLE
350
17
0
DICTIONARY
5
D
100
AcDbDictionary
0
DICTIONARY
5
1A
330
C
100
AcDbDictionary
0
DICTIONARY
5
17
100
AcDbDictionary
0
ENDSEC
0
EOF
