  0
SECTION
  2
HEADER
  9
$ANGBASE
  50
0.0
  9
$ANGDIR
  70
1
  9
$MEASUREMENT
  70
1
  0
ENDSEC
  0
SECTION
  2
TABLES
  0
TABLE
  2
LTYPE
  70
4
  0
LTYPE
  5
40F
  2
CONTINUOUS
  70
0
  3
Solid line
  72
65
  73
0
  40
0.0
  0
LTYPE
  5
410
  2
DASHDOT
 70
0
  3
Dash Dot ____ _ ____ _
 72
65
 73
4
 40
2.0
 49
1.25
 49
-0.25
 49
0.25
 49
-0.25
  0
LTYPE
  5
411
  2
DASHED
 70
0
  3
Dashed __ __ __ __ __
 72
65
 73
2
 40
0.75
 49
0.5
 49
-0.25
  0
LTYPE
  5
43B
  2
DOTTED
 70
0
  3
Dotted .  .  .  .
 72
65
 73
2
 40
0.2
 49
0.0
 49
-0.2
  0
ENDTAB
  0
TABLE
  2
STYLE
  70
4
  0
STYLE
  2
KICAD
  70
0
  40
0
  41
1
  42
1
  50
0
  71
0
  3
isocp.shx
  0
STYLE
  2
KICADB
  70
0
  40
0
  41
1
  42
1
  50
0
  71
0
  3
isocp.shx
  0
STYLE
  2
KICADI
  70
0
  40
0
  41
1
  42
1
  50
15
  71
0
  3
isocp.shx
  0
STYLE
  2
KICADBI
  70
0
  40
0
  41
1
  42
1
  50
15
  71
0
  3
isocp.shx
  0
ENDTAB
  0
TABLE
  2
LAYER
  70
1
  0
LAYER
  2
BLACK
  70
0
  62
7
  6
CONTINUOUS
  0
ENDTAB
  0
ENDSEC
  0
SECTION
  2
ENTITIES
0
LINE
8
BLACK
6
CONTINUOUS
10
-123.825
20
-119.062
11
-123.825
21
19.05
0
LINE
8
BLACK
6
CONTINUOUS
10
-28.575
20
-119.062
11
-123.825
21
-119.062
0
LINE
8
BLACK
6
CONTINUOUS
10
9.525
20
-119.062
11
-28.575
21
-119.062
0
LINE
8
BLACK
6
CONTINUOUS
10
9.525
20
9.525
11
9.525
21
-119.062
0
LINE
8
BLACK
6
CONTINUOUS
10
-9.525
20
9.525
11
9.525
21
9.525
0
LINE
8
BLACK
6
CONTINUOUS
10
-9.525
20
19.05
11
-9.525
21
9.525
0
LINE
8
BLACK
6
CONTINUOUS
10
-28.575
20
19.05
11
-9.525
21
19.05
0
LINE
8
BLACK
6
CONTINUOUS
10
-28.575
20
21.4312
11
-28.575
21
19.05
0
LINE
8
BLACK
6
CONTINUOUS
10
-47.625
20
21.4312
11
-28.575
21
21.4312
0
LINE
8
BLACK
6
CONTINUOUS
10
-47.625
20
23.8125
11
-47.625
21
21.4312
0
LINE
8
BLACK
6
CONTINUOUS
10
-66.675
20
23.8125
11
-47.625
21
23.8125
0
LINE
8
BLACK
6
CONTINUOUS
10
-66.675
20
21.4312
11
-66.675
21
23.8125
0
LINE
8
BLACK
6
CONTINUOUS
10
-85.725
20
21.4312
11
-66.675
21
21.4312
0
LINE
8
BLACK
6
CONTINUOUS
10
-85.725
20
19.05
11
-85.725
21
21.4312
0
LINE
8
BLACK
6
CONTINUOUS
10
-123.825
20
19.05
11
-85.725
21
19.05
0
ARC
8
BLACK
10
-31.6
20
-13.6437
40
0.5
50
-90
51
-0
0
ARC
8
BLACK
10
-44.6
20
-13.6437
40
0.5
50
180
51
270
0
ARC
8
BLACK
10
-44.6
20
-0.64375
40
0.5
50
90
51
180
0
ARC
8
BLACK
10
-31.6
20
-0.64375
40
0.5
50
-0
51
90
0
LINE
8
BLACK
6
CONTINUOUS
10
-31.6
20
-0.14375
11
-44.6
21
-0.14375
0
LINE
8
BLACK
6
CONTINUOUS
10
-45.1
20
-0.64375
11
-45.1
21
-13.6437
0
LINE
8
BLACK
6
CONTINUOUS
10
-44.6
20
-14.1437
11
-31.6
21
-14.1437
0
LINE
8
BLACK
6
CONTINUOUS
10
-31.1
20
-13.6437
11
-31.1
21
-0.64375
0
ARC
8
BLACK
10
-69.7
20
-13.6437
40
0.5
50
-90
51
-0
0
ARC
8
BLACK
10
-82.7
20
-13.6437
40
0.5
50
180
51
270
0
ARC
8
BLACK
10
-82.7
20
-0.64375
40
0.5
50
90
51
180
0
ARC
8
BLACK
10
-69.7
20
-0.64375
40
0.5
50
-0
51
90
0
LINE
8
BLACK
6
CONTINUOUS
10
-69.7
20
-0.14375
11
-82.7
21
-0.14375
0
LINE
8
BLACK
6
CONTINUOUS
10
-83.2
20
-0.64375
11
-83.2
21
-13.6437
0
LINE
8
BLACK
6
CONTINUOUS
10
-82.7
20
-14.1437
11
-69.7
21
-14.1437
0
LINE
8
BLACK
6
CONTINUOUS
10
-69.2
20
-13.6437
11
-69.2
21
-0.64375
0
LINE
8
BLACK
6
CONTINUOUS
10
-50.65
20
2.2375
11
-63.65
21
2.2375
0
LINE
8
BLACK
6
CONTINUOUS
10
-64.15
20
1.7375
11
-64.15
21
-11.2625
0
LINE
8
BLACK
6
CONTINUOUS
10
-63.65
20
-11.7625
11
-50.65
21
-11.7625
0
LINE
8
BLACK
6
CONTINUOUS
10
-50.15
20
-11.2625
11
-50.15
21
1.7375
0
ARC
8
BLACK
10
-50.65
20
1.7375
40
0.5
50
-0
51
90
0
ARC
8
BLACK
10
-63.65
20
1.7375
40
0.5
50
90
51
180
0
ARC
8
BLACK
10
-63.65
20
-11.2625
40
0.5
50
180
51
270
0
ARC
8
BLACK
10
-50.65
20
-11.2625
40
0.5
50
-90
51
-0
0
ARC
8
BLACK
10
-107.8
20
-116.037
40
0.5
50
-90
51
-0
0
ARC
8
BLACK
10
-120.8
20
-116.037
40
0.5
50
180
51
270
0
ARC
8
BLACK
10
-120.8
20
-103.037
40
0.5
50
90
51
180
0
ARC
8
BLACK
10
-107.8
20
-103.037
40
0.5
50
-0
51
90
0
LINE
8
BLACK
6
CONTINUOUS
10
-107.8
20
-102.537
11
-120.8
21
-102.537
0
LINE
8
BLACK
6
CONTINUOUS
10
-121.3
20
-103.037
11
-121.3
21
-116.037
0
LINE
8
BLACK
6
CONTINUOUS
10
-120.8
20
-116.537
11
-107.8
21
-116.537
0
LINE
8
BLACK
6
CONTINUOUS
10
-107.3
20
-116.037
11
-107.3
21
-103.037
0
ARC
8
BLACK
10
-69.7
20
-116.037
40
0.5
50
-90
51
-0
0
ARC
8
BLACK
10
-82.7
20
-116.037
40
0.5
50
180
51
270
0
ARC
8
BLACK
10
-82.7
20
-103.037
40
0.5
50
90
51
180
0
ARC
8
BLACK
10
-69.7
20
-103.037
40
0.5
50
-0
51
90
0
LINE
8
BLACK
6
CONTINUOUS
10
-69.7
20
-102.537
11
-82.7
21
-102.537
0
LINE
8
BLACK
6
CONTINUOUS
10
-83.2
20
-103.037
11
-83.2
21
-116.037
0
LINE
8
BLACK
6
CONTINUOUS
10
-82.7
20
-116.537
11
-69.7
21
-116.537
0
LINE
8
BLACK
6
CONTINUOUS
10
-69.2
20
-116.037
11
-69.2
21
-103.037
0
ARC
8
BLACK
10
-88.75
20
-116.037
40
0.5
50
-90
51
-0
0
ARC
8
BLACK
10
-101.75
20
-116.037
40
0.5
50
180
51
270
0
ARC
8
BLACK
10
-101.75
20
-103.037
40
0.5
50
90
51
180
0
ARC
8
BLACK
10
-88.75
20
-103.037
40
0.5
50
-0
51
90
0
LINE
8
BLACK
6
CONTINUOUS
10
-88.75
20
-102.537
11
-101.75
21
-102.537
0
LINE
8
BLACK
6
CONTINUOUS
10
-102.25
20
-103.037
11
-102.25
21
-116.037
0
LINE
8
BLACK
6
CONTINUOUS
10
-101.75
20
-116.537
11
-88.75
21
-116.537
0
LINE
8
BLACK
6
CONTINUOUS
10
-88.25
20
-116.037
11
-88.25
21
-103.037
0
ARC
8
BLACK
10
-88.75
20
-96.9875
40
0.5
50
-90
51
-0
0
ARC
8
BLACK
10
-101.75
20
-96.9875
40
0.5
50
180
51
270
0
ARC
8
BLACK
10
-101.75
20
-83.9875
40
0.5
50
90
51
180
0
ARC
8
BLACK
10
-88.75
20
-83.9875
40
0.5
50
-0
51
90
0
LINE
8
BLACK
6
CONTINUOUS
10
-88.75
20
-83.4875
11
-101.75
21
-83.4875
0
LINE
8
BLACK
6
CONTINUOUS
10
-102.25
20
-83.9875
11
-102.25
21
-96.9875
0
LINE
8
BLACK
6
CONTINUOUS
10
-101.75
20
-97.4875
11
-88.75
21
-97.4875
0
LINE
8
BLACK
6
CONTINUOUS
10
-88.25
20
-96.9875
11
-88.25
21
-83.9875
0
ARC
8
BLACK
10
-46.9812
20
-108.894
40
0.5
50
180
51
270
0
ARC
8
BLACK
10
-33.9812
20
-108.894
40
0.5
50
-90
51
-0
0
ARC
8
BLACK
10
-33.9812
20
-95.8937
40
0.5
50
-0
51
90
0
ARC
8
BLACK
10
-46.9812
20
-95.8937
40
0.5
50
90
51
180
0
LINE
8
BLACK
6
CONTINUOUS
10
-46.9812
20
-109.394
11
-33.9812
21
-109.394
0
LINE
8
BLACK
6
CONTINUOUS
10
-33.4812
20
-108.894
11
-33.4812
21
-95.8937
0
LINE
8
BLACK
6
CONTINUOUS
10
-33.9812
20
-95.3937
11
-46.9812
21
-95.3937
0
LINE
8
BLACK
6
CONTINUOUS
10
-47.4812
20
-95.8937
11
-47.4812
21
-108.894
0
ARC
8
BLACK
10
-25.55
20
-100.656
40
0.5
50
90
51
180
0
ARC
8
BLACK
10
-25.55
20
-113.656
40
0.5
50
180
51
270
0
ARC
8
BLACK
10
-12.55
20
-113.656
40
0.5
50
-90
51
-0
0
ARC
8
BLACK
10
-12.55
20
-100.656
40
0.5
50
-0
51
90
0
LINE
8
BLACK
6
CONTINUOUS
10
-26.05
20
-100.656
11
-26.05
21
-113.656
0
LINE
8
BLACK
6
CONTINUOUS
10
-25.55
20
-114.156
11
-12.55
21
-114.156
0
LINE
8
BLACK
6
CONTINUOUS
10
-12.05
20
-113.656
11
-12.05
21
-100.656
0
LINE
8
BLACK
6
CONTINUOUS
10
-12.55
20
-100.156
11
-25.55
21
-100.156
0
ARC
8
BLACK
10
-6.5
20
-100.656
40
0.5
50
90
51
180
0
ARC
8
BLACK
10
-6.5
20
-113.656
40
0.5
50
180
51
270
0
ARC
8
BLACK
10
6.5
20
-113.656
40
0.5
50
-90
51
-0
0
ARC
8
BLACK
10
6.5
20
-100.656
40
0.5
50
-0
51
90
0
LINE
8
BLACK
6
CONTINUOUS
10
-7
20
-100.656
11
-7
21
-113.656
0
LINE
8
BLACK
6
CONTINUOUS
10
-6.5
20
-114.156
11
6.5
21
-114.156
0
LINE
8
BLACK
6
CONTINUOUS
10
7
20
-113.656
11
7
21
-100.656
0
LINE
8
BLACK
6
CONTINUOUS
10
6.5
20
-100.156
11
-6.5
21
-100.156
0
ARC
8
BLACK
10
-64.8192
20
-75.8438
40
0.5
50
90
51
180
0
ARC
8
BLACK
10
-59.0692
20
-75.8438
40
0.5
50
-0
51
90
0
ARC
8
BLACK
10
-59.0692
20
-88.8438
40
0.5
50
-90
51
-0
0
ARC
8
BLACK
10
-64.8192
20
-88.8438
40
0.5
50
180
51
270
0
ARC
8
BLACK
10
-56.5062
20
-89.8438
40
0.5
50
180
51
270
0
ARC
8
BLACK
10
-56.5062
20
-76.8438
40
0.5
50
90
51
180
0
ARC
8
BLACK
10
-43.5063
20
-76.8438
40
0.5
50
-0
51
90
0
ARC
8
BLACK
10
-43.5063
20
-89.8438
40
0.5
50
-90
51
-0
0
ARC
8
BLACK
10
-40.9432
20
-75.8438
40
0.5
50
90
51
180
0
ARC
8
BLACK
10
-35.1932
20
-75.8438
40
0.5
50
-0
51
90
0
ARC
8
BLACK
10
-35.1932
20
-88.8438
40
0.5
50
-90
51
-0
0
ARC
8
BLACK
10
-40.9432
20
-88.8438
40
0.5
50
180
51
270
0
LINE
8
BLACK
6
CONTINUOUS
10
-59.0692
20
-89.3438
11
-64.8192
21
-89.3438
0
LINE
8
BLACK
6
CONTINUOUS
10
-58.5692
20
-75.8438
11
-58.5692
21
-88.8438
0
LINE
8
BLACK
6
CONTINUOUS
10
-64.8192
20
-75.3438
11
-59.0692
21
-75.3438
0
LINE
8
BLACK
6
CONTINUOUS
10
-65.3192
20
-88.8438
11
-65.3192
21
-75.8438
0
LINE
8
BLACK
6
CONTINUOUS
10
-35.1932
20
-89.3438
11
-40.9432
21
-89.3438
0
LINE
8
BLACK
6
CONTINUOUS
10
-34.6932
20
-75.8438
11
-34.6932
21
-88.8438
0
LINE
8
BLACK
6
CONTINUOUS
10
-40.9432
20
-75.3438
11
-35.1932
21
-75.3438
0
LINE
8
BLACK
6
CONTINUOUS
10
-41.4432
20
-88.8438
11
-41.4432
21
-75.8438
0
LINE
8
BLACK
6
CONTINUOUS
10
-43.0063
20
-76.8438
11
-43.0063
21
-89.8438
0
LINE
8
BLACK
6
CONTINUOUS
10
-56.5062
20
-76.3438
11
-43.5063
21
-76.3438
0
LINE
8
BLACK
6
CONTINUOUS
10
-57.0062
20
-89.8438
11
-57.0062
21
-76.8438
0
LINE
8
BLACK
6
CONTINUOUS
10
-43.5063
20
-90.3438
11
-56.5062
21
-90.3438
0
ARC
8
BLACK
10
-6.5
20
-14.9312
40
0.5
50
90
51
180
0
ARC
8
BLACK
10
-6.5
20
-27.9312
40
0.5
50
180
51
270
0
ARC
8
BLACK
10
6.5
20
-27.9312
40
0.5
50
-90
51
-0
0
ARC
8
BLACK
10
6.5
20
-14.9312
40
0.5
50
-0
51
90
0
LINE
8
BLACK
6
CONTINUOUS
10
-7
20
-14.9312
11
-7
21
-27.9312
0
LINE
8
BLACK
6
CONTINUOUS
10
-6.5
20
-28.4312
11
6.5
21
-28.4312
0
LINE
8
BLACK
6
CONTINUOUS
10
7
20
-27.9312
11
7
21
-14.9312
0
LINE
8
BLACK
6
CONTINUOUS
10
6.5
20
-14.4312
11
-6.5
21
-14.4312
0
ARC
8
BLACK
10
6.5
20
-43.5063
40
0.5
50
-0
51
90
0
ARC
8
BLACK
10
6.5
20
-56.5062
40
0.5
50
-90
51
-0
0
ARC
8
BLACK
10
-6.5
20
-56.5062
40
0.5
50
180
51
270
0
ARC
8
BLACK
10
-6.5
20
-43.5063
40
0.5
50
90
51
180
0
LINE
8
BLACK
6
CONTINUOUS
10
-7
20
-43.5063
11
-7
21
-56.5062
0
LINE
8
BLACK
6
CONTINUOUS
10
-6.5
20
-57.0062
11
6.5
21
-57.0062
0
LINE
8
BLACK
6
CONTINUOUS
10
7
20
-56.5062
11
7
21
-43.5063
0
LINE
8
BLACK
6
CONTINUOUS
10
6.5
20
-43.0063
11
-6.5
21
-43.0063
0
ARC
8
BLACK
10
-6.5
20
-74.4625
40
0.5
50
90
51
180
0
ARC
8
BLACK
10
-6.5
20
-87.4625
40
0.5
50
180
51
270
0
ARC
8
BLACK
10
6.5
20
-87.4625
40
0.5
50
-90
51
-0
0
ARC
8
BLACK
10
6.5
20
-74.4625
40
0.5
50
-0
51
90
0
LINE
8
BLACK
6
CONTINUOUS
10
-7
20
-74.4625
11
-7
21
-87.4625
0
LINE
8
BLACK
6
CONTINUOUS
10
-6.5
20
-87.9625
11
6.5
21
-87.9625
0
LINE
8
BLACK
6
CONTINUOUS
10
7
20
-87.4625
11
7
21
-74.4625
0
LINE
8
BLACK
6
CONTINUOUS
10
6.5
20
-73.9625
11
-6.5
21
-73.9625
0
LINE
8
BLACK
6
CONTINUOUS
10
-12.55
20
-78.725
11
-25.55
21
-78.725
0
LINE
8
BLACK
6
CONTINUOUS
10
-26.05
20
-79.225
11
-26.05
21
-92.225
0
LINE
8
BLACK
6
CONTINUOUS
10
-25.55
20
-92.725
11
-12.55
21
-92.725
0
LINE
8
BLACK
6
CONTINUOUS
10
-12.05
20
-92.225
11
-12.05
21
-79.225
0
ARC
8
BLACK
10
-12.55
20
-92.225
40
0.5
50
-90
51
-0
0
ARC
8
BLACK
10
-25.55
20
-92.225
40
0.5
50
180
51
270
0
ARC
8
BLACK
10
-25.55
20
-79.225
40
0.5
50
90
51
180
0
ARC
8
BLACK
10
-12.55
20
-79.225
40
0.5
50
-0
51
90
0
LINE
8
BLACK
6
CONTINUOUS
10
6.5
20
7
11
-6.5
21
7
0
LINE
8
BLACK
6
CONTINUOUS
10
-7
20
6.5
11
-7
21
-6.5
0
LINE
8
BLACK
6
CONTINUOUS
10
-6.5
20
-7
11
6.5
21
-7
0
LINE
8
BLACK
6
CONTINUOUS
10
7
20
-6.5
11
7
21
6.5
0
ARC
8
BLACK
10
6.5
20
-6.5
40
0.5
50
-90
51
-0
0
ARC
8
BLACK
10
-6.5
20
-6.5
40
0.5
50
180
51
270
0
ARC
8
BLACK
10
-6.5
20
6.5
40
0.5
50
90
51
180
0
ARC
8
BLACK
10
6.5
20
6.5
40
0.5
50
-0
51
90
0
LINE
8
BLACK
6
CONTINUOUS
10
-12.55
20
-2.525
11
-25.55
21
-2.525
0
LINE
8
BLACK
6
CONTINUOUS
10
-26.05
20
-3.025
11
-26.05
21
-16.025
0
LINE
8
BLACK
6
CONTINUOUS
10
-25.55
20
-16.525
11
-12.55
21
-16.525
0
LINE
8
BLACK
6
CONTINUOUS
10
-12.05
20
-16.025
11
-12.05
21
-3.025
0
ARC
8
BLACK
10
-12.55
20
-3.025
40
0.5
50
-0
51
90
0
ARC
8
BLACK
10
-25.55
20
-3.025
40
0.5
50
90
51
180
0
ARC
8
BLACK
10
-25.55
20
-16.025
40
0.5
50
180
51
270
0
ARC
8
BLACK
10
-12.55
20
-16.025
40
0.5
50
-90
51
-0
0
LINE
8
BLACK
6
CONTINUOUS
10
-12.55
20
-40.625
11
-25.55
21
-40.625
0
LINE
8
BLACK
6
CONTINUOUS
10
-26.05
20
-41.125
11
-26.05
21
-54.125
0
LINE
8
BLACK
6
CONTINUOUS
10
-25.55
20
-54.625
11
-12.55
21
-54.625
0
LINE
8
BLACK
6
CONTINUOUS
10
-12.05
20
-54.125
11
-12.05
21
-41.125
0
ARC
8
BLACK
10
-12.55
20
-54.125
40
0.5
50
-90
51
-0
0
ARC
8
BLACK
10
-25.55
20
-54.125
40
0.5
50
180
51
270
0
ARC
8
BLACK
10
-25.55
20
-41.125
40
0.5
50
90
51
180
0
ARC
8
BLACK
10
-12.55
20
-41.125
40
0.5
50
-0
51
90
0
LINE
8
BLACK
6
CONTINUOUS
10
-12.55
20
-21.575
11
-25.55
21
-21.575
0
LINE
8
BLACK
6
CONTINUOUS
10
-26.05
20
-22.075
11
-26.05
21
-35.075
0
LINE
8
BLACK
6
CONTINUOUS
10
-25.55
20
-35.575
11
-12.55
21
-35.575
0
LINE
8
BLACK
6
CONTINUOUS
10
-12.05
20
-35.075
11
-12.05
21
-22.075
0
ARC
8
BLACK
10
-12.55
20
-22.075
40
0.5
50
-0
51
90
0
ARC
8
BLACK
10
-25.55
20
-22.075
40
0.5
50
90
51
180
0
ARC
8
BLACK
10
-25.55
20
-35.075
40
0.5
50
180
51
270
0
ARC
8
BLACK
10
-12.55
20
-35.075
40
0.5
50
-90
51
-0
0
LINE
8
BLACK
6
CONTINUOUS
10
-12.55
20
-59.675
11
-25.55
21
-59.675
0
LINE
8
BLACK
6
CONTINUOUS
10
-26.05
20
-60.175
11
-26.05
21
-73.175
0
LINE
8
BLACK
6
CONTINUOUS
10
-25.55
20
-73.675
11
-12.55
21
-73.675
0
LINE
8
BLACK
6
CONTINUOUS
10
-12.05
20
-73.175
11
-12.05
21
-60.175
0
ARC
8
BLACK
10
-12.55
20
-60.175
40
0.5
50
-0
51
90
0
ARC
8
BLACK
10
-25.55
20
-60.175
40
0.5
50
90
51
180
0
ARC
8
BLACK
10
-25.55
20
-73.175
40
0.5
50
180
51
270
0
ARC
8
BLACK
10
-12.55
20
-73.175
40
0.5
50
-90
51
-0
0
LINE
8
BLACK
6
CONTINUOUS
10
-12.55
20
16.525
11
-25.55
21
16.525
0
LINE
8
BLACK
6
CONTINUOUS
10
-26.05
20
16.025
11
-26.05
21
3.025
0
LINE
8
BLACK
6
CONTINUOUS
10
-25.55
20
2.525
11
-12.55
21
2.525
0
LINE
8
BLACK
6
CONTINUOUS
10
-12.05
20
3.025
11
-12.05
21
16.025
0
ARC
8
BLACK
10
-12.55
20
3.025
40
0.5
50
-90
51
-0
0
ARC
8
BLACK
10
-25.55
20
3.025
40
0.5
50
180
51
270
0
ARC
8
BLACK
10
-25.55
20
16.025
40
0.5
50
90
51
180
0
ARC
8
BLACK
10
-12.55
20
16.025
40
0.5
50
-0
51
90
0
LINE
8
BLACK
6
CONTINUOUS
10
-31.6
20
-38.2437
11
-44.6
21
-38.2437
0
LINE
8
BLACK
6
CONTINUOUS
10
-45.1
20
-38.7437
11
-45.1
21
-51.7437
0
LINE
8
BLACK
6
CONTINUOUS
10
-44.6
20
-52.2437
11
-31.6
21
-52.2437
0
LINE
8
BLACK
6
CONTINUOUS
10
-31.1
20
-51.7437
11
-31.1
21
-38.7437
0
ARC
8
BLACK
10
-31.6
20
-51.7437
40
0.5
50
-90
51
-0
0
ARC
8
BLACK
10
-44.6
20
-51.7437
40
0.5
50
180
51
270
0
ARC
8
BLACK
10
-44.6
20
-38.7437
40
0.5
50
90
51
180
0
ARC
8
BLACK
10
-31.6
20
-38.7437
40
0.5
50
-0
51
90
0
LINE
8
BLACK
6
CONTINUOUS
10
-31.6
20
-19.1937
11
-44.6
21
-19.1937
0
LINE
8
BLACK
6
CONTINUOUS
10
-45.1
20
-19.6937
11
-45.1
21
-32.6938
0
LINE
8
BLACK
6
CONTINUOUS
10
-44.6
20
-33.1938
11
-31.6
21
-33.1938
0
LINE
8
BLACK
6
CONTINUOUS
10
-31.1
20
-32.6938
11
-31.1
21
-19.6937
0
ARC
8
BLACK
10
-31.6
20
-19.6937
40
0.5
50
-0
51
90
0
ARC
8
BLACK
10
-44.6
20
-19.6937
40
0.5
50
90
51
180
0
ARC
8
BLACK
10
-44.6
20
-32.6938
40
0.5
50
180
51
270
0
ARC
8
BLACK
10
-31.6
20
-32.6938
40
0.5
50
-90
51
-0
0
LINE
8
BLACK
6
CONTINUOUS
10
-31.6
20
-57.2937
11
-44.6
21
-57.2937
0
LINE
8
BLACK
6
CONTINUOUS
10
-45.1
20
-57.7937
11
-45.1
21
-70.7938
0
LINE
8
BLACK
6
CONTINUOUS
10
-44.6
20
-71.2938
11
-31.6
21
-71.2938
0
LINE
8
BLACK
6
CONTINUOUS
10
-31.1
20
-70.7938
11
-31.1
21
-57.7937
0
ARC
8
BLACK
10
-31.6
20
-57.7937
40
0.5
50
-0
51
90
0
ARC
8
BLACK
10
-44.6
20
-57.7937
40
0.5
50
90
51
180
0
ARC
8
BLACK
10
-44.6
20
-70.7938
40
0.5
50
180
51
270
0
ARC
8
BLACK
10
-31.6
20
-70.7938
40
0.5
50
-90
51
-0
0
LINE
8
BLACK
6
CONTINUOUS
10
-31.6
20
18.9062
11
-44.6
21
18.9062
0
LINE
8
BLACK
6
CONTINUOUS
10
-45.1
20
18.4062
11
-45.1
21
5.40625
0
LINE
8
BLACK
6
CONTINUOUS
10
-44.6
20
4.90625
11
-31.6
21
4.90625
0
LINE
8
BLACK
6
CONTINUOUS
10
-31.1
20
5.40625
11
-31.1
21
18.4062
0
ARC
8
BLACK
10
-31.6
20
5.40625
40
0.5
50
-90
51
-0
0
ARC
8
BLACK
10
-44.6
20
5.40625
40
0.5
50
180
51
270
0
ARC
8
BLACK
10
-44.6
20
18.4062
40
0.5
50
90
51
180
0
ARC
8
BLACK
10
-31.6
20
18.4062
40
0.5
50
-0
51
90
0
LINE
8
BLACK
6
CONTINUOUS
10
-50.65
20
-35.8625
11
-63.65
21
-35.8625
0
LINE
8
BLACK
6
CONTINUOUS
10
-64.15
20
-36.3625
11
-64.15
21
-49.3625
0
LINE
8
BLACK
6
CONTINUOUS
10
-63.65
20
-49.8625
11
-50.65
21
-49.8625
0
LINE
8
BLACK
6
CONTINUOUS
10
-50.15
20
-49.3625
11
-50.15
21
-36.3625
0
ARC
8
BLACK
10
-50.65
20
-49.3625
40
0.5
50
-90
51
-0
0
ARC
8
BLACK
10
-63.65
20
-49.3625
40
0.5
50
180
51
270
0
ARC
8
BLACK
10
-63.65
20
-36.3625
40
0.5
50
90
51
180
0
ARC
8
BLACK
10
-50.65
20
-36.3625
40
0.5
50
-0
51
90
0
LINE
8
BLACK
6
CONTINUOUS
10
-50.65
20
-16.8125
11
-63.65
21
-16.8125
0
LINE
8
BLACK
6
CONTINUOUS
10
-64.15
20
-17.3125
11
-64.15
21
-30.3125
0
LINE
8
BLACK
6
CONTINUOUS
10
-63.65
20
-30.8125
11
-50.65
21
-30.8125
0
LINE
8
BLACK
6
CONTINUOUS
10
-50.15
20
-30.3125
11
-50.15
21
-17.3125
0
ARC
8
BLACK
10
-50.65
20
-17.3125
40
0.5
50
-0
51
90
0
ARC
8
BLACK
10
-63.65
20
-17.3125
40
0.5
50
90
51
180
0
ARC
8
BLACK
10
-63.65
20
-30.3125
40
0.5
50
180
51
270
0
ARC
8
BLACK
10
-50.65
20
-30.3125
40
0.5
50
-90
51
-0
0
LINE
8
BLACK
6
CONTINUOUS
10
-50.65
20
-54.9125
11
-63.65
21
-54.9125
0
LINE
8
BLACK
6
CONTINUOUS
10
-64.15
20
-55.4125
11
-64.15
21
-68.4125
0
LINE
8
BLACK
6
CONTINUOUS
10
-63.65
20
-68.9125
11
-50.65
21
-68.9125
0
LINE
8
BLACK
6
CONTINUOUS
10
-50.15
20
-68.4125
11
-50.15
21
-55.4125
0
ARC
8
BLACK
10
-50.65
20
-55.4125
40
0.5
50
-0
51
90
0
ARC
8
BLACK
10
-63.65
20
-55.4125
40
0.5
50
90
51
180
0
ARC
8
BLACK
10
-63.65
20
-68.4125
40
0.5
50
180
51
270
0
ARC
8
BLACK
10
-50.65
20
-68.4125
40
0.5
50
-90
51
-0
0
LINE
8
BLACK
6
CONTINUOUS
10
-50.65
20
21.2875
11
-63.65
21
21.2875
0
LINE
8
BLACK
6
CONTINUOUS
10
-64.15
20
20.7875
11
-64.15
21
7.7875
0
LINE
8
BLACK
6
CONTINUOUS
10
-63.65
20
7.2875
11
-50.65
21
7.2875
0
LINE
8
BLACK
6
CONTINUOUS
10
-50.15
20
7.7875
11
-50.15
21
20.7875
0
ARC
8
BLACK
10
-50.65
20
7.7875
40
0.5
50
-90
51
-0
0
ARC
8
BLACK
10
-63.65
20
7.7875
40
0.5
50
180
51
270
0
ARC
8
BLACK
10
-63.65
20
20.7875
40
0.5
50
90
51
180
0
ARC
8
BLACK
10
-50.65
20
20.7875
40
0.5
50
-0
51
90
0
LINE
8
BLACK
6
CONTINUOUS
10
-69.7
20
-38.2437
11
-82.7
21
-38.2437
0
LINE
8
BLACK
6
CONTINUOUS
10
-83.2
20
-38.7437
11
-83.2
21
-51.7437
0
LINE
8
BLACK
6
CONTINUOUS
10
-82.7
20
-52.2437
11
-69.7
21
-52.2437
0
LINE
8
BLACK
6
CONTINUOUS
10
-69.2
20
-51.7437
11
-69.2
21
-38.7437
0
ARC
8
BLACK
10
-69.7
20
-51.7437
40
0.5
50
-90
51
-0
0
ARC
8
BLACK
10
-82.7
20
-51.7437
40
0.5
50
180
51
270
0
ARC
8
BLACK
10
-82.7
20
-38.7437
40
0.5
50
90
51
180
0
ARC
8
BLACK
10
-69.7
20
-38.7437
40
0.5
50
-0
51
90
0
LINE
8
BLACK
6
CONTINUOUS
10
-69.7
20
-19.1937
11
-82.7
21
-19.1937
0
LINE
8
BLACK
6
CONTINUOUS
10
-83.2
20
-19.6937
11
-83.2
21
-32.6938
0
LINE
8
BLACK
6
CONTINUOUS
10
-82.7
20
-33.1938
11
-69.7
21
-33.1938
0
LINE
8
BLACK
6
CONTINUOUS
10
-69.2
20
-32.6938
11
-69.2
21
-19.6937
0
ARC
8
BLACK
10
-69.7
20
-19.6937
40
0.5
50
-0
51
90
0
ARC
8
BLACK
10
-82.7
20
-19.6937
40
0.5
50
90
51
180
0
ARC
8
BLACK
10
-82.7
20
-32.6938
40
0.5
50
180
51
270
0
ARC
8
BLACK
10
-69.7
20
-32.6938
40
0.5
50
-90
51
-0
0
LINE
8
BLACK
6
CONTINUOUS
10
-69.7
20
-57.2937
11
-82.7
21
-57.2937
0
LINE
8
BLACK
6
CONTINUOUS
10
-83.2
20
-57.7937
11
-83.2
21
-70.7938
0
LINE
8
BLACK
6
CONTINUOUS
10
-82.7
20
-71.2938
11
-69.7
21
-71.2938
0
LINE
8
BLACK
6
CONTINUOUS
10
-69.2
20
-70.7938
11
-69.2
21
-57.7937
0
ARC
8
BLACK
10
-69.7
20
-57.7937
40
0.5
50
-0
51
90
0
ARC
8
BLACK
10
-82.7
20
-57.7937
40
0.5
50
90
51
180
0
ARC
8
BLACK
10
-82.7
20
-70.7938
40
0.5
50
180
51
270
0
ARC
8
BLACK
10
-69.7
20
-70.7938
40
0.5
50
-90
51
-0
0
LINE
8
BLACK
6
CONTINUOUS
10
-69.7
20
18.9062
11
-82.7
21
18.9062
0
LINE
8
BLACK
6
CONTINUOUS
10
-83.2
20
18.4062
11
-83.2
21
5.40625
0
LINE
8
BLACK
6
CONTINUOUS
10
-82.7
20
4.90625
11
-69.7
21
4.90625
0
LINE
8
BLACK
6
CONTINUOUS
10
-69.2
20
5.40625
11
-69.2
21
18.4062
0
ARC
8
BLACK
10
-69.7
20
5.40625
40
0.5
50
-90
51
-0
0
ARC
8
BLACK
10
-82.7
20
5.40625
40
0.5
50
180
51
270
0
ARC
8
BLACK
10
-82.7
20
18.4062
40
0.5
50
90
51
180
0
ARC
8
BLACK
10
-69.7
20
18.4062
40
0.5
50
-0
51
90
0
LINE
8
BLACK
6
CONTINUOUS
10
-88.75
20
16.525
11
-101.75
21
16.525
0
LINE
8
BLACK
6
CONTINUOUS
10
-102.25
20
16.025
11
-102.25
21
3.025
0
LINE
8
BLACK
6
CONTINUOUS
10
-101.75
20
2.525
11
-88.75
21
2.525
0
LINE
8
BLACK
6
CONTINUOUS
10
-88.25
20
3.025
11
-88.25
21
16.025
0
ARC
8
BLACK
10
-88.75
20
16.025
40
0.5
50
-0
51
90
0
ARC
8
BLACK
10
-101.75
20
16.025
40
0.5
50
90
51
180
0
ARC
8
BLACK
10
-101.75
20
3.025
40
0.5
50
180
51
270
0
ARC
8
BLACK
10
-88.75
20
3.025
40
0.5
50
-90
51
-0
0
LINE
8
BLACK
6
CONTINUOUS
10
-88.75
20
-59.675
11
-101.75
21
-59.675
0
LINE
8
BLACK
6
CONTINUOUS
10
-102.25
20
-60.175
11
-102.25
21
-73.175
0
LINE
8
BLACK
6
CONTINUOUS
10
-101.75
20
-73.675
11
-88.75
21
-73.675
0
LINE
8
BLACK
6
CONTINUOUS
10
-88.25
20
-73.175
11
-88.25
21
-60.175
0
ARC
8
BLACK
10
-88.75
20
-73.175
40
0.5
50
-90
51
-0
0
ARC
8
BLACK
10
-101.75
20
-73.175
40
0.5
50
180
51
270
0
ARC
8
BLACK
10
-101.75
20
-60.175
40
0.5
50
90
51
180
0
ARC
8
BLACK
10
-88.75
20
-60.175
40
0.5
50
-0
51
90
0
LINE
8
BLACK
6
CONTINUOUS
10
-88.75
20
-21.575
11
-101.75
21
-21.575
0
LINE
8
BLACK
6
CONTINUOUS
10
-102.25
20
-22.075
11
-102.25
21
-35.075
0
LINE
8
BLACK
6
CONTINUOUS
10
-101.75
20
-35.575
11
-88.75
21
-35.575
0
LINE
8
BLACK
6
CONTINUOUS
10
-88.25
20
-35.075
11
-88.25
21
-22.075
0
ARC
8
BLACK
10
-88.75
20
-35.075
40
0.5
50
-90
51
-0
0
ARC
8
BLACK
10
-101.75
20
-35.075
40
0.5
50
180
51
270
0
ARC
8
BLACK
10
-101.75
20
-22.075
40
0.5
50
90
51
180
0
ARC
8
BLACK
10
-88.75
20
-22.075
40
0.5
50
-0
51
90
0
LINE
8
BLACK
6
CONTINUOUS
10
-88.75
20
-40.625
11
-101.75
21
-40.625
0
LINE
8
BLACK
6
CONTINUOUS
10
-102.25
20
-41.125
11
-102.25
21
-54.125
0
LINE
8
BLACK
6
CONTINUOUS
10
-101.75
20
-54.625
11
-88.75
21
-54.625
0
LINE
8
BLACK
6
CONTINUOUS
10
-88.25
20
-54.125
11
-88.25
21
-41.125
0
ARC
8
BLACK
10
-88.75
20
-41.125
40
0.5
50
-0
51
90
0
ARC
8
BLACK
10
-101.75
20
-41.125
40
0.5
50
90
51
180
0
ARC
8
BLACK
10
-101.75
20
-54.125
40
0.5
50
180
51
270
0
ARC
8
BLACK
10
-88.75
20
-54.125
40
0.5
50
-90
51
-0
0
LINE
8
BLACK
6
CONTINUOUS
10
-88.75
20
-2.525
11
-101.75
21
-2.525
0
LINE
8
BLACK
6
CONTINUOUS
10
-102.25
20
-3.025
11
-102.25
21
-16.025
0
LINE
8
BLACK
6
CONTINUOUS
10
-101.75
20
-16.525
11
-88.75
21
-16.525
0
LINE
8
BLACK
6
CONTINUOUS
10
-88.25
20
-16.025
11
-88.25
21
-3.025
0
ARC
8
BLACK
10
-88.75
20
-16.025
40
0.5
50
-90
51
-0
0
ARC
8
BLACK
10
-101.75
20
-16.025
40
0.5
50
180
51
270
0
ARC
8
BLACK
10
-101.75
20
-3.025
40
0.5
50
90
51
180
0
ARC
8
BLACK
10
-88.75
20
-3.025
40
0.5
50
-0
51
90
0
LINE
8
BLACK
6
CONTINUOUS
10
-107.8
20
-59.675
11
-120.8
21
-59.675
0
LINE
8
BLACK
6
CONTINUOUS
10
-121.3
20
-60.175
11
-121.3
21
-73.175
0
LINE
8
BLACK
6
CONTINUOUS
10
-120.8
20
-73.675
11
-107.8
21
-73.675
0
LINE
8
BLACK
6
CONTINUOUS
10
-107.3
20
-73.175
11
-107.3
21
-60.175
0
ARC
8
BLACK
10
-107.8
20
-60.175
40
0.5
50
-0
51
90
0
ARC
8
BLACK
10
-120.8
20
-60.175
40
0.5
50
90
51
180
0
ARC
8
BLACK
10
-120.8
20
-73.175
40
0.5
50
180
51
270
0
ARC
8
BLACK
10
-107.8
20
-73.175
40
0.5
50
-90
51
-0
0
LINE
8
BLACK
6
CONTINUOUS
10
-107.8
20
-21.575
11
-120.8
21
-21.575
0
LINE
8
BLACK
6
CONTINUOUS
10
-121.3
20
-22.075
11
-121.3
21
-35.075
0
LINE
8
BLACK
6
CONTINUOUS
10
-120.8
20
-35.575
11
-107.8
21
-35.575
0
LINE
8
BLACK
6
CONTINUOUS
10
-107.3
20
-35.075
11
-107.3
21
-22.075
0
ARC
8
BLACK
10
-107.8
20
-22.075
40
0.5
50
-0
51
90
0
ARC
8
BLACK
10
-120.8
20
-22.075
40
0.5
50
90
51
180
0
ARC
8
BLACK
10
-120.8
20
-35.075
40
0.5
50
180
51
270
0
ARC
8
BLACK
10
-107.8
20
-35.075
40
0.5
50
-90
51
-0
0
LINE
8
BLACK
6
CONTINUOUS
10
-107.8
20
-40.625
11
-120.8
21
-40.625
0
LINE
8
BLACK
6
CONTINUOUS
10
-121.3
20
-41.125
11
-121.3
21
-54.125
0
LINE
8
BLACK
6
CONTINUOUS
10
-120.8
20
-54.625
11
-107.8
21
-54.625
0
LINE
8
BLACK
6
CONTINUOUS
10
-107.3
20
-54.125
11
-107.3
21
-41.125
0
ARC
8
BLACK
10
-107.8
20
-54.125
40
0.5
50
-90
51
-0
0
ARC
8
BLACK
10
-120.8
20
-54.125
40
0.5
50
180
51
270
0
ARC
8
BLACK
10
-120.8
20
-41.125
40
0.5
50
90
51
180
0
ARC
8
BLACK
10
-107.8
20
-41.125
40
0.5
50
-0
51
90
0
LINE
8
BLACK
6
CONTINUOUS
10
-107.8
20
-2.525
11
-120.8
21
-2.525
0
LINE
8
BLACK
6
CONTINUOUS
10
-121.3
20
-3.025
11
-121.3
21
-16.025
0
LINE
8
BLACK
6
CONTINUOUS
10
-120.8
20
-16.525
11
-107.8
21
-16.525
0
LINE
8
BLACK
6
CONTINUOUS
10
-107.3
20
-16.025
11
-107.3
21
-3.025
0
ARC
8
BLACK
10
-107.8
20
-3.025
40
0.5
50
-0
51
90
0
ARC
8
BLACK
10
-120.8
20
-3.025
40
0.5
50
90
51
180
0
ARC
8
BLACK
10
-120.8
20
-16.025
40
0.5
50
180
51
270
0
ARC
8
BLACK
10
-107.8
20
-16.025
40
0.5
50
-90
51
-0
0
LINE
8
BLACK
6
CONTINUOUS
10
-107.8
20
16.525
11
-120.8
21
16.525
0
LINE
8
BLACK
6
CONTINUOUS
10
-121.3
20
16.025
11
-121.3
21
3.025
0
LINE
8
BLACK
6
CONTINUOUS
10
-120.8
20
2.525
11
-107.8
21
2.525
0
LINE
8
BLACK
6
CONTINUOUS
10
-107.3
20
3.025
11
-107.3
21
16.025
0
ARC
8
BLACK
10
-107.8
20
3.025
40
0.5
50
-90
51
-0
0
ARC
8
BLACK
10
-120.8
20
3.025
40
0.5
50
180
51
270
0
ARC
8
BLACK
10
-120.8
20
16.025
40
0.5
50
90
51
180
0
ARC
8
BLACK
10
-107.8
20
16.025
40
0.5
50
-0
51
90
  0
ENDSEC
  0
EOF
