  0
SECTION
  2
HEADER
  9
$ANGBASE
  50
0.0
  9
$ANGDIR
  70
1
  9
$MEASUREMENT
  70
0
  0
ENDSEC
  0
SECTION
  2
TABLES
  0
TABLE
  2
LTYPE
  70
4
  0
LTYPE
  5
40F
  2
CONTINUOUS
  70
0
  3
Solid line
  72
65
  73
0
  40
0.0
  0
LTYPE
  5
410
  2
DASHDOT
 70
0
  3
Dash Dot ____ _ ____ _
 72
65
 73
4
 40
2.0
 49
1.25
 49
-0.25
 49
0.25
 49
-0.25
  0
LTYPE
  5
411
  2
DASHED
 70
0
  3
Dashed __ __ __ __ __
 72
65
 73
2
 40
0.75
 49
0.5
 49
-0.25
  0
LTYPE
  5
43B
  2
DOTTED
 70
0
  3
Dotted .  .  .  .
 72
65
 73
2
 40
0.2
 49
0.0
 49
-0.2
  0
ENDTAB
  0
TABLE
  2
STYLE
  70
4
  0
STYLE
  2
KICAD
  70
0
  40
0
  41
1
  42
1
  50
0
  71
0
  3
isocp.shx
  0
STYLE
  2
KICADB
  70
0
  40
0
  41
1
  42
1
  50
0
  71
0
  3
isocp.shx
  0
STYLE
  2
KICADI
  70
0
  40
0
  41
1
  42
1
  50
15
  71
0
  3
isocp.shx
  0
STYLE
  2
KICADBI
  70
0
  40
0
  41
1
  42
1
  50
15
  71
0
  3
isocp.shx
  0
ENDTAB
  0
TABLE
  2
LAYER
  70
1
  0
LAYER
  2
BLACK
  70
0
  62
7
  6
CONTINUOUS
  0
ENDTAB
  0
ENDSEC
  0
SECTION
  2
ENTITIES
0
LINE
8
BLACK
6
CONTINUOUS
10
-0.375
20
0.375
11
-0.375
21
-4.6875
0
LINE
8
BLACK
6
CONTINUOUS
10
0.375
20
0.375
11
-0.375
21
0.375
0
LINE
8
BLACK
6
CONTINUOUS
10
0.375
20
0.75
11
0.375
21
0.375
0
LINE
8
BLACK
6
CONTINUOUS
10
1.125
20
0.75
11
0.375
21
0.75
0
LINE
8
BLACK
6
CONTINUOUS
10
1.125
20
0.84375
11
1.125
21
0.75
0
LINE
8
BLACK
6
CONTINUOUS
10
1.875
20
0.84375
11
1.125
21
0.84375
0
LINE
8
BLACK
6
CONTINUOUS
10
1.875
20
0.9375
11
1.875
21
0.84375
0
LINE
8
BLACK
6
CONTINUOUS
10
2.625
20
0.9375
11
1.875
21
0.9375
0
LINE
8
BLACK
6
CONTINUOUS
10
2.625
20
0.84375
11
2.625
21
0.9375
0
LINE
8
BLACK
6
CONTINUOUS
10
3.375
20
0.84375
11
2.625
21
0.84375
0
LINE
8
BLACK
6
CONTINUOUS
10
3.375
20
0.75
11
3.375
21
0.84375
0
LINE
8
BLACK
6
CONTINUOUS
10
4.875
20
0.75
11
3.375
21
0.75
0
LINE
8
BLACK
6
CONTINUOUS
10
4.875
20
-4.6875
11
4.875
21
0.75
0
LINE
8
BLACK
6
CONTINUOUS
10
-0.375
20
-4.6875
11
4.875
21
-4.6875
0
LINE
8
BLACK
6
CONTINUOUS
10
1.31816
20
-3.77534
11
1.31816
21
-4.28716
0
LINE
8
BLACK
6
CONTINUOUS
10
1.84966
20
-3.75566
11
1.33784
21
-3.75566
0
LINE
8
BLACK
6
CONTINUOUS
10
1.86934
20
-4.28716
11
1.86934
21
-3.77534
0
LINE
8
BLACK
6
CONTINUOUS
10
1.33784
20
-4.30684
11
1.84966
21
-4.30684
0
ARC
8
BLACK
10
1.33784
20
-3.77534
40
0.019685
50
90
51
180
0
ARC
8
BLACK
10
1.84966
20
-3.77534
40
0.019685
50
-0
51
90
0
ARC
8
BLACK
10
1.84966
20
-4.28716
40
0.019685
50
-90
51
-0
0
ARC
8
BLACK
10
1.33784
20
-4.28716
40
0.019685
50
180
51
270
0
ARC
8
BLACK
10
3.25591
20
-4.05659
40
0.019685
50
-0
51
90
0
ARC
8
BLACK
10
2.74409
20
-4.05659
40
0.019685
50
90
51
180
0
ARC
8
BLACK
10
2.74409
20
-4.56841
40
0.019685
50
180
51
270
0
ARC
8
BLACK
10
3.25591
20
-4.56841
40
0.019685
50
-90
51
-0
0
LINE
8
BLACK
6
CONTINUOUS
10
3.27559
20
-4.56841
11
3.27559
21
-4.05659
0
LINE
8
BLACK
6
CONTINUOUS
10
2.74409
20
-4.58809
11
3.25591
21
-4.58809
0
LINE
8
BLACK
6
CONTINUOUS
10
2.72441
20
-4.05659
11
2.72441
21
-4.56841
0
LINE
8
BLACK
6
CONTINUOUS
10
3.25591
20
-4.03691
11
2.74409
21
-4.03691
0
ARC
8
BLACK
10
4.75591
20
-4.05659
40
0.019685
50
-0
51
90
0
ARC
8
BLACK
10
4.24409
20
-4.05659
40
0.019685
50
90
51
180
0
ARC
8
BLACK
10
4.24409
20
-4.56841
40
0.019685
50
180
51
270
0
ARC
8
BLACK
10
4.75591
20
-4.56841
40
0.019685
50
-90
51
-0
0
LINE
8
BLACK
6
CONTINUOUS
10
4.77559
20
-4.56841
11
4.77559
21
-4.05659
0
LINE
8
BLACK
6
CONTINUOUS
10
4.24409
20
-4.58809
11
4.75591
21
-4.58809
0
LINE
8
BLACK
6
CONTINUOUS
10
4.22441
20
-4.05659
11
4.22441
21
-4.56841
0
LINE
8
BLACK
6
CONTINUOUS
10
4.75591
20
-4.03691
11
4.24409
21
-4.03691
0
ARC
8
BLACK
10
4.00591
20
-4.05659
40
0.019685
50
-0
51
90
0
ARC
8
BLACK
10
3.49409
20
-4.05659
40
0.019685
50
90
51
180
0
ARC
8
BLACK
10
3.49409
20
-4.56841
40
0.019685
50
180
51
270
0
ARC
8
BLACK
10
4.00591
20
-4.56841
40
0.019685
50
-90
51
-0
0
LINE
8
BLACK
6
CONTINUOUS
10
4.02559
20
-4.56841
11
4.02559
21
-4.05659
0
LINE
8
BLACK
6
CONTINUOUS
10
3.49409
20
-4.58809
11
4.00591
21
-4.58809
0
LINE
8
BLACK
6
CONTINUOUS
10
3.47441
20
-4.05659
11
3.47441
21
-4.56841
0
LINE
8
BLACK
6
CONTINUOUS
10
4.00591
20
-4.03691
11
3.49409
21
-4.03691
0
ARC
8
BLACK
10
4.00591
20
-3.30659
40
0.019685
50
-0
51
90
0
ARC
8
BLACK
10
3.49409
20
-3.30659
40
0.019685
50
90
51
180
0
ARC
8
BLACK
10
3.49409
20
-3.81841
40
0.019685
50
180
51
270
0
ARC
8
BLACK
10
4.00591
20
-3.81841
40
0.019685
50
-90
51
-0
0
LINE
8
BLACK
6
CONTINUOUS
10
4.02559
20
-3.81841
11
4.02559
21
-3.30659
0
LINE
8
BLACK
6
CONTINUOUS
10
3.49409
20
-3.83809
11
4.00591
21
-3.83809
0
LINE
8
BLACK
6
CONTINUOUS
10
3.47441
20
-3.30659
11
3.47441
21
-3.81841
0
LINE
8
BLACK
6
CONTINUOUS
10
4.00591
20
-3.28691
11
3.49409
21
-3.28691
0
LINE
8
BLACK
6
CONTINUOUS
10
1.75591
20
-2.25566
11
1.24409
21
-2.25566
0
LINE
8
BLACK
6
CONTINUOUS
10
1.22441
20
-2.27534
11
1.22441
21
-2.78716
0
LINE
8
BLACK
6
CONTINUOUS
10
1.24409
20
-2.80684
11
1.75591
21
-2.80684
0
LINE
8
BLACK
6
CONTINUOUS
10
1.77559
20
-2.78716
11
1.77559
21
-2.27534
0
ARC
8
BLACK
10
1.75591
20
-2.78716
40
0.019685
50
-90
51
-0
0
ARC
8
BLACK
10
1.24409
20
-2.78716
40
0.019685
50
180
51
270
0
ARC
8
BLACK
10
1.24409
20
-2.27534
40
0.019685
50
90
51
180
0
ARC
8
BLACK
10
1.75591
20
-2.27534
40
0.019685
50
-0
51
90
0
LINE
8
BLACK
6
CONTINUOUS
10
3.25591
20
-2.25566
11
2.74409
21
-2.25566
0
LINE
8
BLACK
6
CONTINUOUS
10
2.72441
20
-2.27534
11
2.72441
21
-2.78716
0
LINE
8
BLACK
6
CONTINUOUS
10
2.74409
20
-2.80684
11
3.25591
21
-2.80684
0
LINE
8
BLACK
6
CONTINUOUS
10
3.27559
20
-2.78716
11
3.27559
21
-2.27534
0
ARC
8
BLACK
10
3.25591
20
-2.78716
40
0.019685
50
-90
51
-0
0
ARC
8
BLACK
10
2.74409
20
-2.78716
40
0.019685
50
180
51
270
0
ARC
8
BLACK
10
2.74409
20
-2.27534
40
0.019685
50
90
51
180
0
ARC
8
BLACK
10
3.25591
20
-2.27534
40
0.019685
50
-0
51
90
0
LINE
8
BLACK
6
CONTINUOUS
10
4.00591
20
-2.34941
11
3.49409
21
-2.34941
0
LINE
8
BLACK
6
CONTINUOUS
10
3.47441
20
-2.36909
11
3.47441
21
-2.88091
0
LINE
8
BLACK
6
CONTINUOUS
10
3.49409
20
-2.90059
11
4.00591
21
-2.90059
0
LINE
8
BLACK
6
CONTINUOUS
10
4.02559
20
-2.88091
11
4.02559
21
-2.36909
0
ARC
8
BLACK
10
4.00591
20
-2.88091
40
0.019685
50
-90
51
-0
0
ARC
8
BLACK
10
3.49409
20
-2.88091
40
0.019685
50
180
51
270
0
ARC
8
BLACK
10
3.49409
20
-2.36909
40
0.019685
50
90
51
180
0
ARC
8
BLACK
10
4.00591
20
-2.36909
40
0.019685
50
-0
51
90
0
LINE
8
BLACK
6
CONTINUOUS
10
4.75591
20
-2.34941
11
4.24409
21
-2.34941
0
LINE
8
BLACK
6
CONTINUOUS
10
4.22441
20
-2.36909
11
4.22441
21
-2.88091
0
LINE
8
BLACK
6
CONTINUOUS
10
4.24409
20
-2.90059
11
4.75591
21
-2.90059
0
LINE
8
BLACK
6
CONTINUOUS
10
4.77559
20
-2.88091
11
4.77559
21
-2.36909
0
ARC
8
BLACK
10
4.75591
20
-2.88091
40
0.019685
50
-90
51
-0
0
ARC
8
BLACK
10
4.24409
20
-2.88091
40
0.019685
50
180
51
270
0
ARC
8
BLACK
10
4.24409
20
-2.36909
40
0.019685
50
90
51
180
0
ARC
8
BLACK
10
4.75591
20
-2.36909
40
0.019685
50
-0
51
90
0
LINE
8
BLACK
6
CONTINUOUS
10
2.50591
20
-2.16191
11
1.99409
21
-2.16191
0
LINE
8
BLACK
6
CONTINUOUS
10
1.97441
20
-2.18159
11
1.97441
21
-2.69341
0
LINE
8
BLACK
6
CONTINUOUS
10
1.99409
20
-2.71309
11
2.50591
21
-2.71309
0
LINE
8
BLACK
6
CONTINUOUS
10
2.52559
20
-2.69341
11
2.52559
21
-2.18159
0
ARC
8
BLACK
10
2.50591
20
-2.69341
40
0.019685
50
-90
51
-0
0
ARC
8
BLACK
10
1.99409
20
-2.69341
40
0.019685
50
180
51
270
0
ARC
8
BLACK
10
1.99409
20
-2.18159
40
0.019685
50
90
51
180
0
ARC
8
BLACK
10
2.50591
20
-2.18159
40
0.019685
50
-0
51
90
0
LINE
8
BLACK
6
CONTINUOUS
10
1.00591
20
-2.34941
11
0.494094
21
-2.34941
0
LINE
8
BLACK
6
CONTINUOUS
10
0.474409
20
-2.36909
11
0.474409
21
-2.88091
0
LINE
8
BLACK
6
CONTINUOUS
10
0.494094
20
-2.90059
11
1.00591
21
-2.90059
0
LINE
8
BLACK
6
CONTINUOUS
10
1.02559
20
-2.88091
11
1.02559
21
-2.36909
0
ARC
8
BLACK
10
1.00591
20
-2.88091
40
0.019685
50
-90
51
-0
0
ARC
8
BLACK
10
0.494094
20
-2.88091
40
0.019685
50
180
51
270
0
ARC
8
BLACK
10
0.494094
20
-2.36909
40
0.019685
50
90
51
180
0
ARC
8
BLACK
10
1.00591
20
-2.36909
40
0.019685
50
-0
51
90
0
LINE
8
BLACK
6
CONTINUOUS
10
1.75591
20
-1.50566
11
1.24409
21
-1.50566
0
LINE
8
BLACK
6
CONTINUOUS
10
1.22441
20
-1.52534
11
1.22441
21
-2.03716
0
LINE
8
BLACK
6
CONTINUOUS
10
1.24409
20
-2.05684
11
1.75591
21
-2.05684
0
LINE
8
BLACK
6
CONTINUOUS
10
1.77559
20
-2.03716
11
1.77559
21
-1.52534
0
ARC
8
BLACK
10
1.75591
20
-2.03716
40
0.019685
50
-90
51
-0
0
ARC
8
BLACK
10
1.24409
20
-2.03716
40
0.019685
50
180
51
270
0
ARC
8
BLACK
10
1.24409
20
-1.52534
40
0.019685
50
90
51
180
0
ARC
8
BLACK
10
1.75591
20
-1.52534
40
0.019685
50
-0
51
90
0
LINE
8
BLACK
6
CONTINUOUS
10
3.25591
20
-1.50566
11
2.74409
21
-1.50566
0
LINE
8
BLACK
6
CONTINUOUS
10
2.72441
20
-1.52534
11
2.72441
21
-2.03716
0
LINE
8
BLACK
6
CONTINUOUS
10
2.74409
20
-2.05684
11
3.25591
21
-2.05684
0
LINE
8
BLACK
6
CONTINUOUS
10
3.27559
20
-2.03716
11
3.27559
21
-1.52534
0
ARC
8
BLACK
10
3.25591
20
-2.03716
40
0.019685
50
-90
51
-0
0
ARC
8
BLACK
10
2.74409
20
-2.03716
40
0.019685
50
180
51
270
0
ARC
8
BLACK
10
2.74409
20
-1.52534
40
0.019685
50
90
51
180
0
ARC
8
BLACK
10
3.25591
20
-1.52534
40
0.019685
50
-0
51
90
0
LINE
8
BLACK
6
CONTINUOUS
10
4.00591
20
-1.59941
11
3.49409
21
-1.59941
0
LINE
8
BLACK
6
CONTINUOUS
10
3.47441
20
-1.61909
11
3.47441
21
-2.13091
0
LINE
8
BLACK
6
CONTINUOUS
10
3.49409
20
-2.15059
11
4.00591
21
-2.15059
0
LINE
8
BLACK
6
CONTINUOUS
10
4.02559
20
-2.13091
11
4.02559
21
-1.61909
0
ARC
8
BLACK
10
4.00591
20
-2.13091
40
0.019685
50
-90
51
-0
0
ARC
8
BLACK
10
3.49409
20
-2.13091
40
0.019685
50
180
51
270
0
ARC
8
BLACK
10
3.49409
20
-1.61909
40
0.019685
50
90
51
180
0
ARC
8
BLACK
10
4.00591
20
-1.61909
40
0.019685
50
-0
51
90
0
LINE
8
BLACK
6
CONTINUOUS
10
4.75591
20
-1.59941
11
4.24409
21
-1.59941
0
LINE
8
BLACK
6
CONTINUOUS
10
4.22441
20
-1.61909
11
4.22441
21
-2.13091
0
LINE
8
BLACK
6
CONTINUOUS
10
4.24409
20
-2.15059
11
4.75591
21
-2.15059
0
LINE
8
BLACK
6
CONTINUOUS
10
4.77559
20
-2.13091
11
4.77559
21
-1.61909
0
ARC
8
BLACK
10
4.75591
20
-2.13091
40
0.019685
50
-90
51
-0
0
ARC
8
BLACK
10
4.24409
20
-2.13091
40
0.019685
50
180
51
270
0
ARC
8
BLACK
10
4.24409
20
-1.61909
40
0.019685
50
90
51
180
0
ARC
8
BLACK
10
4.75591
20
-1.61909
40
0.019685
50
-0
51
90
0
LINE
8
BLACK
6
CONTINUOUS
10
2.50591
20
-1.41191
11
1.99409
21
-1.41191
0
LINE
8
BLACK
6
CONTINUOUS
10
1.97441
20
-1.43159
11
1.97441
21
-1.94341
0
LINE
8
BLACK
6
CONTINUOUS
10
1.99409
20
-1.96309
11
2.50591
21
-1.96309
0
LINE
8
BLACK
6
CONTINUOUS
10
2.52559
20
-1.94341
11
2.52559
21
-1.43159
0
ARC
8
BLACK
10
2.50591
20
-1.94341
40
0.019685
50
-90
51
-0
0
ARC
8
BLACK
10
1.99409
20
-1.94341
40
0.019685
50
180
51
270
0
ARC
8
BLACK
10
1.99409
20
-1.43159
40
0.019685
50
90
51
180
0
ARC
8
BLACK
10
2.50591
20
-1.43159
40
0.019685
50
-0
51
90
0
LINE
8
BLACK
6
CONTINUOUS
10
1.00591
20
-1.59941
11
0.494094
21
-1.59941
0
LINE
8
BLACK
6
CONTINUOUS
10
0.474409
20
-1.61909
11
0.474409
21
-2.13091
0
LINE
8
BLACK
6
CONTINUOUS
10
0.494094
20
-2.15059
11
1.00591
21
-2.15059
0
LINE
8
BLACK
6
CONTINUOUS
10
1.02559
20
-2.13091
11
1.02559
21
-1.61909
0
ARC
8
BLACK
10
1.00591
20
-2.13091
40
0.019685
50
-90
51
-0
0
ARC
8
BLACK
10
0.494094
20
-2.13091
40
0.019685
50
180
51
270
0
ARC
8
BLACK
10
0.494094
20
-1.61909
40
0.019685
50
90
51
180
0
ARC
8
BLACK
10
1.00591
20
-1.61909
40
0.019685
50
-0
51
90
0
LINE
8
BLACK
6
CONTINUOUS
10
1.75591
20
-0.755659
11
1.24409
21
-0.755659
0
LINE
8
BLACK
6
CONTINUOUS
10
1.22441
20
-0.775344
11
1.22441
21
-1.28716
0
LINE
8
BLACK
6
CONTINUOUS
10
1.24409
20
-1.30684
11
1.75591
21
-1.30684
0
LINE
8
BLACK
6
CONTINUOUS
10
1.77559
20
-1.28716
11
1.77559
21
-0.775344
0
ARC
8
BLACK
10
1.75591
20
-1.28716
40
0.019685
50
-90
51
-0
0
ARC
8
BLACK
10
1.24409
20
-1.28716
40
0.019685
50
180
51
270
0
ARC
8
BLACK
10
1.24409
20
-0.775344
40
0.019685
50
90
51
180
0
ARC
8
BLACK
10
1.75591
20
-0.775344
40
0.019685
50
-0
51
90
0
LINE
8
BLACK
6
CONTINUOUS
10
3.25591
20
-0.755659
11
2.74409
21
-0.755659
0
LINE
8
BLACK
6
CONTINUOUS
10
2.72441
20
-0.775344
11
2.72441
21
-1.28716
0
LINE
8
BLACK
6
CONTINUOUS
10
2.74409
20
-1.30684
11
3.25591
21
-1.30684
0
LINE
8
BLACK
6
CONTINUOUS
10
3.27559
20
-1.28716
11
3.27559
21
-0.775344
0
ARC
8
BLACK
10
3.25591
20
-1.28716
40
0.019685
50
-90
51
-0
0
ARC
8
BLACK
10
2.74409
20
-1.28716
40
0.019685
50
180
51
270
0
ARC
8
BLACK
10
2.74409
20
-0.775344
40
0.019685
50
90
51
180
0
ARC
8
BLACK
10
3.25591
20
-0.775344
40
0.019685
50
-0
51
90
0
LINE
8
BLACK
6
CONTINUOUS
10
4.00591
20
-0.849409
11
3.49409
21
-0.849409
0
LINE
8
BLACK
6
CONTINUOUS
10
3.47441
20
-0.869094
11
3.47441
21
-1.38091
0
LINE
8
BLACK
6
CONTINUOUS
10
3.49409
20
-1.40059
11
4.00591
21
-1.40059
0
LINE
8
BLACK
6
CONTINUOUS
10
4.02559
20
-1.38091
11
4.02559
21
-0.869094
0
ARC
8
BLACK
10
4.00591
20
-1.38091
40
0.019685
50
-90
51
-0
0
ARC
8
BLACK
10
3.49409
20
-1.38091
40
0.019685
50
180
51
270
0
ARC
8
BLACK
10
3.49409
20
-0.869094
40
0.019685
50
90
51
180
0
ARC
8
BLACK
10
4.00591
20
-0.869094
40
0.019685
50
-0
51
90
0
LINE
8
BLACK
6
CONTINUOUS
10
4.75591
20
-0.849409
11
4.24409
21
-0.849409
0
LINE
8
BLACK
6
CONTINUOUS
10
4.22441
20
-0.869094
11
4.22441
21
-1.38091
0
LINE
8
BLACK
6
CONTINUOUS
10
4.24409
20
-1.40059
11
4.75591
21
-1.40059
0
LINE
8
BLACK
6
CONTINUOUS
10
4.77559
20
-1.38091
11
4.77559
21
-0.869094
0
ARC
8
BLACK
10
4.75591
20
-1.38091
40
0.019685
50
-90
51
-0
0
ARC
8
BLACK
10
4.24409
20
-1.38091
40
0.019685
50
180
51
270
0
ARC
8
BLACK
10
4.24409
20
-0.869094
40
0.019685
50
90
51
180
0
ARC
8
BLACK
10
4.75591
20
-0.869094
40
0.019685
50
-0
51
90
0
LINE
8
BLACK
6
CONTINUOUS
10
2.50591
20
-0.661909
11
1.99409
21
-0.661909
0
LINE
8
BLACK
6
CONTINUOUS
10
1.97441
20
-0.681594
11
1.97441
21
-1.19341
0
LINE
8
BLACK
6
CONTINUOUS
10
1.99409
20
-1.21309
11
2.50591
21
-1.21309
0
LINE
8
BLACK
6
CONTINUOUS
10
2.52559
20
-1.19341
11
2.52559
21
-0.681594
0
ARC
8
BLACK
10
2.50591
20
-1.19341
40
0.019685
50
-90
51
-0
0
ARC
8
BLACK
10
1.99409
20
-1.19341
40
0.019685
50
180
51
270
0
ARC
8
BLACK
10
1.99409
20
-0.681594
40
0.019685
50
90
51
180
0
ARC
8
BLACK
10
2.50591
20
-0.681594
40
0.019685
50
-0
51
90
0
LINE
8
BLACK
6
CONTINUOUS
10
1.00591
20
-0.849409
11
0.494094
21
-0.849409
0
LINE
8
BLACK
6
CONTINUOUS
10
0.474409
20
-0.869094
11
0.474409
21
-1.38091
0
LINE
8
BLACK
6
CONTINUOUS
10
0.494094
20
-1.40059
11
1.00591
21
-1.40059
0
LINE
8
BLACK
6
CONTINUOUS
10
1.02559
20
-1.38091
11
1.02559
21
-0.869094
0
ARC
8
BLACK
10
1.00591
20
-1.38091
40
0.019685
50
-90
51
-0
0
ARC
8
BLACK
10
0.494094
20
-1.38091
40
0.019685
50
180
51
270
0
ARC
8
BLACK
10
0.494094
20
-0.869094
40
0.019685
50
90
51
180
0
ARC
8
BLACK
10
1.00591
20
-0.869094
40
0.019685
50
-0
51
90
0
ARC
8
BLACK
10
2.51306
20
-3.49779
40
0.019685
50
180
51
270
0
ARC
8
BLACK
10
2.73944
20
-3.49779
40
0.019685
50
-90
51
-0
0
ARC
8
BLACK
10
2.73944
20
-2.98597
40
0.019685
50
-0
51
90
0
ARC
8
BLACK
10
2.51306
20
-2.98597
40
0.019685
50
90
51
180
0
ARC
8
BLACK
10
2.41216
20
-3.53716
40
0.019685
50
-90
51
-0
0
ARC
8
BLACK
10
2.41216
20
-3.02534
40
0.019685
50
-0
51
90
0
ARC
8
BLACK
10
1.90034
20
-3.02534
40
0.019685
50
90
51
180
0
ARC
8
BLACK
10
1.90034
20
-3.53716
40
0.019685
50
180
51
270
0
ARC
8
BLACK
10
1.57306
20
-3.49779
40
0.019685
50
180
51
270
0
ARC
8
BLACK
10
1.79944
20
-3.49779
40
0.019685
50
-90
51
-0
0
ARC
8
BLACK
10
1.79944
20
-2.98597
40
0.019685
50
-0
51
90
0
ARC
8
BLACK
10
1.57306
20
-2.98597
40
0.019685
50
90
51
180
0
LINE
8
BLACK
6
CONTINUOUS
10
2.41216
20
-3.55684
11
1.90034
21
-3.55684
0
LINE
8
BLACK
6
CONTINUOUS
10
1.88066
20
-3.53716
11
1.88066
21
-3.02534
0
LINE
8
BLACK
6
CONTINUOUS
10
1.90034
20
-3.00566
11
2.41216
21
-3.00566
0
LINE
8
BLACK
6
CONTINUOUS
10
2.43184
20
-3.02534
11
2.43184
21
-3.53716
0
LINE
8
BLACK
6
CONTINUOUS
10
2.49338
20
-3.49779
11
2.49338
21
-2.98597
0
LINE
8
BLACK
6
CONTINUOUS
10
2.51306
20
-2.96629
11
2.73944
21
-2.96629
0
LINE
8
BLACK
6
CONTINUOUS
10
2.75912
20
-2.98597
11
2.75912
21
-3.49779
0
LINE
8
BLACK
6
CONTINUOUS
10
2.73944
20
-3.51747
11
2.51306
21
-3.51747
0
LINE
8
BLACK
6
CONTINUOUS
10
1.55338
20
-3.49779
11
1.55338
21
-2.98597
0
LINE
8
BLACK
6
CONTINUOUS
10
1.57306
20
-2.96629
11
1.79944
21
-2.96629
0
LINE
8
BLACK
6
CONTINUOUS
10
1.81912
20
-2.98597
11
1.81912
21
-3.49779
0
LINE
8
BLACK
6
CONTINUOUS
10
1.79944
20
-3.51747
11
1.57306
21
-3.51747
0
LINE
8
BLACK
6
CONTINUOUS
10
1.00591
20
-3.09941
11
0.494094
21
-3.09941
0
LINE
8
BLACK
6
CONTINUOUS
10
0.474409
20
-3.11909
11
0.474409
21
-3.63091
0
LINE
8
BLACK
6
CONTINUOUS
10
0.494094
20
-3.65059
11
1.00591
21
-3.65059
0
LINE
8
BLACK
6
CONTINUOUS
10
1.02559
20
-3.63091
11
1.02559
21
-3.11909
0
ARC
8
BLACK
10
1.00591
20
-3.63091
40
0.019685
50
-90
51
-0
0
ARC
8
BLACK
10
0.494094
20
-3.63091
40
0.019685
50
180
51
270
0
ARC
8
BLACK
10
0.494094
20
-3.11909
40
0.019685
50
90
51
180
0
ARC
8
BLACK
10
1.00591
20
-3.11909
40
0.019685
50
-0
51
90
0
LINE
8
BLACK
6
CONTINUOUS
10
1.00591
20
-3.94316
11
0.494094
21
-3.94316
0
LINE
8
BLACK
6
CONTINUOUS
10
1.02559
20
-4.47466
11
1.02559
21
-3.96284
0
LINE
8
BLACK
6
CONTINUOUS
10
0.494094
20
-4.49434
11
1.00591
21
-4.49434
0
LINE
8
BLACK
6
CONTINUOUS
10
0.474409
20
-3.96284
11
0.474409
21
-4.47466
0
ARC
8
BLACK
10
1.00591
20
-3.96284
40
0.019685
50
-0
51
90
0
ARC
8
BLACK
10
1.00591
20
-4.47466
40
0.019685
50
-90
51
-0
0
ARC
8
BLACK
10
0.494094
20
-4.47466
40
0.019685
50
180
51
270
0
ARC
8
BLACK
10
0.494094
20
-3.96284
40
0.019685
50
90
51
180
0
LINE
8
BLACK
6
CONTINUOUS
10
0.255906
20
-3.94316
11
-0.255906
21
-3.94316
0
LINE
8
BLACK
6
CONTINUOUS
10
0.275591
20
-4.47466
11
0.275591
21
-3.96284
0
LINE
8
BLACK
6
CONTINUOUS
10
-0.255906
20
-4.49434
11
0.255906
21
-4.49434
0
LINE
8
BLACK
6
CONTINUOUS
10
-0.275591
20
-3.96284
11
-0.275591
21
-4.47466
0
ARC
8
BLACK
10
0.255906
20
-3.96284
40
0.019685
50
-0
51
90
0
ARC
8
BLACK
10
0.255906
20
-4.47466
40
0.019685
50
-90
51
-0
0
ARC
8
BLACK
10
-0.255906
20
-4.47466
40
0.019685
50
180
51
270
0
ARC
8
BLACK
10
-0.255906
20
-3.96284
40
0.019685
50
90
51
180
0
ARC
8
BLACK
10
-0.216535
20
-3.35681
40
0.019685
50
90
51
180
0
ARC
8
BLACK
10
-0.216535
20
-3.58319
40
0.019685
50
180
51
270
0
ARC
8
BLACK
10
0.295276
20
-3.58319
40
0.019685
50
-90
51
-0
0
ARC
8
BLACK
10
0.295276
20
-3.35681
40
0.019685
50
-0
51
90
0
ARC
8
BLACK
10
-0.255906
20
-3.25591
40
0.019685
50
180
51
270
0
ARC
8
BLACK
10
0.255906
20
-3.25591
40
0.019685
50
-90
51
-0
0
ARC
8
BLACK
10
0.255906
20
-2.74409
40
0.019685
50
-0
51
90
0
ARC
8
BLACK
10
-0.255906
20
-2.74409
40
0.019685
50
90
51
180
0
ARC
8
BLACK
10
-0.216535
20
-2.41681
40
0.019685
50
90
51
180
0
ARC
8
BLACK
10
-0.216535
20
-2.64319
40
0.019685
50
180
51
270
0
ARC
8
BLACK
10
0.295276
20
-2.64319
40
0.019685
50
-90
51
-0
0
ARC
8
BLACK
10
0.295276
20
-2.41681
40
0.019685
50
-0
51
90
0
LINE
8
BLACK
6
CONTINUOUS
10
-0.275591
20
-3.25591
11
-0.275591
21
-2.74409
0
LINE
8
BLACK
6
CONTINUOUS
10
-0.255906
20
-2.72441
11
0.255906
21
-2.72441
0
LINE
8
BLACK
6
CONTINUOUS
10
0.275591
20
-2.74409
11
0.275591
21
-3.25591
0
LINE
8
BLACK
6
CONTINUOUS
10
0.255906
20
-3.27559
11
-0.255906
21
-3.27559
0
LINE
8
BLACK
6
CONTINUOUS
10
-0.216535
20
-3.33713
11
0.295276
21
-3.33713
0
LINE
8
BLACK
6
CONTINUOUS
10
0.314961
20
-3.35681
11
0.314961
21
-3.58319
0
LINE
8
BLACK
6
CONTINUOUS
10
0.295276
20
-3.60287
11
-0.216535
21
-3.60287
0
LINE
8
BLACK
6
CONTINUOUS
10
-0.23622
20
-3.58319
11
-0.23622
21
-3.35681
0
LINE
8
BLACK
6
CONTINUOUS
10
-0.216535
20
-2.39713
11
0.295276
21
-2.39713
0
LINE
8
BLACK
6
CONTINUOUS
10
0.314961
20
-2.41681
11
0.314961
21
-2.64319
0
LINE
8
BLACK
6
CONTINUOUS
10
0.295276
20
-2.66287
11
-0.216535
21
-2.66287
0
LINE
8
BLACK
6
CONTINUOUS
10
-0.23622
20
-2.64319
11
-0.23622
21
-2.41681
0
LINE
8
BLACK
6
CONTINUOUS
10
0.255906
20
-1.41191
11
-0.255906
21
-1.41191
0
LINE
8
BLACK
6
CONTINUOUS
10
0.275591
20
-1.94341
11
0.275591
21
-1.43159
0
LINE
8
BLACK
6
CONTINUOUS
10
-0.255906
20
-1.96309
11
0.255906
21
-1.96309
0
LINE
8
BLACK
6
CONTINUOUS
10
-0.275591
20
-1.43159
11
-0.275591
21
-1.94341
0
ARC
8
BLACK
10
0.255906
20
-1.43159
40
0.019685
50
-0
51
90
0
ARC
8
BLACK
10
0.255906
20
-1.94341
40
0.019685
50
-90
51
-0
0
ARC
8
BLACK
10
-0.255906
20
-1.94341
40
0.019685
50
180
51
270
0
ARC
8
BLACK
10
-0.255906
20
-1.43159
40
0.019685
50
90
51
180
0
ARC
8
BLACK
10
0.255906
20
-0.494094
40
0.019685
50
-0
51
90
0
ARC
8
BLACK
10
-0.255906
20
-0.494094
40
0.019685
50
90
51
180
0
ARC
8
BLACK
10
-0.255906
20
-1.00591
40
0.019685
50
180
51
270
0
ARC
8
BLACK
10
0.255906
20
-1.00591
40
0.019685
50
-90
51
-0
0
LINE
8
BLACK
6
CONTINUOUS
10
0.275591
20
-1.00591
11
0.275591
21
-0.494094
0
LINE
8
BLACK
6
CONTINUOUS
10
-0.255906
20
-1.02559
11
0.255906
21
-1.02559
0
LINE
8
BLACK
6
CONTINUOUS
10
-0.275591
20
-0.494094
11
-0.275591
21
-1.00591
0
LINE
8
BLACK
6
CONTINUOUS
10
0.255906
20
-0.474409
11
-0.255906
21
-0.474409
0
ARC
8
BLACK
10
1.00591
20
-0.119094
40
0.019685
50
-0
51
90
0
ARC
8
BLACK
10
0.494094
20
-0.119094
40
0.019685
50
90
51
180
0
ARC
8
BLACK
10
0.494094
20
-0.630906
40
0.019685
50
180
51
270
0
ARC
8
BLACK
10
1.00591
20
-0.630906
40
0.019685
50
-90
51
-0
0
LINE
8
BLACK
6
CONTINUOUS
10
1.02559
20
-0.630906
11
1.02559
21
-0.119094
0
LINE
8
BLACK
6
CONTINUOUS
10
0.494094
20
-0.650591
11
1.00591
21
-0.650591
0
LINE
8
BLACK
6
CONTINUOUS
10
0.474409
20
-0.119094
11
0.474409
21
-0.630906
0
LINE
8
BLACK
6
CONTINUOUS
10
1.00591
20
-0.0994094
11
0.494094
21
-0.0994094
0
ARC
8
BLACK
10
1.75591
20
-0.0253445
40
0.019685
50
-0
51
90
0
ARC
8
BLACK
10
1.24409
20
-0.0253445
40
0.019685
50
90
51
180
0
ARC
8
BLACK
10
1.24409
20
-0.537156
40
0.019685
50
180
51
270
0
ARC
8
BLACK
10
1.75591
20
-0.537156
40
0.019685
50
-90
51
-0
0
LINE
8
BLACK
6
CONTINUOUS
10
1.77559
20
-0.537156
11
1.77559
21
-0.0253445
0
LINE
8
BLACK
6
CONTINUOUS
10
1.24409
20
-0.556841
11
1.75591
21
-0.556841
0
LINE
8
BLACK
6
CONTINUOUS
10
1.22441
20
-0.0253445
11
1.22441
21
-0.537156
0
LINE
8
BLACK
6
CONTINUOUS
10
1.75591
20
-0.00565945
11
1.24409
21
-0.00565945
0
ARC
8
BLACK
10
2.50591
20
0.0684055
40
0.019685
50
-0
51
90
0
ARC
8
BLACK
10
1.99409
20
0.0684055
40
0.019685
50
90
51
180
0
ARC
8
BLACK
10
1.99409
20
-0.443406
40
0.019685
50
180
51
270
0
ARC
8
BLACK
10
2.50591
20
-0.443406
40
0.019685
50
-90
51
-0
0
LINE
8
BLACK
6
CONTINUOUS
10
2.52559
20
-0.443406
11
2.52559
21
0.0684055
0
LINE
8
BLACK
6
CONTINUOUS
10
1.99409
20
-0.463091
11
2.50591
21
-0.463091
0
LINE
8
BLACK
6
CONTINUOUS
10
1.97441
20
0.0684055
11
1.97441
21
-0.443406
0
LINE
8
BLACK
6
CONTINUOUS
10
2.50591
20
0.0880906
11
1.99409
21
0.0880906
0
ARC
8
BLACK
10
3.25591
20
-0.0253445
40
0.019685
50
-0
51
90
0
ARC
8
BLACK
10
2.74409
20
-0.0253445
40
0.019685
50
90
51
180
0
ARC
8
BLACK
10
2.74409
20
-0.537156
40
0.019685
50
180
51
270
0
ARC
8
BLACK
10
3.25591
20
-0.537156
40
0.019685
50
-90
51
-0
0
LINE
8
BLACK
6
CONTINUOUS
10
3.27559
20
-0.537156
11
3.27559
21
-0.0253445
0
LINE
8
BLACK
6
CONTINUOUS
10
2.74409
20
-0.556841
11
3.25591
21
-0.556841
0
LINE
8
BLACK
6
CONTINUOUS
10
2.72441
20
-0.0253445
11
2.72441
21
-0.537156
0
LINE
8
BLACK
6
CONTINUOUS
10
3.25591
20
-0.00565945
11
2.74409
21
-0.00565945
0
ARC
8
BLACK
10
4.00591
20
-0.119094
40
0.019685
50
-0
51
90
0
ARC
8
BLACK
10
3.49409
20
-0.119094
40
0.019685
50
90
51
180
0
ARC
8
BLACK
10
3.49409
20
-0.630906
40
0.019685
50
180
51
270
0
ARC
8
BLACK
10
4.00591
20
-0.630906
40
0.019685
50
-90
51
-0
0
LINE
8
BLACK
6
CONTINUOUS
10
4.02559
20
-0.630906
11
4.02559
21
-0.119094
0
LINE
8
BLACK
6
CONTINUOUS
10
3.49409
20
-0.650591
11
4.00591
21
-0.650591
0
LINE
8
BLACK
6
CONTINUOUS
10
3.47441
20
-0.119094
11
3.47441
21
-0.630906
0
LINE
8
BLACK
6
CONTINUOUS
10
4.00591
20
-0.0994094
11
3.49409
21
-0.0994094
0
ARC
8
BLACK
10
4.75591
20
-0.119094
40
0.019685
50
-0
51
90
0
ARC
8
BLACK
10
4.24409
20
-0.119094
40
0.019685
50
90
51
180
0
ARC
8
BLACK
10
4.24409
20
-0.630906
40
0.019685
50
180
51
270
0
ARC
8
BLACK
10
4.75591
20
-0.630906
40
0.019685
50
-90
51
-0
0
LINE
8
BLACK
6
CONTINUOUS
10
4.77559
20
-0.630906
11
4.77559
21
-0.119094
0
LINE
8
BLACK
6
CONTINUOUS
10
4.24409
20
-0.650591
11
4.75591
21
-0.650591
0
LINE
8
BLACK
6
CONTINUOUS
10
4.22441
20
-0.119094
11
4.22441
21
-0.630906
0
LINE
8
BLACK
6
CONTINUOUS
10
4.75591
20
-0.0994094
11
4.24409
21
-0.0994094
0
ARC
8
BLACK
10
4.75591
20
0.630906
40
0.019685
50
-0
51
90
0
ARC
8
BLACK
10
4.24409
20
0.630906
40
0.019685
50
90
51
180
0
ARC
8
BLACK
10
4.24409
20
0.119094
40
0.019685
50
180
51
270
0
ARC
8
BLACK
10
4.75591
20
0.119094
40
0.019685
50
-90
51
-0
0
LINE
8
BLACK
6
CONTINUOUS
10
4.77559
20
0.119094
11
4.77559
21
0.630906
0
LINE
8
BLACK
6
CONTINUOUS
10
4.24409
20
0.0994094
11
4.75591
21
0.0994094
0
LINE
8
BLACK
6
CONTINUOUS
10
4.22441
20
0.630906
11
4.22441
21
0.119094
0
LINE
8
BLACK
6
CONTINUOUS
10
4.75591
20
0.650591
11
4.24409
21
0.650591
0
ARC
8
BLACK
10
4.00591
20
0.630906
40
0.019685
50
-0
51
90
0
ARC
8
BLACK
10
3.49409
20
0.630906
40
0.019685
50
90
51
180
0
ARC
8
BLACK
10
3.49409
20
0.119094
40
0.019685
50
180
51
270
0
ARC
8
BLACK
10
4.00591
20
0.119094
40
0.019685
50
-90
51
-0
0
LINE
8
BLACK
6
CONTINUOUS
10
4.02559
20
0.119094
11
4.02559
21
0.630906
0
LINE
8
BLACK
6
CONTINUOUS
10
3.49409
20
0.0994094
11
4.00591
21
0.0994094
0
LINE
8
BLACK
6
CONTINUOUS
10
3.47441
20
0.630906
11
3.47441
21
0.119094
0
LINE
8
BLACK
6
CONTINUOUS
10
4.00591
20
0.650591
11
3.49409
21
0.650591
0
ARC
8
BLACK
10
3.25591
20
0.724656
40
0.019685
50
-0
51
90
0
ARC
8
BLACK
10
2.74409
20
0.724656
40
0.019685
50
90
51
180
0
ARC
8
BLACK
10
2.74409
20
0.212844
40
0.019685
50
180
51
270
0
ARC
8
BLACK
10
3.25591
20
0.212844
40
0.019685
50
-90
51
-0
0
LINE
8
BLACK
6
CONTINUOUS
10
3.27559
20
0.212844
11
3.27559
21
0.724656
0
LINE
8
BLACK
6
CONTINUOUS
10
2.74409
20
0.193159
11
3.25591
21
0.193159
0
LINE
8
BLACK
6
CONTINUOUS
10
2.72441
20
0.724656
11
2.72441
21
0.212844
0
LINE
8
BLACK
6
CONTINUOUS
10
3.25591
20
0.744341
11
2.74409
21
0.744341
0
ARC
8
BLACK
10
2.50591
20
0.818406
40
0.019685
50
-0
51
90
0
ARC
8
BLACK
10
1.99409
20
0.818406
40
0.019685
50
90
51
180
0
ARC
8
BLACK
10
1.99409
20
0.306594
40
0.019685
50
180
51
270
0
ARC
8
BLACK
10
2.50591
20
0.306594
40
0.019685
50
-90
51
-0
0
LINE
8
BLACK
6
CONTINUOUS
10
2.52559
20
0.306594
11
2.52559
21
0.818406
0
LINE
8
BLACK
6
CONTINUOUS
10
1.99409
20
0.286909
11
2.50591
21
0.286909
0
LINE
8
BLACK
6
CONTINUOUS
10
1.97441
20
0.818406
11
1.97441
21
0.306594
0
LINE
8
BLACK
6
CONTINUOUS
10
2.50591
20
0.838091
11
1.99409
21
0.838091
0
ARC
8
BLACK
10
1.75591
20
0.724656
40
0.019685
50
-0
51
90
0
ARC
8
BLACK
10
1.24409
20
0.724656
40
0.019685
50
90
51
180
0
ARC
8
BLACK
10
1.24409
20
0.212844
40
0.019685
50
180
51
270
0
ARC
8
BLACK
10
1.75591
20
0.212844
40
0.019685
50
-90
51
-0
0
LINE
8
BLACK
6
CONTINUOUS
10
1.77559
20
0.212844
11
1.77559
21
0.724656
0
LINE
8
BLACK
6
CONTINUOUS
10
1.24409
20
0.193159
11
1.75591
21
0.193159
0
LINE
8
BLACK
6
CONTINUOUS
10
1.22441
20
0.724656
11
1.22441
21
0.212844
0
LINE
8
BLACK
6
CONTINUOUS
10
1.75591
20
0.744341
11
1.24409
21
0.744341
0
ARC
8
BLACK
10
1.00591
20
0.630906
40
0.019685
50
-0
51
90
0
ARC
8
BLACK
10
0.494094
20
0.630906
40
0.019685
50
90
51
180
0
ARC
8
BLACK
10
0.494094
20
0.119094
40
0.019685
50
180
51
270
0
ARC
8
BLACK
10
1.00591
20
0.119094
40
0.019685
50
-90
51
-0
0
LINE
8
BLACK
6
CONTINUOUS
10
1.02559
20
0.119094
11
1.02559
21
0.630906
0
LINE
8
BLACK
6
CONTINUOUS
10
0.494094
20
0.0994094
11
1.00591
21
0.0994094
0
LINE
8
BLACK
6
CONTINUOUS
10
0.474409
20
0.630906
11
0.474409
21
0.119094
0
LINE
8
BLACK
6
CONTINUOUS
10
1.00591
20
0.650591
11
0.494094
21
0.650591
0
LINE
8
BLACK
6
CONTINUOUS
10
0.255906
20
0.275591
11
-0.255906
21
0.275591
0
LINE
8
BLACK
6
CONTINUOUS
10
-0.275591
20
0.255906
11
-0.275591
21
-0.255906
0
LINE
8
BLACK
6
CONTINUOUS
10
-0.255906
20
-0.275591
11
0.255906
21
-0.275591
0
LINE
8
BLACK
6
CONTINUOUS
10
0.275591
20
-0.255906
11
0.275591
21
0.255906
0
ARC
8
BLACK
10
0.255906
20
-0.255906
40
0.019685
50
-90
51
-0
0
ARC
8
BLACK
10
-0.255906
20
-0.255906
40
0.019685
50
180
51
270
0
ARC
8
BLACK
10
-0.255906
20
0.255906
40
0.019685
50
90
51
180
0
ARC
8
BLACK
10
0.255906
20
0.255906
40
0.019685
50
-0
51
90
  0
ENDSEC
  0
EOF
