0
SECTION
2
HEADER
9
$INSUNITS
70
4
9
$ACADVER
1
AC1014
9
$HANDSEED
5
FFFF
0
ENDSEC
0
SECTION
2
TABLES
0
TABLE
2
VPORT
5
8
100
AcDbSymbolTable
0
ENDTAB
0
TABLE
2
LTYPE
5
5
100
AcDbSymbolTable
0
LTYPE
5
14
100
AcDbSymbolTableRecord
100
AcDbLinetypeTableRecord
2
BYBLOCK
70
0
0
LTYPE
5
15
100
AcDbSymbolTableRecord
100
AcDbLinetypeTableRecord
2
BYLAYER
70
0
0
ENDTAB
0
TABLE
2
LAYER
5
2
100
AcDbSymbolTable
70
2
0
LAYER
5
50
100
AcDbSymbolTableRecord
100
AcDbLayerTableRecord
2
0
70
0
6
CONTINUOUS
0
ENDTAB
0
TABLE
2
STYLE
5
3
100
AcDbSymbolTable
70
1
0
STYLE
5
11
100
AcDbSymbolTableRecord
100
AcDbTextStyleTableRecord
2
STANDARD
70
0
0
ENDTAB
0
TABLE
2
VIEW
5
6
100
AcDbSymbolTable
70
0
0
ENDTAB
0
TABLE
2
UCS
5
7
100
AcDbSymbolTable
70
0
0
ENDTAB
0
TABLE
2
APPID
5
9
100
AcDbSymbolTable
70
2
0
APPID
5
12
100
AcDbSymbolTableRecord
100
AcDbRegAppTableRecord
2
ACAD
70
0
0
ENDTAB
0
TABLE
2
DIMSTYLE
5
A
100
AcDbSymbolTable
70
1
0
ENDTAB
0
TABLE
2
BLOCK_RECORD
5
1
100
AcDbSymbolTable
70
1
0
BLOCK_RECORD
5
1F
100
AcDbSymbolTableRecord
100
AcDbBlockTableRecord
2
*MODEL_SPACE
0
BLOCK_RECORD
5
1B
100
AcDbSymbolTableRecord
100
AcDbBlockTableRecord
2
*PAPER_SPACE
0
ENDTAB
0
ENDSEC
0
SECTION
2
BLOCKS
0
BLOCK
5
20
100
AcDbEntity
100
AcDbBlockBegin
2
*MODEL_SPACE
0
ENDBLK
5
21
100
AcDbEntity
100
AcDbBlockEnd
0
BLOCK
5
1C
100
AcDbEntity
100
AcDbBlockBegin
2
*PAPER_SPACE
0
ENDBLK
5
1D
100
AcDbEntity
100
AcDbBlockEnd
0
ENDSEC
0
SECTION
2
ENTITIES
0
LWPOLYLINE
5
100
100
AcDbEntity
8
0
100
AcDbPolyline
90
40
70
1
43
0.0
10
123.825
20
-22.787500000000001
42
-0.41421356237309503
10
122.80000000000001
20
-23.8125
10
99.25
20
-23.8125
42
0.41421356237309503
10
97.75
20
-25.3125
10
97.75
20
-27.8125
42
-0.99999999999999989
10
92.75
20
-27.8125
10
92.75
20
-25.3125
42
0.41421356237309503
10
91.25
20
-23.8125
10
23.050000000000001
20
-23.8125
42
0.41421356237309503
10
21.550000000000004
20
-25.3125
10
21.550000000000004
20
-27.8125
42
-0.99999999999999989
10
16.550000000000004
20
-27.8125
10
16.550000000000004
20
-25.3125
42
0.41421356237309465
10
15.050000000000004
20
-23.8125
10
-8.5000000000000107
20
-23.8125
42
-0.41421356237309093
10
-9.5250000000000021
20
-22.787500000000005
10
-9.5250000000000004
20
76.962500000000006
42
0.41421356237309503
10
-11.025
20
78.462500000000006
10
-13.525
20
78.462500000000006
42
-0.99999999999999989
10
-13.525
20
83.462500000000006
10
-11.025
20
83.462500000000006
42
0.41421356237309503
10
-9.5250000000000021
20
84.96250000000002
10
-9.5249999999999915
20
94.700000000000003
42
-0.41421356237309503
10
-8.5
20
95.724999999999994
10
28.025000000000002
20
95.725000000000023
42
-0.41421356237309503
10
29.050000000000004
20
94.700000000000003
10
29.050000000000004
20
94.368800000000007
42
0.41421356237309503
10
30.075000000000003
20
93.343800000000016
10
65.174999999999997
20
93.343800000000016
42
0.41421356237309503
10
66.200000000000017
20
94.368800000000007
10
66.200000000000017
20
118.03700000000001
42
-0.41421356237309503
10
67.224999999999994
20
119.062
10
91.012500000000003
20
119.062
42
0.41421356237309503
10
92.512500000000003
20
120.56200000000001
10
92.512500000000003
20
123.06200000000001
42
-0.99999999999999989
10
97.512500000000003
20
123.06200000000001
10
97.512500000000003
20
120.56200000000001
42
0.41421356237309503
10
99.012500000000017
20
119.062
10
122.80000000000001
20
119.062
42
-0.41421356237309503
10
123.825
20
118.03700000000001
0
LWPOLYLINE
5
101
100
AcDbEntity
8
0
100
AcDbPolyline
90
8
70
1
43
0.0
10
50.150000000000006
20
-7.7875000000000005
10
50.150000000000006
20
-20.787500000000001
42
0.41421356237309503
10
50.650000000000006
20
-21.287500000000001
10
63.650000000000006
20
-21.287500000000001
42
0.41421356237309503
10
64.150000000000006
20
-20.787500000000001
10
64.150000000000006
20
-7.7875000000000005
42
0.41421356237309503
10
63.650000000000006
20
-7.2874999999999996
10
50.650000000000006
20
-7.2874999999999996
42
0.41421356237309503
0
LWPOLYLINE
5
102
100
AcDbEntity
8
0
100
AcDbPolyline
90
8
70
1
43
0.0
10
-6.5
20
-7.0000000000000009
42
-0.41421356237309503
10
-7.0000000000000009
20
-6.5
10
-7.0000000000000009
20
6.5
42
-0.41421356237309503
10
-6.5
20
7.0000000000000009
10
6.5
20
7.0000000000000009
42
-0.41421356237309503
10
7.0000000000000009
20
6.5
10
7.0000000000000009
20
-6.5
42
-0.41421356237309503
10
6.5
20
-7.0000000000000009
0
LWPOLYLINE
5
103
100
AcDbEntity
8
0
100
AcDbPolyline
90
8
70
1
43
0.0
10
69.700000000000003
20
19.193700000000003
42
-0.41421356237309503
10
69.200000000000003
20
19.6937
10
69.200000000000003
20
32.693800000000003
42
-0.41421356237309503
10
69.700000000000003
20
33.193800000000003
10
82.700000000000017
20
33.19380000000001
42
-0.41421356237309503
10
83.200000000000017
20
32.693800000000003
10
83.200000000000017
20
19.6937
42
-0.41421356237309503
10
82.700000000000017
20
19.1937
0
LWPOLYLINE
5
104
100
AcDbEntity
8
0
100
AcDbPolyline
90
8
70
1
43
0.0
10
50.150000000000006
20
30.3125
10
50.150000000000006
20
17.3125
42
0.41421356237309503
10
50.650000000000006
20
16.8125
10
63.650000000000006
20
16.8125
42
0.41421356237309503
10
64.150000000000006
20
17.3125
10
64.150000000000006
20
30.3125
42
0.41421356237309503
10
63.650000000000006
20
30.812500000000004
10
50.650000000000006
20
30.8125
42
0.41421356237309503
0
LWPOLYLINE
5
105
100
AcDbEntity
8
0
100
AcDbPolyline
90
8
70
1
43
0.0
10
31.600000000000001
20
19.193700000000003
42
-0.41421356237309503
10
31.100000000000001
20
19.6937
10
31.100000000000001
20
32.693800000000003
42
-0.41421356237309503
10
31.600000000000001
20
33.193800000000003
10
44.600000000000001
20
33.193800000000003
42
-0.41421356237309503
10
45.099999999999994
20
32.693800000000003
10
45.099999999999994
20
19.6937
42
-0.41421356237309503
10
44.600000000000001
20
19.1937
0
LWPOLYLINE
5
106
100
AcDbEntity
8
0
100
AcDbPolyline
90
8
70
1
43
0.0
10
107.80000000000001
20
2.5249999999999999
10
120.8
20
2.5249999999999999
42
0.41421356237309503
10
121.30000000000001
20
3.0249999999999999
10
121.30000000000001
20
16.024999999999999
42
0.41421356237309503
10
120.8
20
16.524999999999999
10
107.80000000000001
20
16.525000000000002
42
0.41421356237309503
10
107.30000000000001
20
16.024999999999999
10
107.30000000000001
20
3.0249999999999999
42
0.41421356237309503
0
LWPOLYLINE
5
107
100
AcDbEntity
8
0
100
AcDbPolyline
90
8
70
1
43
0.0
10
82.700000000000017
20
71.293800000000005
42
-0.41421356237309503
10
83.200000000000017
20
70.793800000000005
10
83.200000000000003
20
57.793700000000001
42
-0.41421356237309503
10
82.700000000000017
20
57.293700000000001
10
69.700000000000003
20
57.293700000000001
42
-0.41421356237309503
10
69.200000000000003
20
57.793700000000001
10
69.200000000000003
20
70.793800000000005
42
-0.41421356237309503
10
69.700000000000003
20
71.293800000000005
0
LWPOLYLINE
5
108
100
AcDbEntity
8
0
100
AcDbPolyline
90
8
70
1
43
0.0
10
107.80000000000001
20
40.625
10
120.8
20
40.625
42
0.41421356237309503
10
121.30000000000001
20
41.125
10
121.30000000000001
20
54.125000000000007
42
0.41421356237309503
10
120.8
20
54.625
10
107.80000000000001
20
54.625
42
0.41421356237309503
10
107.30000000000001
20
54.125000000000007
10
107.30000000000001
20
41.125
42
0.41421356237309503
0
LWPOLYLINE
5
109
100
AcDbEntity
8
0
100
AcDbPolyline
90
8
70
1
43
0.0
10
82.700000000000017
20
-4.9062499999999929
42
-0.41421356237309503
10
83.200000000000017
20
-5.4062499999999991
10
83.200000000000017
20
-18.406199999999998
42
-0.41421356237309503
10
82.700000000000017
20
-18.906199999999998
10
69.700000000000003
20
-18.906199999999998
42
-0.41421356237309503
10
69.200000000000003
20
-18.406199999999998
10
69.200000000000003
20
-5.4062499999999991
42
-0.41421356237309437
10
69.700000000000003
20
-4.90625
0
LWPOLYLINE
5
110
100
AcDbEntity
8
0
100
AcDbPolyline
90
8
70
1
43
0.0
10
7.0000000000000009
20
14.931200000000002
42
-0.41421356237309503
10
6.5
20
14.431200000000002
10
-6.5
20
14.431200000000002
42
-0.41421356237309503
10
-7.0000000000000009
20
14.931200000000002
10
-6.9999999999999982
20
27.9312
42
-0.41421356237309503
10
-6.5
20
28.431199999999997
10
6.5
20
28.431199999999997
42
-0.41421356237309503
10
7.0000000000000009
20
27.9312
0
LWPOLYLINE
5
111
100
AcDbEntity
8
0
100
AcDbPolyline
90
8
70
1
43
0.0
10
35.193199999999997
20
75.343800000000002
42
-0.41421356237309503
10
34.693200000000004
20
75.843800000000002
10
34.69319999999999
20
88.843800000000002
42
-0.41421356237309503
10
35.193199999999997
20
89.343800000000016
10
40.943199999999997
20
89.343800000000016
42
-0.41421356237309503
10
41.443199999999997
20
88.843800000000002
10
41.443199999999997
20
75.843800000000002
42
-0.41421356237309503
10
40.943199999999997
20
75.343800000000002
0
LWPOLYLINE
5
112
100
AcDbEntity
8
0
100
AcDbPolyline
90
8
70
1
43
0.0
10
102.25000000000001
20
103.03700000000001
42
-0.41421356237309503
10
101.75
20
102.53700000000001
10
88.75
20
102.53700000000001
42
-0.41421356237309503
10
88.25
20
103.03700000000001
10
88.25
20
116.03700000000002
42
-0.41421356237309503
10
88.75
20
116.53700000000002
10
101.75
20
116.53700000000002
42
-0.41421356237309503
10
102.25000000000001
20
116.03700000000002
0
LWPOLYLINE
5
113
100
AcDbEntity
8
0
100
AcDbPolyline
90
8
70
1
43
0.0
10
82.700000000000017
20
116.53700000000001
10
69.700000000000003
20
116.53700000000001
42
0.41421356237309503
10
69.200000000000003
20
116.03700000000002
10
69.200000000000003
20
103.03700000000001
42
0.41421356237309503
10
69.700000000000003
20
102.53700000000002
10
82.700000000000017
20
102.53700000000001
42
0.41421356237309503
10
83.200000000000003
20
103.03700000000001
10
83.200000000000017
20
116.03700000000002
42
0.41421356237309503
0
LWPOLYLINE
5
114
100
AcDbEntity
8
0
100
AcDbPolyline
90
8
70
1
43
0.0
10
64.150000000000006
20
-1.7375000000000003
42
-0.41421356237309503
10
63.650000000000006
20
-2.2374999999999998
10
50.650000000000006
20
-2.2374999999999985
42
-0.41421356237309503
10
50.150000000000006
20
-1.7375000000000007
10
50.150000000000006
20
11.262499999999999
42
-0.41421356237309503
10
50.650000000000006
20
11.762499999999999
10
63.650000000000006
20
11.762499999999998
42
-0.41421356237309503
10
64.150000000000006
20
11.262499999999999
0
LWPOLYLINE
5
115
100
AcDbEntity
8
0
100
AcDbPolyline
90
8
70
1
43
0.0
10
69.200000000000003
20
13.643700000000001
42
-0.41421356237309503
10
69.700000000000003
20
14.143700000000001
10
82.700000000000017
20
14.143700000000008
42
-0.41421356237309503
10
83.200000000000017
20
13.643700000000001
10
83.200000000000017
20
0.64375000000000082
42
-0.41421356237309548
10
82.700000000000017
20
0.14374999999999999
10
69.700000000000003
20
0.14375000000000179
42
-0.4142135623730957
10
69.200000000000003
20
0.64375000000000071
0
LWPOLYLINE
5
116
100
AcDbEntity
8
0
100
AcDbPolyline
90
8
70
1
43
0.0
10
12.550000000000001
20
78.724999999999994
42
-0.41421356237309503
10
12.050000000000001
20
79.224999999999994
10
12.049999999999994
20
92.224999999999994
42
-0.41421356237309503
10
12.550000000000001
20
92.725000000000009
10
25.550000000000001
20
92.725000000000009
42
-0.41421356237309503
10
26.050000000000001
20
92.224999999999994
10
26.050000000000001
20
79.224999999999994
42
-0.41421356237309503
10
25.550000000000001
20
78.724999999999994
0
LWPOLYLINE
5
117
100
AcDbEntity
8
0
100
AcDbPolyline
90
8
70
1
43
0.0
10
44.600000000000001
20
14.143700000000001
10
31.600000000000001
20
14.143700000000001
42
0.41421356237309503
10
31.100000000000001
20
13.643700000000001
10
31.100000000000001
20
0.64375000000000115
42
0.4142135623730957
10
31.600000000000001
20
0.14374999999999799
10
44.600000000000001
20
0.14374999999999999
42
0.41421356237309548
10
45.100000000000009
20
0.64375000000000071
10
45.099999999999994
20
13.643700000000001
42
0.41421356237309503
0
LWPOLYLINE
5
118
100
AcDbEntity
8
0
100
AcDbPolyline
90
8
70
1
43
0.0
10
6.9999999999999982
20
74.462500000000006
42
-0.41421356237309503
10
6.5
20
73.962500000000006
10
-6.5
20
73.962500000000006
42
-0.41421356237309503
10
-7.0000000000000009
20
74.462500000000006
10
-7.0000000000000071
20
87.46250000000002
42
-0.41421356237309503
10
-6.5
20
87.96250000000002
10
6.5
20
87.96250000000002
42
-0.41421356237309503
10
7.0000000000000009
20
87.46250000000002
0
LWPOLYLINE
5
119
100
AcDbEntity
8
0
100
AcDbPolyline
90
8
70
1
43
0.0
10
6.5
20
57.006200000000007
10
-6.5
20
57.006200000000007
42
0.41421356237309503
10
-7.0000000000000009
20
56.5062
10
-7.0000000000000009
20
43.50630000000001
42
0.41421356237309503
10
-6.5
20
43.00630000000001
10
6.5
20
43.00630000000001
42
0.41421356237309503
10
7.0000000000000009
20
43.50630000000001
10
7.0000000000000009
20
56.5062
42
0.41421356237309503
0
LWPOLYLINE
5
120
100
AcDbEntity
8
0
100
AcDbPolyline
90
8
70
1
43
0.0
10
121.30000000000001
20
103.03700000000001
10
121.30000000000001
20
116.03700000000002
42
0.41421356237309503
10
120.8
20
116.53700000000001
10
107.80000000000001
20
116.53700000000002
42
0.41421356237309503
10
107.30000000000001
20
116.03700000000002
10
107.30000000000001
20
103.03700000000001
42
0.41421356237309503
10
107.80000000000001
20
102.53700000000002
10
120.8
20
102.53700000000001
42
0.41421356237309503
0
LWPOLYLINE
5
121
100
AcDbEntity
8
0
100
AcDbPolyline
90
8
70
1
43
0.0
10
43.006299999999996
20
89.843800000000002
42
-0.41421356237309503
10
43.50630000000001
20
90.343800000000002
10
56.5062
20
90.343799999999987
42
-0.41421356237309503
10
57.0062
20
89.843800000000002
10
57.0062
20
76.843800000000016
42
-0.41421356237309503
10
56.5062
20
76.343800000000016
10
43.50630000000001
20
76.343800000000016
42
-0.41421356237309503
10
43.00630000000001
20
76.843800000000016
0
LWPOLYLINE
5
122
100
AcDbEntity
8
0
100
AcDbPolyline
90
8
70
1
43
0.0
10
31.100000000000001
20
-5.40625
42
-0.41421356237309503
10
31.600000000000001
20
-4.90625
10
44.600000000000001
20
-4.9062500000000018
42
-0.41421356237309503
10
45.099999999999994
20
-5.4062499999999991
10
45.099999999999994
20
-18.406199999999998
42
-0.41421356237309503
10
44.600000000000001
20
-18.906199999999998
10
31.600000000000001
20
-18.906199999999998
42
-0.41421356237309503
10
31.100000000000001
20
-18.406199999999998
0
LWPOLYLINE
5
123
100
AcDbEntity
8
0
100
AcDbPolyline
90
8
70
1
43
0.0
10
64.819199999999995
20
89.343800000000016
42
-0.41421356237309503
10
65.319199999999995
20
88.843800000000002
10
65.319199999999995
20
75.843800000000002
42
-0.41421356237309503
10
64.819199999999995
20
75.343800000000002
10
59.069200000000002
20
75.343800000000002
42
-0.41421356237309503
10
58.569200000000009
20
75.843800000000002
10
58.569199999999995
20
88.843800000000002
42
-0.41421356237309503
10
59.069200000000002
20
89.343800000000016
0
LWPOLYLINE
5
124
100
AcDbEntity
8
0
100
AcDbPolyline
90
8
70
1
43
0.0
10
88.250000000000014
20
96.987500000000011
10
88.250000000000014
20
83.987499999999997
42
0.41421356237309503
10
88.75
20
83.487500000000011
10
101.75
20
83.487499999999983
42
0.41421356237309503
10
102.25000000000001
20
83.987499999999997
10
102.25000000000001
20
96.987500000000011
42
0.41421356237309503
10
101.75
20
97.487500000000011
10
88.75
20
97.487500000000011
42
0.41421356237309503
0
LWPOLYLINE
5
125
100
AcDbEntity
8
0
100
AcDbPolyline
90
8
70
1
43
0.0
10
26.050000000000004
20
60.174999999999997
10
26.050000000000004
20
73.174999999999997
42
0.41421356237309503
10
25.550000000000001
20
73.674999999999997
10
12.550000000000001
20
73.674999999999997
42
0.41421356237309503
10
12.050000000000001
20
73.174999999999997
10
12.050000000000001
20
60.174999999999997
42
0.41421356237309503
10
12.550000000000001
20
59.675000000000004
10
25.550000000000001
20
59.675000000000004
42
0.41421356237309503
0
LWPOLYLINE
5
126
100
AcDbEntity
8
0
100
AcDbPolyline
90
8
70
1
43
0.0
10
12.550000000000001
20
-16.525000000000002
42
-0.41421356237309503
10
12.050000000000001
20
-16.024999999999999
10
12.050000000000001
20
-3.0249999999999999
42
-0.41421356237309503
10
12.550000000000001
20
-2.5249999999999999
10
25.550000000000001
20
-2.5250000000000017
42
-0.41421356237309503
10
26.050000000000001
20
-3.0249999999999999
10
26.050000000000004
20
-16.024999999999999
42
-0.41421356237309503
10
25.550000000000001
20
-16.525000000000002
0
LWPOLYLINE
5
127
100
AcDbEntity
8
0
100
AcDbPolyline
90
8
70
1
43
0.0
10
45.099999999999994
20
57.793700000000001
42
-0.41421356237309503
10
44.600000000000001
20
57.293700000000001
10
31.600000000000001
20
57.293700000000001
42
-0.41421356237309503
10
31.100000000000001
20
57.793700000000001
10
31.100000000000001
20
70.793800000000005
42
-0.41421356237309503
10
31.600000000000001
20
71.293800000000005
10
44.600000000000001
20
71.293800000000005
42
-0.41421356237309503
10
45.099999999999994
20
70.793800000000005
0
LWPOLYLINE
5
128
100
AcDbEntity
8
0
100
AcDbPolyline
90
8
70
1
43
0.0
10
121.30000000000001
20
-16.024999999999999
10
121.30000000000001
20
-3.0249999999999999
42
0.41421356237309503
10
120.8
20
-2.5249999999999901
10
107.80000000000001
20
-2.5249999999999999
42
0.41421356237309503
10
107.30000000000001
20
-3.0249999999999999
10
107.30000000000001
20
-16.024999999999999
42
0.41421356237309503
10
107.80000000000001
20
-16.524999999999999
10
120.8
20
-16.525000000000002
42
0.41421356237309503
0
LWPOLYLINE
5
129
100
AcDbEntity
8
0
100
AcDbPolyline
90
8
70
1
43
0.0
10
31.600000000000001
20
38.243700000000004
42
-0.41421356237309503
10
31.100000000000001
20
38.743699999999997
10
31.100000000000001
20
51.743699999999997
42
-0.41421356237309503
10
31.600000000000001
20
52.243699999999997
10
44.600000000000001
20
52.243699999999997
42
-0.41421356237309503
10
45.099999999999994
20
51.743699999999997
10
45.099999999999994
20
38.743699999999997
42
-0.41421356237309503
10
44.600000000000001
20
38.243700000000004
0
LWPOLYLINE
5
130
100
AcDbEntity
8
0
100
AcDbPolyline
90
8
70
1
43
0.0
10
101.75
20
54.625000000000014
42
-0.41421356237309503
10
102.25000000000001
20
54.125000000000007
10
102.25000000000001
20
41.125
42
-0.41421356237309503
10
101.75
20
40.625
10
88.75
20
40.624999999999993
42
-0.41421356237309503
10
88.25
20
41.125
10
88.25
20
54.125000000000007
42
-0.41421356237309503
10
88.75
20
54.625
0
LWPOLYLINE
5
131
100
AcDbEntity
8
0
100
AcDbPolyline
90
8
70
1
43
0.0
10
25.550000000000001
20
16.524999999999999
42
-0.41421356237309503
10
26.050000000000001
20
16.024999999999999
10
26.050000000000001
20
3.0249999999999999
42
-0.41421356237309503
10
25.550000000000001
20
2.5249999999999999
10
12.550000000000001
20
2.5249999999999995
42
-0.41421356237309503
10
12.050000000000001
20
3.0249999999999999
10
12.050000000000001
20
16.024999999999999
42
-0.41421356237309503
10
12.550000000000001
20
16.525000000000002
0
LWPOLYLINE
5
132
100
AcDbEntity
8
0
100
AcDbPolyline
90
8
70
1
43
0.0
10
88.25
20
73.174999999999997
42
-0.41421356237309503
10
88.75
20
73.674999999999997
10
101.75
20
73.675000000000011
42
-0.41421356237309503
10
102.25000000000001
20
73.174999999999997
10
102.25000000000001
20
60.174999999999997
42
-0.41421356237309503
10
101.75
20
59.675000000000004
10
88.75
20
59.674999999999997
42
-0.41421356237309503
10
88.25
20
60.174999999999997
0
LWPOLYLINE
5
133
100
AcDbEntity
8
0
100
AcDbPolyline
90
8
70
1
43
0.0
10
101.75
20
35.57500000000001
42
-0.41421356237309503
10
102.25000000000001
20
35.075000000000003
10
102.25000000000001
20
22.074999999999999
42
-0.41421356237309503
10
101.75
20
21.575000000000003
10
88.75
20
21.574999999999992
42
-0.41421356237309503
10
88.25
20
22.074999999999999
10
88.25
20
35.075000000000003
42
-0.41421356237309503
10
88.75
20
35.575000000000003
0
LWPOLYLINE
5
134
100
AcDbEntity
8
0
100
AcDbPolyline
90
8
70
1
43
0.0
10
88.75
20
-16.524999999999999
10
101.75
20
-16.524999999999999
42
0.41421356237309503
10
102.25000000000001
20
-16.024999999999999
10
102.25000000000001
20
-3.0249999999999999
42
0.41421356237309503
10
101.75
20
-2.5249999999999901
10
88.75
20
-2.5249999999999999
42
0.41421356237309503
10
88.250000000000014
20
-3.0249999999999999
10
88.25
20
-16.024999999999999
42
0.41421356237309503
0
LWPOLYLINE
5
135
100
AcDbEntity
8
0
100
AcDbPolyline
90
8
70
1
43
0.0
10
12.550000000000001
20
40.625
42
-0.41421356237309503
10
12.050000000000001
20
41.125
10
12.050000000000002
20
54.125000000000007
42
-0.41421356237309503
10
12.550000000000001
20
54.625
10
25.550000000000001
20
54.625
42
-0.41421356237309503
10
26.050000000000001
20
54.125000000000007
10
26.050000000000001
20
41.125
42
-0.41421356237309503
10
25.550000000000001
20
40.625
0
LWPOLYLINE
5
136
100
AcDbEntity
8
0
100
AcDbPolyline
90
8
70
1
43
0.0
10
25.550000000000001
20
35.575000000000003
10
12.550000000000001
20
35.575000000000003
42
0.41421356237309503
10
12.050000000000001
20
35.075000000000003
10
12.050000000000001
20
22.074999999999999
42
0.41421356237309503
10
12.550000000000001
20
21.575000000000003
10
25.550000000000001
20
21.575000000000003
42
0.41421356237309503
10
26.050000000000004
20
22.074999999999999
10
26.050000000000001
20
35.075000000000003
42
0.41421356237309503
0
LWPOLYLINE
5
137
100
AcDbEntity
8
0
100
AcDbPolyline
90
8
70
1
43
0.0
10
121.30000000000001
20
60.174999999999997
10
121.30000000000001
20
73.174999999999997
42
0.41421356237309503
10
120.8
20
73.674999999999997
10
107.80000000000001
20
73.674999999999997
42
0.41421356237309503
10
107.30000000000001
20
73.174999999999997
10
107.30000000000001
20
60.174999999999997
42
0.41421356237309503
10
107.80000000000001
20
59.675000000000004
10
120.8
20
59.675000000000004
42
0.41421356237309503
0
LWPOLYLINE
5
138
100
AcDbEntity
8
0
100
AcDbPolyline
90
8
70
1
43
0.0
10
69.200000000000003
20
51.743699999999997
42
-0.41421356237309503
10
69.700000000000003
20
52.243699999999997
10
82.700000000000017
20
52.243700000000004
42
-0.41421356237309503
10
83.200000000000017
20
51.743699999999997
10
83.200000000000003
20
38.743699999999997
42
-0.41421356237309503
10
82.700000000000017
20
38.243700000000004
10
69.700000000000003
20
38.243700000000004
42
-0.41421356237309503
10
69.200000000000003
20
38.743699999999997
0
LWPOLYLINE
5
139
100
AcDbEntity
8
0
100
AcDbPolyline
90
8
70
1
43
0.0
10
88.75
20
2.5249999999999999
10
101.75
20
2.5249999999999999
42
0.41421356237309503
10
102.25000000000001
20
3.0249999999999999
10
102.25000000000001
20
16.024999999999999
42
0.41421356237309503
10
101.75
20
16.524999999999999
10
88.75
20
16.525000000000002
42
0.41421356237309503
10
88.250000000000014
20
16.024999999999999
10
88.25
20
3.0249999999999999
42
0.41421356237309503
0
LWPOLYLINE
5
140
100
AcDbEntity
8
0
100
AcDbPolyline
90
8
70
1
43
0.0
10
50.650000000000006
20
35.862500000000004
42
-0.41421356237309503
10
50.150000000000006
20
36.362499999999997
10
50.150000000000006
20
49.362500000000004
42
-0.41421356237309503
10
50.650000000000006
20
49.862499999999997
10
63.650000000000006
20
49.862499999999997
42
-0.41421356237309503
10
64.150000000000006
20
49.362500000000004
10
64.150000000000006
20
36.362499999999997
42
-0.41421356237309503
10
63.650000000000006
20
35.862500000000004
0
LWPOLYLINE
5
141
100
AcDbEntity
8
0
100
AcDbPolyline
90
8
70
1
43
0.0
10
63.650000000000006
20
68.912499999999994
10
50.650000000000006
20
68.912499999999994
42
0.41421356237309503
10
50.150000000000006
20
68.412499999999994
10
50.150000000000006
20
55.412500000000009
42
0.41421356237309503
10
50.650000000000006
20
54.912500000000009
10
63.650000000000006
20
54.912500000000009
42
0.41421356237309503
10
64.150000000000006
20
55.412500000000009
10
64.150000000000006
20
68.412499999999994
42
0.41421356237309503
0
LWPOLYLINE
5
142
100
AcDbEntity
8
0
100
AcDbPolyline
90
8
70
1
43
0.0
10
121.29999999999998
20
22.074999999999999
42
-0.41421356237309503
10
120.8
20
21.575000000000003
10
107.80000000000001
20
21.574999999999992
42
-0.41421356237309503
10
107.30000000000001
20
22.074999999999999
10
107.30000000000001
20
35.075000000000003
42
-0.41421356237309503
10
107.80000000000001
20
35.575000000000003
10
120.8
20
35.57500000000001
42
-0.41421356237309503
10
121.30000000000001
20
35.075000000000003
0
CIRCLE
5
143
100
AcDbEntity
8
0
100
AcDbCircle
10
95.25
20
-27.8125
30
0
40
1.1000000000000101
210
0
220
0
230
1
0
CIRCLE
5
144
100
AcDbEntity
8
0
100
AcDbCircle
10
95.012500000000003
20
123.06200000000001
30
0
40
1.0999999999999901
210
0
220
0
230
1
0
CIRCLE
5
145
100
AcDbEntity
8
0
100
AcDbCircle
10
19.050000000000004
20
-27.8125
30
0
40
1.1000000000000001
210
0
220
0
230
1
0
CIRCLE
5
146
100
AcDbEntity
8
0
100
AcDbCircle
10
-13.525
20
80.962500000000006
30
0
40
1.1000000000000001
210
0
220
0
230
1
0
LWPOLYLINE
5
147
100
AcDbEntity
8
0
100
AcDbPolyline
90
8
70
1
43
0.0
10
31.100000000000001
20
13.643700000000001
10
31.100000000000001
20
0.64375000000000115
42
0.4142135623730957
10
31.600000000000001
20
0.14374999999999799
10
44.600000000000001
20
0.14374999999999999
42
0.41421356237309548
10
45.100000000000009
20
0.64375000000000071
10
45.099999999999994
20
13.643700000000001
42
0.41421356237309503
10
44.600000000000001
20
14.143700000000001
10
31.600000000000001
20
14.143700000000001
42
0.41421356237309503
0
LWPOLYLINE
5
148
100
AcDbEntity
8
0
100
AcDbPolyline
90
8
70
1
43
0.0
10
26.050000000000001
20
41.125
42
-0.41421356237309503
10
25.550000000000001
20
40.625
10
12.550000000000001
20
40.625
42
-0.41421356237309503
10
12.050000000000001
20
41.125
10
12.050000000000002
20
54.125000000000007
42
-0.41421356237309503
10
12.550000000000001
20
54.625
10
25.550000000000001
20
54.625
42
-0.41421356237309503
10
26.050000000000001
20
54.125000000000007
0
LWPOLYLINE
5
149
100
AcDbEntity
8
0
100
AcDbPolyline
90
8
70
1
43
0.0
10
88.75
20
102.53700000000002
10
101.75
20
102.53700000000001
42
0.41421356237309503
10
102.25000000000001
20
103.03700000000001
10
102.25000000000001
20
116.03700000000002
42
0.41421356237309503
10
101.75
20
116.53700000000001
10
88.75
20
116.53700000000002
42
0.41421356237309503
10
88.250000000000014
20
116.03700000000002
10
88.25
20
103.03700000000001
42
0.41421356237309503
0
LWPOLYLINE
5
150
100
AcDbEntity
8
0
100
AcDbPolyline
90
8
70
1
43
0.0
10
102.25000000000001
20
22.074999999999999
10
102.25000000000001
20
35.075000000000003
42
0.41421356237309503
10
101.75
20
35.57500000000001
10
88.75
20
35.575000000000003
42
0.41421356237309503
10
88.250000000000014
20
35.075000000000003
10
88.25
20
22.074999999999999
42
0.41421356237309503
10
88.75
20
21.575000000000003
10
101.75
20
21.575000000000003
42
0.41421356237309503
0
LWPOLYLINE
5
151
100
AcDbEntity
8
0
100
AcDbPolyline
90
8
70
1
43
0.0
10
88.75
20
40.625
10
101.75
20
40.625
42
0.41421356237309503
10
102.25000000000001
20
41.125
10
102.25000000000001
20
54.125000000000007
42
0.41421356237309503
10
101.75
20
54.625000000000014
10
88.75
20
54.625
42
0.41421356237309503
10
88.250000000000014
20
54.125000000000007
10
88.25
20
41.125
42
0.41421356237309503
0
LWPOLYLINE
5
152
100
AcDbEntity
8
0
100
AcDbPolyline
90
8
70
1
43
0.0
10
6.9999999999999982
20
43.50630000000001
42
-0.41421356237309503
10
6.5
20
43.00630000000001
10
-6.5
20
43.00630000000001
42
-0.41421356237309503
10
-7.0000000000000009
20
43.50630000000001
10
-7.0000000000000071
20
56.5062
42
-0.41421356237309503
10
-6.5
20
57.006200000000007
10
6.5
20
57.0062
42
-0.41421356237309503
10
7.0000000000000009
20
56.5062
0
LWPOLYLINE
5
153
100
AcDbEntity
8
0
100
AcDbPolyline
90
8
70
1
43
0.0
10
25.550000000000001
20
35.575000000000003
42
-0.41421356237309503
10
26.050000000000001
20
35.075000000000003
10
26.050000000000001
20
22.074999999999999
42
-0.41421356237309503
10
25.550000000000001
20
21.575000000000003
10
12.550000000000001
20
21.574999999999996
42
-0.41421356237309503
10
12.050000000000001
20
22.074999999999999
10
12.049999999999999
20
35.075000000000003
42
-0.41421356237309503
10
12.550000000000001
20
35.575000000000003
0
LWPOLYLINE
5
154
100
AcDbEntity
8
0
100
AcDbPolyline
90
8
70
1
43
0.0
10
120.8
20
54.625
10
107.80000000000001
20
54.625
42
0.41421356237309503
10
107.30000000000001
20
54.125000000000007
10
107.30000000000001
20
41.125
42
0.41421356237309503
10
107.80000000000001
20
40.625
10
120.8
20
40.625
42
0.41421356237309503
10
121.30000000000001
20
41.125
10
121.30000000000001
20
54.125000000000007
42
0.41421356237309503
0
LWPOLYLINE
5
155
100
AcDbEntity
8
0
100
AcDbPolyline
90
8
70
1
43
0.0
10
121.30000000000001
20
60.174999999999997
10
121.30000000000001
20
73.174999999999997
42
0.41421356237309503
10
120.8
20
73.674999999999997
10
107.80000000000001
20
73.674999999999997
42
0.41421356237309503
10
107.30000000000001
20
73.174999999999997
10
107.30000000000001
20
60.174999999999997
42
0.41421356237309503
10
107.80000000000001
20
59.675000000000004
10
120.8
20
59.675000000000004
42
0.41421356237309503
0
LWPOLYLINE
5
156
100
AcDbEntity
8
0
100
AcDbPolyline
90
40
70
1
43
0.0
10
29.050000000000004
20
94.700000000000003
10
29.050000000000004
20
94.368800000000007
42
0.41421356237309503
10
30.075000000000003
20
93.343800000000016
10
65.174999999999997
20
93.343800000000016
42
0.41421356237309503
10
66.200000000000017
20
94.368800000000007
10
66.200000000000017
20
118.03700000000001
42
-0.41421356237309503
10
67.224999999999994
20
119.062
10
91.012500000000003
20
119.062
42
0.41421356237309503
10
92.512500000000003
20
120.56200000000001
10
92.512500000000003
20
123.06200000000001
42
-0.99999999999999989
10
97.512500000000003
20
123.06200000000001
10
97.512500000000003
20
120.56200000000001
42
0.41421356237309503
10
99.012500000000017
20
119.062
10
122.80000000000001
20
119.062
42
-0.41421356237309503
10
123.825
20
118.03700000000001
10
123.825
20
-22.787500000000001
42
-0.41421356237309503
10
122.80000000000001
20
-23.8125
10
99.25
20
-23.8125
42
0.41421356237309503
10
97.75
20
-25.3125
10
97.75
20
-27.8125
42
-0.99999999999999989
10
92.75
20
-27.8125
10
92.75
20
-25.3125
42
0.41421356237309503
10
91.25
20
-23.8125
10
23.050000000000001
20
-23.8125
42
0.41421356237309503
10
21.550000000000004
20
-25.3125
10
21.550000000000004
20
-27.8125
42
-0.99999999999999989
10
16.550000000000004
20
-27.8125
10
16.550000000000004
20
-25.3125
42
0.41421356237309465
10
15.050000000000004
20
-23.8125
10
-8.5000000000000107
20
-23.8125
42
-0.41421356237309093
10
-9.5250000000000021
20
-22.787500000000005
10
-9.5250000000000004
20
76.962500000000006
42
0.41421356237309503
10
-11.025
20
78.462500000000006
10
-13.525
20
78.462500000000006
42
-0.99999999999999989
10
-13.525
20
83.462500000000006
10
-11.025
20
83.462500000000006
42
0.41421356237309503
10
-9.5250000000000021
20
84.96250000000002
10
-9.5249999999999915
20
94.700000000000003
42
-0.41421356237309503
10
-8.5
20
95.724999999999994
10
28.025000000000002
20
95.725000000000023
42
-0.41421356237309503
0
LWPOLYLINE
5
157
100
AcDbEntity
8
0
100
AcDbPolyline
90
8
70
1
43
0.0
10
34.693199999999997
20
88.843800000000002
10
34.693200000000004
20
75.843800000000002
42
0.41421356237309503
10
35.193199999999997
20
75.343800000000002
10
40.943199999999997
20
75.343800000000002
42
0.41421356237309503
10
41.443199999999997
20
75.843800000000002
10
41.443199999999997
20
88.843800000000002
42
0.41421356237309503
10
40.943199999999997
20
89.343800000000016
10
35.193199999999997
20
89.343800000000016
42
0.41421356237309503
0
LWPOLYLINE
5
158
100
AcDbEntity
8
0
100
AcDbPolyline
90
8
70
1
43
0.0
10
121.29999999999998
20
22.074999999999999
10
121.30000000000001
20
35.075000000000003
42
0.41421356237309503
10
120.8
20
35.575000000000003
10
107.80000000000001
20
35.575000000000003
42
0.41421356237309503
10
107.30000000000001
20
35.075000000000003
10
107.30000000000001
20
22.074999999999999
42
0.41421356237309503
10
107.80000000000001
20
21.575000000000003
10
120.8
20
21.575000000000003
42
0.41421356237309503
0
LWPOLYLINE
5
159
100
AcDbEntity
8
0
100
AcDbPolyline
90
8
70
1
43
0.0
10
31.600000000000001
20
-18.906199999999998
10
44.600000000000001
20
-18.906199999999998
42
0.41421356237309503
10
45.100000000000009
20
-18.406199999999998
10
45.099999999999994
20
-5.40625
42
0.41421356237309503
10
44.600000000000001
20
-4.90625
10
31.600000000000001
20
-4.90625
42
0.41421356237309503
10
31.100000000000001
20
-5.4062499999999991
10
31.100000000000001
20
-18.406199999999998
42
0.41421356237309503
0
LWPOLYLINE
5
160
100
AcDbEntity
8
0
100
AcDbPolyline
90
8
70
1
43
0.0
10
26.050000000000004
20
3.0249999999999999
10
26.050000000000001
20
16.024999999999999
42
0.41421356237309503
10
25.550000000000001
20
16.524999999999999
10
12.550000000000001
20
16.525000000000002
42
0.41421356237309503
10
12.050000000000001
20
16.024999999999999
10
12.050000000000001
20
3.0249999999999999
42
0.41421356237309503
10
12.550000000000001
20
2.5249999999999999
10
25.550000000000001
20
2.5249999999999999
42
0.41421356237309503
0
LWPOLYLINE
5
161
100
AcDbEntity
8
0
100
AcDbPolyline
90
8
70
1
43
0.0
10
120.8
20
116.53700000000002
42
-0.41421356237309503
10
121.30000000000001
20
116.03700000000002
10
121.30000000000001
20
103.03700000000001
42
-0.41421356237309503
10
120.8
20
102.53700000000001
10
107.80000000000001
20
102.53700000000001
42
-0.41421356237309503
10
107.30000000000001
20
103.03700000000001
10
107.30000000000001
20
116.03700000000002
42
-0.41421356237309503
10
107.80000000000001
20
116.53700000000002
0
LWPOLYLINE
5
162
100
AcDbEntity
8
0
100
AcDbPolyline
90
8
70
1
43
0.0
10
64.819199999999995
20
89.343800000000016
42
-0.41421356237309503
10
65.319199999999995
20
88.843800000000002
10
65.319199999999995
20
75.843800000000002
42
-0.41421356237309503
10
64.819199999999995
20
75.343800000000002
10
59.069200000000002
20
75.343800000000002
42
-0.41421356237309503
10
58.569200000000009
20
75.843800000000002
10
58.569199999999995
20
88.843800000000002
42
-0.41421356237309503
10
59.069200000000002
20
89.343800000000016
0
LWPOLYLINE
5
163
100
AcDbEntity
8
0
100
AcDbPolyline
90
8
70
1
43
0.0
10
31.600000000000001
20
57.293700000000001
10
44.600000000000001
20
57.293700000000001
42
0.41421356237309503
10
45.099999999999994
20
57.793700000000001
10
45.099999999999994
20
70.793800000000005
42
0.41421356237309503
10
44.600000000000001
20
71.293800000000005
10
31.600000000000001
20
71.293800000000005
42
0.41421356237309503
10
31.100000000000001
20
70.793800000000005
10
31.100000000000001
20
57.793700000000001
42
0.41421356237309503
0
LWPOLYLINE
5
164
100
AcDbEntity
8
0
100
AcDbPolyline
90
8
70
1
43
0.0
10
31.100000000000001
20
51.743699999999997
10
31.100000000000001
20
38.743699999999997
42
0.41421356237309503
10
31.600000000000001
20
38.243700000000004
10
44.600000000000001
20
38.243700000000004
42
0.41421356237309503
10
45.100000000000009
20
38.743699999999997
10
45.099999999999994
20
51.743699999999997
42
0.41421356237309503
10
44.600000000000001
20
52.243700000000004
10
31.600000000000001
20
52.243699999999997
42
0.41421356237309503
0
LWPOLYLINE
5
165
100
AcDbEntity
8
0
100
AcDbPolyline
90
8
70
1
43
0.0
10
44.600000000000001
20
33.19380000000001
10
31.600000000000001
20
33.193800000000003
42
0.41421356237309503
10
31.100000000000001
20
32.693800000000003
10
31.100000000000001
20
19.6937
42
0.41421356237309503
10
31.600000000000001
20
19.193700000000003
10
44.600000000000001
20
19.1937
42
0.41421356237309503
10
45.100000000000009
20
19.6937
10
45.099999999999994
20
32.693800000000003
42
0.41421356237309503
0
LWPOLYLINE
5
166
100
AcDbEntity
8
0
100
AcDbPolyline
90
8
70
1
43
0.0
10
82.700000000000017
20
33.19380000000001
10
69.700000000000003
20
33.193800000000003
42
0.41421356237309503
10
69.200000000000003
20
32.693800000000003
10
69.200000000000003
20
19.6937
42
0.41421356237309503
10
69.700000000000003
20
19.193700000000003
10
82.700000000000017
20
19.1937
42
0.41421356237309503
10
83.200000000000003
20
19.6937
10
83.200000000000017
20
32.693800000000003
42
0.41421356237309503
0
LWPOLYLINE
5
167
100
AcDbEntity
8
0
100
AcDbPolyline
90
8
70
1
43
0.0
10
56.5062
20
90.343799999999987
42
-0.41421356237309503
10
57.0062
20
89.843800000000002
10
57.0062
20
76.843800000000016
42
-0.41421356237309503
10
56.5062
20
76.343800000000016
10
43.50630000000001
20
76.343800000000016
42
-0.41421356237309503
10
43.00630000000001
20
76.843800000000016
10
43.006299999999996
20
89.843800000000002
42
-0.41421356237309503
10
43.50630000000001
20
90.343800000000002
0
LWPOLYLINE
5
168
100
AcDbEntity
8
0
100
AcDbPolyline
90
8
70
1
43
0.0
10
63.650000000000006
20
49.862499999999997
10
50.650000000000006
20
49.862499999999997
42
0.41421356237309503
10
50.150000000000006
20
49.362500000000004
10
50.150000000000006
20
36.362499999999997
42
0.41421356237309503
10
50.650000000000006
20
35.862500000000004
10
63.650000000000006
20
35.862500000000004
42
0.41421356237309503
10
64.150000000000006
20
36.362499999999997
10
64.150000000000006
20
49.362500000000004
42
0.41421356237309503
0
LWPOLYLINE
5
169
100
AcDbEntity
8
0
100
AcDbPolyline
90
8
70
1
43
0.0
10
83.200000000000003
20
38.743699999999997
10
83.200000000000017
20
51.743699999999997
42
0.41421356237309503
10
82.700000000000017
20
52.243700000000004
10
69.700000000000003
20
52.243699999999997
42
0.41421356237309503
10
69.200000000000003
20
51.743699999999997
10
69.200000000000003
20
38.743699999999997
42
0.41421356237309503
10
69.700000000000003
20
38.243700000000004
10
82.700000000000017
20
38.243700000000004
42
0.41421356237309503
0
LWPOLYLINE
5
170
100
AcDbEntity
8
0
100
AcDbPolyline
90
8
70
1
43
0.0
10
63.650000000000006
20
68.912499999999994
10
50.650000000000006
20
68.912499999999994
42
0.41421356237309503
10
50.150000000000006
20
68.412499999999994
10
50.150000000000006
20
55.412500000000009
42
0.41421356237309503
10
50.650000000000006
20
54.912500000000009
10
63.650000000000006
20
54.912500000000009
42
0.41421356237309503
10
64.150000000000006
20
55.412500000000009
10
64.150000000000006
20
68.412499999999994
42
0.41421356237309503
0
LWPOLYLINE
5
171
100
AcDbEntity
8
0
100
AcDbPolyline
90
8
70
1
43
0.0
10
26.050000000000004
20
60.174999999999997
10
26.050000000000004
20
73.174999999999997
42
0.41421356237309503
10
25.550000000000001
20
73.674999999999997
10
12.550000000000001
20
73.674999999999997
42
0.41421356237309503
10
12.050000000000001
20
73.174999999999997
10
12.050000000000001
20
60.174999999999997
42
0.41421356237309503
10
12.550000000000001
20
59.675000000000004
10
25.550000000000001
20
59.675000000000004
42
0.41421356237309503
0
LWPOLYLINE
5
172
100
AcDbEntity
8
0
100
AcDbPolyline
90
8
70
1
43
0.0
10
64.150000000000006
20
-1.7375000000000007
10
64.150000000000006
20
11.262499999999999
42
0.41421356237309503
10
63.650000000000006
20
11.762499999999999
10
50.650000000000006
20
11.762499999999999
42
0.41421356237309503
10
50.150000000000006
20
11.262499999999999
10
50.150000000000006
20
-1.7375000000000003
42
0.41421356237309503
10
50.650000000000006
20
-2.2374999999999998
10
63.650000000000006
20
-2.2374999999999998
42
0.41421356237309503
0
LWPOLYLINE
5
173
100
AcDbEntity
8
0
100
AcDbPolyline
90
8
70
1
43
0.0
10
12.550000000000001
20
-16.525000000000002
42
-0.41421356237309503
10
12.050000000000001
20
-16.024999999999999
10
12.050000000000001
20
-3.0249999999999999
42
-0.41421356237309503
10
12.550000000000001
20
-2.5249999999999999
10
25.550000000000001
20
-2.5250000000000017
42
-0.41421356237309503
10
26.050000000000001
20
-3.0249999999999999
10
26.050000000000004
20
-16.024999999999999
42
-0.41421356237309503
10
25.550000000000001
20
-16.525000000000002
0
LWPOLYLINE
5
174
100
AcDbEntity
8
0
100
AcDbPolyline
90
8
70
1
43
0.0
10
83.200000000000003
20
0.64375000000000071
10
83.200000000000017
20
13.643700000000001
42
0.41421356237309503
10
82.700000000000017
20
14.143700000000001
10
69.700000000000003
20
14.143700000000001
42
0.41421356237309503
10
69.200000000000003
20
13.643700000000001
10
69.200000000000003
20
0.64375000000000115
42
0.4142135623730957
10
69.700000000000003
20
0.14375000000000199
10
82.700000000000017
20
0.14374999999999999
42
0.41421356237309548
0
LWPOLYLINE
5
175
100
AcDbEntity
8
0
100
AcDbPolyline
90
8
70
1
43
0.0
10
6.5
20
28.431200000000004
10
-6.5
20
28.431199999999997
42
0.41421356237309503
10
-7.0000000000000009
20
27.9312
10
-7.0000000000000009
20
14.931200000000002
42
0.41421356237309503
10
-6.5
20
14.431200000000002
10
6.5
20
14.431200000000002
42
0.41421356237309503
10
7.0000000000000009
20
14.931200000000002
10
7.0000000000000009
20
27.9312
42
0.41421356237309503
0
LWPOLYLINE
5
176
100
AcDbEntity
8
0
100
AcDbPolyline
90
8
70
1
43
0.0
10
107.30000000000001
20
16.024999999999999
10
107.30000000000001
20
3.0249999999999999
42
0.41421356237309503
10
107.80000000000001
20
2.5249999999999999
10
120.8
20
2.5249999999999999
42
0.41421356237309503
10
121.30000000000001
20
3.0249999999999999
10
121.30000000000001
20
16.024999999999999
42
0.41421356237309503
10
120.8
20
16.524999999999999
10
107.80000000000001
20
16.525000000000002
42
0.41421356237309503
0
LWPOLYLINE
5
177
100
AcDbEntity
8
0
100
AcDbPolyline
90
8
70
1
43
0.0
10
82.700000000000017
20
-4.9062499999999929
10
69.700000000000003
20
-4.90625
42
0.41421356237309437
10
69.200000000000003
20
-5.4062499999999991
10
69.200000000000003
20
-18.406199999999998
42
0.41421356237309503
10
69.700000000000003
20
-18.906199999999998
10
82.700000000000017
20
-18.906199999999998
42
0.41421356237309503
10
83.200000000000003
20
-18.406199999999998
10
83.200000000000017
20
-5.40625
42
0.41421356237309503
0
LWPOLYLINE
5
178
100
AcDbEntity
8
0
100
AcDbPolyline
90
8
70
1
43
0.0
10
12.050000000000001
20
92.224999999999994
10
12.050000000000001
20
79.224999999999994
42
0.41421356237309503
10
12.550000000000001
20
78.724999999999994
10
25.550000000000001
20
78.724999999999994
42
0.41421356237309503
10
26.050000000000004
20
79.224999999999994
10
26.050000000000001
20
92.224999999999994
42
0.41421356237309503
10
25.550000000000001
20
92.724999999999994
10
12.550000000000001
20
92.725000000000009
42
0.41421356237309503
0
LWPOLYLINE
5
179
100
AcDbEntity
8
0
100
AcDbPolyline
90
8
70
1
43
0.0
10
88.75
20
2.5249999999999928
42
-0.41421356237309503
10
88.25
20
3.0249999999999999
10
88.25
20
16.024999999999999
42
-0.41421356237309503
10
88.75
20
16.525000000000002
10
101.75
20
16.525000000000006
42
-0.41421356237309503
10
102.25000000000001
20
16.024999999999999
10
102.25000000000001
20
3.0249999999999999
42
-0.41421356237309503
10
101.75
20
2.5249999999999999
0
LWPOLYLINE
5
180
100
AcDbEntity
8
0
100
AcDbPolyline
90
8
70
1
43
0.0
10
-7.0000000000000009
20
6.5
10
-7.0000000000000009
20
-6.5
42
0.41421356237309503
10
-6.5
20
-7.0000000000000009
10
6.5
20
-7.0000000000000009
42
0.41421356237309503
10
7.0000000000000009
20
-6.5
10
7.0000000000000009
20
6.5
42
0.41421356237309503
10
6.5
20
7.0000000000000009
10
-6.5
20
7.0000000000000009
42
0.41421356237309503
0
LWPOLYLINE
5
181
100
AcDbEntity
8
0
100
AcDbPolyline
90
8
70
1
43
0.0
10
64.150000000000006
20
-20.787500000000001
10
64.150000000000006
20
-7.7875000000000005
42
0.41421356237309503
10
63.650000000000006
20
-7.2874999999999996
10
50.650000000000006
20
-7.2874999999999996
42
0.41421356237309503
10
50.150000000000006
20
-7.7875000000000005
10
50.150000000000006
20
-20.787500000000001
42
0.41421356237309503
10
50.650000000000006
20
-21.287500000000001
10
63.650000000000006
20
-21.287500000000001
42
0.41421356237309503
0
CIRCLE
5
182
100
AcDbEntity
8
0
100
AcDbCircle
10
19.050000000000004
20
-27.8125
30
0
40
1.1000000000000001
210
0
220
0
230
1
0
LWPOLYLINE
5
183
100
AcDbEntity
8
0
100
AcDbPolyline
90
8
70
1
43
0.0
10
88.250000000000014
20
-3.0249999999999999
10
88.25
20
-16.024999999999999
42
0.41421356237309503
10
88.75
20
-16.524999999999999
10
101.75
20
-16.524999999999999
42
0.41421356237309503
10
102.25000000000001
20
-16.024999999999999
10
102.25000000000001
20
-3.0249999999999999
42
0.41421356237309503
10
101.75
20
-2.5249999999999901
10
88.75
20
-2.5249999999999999
42
0.41421356237309503
0
LWPOLYLINE
5
184
100
AcDbEntity
8
0
100
AcDbPolyline
90
8
70
1
43
0.0
10
6.5
20
87.96250000000002
42
-0.41421356237309503
10
7.0000000000000009
20
87.46250000000002
10
6.9999999999999982
20
74.462500000000006
42
-0.41421356237309503
10
6.5
20
73.962500000000006
10
-6.5
20
73.962500000000006
42
-0.41421356237309503
10
-7.0000000000000009
20
74.462500000000006
10
-7.0000000000000071
20
87.46250000000002
42
-0.41421356237309503
10
-6.5
20
87.96250000000002
0
LWPOLYLINE
5
185
100
AcDbEntity
8
0
100
AcDbPolyline
90
8
70
1
43
0.0
10
121.30000000000001
20
-16.024999999999999
10
121.30000000000001
20
-3.0249999999999999
42
0.41421356237309503
10
120.8
20
-2.5249999999999901
10
107.80000000000001
20
-2.5249999999999999
42
0.41421356237309503
10
107.30000000000001
20
-3.0249999999999999
10
107.30000000000001
20
-16.024999999999999
42
0.41421356237309503
10
107.80000000000001
20
-16.524999999999999
10
120.8
20
-16.525000000000002
42
0.41421356237309503
0
CIRCLE
5
186
100
AcDbEntity
8
0
100
AcDbCircle
10
-13.525
20
80.962500000000006
30
0
40
1.1000000000000001
210
0
220
0
230
1
0
CIRCLE
5
187
100
AcDbEntity
8
0
100
AcDbCircle
10
95.25
20
-27.8125
30
0
40
1.1000000000000101
210
0
220
0
230
1
0
LWPOLYLINE
5
188
100
AcDbEntity
8
0
100
AcDbPolyline
90
8
70
1
43
0.0
10
88.25
20
73.174999999999997
42
-0.41421356237309503
10
88.75
20
73.674999999999997
10
101.75
20
73.675000000000011
42
-0.41421356237309503
10
102.25000000000001
20
73.174999999999997
10
102.25000000000001
20
60.174999999999997
42
-0.41421356237309503
10
101.75
20
59.675000000000004
10
88.75
20
59.674999999999997
42
-0.41421356237309503
10
88.25
20
60.174999999999997
0
CIRCLE
5
189
100
AcDbEntity
8
0
100
AcDbCircle
10
95.012500000000003
20
123.06200000000001
30
0
40
1.0999999999999901
210
0
220
0
230
1
0
LWPOLYLINE
5
190
100
AcDbEntity
8
0
100
AcDbPolyline
90
8
70
1
43
0.0
10
88.75
20
83.487500000000011
42
-0.41421356237309503
10
88.250000000000014
20
83.987499999999997
10
88.25
20
96.987500000000011
42
-0.41421356237309503
10
88.75
20
97.487500000000011
10
101.75
20
97.487500000000011
42
-0.41421356237309503
10
102.25000000000001
20
96.987500000000011
10
102.25000000000001
20
83.987499999999997
42
-0.41421356237309503
10
101.75
20
83.487499999999983
0
LWPOLYLINE
5
191
100
AcDbEntity
8
0
100
AcDbPolyline
90
8
70
1
43
0.0
10
83.200000000000003
20
57.793700000000001
42
-0.41421356237309503
10
82.700000000000017
20
57.293700000000001
10
69.700000000000003
20
57.293700000000001
42
-0.41421356237309503
10
69.200000000000003
20
57.793700000000001
10
69.200000000000003
20
70.793800000000005
42
-0.41421356237309503
10
69.700000000000003
20
71.293800000000005
10
82.700000000000017
20
71.293800000000005
42
-0.41421356237309503
10
83.200000000000017
20
70.793800000000005
0
LWPOLYLINE
5
192
100
AcDbEntity
8
0
100
AcDbPolyline
90
8
70
1
43
0.0
10
50.650000000000006
20
16.812500000000004
42
-0.41421356237309503
10
50.150000000000006
20
17.3125
10
50.150000000000006
20
30.3125
42
-0.41421356237309503
10
50.650000000000006
20
30.8125
10
63.650000000000006
20
30.8125
42
-0.41421356237309503
10
64.150000000000006
20
30.3125
10
64.150000000000006
20
17.3125
42
-0.41421356237309503
10
63.650000000000006
20
16.8125
0
LWPOLYLINE
5
193
100
AcDbEntity
8
0
100
AcDbPolyline
90
8
70
1
43
0.0
10
83.200000000000017
20
103.03700000000001
42
-0.41421356237309503
10
82.700000000000017
20
102.53700000000001
10
69.700000000000003
20
102.53700000000002
42
-0.41421356237309503
10
69.200000000000003
20
103.03700000000001
10
69.200000000000017
20
116.03700000000002
42
-0.41421356237309503
10
69.700000000000003
20
116.53700000000001
10
82.700000000000017
20
116.53700000000002
42
-0.41421356237309503
10
83.200000000000017
20
116.03700000000002
0
ENDSEC
0
SECTION
2
OBJECTS
0
DICTIONARY
5
C
100
AcDbDictionary
3
ACAD_GROUP
350
D
3
ACAD_MLINESTYLE
350
17
0
DICTIONARY
5
D
100
AcDbDictionary
0
DICTIONARY
5
1A
330
C
100
AcDbDictionary
0
DICTIONARY
5
17
100
AcDbDictionary
0
ENDSEC
0
EOF
