  0
SECTION
  2
HEADER
  9
$ANGBASE
  50
0.0
  9
$ANGDIR
  70
1
  9
$MEASUREMENT
  70
1
  0
ENDSEC
  0
SECTION
  2
TABLES
  0
TABLE
  2
LTYPE
  70
4
  0
LTYPE
  5
40F
  2
CONTINUOUS
  70
0
  3
Solid line
  72
65
  73
0
  40
0.0
  0
LTYPE
  5
410
  2
DASHDOT
 70
0
  3
Dash Dot ____ _ ____ _
 72
65
 73
4
 40
2.0
 49
1.25
 49
-0.25
 49
0.25
 49
-0.25
  0
LTYPE
  5
411
  2
DASHED
 70
0
  3
Dashed __ __ __ __ __
 72
65
 73
2
 40
0.75
 49
0.5
 49
-0.25
  0
LTYPE
  5
43B
  2
DOTTED
 70
0
  3
Dotted .  .  .  .
 72
65
 73
2
 40
0.2
 49
0.0
 49
-0.2
  0
ENDTAB
  0
TABLE
  2
STYLE
  70
4
  0
STYLE
  2
KICAD
  70
0
  40
0
  41
1
  42
1
  50
0
  71
0
  3
isocp.shx
  0
STYLE
  2
KICADB
  70
0
  40
0
  41
1
  42
1
  50
0
  71
0
  3
isocp.shx
  0
STYLE
  2
KICADI
  70
0
  40
0
  41
1
  42
1
  50
15
  71
0
  3
isocp.shx
  0
STYLE
  2
KICADBI
  70
0
  40
0
  41
1
  42
1
  50
15
  71
0
  3
isocp.shx
  0
ENDTAB
  0
TABLE
  2
LAYER
  70
1
  0
LAYER
  2
BLACK
  70
0
  62
7
  6
CONTINUOUS
  0
ENDTAB
  0
ENDSEC
  0
SECTION
  2
ENTITIES
0
LINE
8
BLACK
6
CONTINUOUS
10
230.188
20
-85.725
11
223.044
21
-85.725
0
LINE
8
BLACK
6
CONTINUOUS
10
230.188
20
-91.2812
11
224.631
21
-91.2812
0
LINE
8
BLACK
6
CONTINUOUS
10
10.3187
20
-91.2812
11
15.875
21
-91.2812
0
LINE
8
BLACK
6
CONTINUOUS
10
205.581
20
-110.331
11
224.631
21
-110.331
0
LINE
8
BLACK
6
CONTINUOUS
10
205.581
20
-127.794
11
205.581
21
-110.331
0
LINE
8
BLACK
6
CONTINUOUS
10
261.144
20
-127.794
11
205.581
21
-127.794
0
LINE
8
BLACK
6
CONTINUOUS
10
261.144
20
-110.331
11
261.144
21
-127.794
0
LINE
8
BLACK
6
CONTINUOUS
10
242.094
20
-110.331
11
261.144
21
-110.331
0
LINE
8
BLACK
6
CONTINUOUS
10
242.094
20
-91.2812
11
242.094
21
-110.331
0
LINE
8
BLACK
6
CONTINUOUS
10
236.537
20
-91.2812
11
242.094
21
-91.2812
0
LINE
8
BLACK
6
CONTINUOUS
10
224.631
20
-92.075
11
224.631
21
-91.2812
0
LINE
8
BLACK
6
CONTINUOUS
10
224.631
20
-110.331
11
224.631
21
-92.075
0
LINE
8
BLACK
6
CONTINUOUS
10
236.537
20
-85.725
11
261.938
21
-85.725
0
LINE
8
BLACK
6
CONTINUOUS
10
223.044
20
-102.394
11
223.044
21
-85.725
0
LINE
8
BLACK
6
CONTINUOUS
10
22.225
20
-85.725
11
29.3687
21
-85.725
0
LINE
8
BLACK
6
CONTINUOUS
10
10.3187
20
-110.331
11
10.3187
21
-91.2812
0
LINE
8
BLACK
6
CONTINUOUS
10
-8.73125
20
-110.331
11
10.3187
21
-110.331
0
LINE
8
BLACK
6
CONTINUOUS
10
-8.73125
20
-110.331
11
-8.73125
21
-127.794
0
LINE
8
BLACK
6
CONTINUOUS
10
46.8312
20
-127.794
11
-8.73125
21
-127.794
0
LINE
8
BLACK
6
CONTINUOUS
10
46.8312
20
-110.331
11
46.8312
21
-127.794
0
LINE
8
BLACK
6
CONTINUOUS
10
27.7812
20
-110.331
11
46.8312
21
-110.331
0
LINE
8
BLACK
6
CONTINUOUS
10
27.7812
20
-91.2812
11
27.7812
21
-110.331
0
LINE
8
BLACK
6
CONTINUOUS
10
22.225
20
-91.2812
11
27.7812
21
-91.2812
0
LINE
8
BLACK
6
CONTINUOUS
10
22.225
20
-91.2812
11
22.225
21
-85.725
0
LINE
8
BLACK
6
CONTINUOUS
10
15.875
20
-91.2812
11
15.875
21
-85.725
0
LINE
8
BLACK
6
CONTINUOUS
10
29.3687
20
-102.394
11
42.8625
21
-102.394
0
LINE
8
BLACK
6
CONTINUOUS
10
29.3687
20
-85.725
11
29.3687
21
-102.394
0
LINE
8
BLACK
6
CONTINUOUS
10
-9.525
20
-85.725
11
15.875
21
-85.725
0
LINE
8
BLACK
6
CONTINUOUS
10
230.188
20
-91.2812
11
230.188
21
-85.725
0
LINE
8
BLACK
6
CONTINUOUS
10
236.537
20
-91.2812
11
236.537
21
-85.725
0
LINE
8
BLACK
6
CONTINUOUS
10
128.588
20
-109.537
11
144.463
21
-109.537
0
LINE
8
BLACK
6
CONTINUOUS
10
128.588
20
-133.35
11
128.588
21
-109.537
0
LINE
8
BLACK
6
CONTINUOUS
10
166.688
20
-133.35
11
128.588
21
-133.35
0
LINE
8
BLACK
6
CONTINUOUS
10
166.688
20
-126.206
11
166.688
21
-133.35
0
LINE
8
BLACK
6
CONTINUOUS
10
190.5
20
-126.206
11
166.688
21
-126.206
0
LINE
8
BLACK
6
CONTINUOUS
10
190.5
20
-107.156
11
190.5
21
-126.206
0
LINE
8
BLACK
6
CONTINUOUS
10
166.688
20
-107.156
11
190.5
21
-107.156
0
LINE
8
BLACK
6
CONTINUOUS
10
166.688
20
-109.537
11
166.688
21
-107.156
0
LINE
8
BLACK
6
CONTINUOUS
10
150.812
20
-109.537
11
166.688
21
-109.537
0
LINE
8
BLACK
6
CONTINUOUS
10
150.812
20
-104.775
11
166.688
21
-104.775
0
LINE
8
BLACK
6
CONTINUOUS
10
150.812
20
-109.537
11
150.812
21
-104.775
0
LINE
8
BLACK
6
CONTINUOUS
10
144.463
20
-109.537
11
144.463
21
-104.775
0
LINE
8
BLACK
6
CONTINUOUS
10
85.725
20
-109.537
11
101.6
21
-109.537
0
LINE
8
BLACK
6
CONTINUOUS
10
85.725
20
-107.156
11
85.725
21
-109.537
0
LINE
8
BLACK
6
CONTINUOUS
10
61.9125
20
-107.156
11
85.725
21
-107.156
0
LINE
8
BLACK
6
CONTINUOUS
10
61.9125
20
-126.206
11
61.9125
21
-107.156
0
LINE
8
BLACK
6
CONTINUOUS
10
85.725
20
-126.206
11
61.9125
21
-126.206
0
LINE
8
BLACK
6
CONTINUOUS
10
85.725
20
-133.35
11
85.725
21
-126.206
0
LINE
8
BLACK
6
CONTINUOUS
10
123.825
20
-133.35
11
85.725
21
-133.35
0
LINE
8
BLACK
6
CONTINUOUS
10
123.825
20
-109.537
11
123.825
21
-133.35
0
LINE
8
BLACK
6
CONTINUOUS
10
107.95
20
-109.537
11
123.825
21
-109.537
0
LINE
8
BLACK
6
CONTINUOUS
10
85.725
20
-104.775
11
101.6
21
-104.775
0
LINE
8
BLACK
6
CONTINUOUS
10
101.6
20
-109.537
11
101.6
21
-104.775
0
LINE
8
BLACK
6
CONTINUOUS
10
107.95
20
-109.537
11
107.95
21
-104.775
0
LINE
8
BLACK
6
CONTINUOUS
10
128.588
20
-17.4625
11
128.588
21
0
0
LINE
8
BLACK
6
CONTINUOUS
10
230.188
20
-8.73125
11
227.012
21
-8.73125
0
LINE
8
BLACK
6
CONTINUOUS
10
224.631
20
-11.1125
11
230.188
21
-11.1125
0
LINE
8
BLACK
6
CONTINUOUS
10
236.537
20
-11.1125
11
236.537
21
-8.73125
0
LINE
8
BLACK
6
CONTINUOUS
10
230.188
20
-11.1125
11
230.188
21
-8.73125
0
LINE
8
BLACK
6
CONTINUOUS
10
223.837
20
9.525
11
261.938
21
9.525
0
LINE
8
BLACK
6
CONTINUOUS
10
223.837
20
11.9062
11
223.837
21
9.525
0
LINE
8
BLACK
6
CONTINUOUS
10
204.787
20
11.9062
11
223.837
21
11.9062
0
LINE
8
BLACK
6
CONTINUOUS
10
204.787
20
14.2875
11
204.787
21
11.9062
0
LINE
8
BLACK
6
CONTINUOUS
10
185.737
20
11.9062
11
185.737
21
14.2875
0
LINE
8
BLACK
6
CONTINUOUS
10
166.688
20
11.9062
11
185.737
21
11.9062
0
LINE
8
BLACK
6
CONTINUOUS
10
166.688
20
9.525
11
166.688
21
11.9062
0
LINE
8
BLACK
6
CONTINUOUS
10
261.938
20
-8.73125
11
261.938
21
9.525
0
LINE
8
BLACK
6
CONTINUOUS
10
236.537
20
-8.73125
11
261.938
21
-8.73125
0
LINE
8
BLACK
6
CONTINUOUS
10
227.012
20
-6.35
11
227.012
21
-8.73125
0
LINE
8
BLACK
6
CONTINUOUS
10
224.631
20
-6.35
11
227.012
21
-6.35
0
LINE
8
BLACK
6
CONTINUOUS
10
236.537
20
-11.1125
11
261.938
21
-11.1125
0
LINE
8
BLACK
6
CONTINUOUS
10
224.631
20
-8.73125
11
224.631
21
-11.1125
0
LINE
8
BLACK
6
CONTINUOUS
10
207.962
20
-6.35
11
224.631
21
-6.35
0
LINE
8
BLACK
6
CONTINUOUS
10
207.962
20
-3.96875
11
207.962
21
-6.35
0
LINE
8
BLACK
6
CONTINUOUS
10
203.994
20
-3.96875
11
207.962
21
-3.96875
0
LINE
8
BLACK
6
CONTINUOUS
10
205.581
20
-8.73125
11
224.631
21
-8.73125
0
LINE
8
BLACK
6
CONTINUOUS
10
205.581
20
-6.35
11
205.581
21
-8.73125
0
LINE
8
BLACK
6
CONTINUOUS
10
203.994
20
-6.35
11
205.581
21
-6.35
0
LINE
8
BLACK
6
CONTINUOUS
10
182.562
20
-3.96875
11
203.994
21
-3.96875
0
LINE
8
BLACK
6
CONTINUOUS
10
182.562
20
-6.35
11
182.562
21
-3.96875
0
LINE
8
BLACK
6
CONTINUOUS
10
184.944
20
-6.35
11
203.994
21
-6.35
0
LINE
8
BLACK
6
CONTINUOUS
10
184.944
20
-8.73125
11
184.944
21
-6.35
0
LINE
8
BLACK
6
CONTINUOUS
10
163.512
20
-6.35
11
182.562
21
-6.35
0
LINE
8
BLACK
6
CONTINUOUS
10
163.512
20
-8.73125
11
163.512
21
-6.35
0
LINE
8
BLACK
6
CONTINUOUS
10
160.338
20
-8.73125
11
163.512
21
-8.73125
0
LINE
8
BLACK
6
CONTINUOUS
10
165.894
20
-8.73125
11
184.944
21
-8.73125
0
LINE
8
BLACK
6
CONTINUOUS
10
165.894
20
-11.1125
11
165.894
21
-8.73125
0
LINE
8
BLACK
6
CONTINUOUS
10
160.338
20
-11.1125
11
165.894
21
-11.1125
0
LINE
8
BLACK
6
CONTINUOUS
10
160.338
20
-11.1125
11
160.338
21
-8.73125
0
LINE
8
BLACK
6
CONTINUOUS
10
153.987
20
-11.1125
11
153.987
21
-8.73125
0
LINE
8
BLACK
6
CONTINUOUS
10
146.844
20
-11.1125
11
153.987
21
-11.1125
0
LINE
8
BLACK
6
CONTINUOUS
10
146.844
20
-19.8438
11
146.844
21
-11.1125
0
LINE
8
BLACK
6
CONTINUOUS
10
128.588
20
-19.8438
11
146.844
21
-19.8438
0
LINE
8
BLACK
6
CONTINUOUS
10
144.463
20
-8.73125
11
153.987
21
-8.73125
0
LINE
8
BLACK
6
CONTINUOUS
10
144.463
20
-17.4625
11
144.463
21
-8.73125
0
LINE
8
BLACK
6
CONTINUOUS
10
128.588
20
-17.4625
11
144.463
21
-17.4625
0
LINE
8
BLACK
6
CONTINUOUS
10
98.425
20
-8.73125
11
107.95
21
-8.73125
0
LINE
8
BLACK
6
CONTINUOUS
10
107.95
20
-17.4625
11
107.95
21
-8.73125
0
LINE
8
BLACK
6
CONTINUOUS
10
26.9875
20
-6.35
11
26.9875
21
-8.73125
0
LINE
8
BLACK
6
CONTINUOUS
10
105.569
20
-19.8438
11
105.569
21
-11.1125
0
LINE
8
BLACK
6
CONTINUOUS
10
123.825
20
-17.4625
11
123.825
21
0
0
LINE
8
BLACK
6
CONTINUOUS
10
28.575
20
9.525
11
-9.525
21
9.525
0
LINE
8
BLACK
6
CONTINUOUS
10
28.575
20
11.9062
11
28.575
21
9.525
0
LINE
8
BLACK
6
CONTINUOUS
10
47.625
20
11.9062
11
28.575
21
11.9062
0
LINE
8
BLACK
6
CONTINUOUS
10
47.625
20
14.2875
11
47.625
21
11.9062
0
LINE
8
BLACK
6
CONTINUOUS
10
66.675
20
11.9062
11
66.675
21
14.2875
0
LINE
8
BLACK
6
CONTINUOUS
10
85.725
20
11.9062
11
66.675
21
11.9062
0
LINE
8
BLACK
6
CONTINUOUS
10
85.725
20
9.525
11
85.725
21
11.9062
0
LINE
8
BLACK
6
CONTINUOUS
10
104.775
20
9.525
11
85.725
21
9.525
0
LINE
8
BLACK
6
CONTINUOUS
10
128.588
20
-19.8438
11
128.588
21
-31.75
0
LINE
8
BLACK
6
CONTINUOUS
10
123.825
20
-31.75
11
123.825
21
-19.8438
0
LINE
8
BLACK
6
CONTINUOUS
10
123.825
20
-92.075
11
128.588
21
-92.075
0
LINE
8
BLACK
6
CONTINUOUS
10
-9.525
20
-85.725
11
-9.525
21
-11.1125
0
LINE
8
BLACK
6
CONTINUOUS
10
123.825
20
-17.4625
11
107.95
21
-17.4625
0
LINE
8
BLACK
6
CONTINUOUS
10
105.569
20
-19.8438
11
123.825
21
-19.8438
0
LINE
8
BLACK
6
CONTINUOUS
10
98.425
20
-11.1125
11
105.569
21
-11.1125
0
LINE
8
BLACK
6
CONTINUOUS
10
26.9875
20
-8.73125
11
22.225
21
-8.73125
0
LINE
8
BLACK
6
CONTINUOUS
10
46.0375
20
-6.35
11
26.9875
21
-6.35
0
LINE
8
BLACK
6
CONTINUOUS
10
46.0375
20
-3.96875
11
46.0375
21
-6.35
0
LINE
8
BLACK
6
CONTINUOUS
10
69.85
20
-3.96875
11
46.0375
21
-3.96875
0
LINE
8
BLACK
6
CONTINUOUS
10
69.85
20
-6.35
11
69.85
21
-3.96875
0
LINE
8
BLACK
6
CONTINUOUS
10
88.9
20
-8.73125
11
92.075
21
-8.73125
0
LINE
8
BLACK
6
CONTINUOUS
10
88.9
20
-6.35
11
69.85
21
-6.35
0
LINE
8
BLACK
6
CONTINUOUS
10
88.9
20
-8.73125
11
88.9
21
-6.35
0
LINE
8
BLACK
6
CONTINUOUS
10
86.5187
20
-11.1125
11
92.075
21
-11.1125
0
LINE
8
BLACK
6
CONTINUOUS
10
86.5187
20
-8.73125
11
86.5187
21
-11.1125
0
LINE
8
BLACK
6
CONTINUOUS
10
67.4688
20
-8.73125
11
86.5187
21
-8.73125
0
LINE
8
BLACK
6
CONTINUOUS
10
67.4688
20
-6.35
11
67.4688
21
-8.73125
0
LINE
8
BLACK
6
CONTINUOUS
10
48.4187
20
-6.35
11
67.4688
21
-6.35
0
LINE
8
BLACK
6
CONTINUOUS
10
48.4187
20
-8.73125
11
48.4187
21
-6.35
0
LINE
8
BLACK
6
CONTINUOUS
10
29.3687
20
-8.73125
11
48.4187
21
-8.73125
0
LINE
8
BLACK
6
CONTINUOUS
10
29.3687
20
-11.1125
11
29.3687
21
-8.73125
0
LINE
8
BLACK
6
CONTINUOUS
10
22.225
20
-11.1125
11
29.3687
21
-11.1125
0
LINE
8
BLACK
6
CONTINUOUS
10
-9.525
20
-8.73125
11
-9.525
21
9.525
0
LINE
8
BLACK
6
CONTINUOUS
10
15.875
20
-11.1125
11
-9.525
21
-11.1125
0
LINE
8
BLACK
6
CONTINUOUS
10
15.875
20
-8.73125
11
-9.525
21
-8.73125
0
LINE
8
BLACK
6
CONTINUOUS
10
22.225
20
-11.1125
11
22.225
21
-8.73125
0
LINE
8
BLACK
6
CONTINUOUS
10
15.875
20
-11.1125
11
15.875
21
-8.73125
0
LINE
8
BLACK
6
CONTINUOUS
10
98.425
20
-11.1125
11
98.425
21
-8.73125
0
LINE
8
BLACK
6
CONTINUOUS
10
92.075
20
-11.1125
11
92.075
21
-8.73125
0
LINE
8
BLACK
6
CONTINUOUS
10
85.725
20
-102.394
11
42.8625
21
-102.394
0
LINE
8
BLACK
6
CONTINUOUS
10
85.725
20
-104.775
11
85.725
21
-102.394
0
LINE
8
BLACK
6
CONTINUOUS
10
128.588
20
-38.1
11
128.588
21
-85.725
0
LINE
8
BLACK
6
CONTINUOUS
10
123.825
20
-85.725
11
123.825
21
-38.1
0
LINE
8
BLACK
6
CONTINUOUS
10
123.825
20
-104.775
11
123.825
21
-92.075
0
LINE
8
BLACK
6
CONTINUOUS
10
128.588
20
-104.775
11
128.588
21
-92.075
0
LINE
8
BLACK
6
CONTINUOUS
10
123.825
20
-85.725
11
128.588
21
-85.725
0
LINE
8
BLACK
6
CONTINUOUS
10
123.825
20
-38.1
11
128.588
21
-38.1
0
LINE
8
BLACK
6
CONTINUOUS
10
144.463
20
-104.775
11
128.588
21
-104.775
0
LINE
8
BLACK
6
CONTINUOUS
10
166.688
20
-102.394
11
166.688
21
-104.775
0
LINE
8
BLACK
6
CONTINUOUS
10
223.044
20
-102.394
11
166.688
21
-102.394
0
LINE
8
BLACK
6
CONTINUOUS
10
261.938
20
-11.1125
11
261.938
21
-85.725
0
LINE
8
BLACK
6
CONTINUOUS
10
185.737
20
14.2875
11
204.787
21
14.2875
0
LINE
8
BLACK
6
CONTINUOUS
10
147.637
20
9.525
11
147.637
21
0
0
LINE
8
BLACK
6
CONTINUOUS
10
147.637
20
9.525
11
166.688
21
9.525
0
LINE
8
BLACK
6
CONTINUOUS
10
128.588
20
0
11
147.637
21
0
0
LINE
8
BLACK
6
CONTINUOUS
10
123.825
20
-31.75
11
128.588
21
-31.75
0
LINE
8
BLACK
6
CONTINUOUS
10
104.775
20
0
11
123.825
21
0
0
LINE
8
BLACK
6
CONTINUOUS
10
104.775
20
9.525
11
104.775
21
0
0
LINE
8
BLACK
6
CONTINUOUS
10
47.625
20
14.2875
11
66.675
21
14.2875
0
LINE
8
BLACK
6
CONTINUOUS
10
123.825
20
-104.775
11
107.95
21
-104.775
  0
ENDSEC
  0
EOF
