  0
SECTION
  2
HEADER
  9
$ANGBASE
  50
0.0
  9
$ANGDIR
  70
1
  9
$MEASUREMENT
  70
1
  0
ENDSEC
  0
SECTION
  2
TABLES
  0
TABLE
  2
LTYPE
  70
4
  0
LTYPE
  5
40F
  2
CONTINUOUS
  70
0
  3
Solid line
  72
65
  73
0
  40
0.0
  0
LTYPE
  5
410
  2
DASHDOT
 70
0
  3
Dash Dot ____ _ ____ _
 72
65
 73
4
 40
2.0
 49
1.25
 49
-0.25
 49
0.25
 49
-0.25
  0
LTYPE
  5
411
  2
DASHED
 70
0
  3
Dashed __ __ __ __ __
 72
65
 73
2
 40
0.75
 49
0.5
 49
-0.25
  0
LTYPE
  5
43B
  2
DOTTED
 70
0
  3
Dotted .  .  .  .
 72
65
 73
2
 40
0.2
 49
0.0
 49
-0.2
  0
ENDTAB
  0
TABLE
  2
STYLE
  70
4
  0
STYLE
  2
KICAD
  70
0
  40
0
  41
1
  42
1
  50
0
  71
0
  3
isocp.shx
  0
STYLE
  2
KICADB
  70
0
  40
0
  41
1
  42
1
  50
0
  71
0
  3
isocp.shx
  0
STYLE
  2
KICADI
  70
0
  40
0
  41
1
  42
1
  50
15
  71
0
  3
isocp.shx
  0
STYLE
  2
KICADBI
  70
0
  40
0
  41
1
  42
1
  50
15
  71
0
  3
isocp.shx
  0
ENDTAB
  0
TABLE
  2
LAYER
  70
1
  0
LAYER
  2
BLACK
  70
0
  62
7
  6
CONTINUOUS
  0
ENDTAB
  0
ENDSEC
  0
SECTION
  2
ENTITIES
0
LINE
8
BLACK
6
CONTINUOUS
10
-9.525
20
-128.588
11
-9.525
21
9.525
0
LINE
8
BLACK
6
CONTINUOUS
10
85.725
20
-128.588
11
-9.525
21
-128.588
0
LINE
8
BLACK
6
CONTINUOUS
10
123.825
20
-128.588
11
85.725
21
-128.588
0
LINE
8
BLACK
6
CONTINUOUS
10
123.825
20
0
11
123.825
21
-128.588
0
LINE
8
BLACK
6
CONTINUOUS
10
104.775
20
0
11
123.825
21
0
0
LINE
8
BLACK
6
CONTINUOUS
10
104.775
20
9.525
11
104.775
21
0
0
LINE
8
BLACK
6
CONTINUOUS
10
85.725
20
9.525
11
104.775
21
9.525
0
LINE
8
BLACK
6
CONTINUOUS
10
85.725
20
11.9062
11
85.725
21
9.525
0
LINE
8
BLACK
6
CONTINUOUS
10
66.675
20
11.9062
11
85.725
21
11.9062
0
LINE
8
BLACK
6
CONTINUOUS
10
66.675
20
14.2875
11
66.675
21
11.9062
0
LINE
8
BLACK
6
CONTINUOUS
10
47.625
20
14.2875
11
66.675
21
14.2875
0
LINE
8
BLACK
6
CONTINUOUS
10
47.625
20
11.9062
11
47.625
21
14.2875
0
LINE
8
BLACK
6
CONTINUOUS
10
28.575
20
11.9062
11
47.625
21
11.9062
0
LINE
8
BLACK
6
CONTINUOUS
10
28.575
20
9.525
11
28.575
21
11.9062
0
LINE
8
BLACK
6
CONTINUOUS
10
-9.525
20
9.525
11
28.575
21
9.525
0
ARC
8
BLACK
10
82.7
20
-23.1687
40
0.5
50
-90
51
-0
0
ARC
8
BLACK
10
69.7
20
-23.1687
40
0.5
50
180
51
270
0
ARC
8
BLACK
10
69.7
20
-10.1687
40
0.5
50
90
51
180
0
ARC
8
BLACK
10
82.7
20
-10.1687
40
0.5
50
-0
51
90
0
LINE
8
BLACK
6
CONTINUOUS
10
82.7
20
-9.66875
11
69.7
21
-9.66875
0
LINE
8
BLACK
6
CONTINUOUS
10
69.2
20
-10.1687
11
69.2
21
-23.1687
0
LINE
8
BLACK
6
CONTINUOUS
10
69.7
20
-23.6687
11
82.7
21
-23.6687
0
LINE
8
BLACK
6
CONTINUOUS
10
83.2
20
-23.1687
11
83.2
21
-10.1687
0
ARC
8
BLACK
10
44.6
20
-23.1687
40
0.5
50
-90
51
-0
0
ARC
8
BLACK
10
31.6
20
-23.1687
40
0.5
50
180
51
270
0
ARC
8
BLACK
10
31.6
20
-10.1687
40
0.5
50
90
51
180
0
ARC
8
BLACK
10
44.6
20
-10.1687
40
0.5
50
-0
51
90
0
LINE
8
BLACK
6
CONTINUOUS
10
44.6
20
-9.66875
11
31.6
21
-9.66875
0
LINE
8
BLACK
6
CONTINUOUS
10
31.1
20
-10.1687
11
31.1
21
-23.1687
0
LINE
8
BLACK
6
CONTINUOUS
10
31.6
20
-23.6687
11
44.6
21
-23.6687
0
LINE
8
BLACK
6
CONTINUOUS
10
45.1
20
-23.1687
11
45.1
21
-10.1687
0
LINE
8
BLACK
6
CONTINUOUS
10
63.65
20
-7.2875
11
50.65
21
-7.2875
0
LINE
8
BLACK
6
CONTINUOUS
10
50.15
20
-7.7875
11
50.15
21
-20.7875
0
LINE
8
BLACK
6
CONTINUOUS
10
50.65
20
-21.2875
11
63.65
21
-21.2875
0
LINE
8
BLACK
6
CONTINUOUS
10
64.15
20
-20.7875
11
64.15
21
-7.7875
0
ARC
8
BLACK
10
63.65
20
-7.7875
40
0.5
50
-0
51
90
0
ARC
8
BLACK
10
50.65
20
-7.7875
40
0.5
50
90
51
180
0
ARC
8
BLACK
10
50.65
20
-20.7875
40
0.5
50
180
51
270
0
ARC
8
BLACK
10
63.65
20
-20.7875
40
0.5
50
-90
51
-0
0
ARC
8
BLACK
10
6.5
20
-125.562
40
0.5
50
-90
51
-0
0
ARC
8
BLACK
10
-6.5
20
-125.562
40
0.5
50
180
51
270
0
ARC
8
BLACK
10
-6.5
20
-112.562
40
0.5
50
90
51
180
0
ARC
8
BLACK
10
6.5
20
-112.562
40
0.5
50
-0
51
90
0
LINE
8
BLACK
6
CONTINUOUS
10
6.5
20
-112.062
11
-6.5
21
-112.062
0
LINE
8
BLACK
6
CONTINUOUS
10
-7
20
-112.562
11
-7
21
-125.562
0
LINE
8
BLACK
6
CONTINUOUS
10
-6.5
20
-126.062
11
6.5
21
-126.062
0
LINE
8
BLACK
6
CONTINUOUS
10
7
20
-125.562
11
7
21
-112.562
0
ARC
8
BLACK
10
44.6
20
-125.562
40
0.5
50
-90
51
-0
0
ARC
8
BLACK
10
31.6
20
-125.562
40
0.5
50
180
51
270
0
ARC
8
BLACK
10
31.6
20
-112.562
40
0.5
50
90
51
180
0
ARC
8
BLACK
10
44.6
20
-112.562
40
0.5
50
-0
51
90
0
LINE
8
BLACK
6
CONTINUOUS
10
44.6
20
-112.062
11
31.6
21
-112.062
0
LINE
8
BLACK
6
CONTINUOUS
10
31.1
20
-112.562
11
31.1
21
-125.562
0
LINE
8
BLACK
6
CONTINUOUS
10
31.6
20
-126.062
11
44.6
21
-126.062
0
LINE
8
BLACK
6
CONTINUOUS
10
45.1
20
-125.562
11
45.1
21
-112.562
0
ARC
8
BLACK
10
25.55
20
-125.562
40
0.5
50
-90
51
-0
0
ARC
8
BLACK
10
12.55
20
-125.562
40
0.5
50
180
51
270
0
ARC
8
BLACK
10
12.55
20
-112.562
40
0.5
50
90
51
180
0
ARC
8
BLACK
10
25.55
20
-112.562
40
0.5
50
-0
51
90
0
LINE
8
BLACK
6
CONTINUOUS
10
25.55
20
-112.062
11
12.55
21
-112.062
0
LINE
8
BLACK
6
CONTINUOUS
10
12.05
20
-112.562
11
12.05
21
-125.562
0
LINE
8
BLACK
6
CONTINUOUS
10
12.55
20
-126.062
11
25.55
21
-126.062
0
LINE
8
BLACK
6
CONTINUOUS
10
26.05
20
-125.562
11
26.05
21
-112.562
0
ARC
8
BLACK
10
25.55
20
-106.512
40
0.5
50
-90
51
-0
0
ARC
8
BLACK
10
12.55
20
-106.512
40
0.5
50
180
51
270
0
ARC
8
BLACK
10
12.55
20
-93.5125
40
0.5
50
90
51
180
0
ARC
8
BLACK
10
25.55
20
-93.5125
40
0.5
50
-0
51
90
0
LINE
8
BLACK
6
CONTINUOUS
10
25.55
20
-93.0125
11
12.55
21
-93.0125
0
LINE
8
BLACK
6
CONTINUOUS
10
12.05
20
-93.5125
11
12.05
21
-106.512
0
LINE
8
BLACK
6
CONTINUOUS
10
12.55
20
-107.012
11
25.55
21
-107.012
0
LINE
8
BLACK
6
CONTINUOUS
10
26.05
20
-106.512
11
26.05
21
-93.5125
0
ARC
8
BLACK
10
69.7
20
-107.8
40
0.5
50
90
51
180
0
ARC
8
BLACK
10
69.7
20
-120.8
40
0.5
50
180
51
270
0
ARC
8
BLACK
10
82.7
20
-120.8
40
0.5
50
-90
51
-0
0
ARC
8
BLACK
10
82.7
20
-107.8
40
0.5
50
-0
51
90
0
LINE
8
BLACK
6
CONTINUOUS
10
69.2
20
-107.8
11
69.2
21
-120.8
0
LINE
8
BLACK
6
CONTINUOUS
10
69.7
20
-121.3
11
82.7
21
-121.3
0
LINE
8
BLACK
6
CONTINUOUS
10
83.2
20
-120.8
11
83.2
21
-107.8
0
LINE
8
BLACK
6
CONTINUOUS
10
82.7
20
-107.3
11
69.7
21
-107.3
0
ARC
8
BLACK
10
88.75
20
-110.181
40
0.5
50
90
51
180
0
ARC
8
BLACK
10
88.75
20
-123.181
40
0.5
50
180
51
270
0
ARC
8
BLACK
10
101.75
20
-123.181
40
0.5
50
-90
51
-0
0
ARC
8
BLACK
10
101.75
20
-110.181
40
0.5
50
-0
51
90
0
LINE
8
BLACK
6
CONTINUOUS
10
88.25
20
-110.181
11
88.25
21
-123.181
0
LINE
8
BLACK
6
CONTINUOUS
10
88.75
20
-123.681
11
101.75
21
-123.681
0
LINE
8
BLACK
6
CONTINUOUS
10
102.25
20
-123.181
11
102.25
21
-110.181
0
LINE
8
BLACK
6
CONTINUOUS
10
101.75
20
-109.681
11
88.75
21
-109.681
0
ARC
8
BLACK
10
107.8
20
-110.181
40
0.5
50
90
51
180
0
ARC
8
BLACK
10
107.8
20
-123.181
40
0.5
50
180
51
270
0
ARC
8
BLACK
10
120.8
20
-123.181
40
0.5
50
-90
51
-0
0
ARC
8
BLACK
10
120.8
20
-110.181
40
0.5
50
-0
51
90
0
LINE
8
BLACK
6
CONTINUOUS
10
107.3
20
-110.181
11
107.3
21
-123.181
0
LINE
8
BLACK
6
CONTINUOUS
10
107.8
20
-123.681
11
120.8
21
-123.681
0
LINE
8
BLACK
6
CONTINUOUS
10
121.3
20
-123.181
11
121.3
21
-110.181
0
LINE
8
BLACK
6
CONTINUOUS
10
120.8
20
-109.681
11
107.8
21
-109.681
0
ARC
8
BLACK
10
49.4808
20
-85.3687
40
0.5
50
90
51
180
0
ARC
8
BLACK
10
55.2308
20
-85.3687
40
0.5
50
-0
51
90
0
ARC
8
BLACK
10
55.2308
20
-98.3687
40
0.5
50
-90
51
-0
0
ARC
8
BLACK
10
49.4808
20
-98.3687
40
0.5
50
180
51
270
0
ARC
8
BLACK
10
57.7937
20
-99.3687
40
0.5
50
180
51
270
0
ARC
8
BLACK
10
57.7937
20
-86.3687
40
0.5
50
90
51
180
0
ARC
8
BLACK
10
70.7938
20
-86.3687
40
0.5
50
-0
51
90
0
ARC
8
BLACK
10
70.7938
20
-99.3687
40
0.5
50
-90
51
-0
0
ARC
8
BLACK
10
73.3567
20
-85.3687
40
0.5
50
90
51
180
0
ARC
8
BLACK
10
79.1067
20
-85.3687
40
0.5
50
-0
51
90
0
ARC
8
BLACK
10
79.1067
20
-98.3687
40
0.5
50
-90
51
-0
0
ARC
8
BLACK
10
73.3567
20
-98.3687
40
0.5
50
180
51
270
0
LINE
8
BLACK
6
CONTINUOUS
10
55.2308
20
-98.8687
11
49.4808
21
-98.8687
0
LINE
8
BLACK
6
CONTINUOUS
10
55.7308
20
-85.3687
11
55.7308
21
-98.3687
0
LINE
8
BLACK
6
CONTINUOUS
10
49.4808
20
-84.8687
11
55.2308
21
-84.8687
0
LINE
8
BLACK
6
CONTINUOUS
10
48.9808
20
-98.3687
11
48.9808
21
-85.3687
0
LINE
8
BLACK
6
CONTINUOUS
10
79.1067
20
-98.8687
11
73.3567
21
-98.8687
0
LINE
8
BLACK
6
CONTINUOUS
10
79.6067
20
-85.3687
11
79.6067
21
-98.3687
0
LINE
8
BLACK
6
CONTINUOUS
10
73.3567
20
-84.8687
11
79.1067
21
-84.8687
0
LINE
8
BLACK
6
CONTINUOUS
10
72.8567
20
-98.3687
11
72.8567
21
-85.3687
0
LINE
8
BLACK
6
CONTINUOUS
10
71.2938
20
-86.3687
11
71.2938
21
-99.3687
0
LINE
8
BLACK
6
CONTINUOUS
10
57.7937
20
-85.8687
11
70.7938
21
-85.8687
0
LINE
8
BLACK
6
CONTINUOUS
10
57.2937
20
-99.3687
11
57.2937
21
-86.3687
0
LINE
8
BLACK
6
CONTINUOUS
10
70.7938
20
-99.8687
11
57.7937
21
-99.8687
0
ARC
8
BLACK
10
107.8
20
-24.4562
40
0.5
50
90
51
180
0
ARC
8
BLACK
10
107.8
20
-37.4562
40
0.5
50
180
51
270
0
ARC
8
BLACK
10
120.8
20
-37.4562
40
0.5
50
-90
51
-0
0
ARC
8
BLACK
10
120.8
20
-24.4562
40
0.5
50
-0
51
90
0
LINE
8
BLACK
6
CONTINUOUS
10
107.3
20
-24.4562
11
107.3
21
-37.4562
0
LINE
8
BLACK
6
CONTINUOUS
10
107.8
20
-37.9562
11
120.8
21
-37.9562
0
LINE
8
BLACK
6
CONTINUOUS
10
121.3
20
-37.4562
11
121.3
21
-24.4562
0
LINE
8
BLACK
6
CONTINUOUS
10
120.8
20
-23.9562
11
107.8
21
-23.9562
0
ARC
8
BLACK
10
120.8
20
-53.0312
40
0.5
50
-0
51
90
0
ARC
8
BLACK
10
120.8
20
-66.0312
40
0.5
50
-90
51
-0
0
ARC
8
BLACK
10
107.8
20
-66.0312
40
0.5
50
180
51
270
0
ARC
8
BLACK
10
107.8
20
-53.0312
40
0.5
50
90
51
180
0
LINE
8
BLACK
6
CONTINUOUS
10
107.3
20
-53.0312
11
107.3
21
-66.0312
0
LINE
8
BLACK
6
CONTINUOUS
10
107.8
20
-66.5312
11
120.8
21
-66.5312
0
LINE
8
BLACK
6
CONTINUOUS
10
121.3
20
-66.0312
11
121.3
21
-53.0312
0
LINE
8
BLACK
6
CONTINUOUS
10
120.8
20
-52.5312
11
107.8
21
-52.5312
0
ARC
8
BLACK
10
107.8
20
-83.9875
40
0.5
50
90
51
180
0
ARC
8
BLACK
10
107.8
20
-96.9875
40
0.5
50
180
51
270
0
ARC
8
BLACK
10
120.8
20
-96.9875
40
0.5
50
-90
51
-0
0
ARC
8
BLACK
10
120.8
20
-83.9875
40
0.5
50
-0
51
90
0
LINE
8
BLACK
6
CONTINUOUS
10
107.3
20
-83.9875
11
107.3
21
-96.9875
0
LINE
8
BLACK
6
CONTINUOUS
10
107.8
20
-97.4875
11
120.8
21
-97.4875
0
LINE
8
BLACK
6
CONTINUOUS
10
121.3
20
-96.9875
11
121.3
21
-83.9875
0
LINE
8
BLACK
6
CONTINUOUS
10
120.8
20
-83.4875
11
107.8
21
-83.4875
0
LINE
8
BLACK
6
CONTINUOUS
10
101.75
20
-88.25
11
88.75
21
-88.25
0
LINE
8
BLACK
6
CONTINUOUS
10
88.25
20
-88.75
11
88.25
21
-101.75
0
LINE
8
BLACK
6
CONTINUOUS
10
88.75
20
-102.25
11
101.75
21
-102.25
0
LINE
8
BLACK
6
CONTINUOUS
10
102.25
20
-101.75
11
102.25
21
-88.75
0
ARC
8
BLACK
10
101.75
20
-101.75
40
0.5
50
-90
51
-0
0
ARC
8
BLACK
10
88.75
20
-101.75
40
0.5
50
180
51
270
0
ARC
8
BLACK
10
88.75
20
-88.75
40
0.5
50
90
51
180
0
ARC
8
BLACK
10
101.75
20
-88.75
40
0.5
50
-0
51
90
0
LINE
8
BLACK
6
CONTINUOUS
10
120.8
20
-2.525
11
107.8
21
-2.525
0
LINE
8
BLACK
6
CONTINUOUS
10
107.3
20
-3.025
11
107.3
21
-16.025
0
LINE
8
BLACK
6
CONTINUOUS
10
107.8
20
-16.525
11
120.8
21
-16.525
0
LINE
8
BLACK
6
CONTINUOUS
10
121.3
20
-16.025
11
121.3
21
-3.025
0
ARC
8
BLACK
10
120.8
20
-16.025
40
0.5
50
-90
51
-0
0
ARC
8
BLACK
10
107.8
20
-16.025
40
0.5
50
180
51
270
0
ARC
8
BLACK
10
107.8
20
-3.025
40
0.5
50
90
51
180
0
ARC
8
BLACK
10
120.8
20
-3.025
40
0.5
50
-0
51
90
0
LINE
8
BLACK
6
CONTINUOUS
10
101.75
20
-12.05
11
88.75
21
-12.05
0
LINE
8
BLACK
6
CONTINUOUS
10
88.25
20
-12.55
11
88.25
21
-25.55
0
LINE
8
BLACK
6
CONTINUOUS
10
88.75
20
-26.05
11
101.75
21
-26.05
0
LINE
8
BLACK
6
CONTINUOUS
10
102.25
20
-25.55
11
102.25
21
-12.55
0
ARC
8
BLACK
10
101.75
20
-12.55
40
0.5
50
-0
51
90
0
ARC
8
BLACK
10
88.75
20
-12.55
40
0.5
50
90
51
180
0
ARC
8
BLACK
10
88.75
20
-25.55
40
0.5
50
180
51
270
0
ARC
8
BLACK
10
101.75
20
-25.55
40
0.5
50
-90
51
-0
0
LINE
8
BLACK
6
CONTINUOUS
10
101.75
20
-50.15
11
88.75
21
-50.15
0
LINE
8
BLACK
6
CONTINUOUS
10
88.25
20
-50.65
11
88.25
21
-63.65
0
LINE
8
BLACK
6
CONTINUOUS
10
88.75
20
-64.15
11
101.75
21
-64.15
0
LINE
8
BLACK
6
CONTINUOUS
10
102.25
20
-63.65
11
102.25
21
-50.65
0
ARC
8
BLACK
10
101.75
20
-63.65
40
0.5
50
-90
51
-0
0
ARC
8
BLACK
10
88.75
20
-63.65
40
0.5
50
180
51
270
0
ARC
8
BLACK
10
88.75
20
-50.65
40
0.5
50
90
51
180
0
ARC
8
BLACK
10
101.75
20
-50.65
40
0.5
50
-0
51
90
0
LINE
8
BLACK
6
CONTINUOUS
10
101.75
20
-31.1
11
88.75
21
-31.1
0
LINE
8
BLACK
6
CONTINUOUS
10
88.25
20
-31.6
11
88.25
21
-44.6
0
LINE
8
BLACK
6
CONTINUOUS
10
88.75
20
-45.1
11
101.75
21
-45.1
0
LINE
8
BLACK
6
CONTINUOUS
10
102.25
20
-44.6
11
102.25
21
-31.6
0
ARC
8
BLACK
10
101.75
20
-31.6
40
0.5
50
-0
51
90
0
ARC
8
BLACK
10
88.75
20
-31.6
40
0.5
50
90
51
180
0
ARC
8
BLACK
10
88.75
20
-44.6
40
0.5
50
180
51
270
0
ARC
8
BLACK
10
101.75
20
-44.6
40
0.5
50
-90
51
-0
0
LINE
8
BLACK
6
CONTINUOUS
10
101.75
20
-69.2
11
88.75
21
-69.2
0
LINE
8
BLACK
6
CONTINUOUS
10
88.25
20
-69.7
11
88.25
21
-82.7
0
LINE
8
BLACK
6
CONTINUOUS
10
88.75
20
-83.2
11
101.75
21
-83.2
0
LINE
8
BLACK
6
CONTINUOUS
10
102.25
20
-82.7
11
102.25
21
-69.7
0
ARC
8
BLACK
10
101.75
20
-69.7
40
0.5
50
-0
51
90
0
ARC
8
BLACK
10
88.75
20
-69.7
40
0.5
50
90
51
180
0
ARC
8
BLACK
10
88.75
20
-82.7
40
0.5
50
180
51
270
0
ARC
8
BLACK
10
101.75
20
-82.7
40
0.5
50
-90
51
-0
0
LINE
8
BLACK
6
CONTINUOUS
10
101.75
20
7
11
88.75
21
7
0
LINE
8
BLACK
6
CONTINUOUS
10
88.25
20
6.5
11
88.25
21
-6.5
0
LINE
8
BLACK
6
CONTINUOUS
10
88.75
20
-7
11
101.75
21
-7
0
LINE
8
BLACK
6
CONTINUOUS
10
102.25
20
-6.5
11
102.25
21
6.5
0
ARC
8
BLACK
10
101.75
20
-6.5
40
0.5
50
-90
51
-0
0
ARC
8
BLACK
10
88.75
20
-6.5
40
0.5
50
180
51
270
0
ARC
8
BLACK
10
88.75
20
6.5
40
0.5
50
90
51
180
0
ARC
8
BLACK
10
101.75
20
6.5
40
0.5
50
-0
51
90
0
LINE
8
BLACK
6
CONTINUOUS
10
82.7
20
-47.7687
11
69.7
21
-47.7687
0
LINE
8
BLACK
6
CONTINUOUS
10
69.2
20
-48.2687
11
69.2
21
-61.2687
0
LINE
8
BLACK
6
CONTINUOUS
10
69.7
20
-61.7687
11
82.7
21
-61.7687
0
LINE
8
BLACK
6
CONTINUOUS
10
83.2
20
-61.2687
11
83.2
21
-48.2687
0
ARC
8
BLACK
10
82.7
20
-61.2687
40
0.5
50
-90
51
-0
0
ARC
8
BLACK
10
69.7
20
-61.2687
40
0.5
50
180
51
270
0
ARC
8
BLACK
10
69.7
20
-48.2687
40
0.5
50
90
51
180
0
ARC
8
BLACK
10
82.7
20
-48.2687
40
0.5
50
-0
51
90
0
LINE
8
BLACK
6
CONTINUOUS
10
82.7
20
-28.7188
11
69.7
21
-28.7188
0
LINE
8
BLACK
6
CONTINUOUS
10
69.2
20
-29.2188
11
69.2
21
-42.2188
0
LINE
8
BLACK
6
CONTINUOUS
10
69.7
20
-42.7188
11
82.7
21
-42.7188
0
LINE
8
BLACK
6
CONTINUOUS
10
83.2
20
-42.2188
11
83.2
21
-29.2188
0
ARC
8
BLACK
10
82.7
20
-29.2188
40
0.5
50
-0
51
90
0
ARC
8
BLACK
10
69.7
20
-29.2188
40
0.5
50
90
51
180
0
ARC
8
BLACK
10
69.7
20
-42.2188
40
0.5
50
180
51
270
0
ARC
8
BLACK
10
82.7
20
-42.2188
40
0.5
50
-90
51
-0
0
LINE
8
BLACK
6
CONTINUOUS
10
82.7
20
-66.8187
11
69.7
21
-66.8187
0
LINE
8
BLACK
6
CONTINUOUS
10
69.2
20
-67.3187
11
69.2
21
-80.3187
0
LINE
8
BLACK
6
CONTINUOUS
10
69.7
20
-80.8187
11
82.7
21
-80.8187
0
LINE
8
BLACK
6
CONTINUOUS
10
83.2
20
-80.3187
11
83.2
21
-67.3187
0
ARC
8
BLACK
10
82.7
20
-67.3187
40
0.5
50
-0
51
90
0
ARC
8
BLACK
10
69.7
20
-67.3187
40
0.5
50
90
51
180
0
ARC
8
BLACK
10
69.7
20
-80.3187
40
0.5
50
180
51
270
0
ARC
8
BLACK
10
82.7
20
-80.3187
40
0.5
50
-90
51
-0
0
LINE
8
BLACK
6
CONTINUOUS
10
82.7
20
9.38125
11
69.7
21
9.38125
0
LINE
8
BLACK
6
CONTINUOUS
10
69.2
20
8.88125
11
69.2
21
-4.11875
0
LINE
8
BLACK
6
CONTINUOUS
10
69.7
20
-4.61875
11
82.7
21
-4.61875
0
LINE
8
BLACK
6
CONTINUOUS
10
83.2
20
-4.11875
11
83.2
21
8.88125
0
ARC
8
BLACK
10
82.7
20
-4.11875
40
0.5
50
-90
51
-0
0
ARC
8
BLACK
10
69.7
20
-4.11875
40
0.5
50
180
51
270
0
ARC
8
BLACK
10
69.7
20
8.88125
40
0.5
50
90
51
180
0
ARC
8
BLACK
10
82.7
20
8.88125
40
0.5
50
-0
51
90
0
LINE
8
BLACK
6
CONTINUOUS
10
63.65
20
-45.3875
11
50.65
21
-45.3875
0
LINE
8
BLACK
6
CONTINUOUS
10
50.15
20
-45.8875
11
50.15
21
-58.8875
0
LINE
8
BLACK
6
CONTINUOUS
10
50.65
20
-59.3875
11
63.65
21
-59.3875
0
LINE
8
BLACK
6
CONTINUOUS
10
64.15
20
-58.8875
11
64.15
21
-45.8875
0
ARC
8
BLACK
10
63.65
20
-58.8875
40
0.5
50
-90
51
-0
0
ARC
8
BLACK
10
50.65
20
-58.8875
40
0.5
50
180
51
270
0
ARC
8
BLACK
10
50.65
20
-45.8875
40
0.5
50
90
51
180
0
ARC
8
BLACK
10
63.65
20
-45.8875
40
0.5
50
-0
51
90
0
LINE
8
BLACK
6
CONTINUOUS
10
63.65
20
-26.3375
11
50.65
21
-26.3375
0
LINE
8
BLACK
6
CONTINUOUS
10
50.15
20
-26.8375
11
50.15
21
-39.8375
0
LINE
8
BLACK
6
CONTINUOUS
10
50.65
20
-40.3375
11
63.65
21
-40.3375
0
LINE
8
BLACK
6
CONTINUOUS
10
64.15
20
-39.8375
11
64.15
21
-26.8375
0
ARC
8
BLACK
10
63.65
20
-26.8375
40
0.5
50
-0
51
90
0
ARC
8
BLACK
10
50.65
20
-26.8375
40
0.5
50
90
51
180
0
ARC
8
BLACK
10
50.65
20
-39.8375
40
0.5
50
180
51
270
0
ARC
8
BLACK
10
63.65
20
-39.8375
40
0.5
50
-90
51
-0
0
LINE
8
BLACK
6
CONTINUOUS
10
63.65
20
-64.4375
11
50.65
21
-64.4375
0
LINE
8
BLACK
6
CONTINUOUS
10
50.15
20
-64.9375
11
50.15
21
-77.9375
0
LINE
8
BLACK
6
CONTINUOUS
10
50.65
20
-78.4375
11
63.65
21
-78.4375
0
LINE
8
BLACK
6
CONTINUOUS
10
64.15
20
-77.9375
11
64.15
21
-64.9375
0
ARC
8
BLACK
10
63.65
20
-64.9375
40
0.5
50
-0
51
90
0
ARC
8
BLACK
10
50.65
20
-64.9375
40
0.5
50
90
51
180
0
ARC
8
BLACK
10
50.65
20
-77.9375
40
0.5
50
180
51
270
0
ARC
8
BLACK
10
63.65
20
-77.9375
40
0.5
50
-90
51
-0
0
LINE
8
BLACK
6
CONTINUOUS
10
63.65
20
11.7625
11
50.65
21
11.7625
0
LINE
8
BLACK
6
CONTINUOUS
10
50.15
20
11.2625
11
50.15
21
-1.7375
0
LINE
8
BLACK
6
CONTINUOUS
10
50.65
20
-2.2375
11
63.65
21
-2.2375
0
LINE
8
BLACK
6
CONTINUOUS
10
64.15
20
-1.7375
11
64.15
21
11.2625
0
ARC
8
BLACK
10
63.65
20
-1.7375
40
0.5
50
-90
51
-0
0
ARC
8
BLACK
10
50.65
20
-1.7375
40
0.5
50
180
51
270
0
ARC
8
BLACK
10
50.65
20
11.2625
40
0.5
50
90
51
180
0
ARC
8
BLACK
10
63.65
20
11.2625
40
0.5
50
-0
51
90
0
LINE
8
BLACK
6
CONTINUOUS
10
44.6
20
-47.7687
11
31.6
21
-47.7687
0
LINE
8
BLACK
6
CONTINUOUS
10
31.1
20
-48.2687
11
31.1
21
-61.2687
0
LINE
8
BLACK
6
CONTINUOUS
10
31.6
20
-61.7687
11
44.6
21
-61.7687
0
LINE
8
BLACK
6
CONTINUOUS
10
45.1
20
-61.2687
11
45.1
21
-48.2687
0
ARC
8
BLACK
10
44.6
20
-61.2687
40
0.5
50
-90
51
-0
0
ARC
8
BLACK
10
31.6
20
-61.2687
40
0.5
50
180
51
270
0
ARC
8
BLACK
10
31.6
20
-48.2687
40
0.5
50
90
51
180
0
ARC
8
BLACK
10
44.6
20
-48.2687
40
0.5
50
-0
51
90
0
LINE
8
BLACK
6
CONTINUOUS
10
44.6
20
-28.7188
11
31.6
21
-28.7188
0
LINE
8
BLACK
6
CONTINUOUS
10
31.1
20
-29.2188
11
31.1
21
-42.2188
0
LINE
8
BLACK
6
CONTINUOUS
10
31.6
20
-42.7188
11
44.6
21
-42.7188
0
LINE
8
BLACK
6
CONTINUOUS
10
45.1
20
-42.2188
11
45.1
21
-29.2188
0
ARC
8
BLACK
10
44.6
20
-29.2188
40
0.5
50
-0
51
90
0
ARC
8
BLACK
10
31.6
20
-29.2188
40
0.5
50
90
51
180
0
ARC
8
BLACK
10
31.6
20
-42.2188
40
0.5
50
180
51
270
0
ARC
8
BLACK
10
44.6
20
-42.2188
40
0.5
50
-90
51
-0
0
LINE
8
BLACK
6
CONTINUOUS
10
44.6
20
-66.8187
11
31.6
21
-66.8187
0
LINE
8
BLACK
6
CONTINUOUS
10
31.1
20
-67.3187
11
31.1
21
-80.3187
0
LINE
8
BLACK
6
CONTINUOUS
10
31.6
20
-80.8187
11
44.6
21
-80.8187
0
LINE
8
BLACK
6
CONTINUOUS
10
45.1
20
-80.3187
11
45.1
21
-67.3187
0
ARC
8
BLACK
10
44.6
20
-67.3187
40
0.5
50
-0
51
90
0
ARC
8
BLACK
10
31.6
20
-67.3187
40
0.5
50
90
51
180
0
ARC
8
BLACK
10
31.6
20
-80.3187
40
0.5
50
180
51
270
0
ARC
8
BLACK
10
44.6
20
-80.3187
40
0.5
50
-90
51
-0
0
LINE
8
BLACK
6
CONTINUOUS
10
44.6
20
9.38125
11
31.6
21
9.38125
0
LINE
8
BLACK
6
CONTINUOUS
10
31.1
20
8.88125
11
31.1
21
-4.11875
0
LINE
8
BLACK
6
CONTINUOUS
10
31.6
20
-4.61875
11
44.6
21
-4.61875
0
LINE
8
BLACK
6
CONTINUOUS
10
45.1
20
-4.11875
11
45.1
21
8.88125
0
ARC
8
BLACK
10
44.6
20
-4.11875
40
0.5
50
-90
51
-0
0
ARC
8
BLACK
10
31.6
20
-4.11875
40
0.5
50
180
51
270
0
ARC
8
BLACK
10
31.6
20
8.88125
40
0.5
50
90
51
180
0
ARC
8
BLACK
10
44.6
20
8.88125
40
0.5
50
-0
51
90
0
LINE
8
BLACK
6
CONTINUOUS
10
25.55
20
7
11
12.55
21
7
0
LINE
8
BLACK
6
CONTINUOUS
10
12.05
20
6.5
11
12.05
21
-6.5
0
LINE
8
BLACK
6
CONTINUOUS
10
12.55
20
-7
11
25.55
21
-7
0
LINE
8
BLACK
6
CONTINUOUS
10
26.05
20
-6.5
11
26.05
21
6.5
0
ARC
8
BLACK
10
25.55
20
6.5
40
0.5
50
-0
51
90
0
ARC
8
BLACK
10
12.55
20
6.5
40
0.5
50
90
51
180
0
ARC
8
BLACK
10
12.55
20
-6.5
40
0.5
50
180
51
270
0
ARC
8
BLACK
10
25.55
20
-6.5
40
0.5
50
-90
51
-0
0
LINE
8
BLACK
6
CONTINUOUS
10
25.55
20
-69.2
11
12.55
21
-69.2
0
LINE
8
BLACK
6
CONTINUOUS
10
12.05
20
-69.7
11
12.05
21
-82.7
0
LINE
8
BLACK
6
CONTINUOUS
10
12.55
20
-83.2
11
25.55
21
-83.2
0
LINE
8
BLACK
6
CONTINUOUS
10
26.05
20
-82.7
11
26.05
21
-69.7
0
ARC
8
BLACK
10
25.55
20
-82.7
40
0.5
50
-90
51
-0
0
ARC
8
BLACK
10
12.55
20
-82.7
40
0.5
50
180
51
270
0
ARC
8
BLACK
10
12.55
20
-69.7
40
0.5
50
90
51
180
0
ARC
8
BLACK
10
25.55
20
-69.7
40
0.5
50
-0
51
90
0
LINE
8
BLACK
6
CONTINUOUS
10
25.55
20
-31.1
11
12.55
21
-31.1
0
LINE
8
BLACK
6
CONTINUOUS
10
12.05
20
-31.6
11
12.05
21
-44.6
0
LINE
8
BLACK
6
CONTINUOUS
10
12.55
20
-45.1
11
25.55
21
-45.1
0
LINE
8
BLACK
6
CONTINUOUS
10
26.05
20
-44.6
11
26.05
21
-31.6
0
ARC
8
BLACK
10
25.55
20
-44.6
40
0.5
50
-90
51
-0
0
ARC
8
BLACK
10
12.55
20
-44.6
40
0.5
50
180
51
270
0
ARC
8
BLACK
10
12.55
20
-31.6
40
0.5
50
90
51
180
0
ARC
8
BLACK
10
25.55
20
-31.6
40
0.5
50
-0
51
90
0
LINE
8
BLACK
6
CONTINUOUS
10
25.55
20
-50.15
11
12.55
21
-50.15
0
LINE
8
BLACK
6
CONTINUOUS
10
12.05
20
-50.65
11
12.05
21
-63.65
0
LINE
8
BLACK
6
CONTINUOUS
10
12.55
20
-64.15
11
25.55
21
-64.15
0
LINE
8
BLACK
6
CONTINUOUS
10
26.05
20
-63.65
11
26.05
21
-50.65
0
ARC
8
BLACK
10
25.55
20
-50.65
40
0.5
50
-0
51
90
0
ARC
8
BLACK
10
12.55
20
-50.65
40
0.5
50
90
51
180
0
ARC
8
BLACK
10
12.55
20
-63.65
40
0.5
50
180
51
270
0
ARC
8
BLACK
10
25.55
20
-63.65
40
0.5
50
-90
51
-0
0
LINE
8
BLACK
6
CONTINUOUS
10
25.55
20
-12.05
11
12.55
21
-12.05
0
LINE
8
BLACK
6
CONTINUOUS
10
12.05
20
-12.55
11
12.05
21
-25.55
0
LINE
8
BLACK
6
CONTINUOUS
10
12.55
20
-26.05
11
25.55
21
-26.05
0
LINE
8
BLACK
6
CONTINUOUS
10
26.05
20
-25.55
11
26.05
21
-12.55
0
ARC
8
BLACK
10
25.55
20
-25.55
40
0.5
50
-90
51
-0
0
ARC
8
BLACK
10
12.55
20
-25.55
40
0.5
50
180
51
270
0
ARC
8
BLACK
10
12.55
20
-12.55
40
0.5
50
90
51
180
0
ARC
8
BLACK
10
25.55
20
-12.55
40
0.5
50
-0
51
90
0
LINE
8
BLACK
6
CONTINUOUS
10
6.5
20
-69.2
11
-6.5
21
-69.2
0
LINE
8
BLACK
6
CONTINUOUS
10
-7
20
-69.7
11
-7
21
-82.7
0
LINE
8
BLACK
6
CONTINUOUS
10
-6.5
20
-83.2
11
6.5
21
-83.2
0
LINE
8
BLACK
6
CONTINUOUS
10
7
20
-82.7
11
7
21
-69.7
0
ARC
8
BLACK
10
6.5
20
-69.7
40
0.5
50
-0
51
90
0
ARC
8
BLACK
10
-6.5
20
-69.7
40
0.5
50
90
51
180
0
ARC
8
BLACK
10
-6.5
20
-82.7
40
0.5
50
180
51
270
0
ARC
8
BLACK
10
6.5
20
-82.7
40
0.5
50
-90
51
-0
0
LINE
8
BLACK
6
CONTINUOUS
10
6.5
20
-31.1
11
-6.5
21
-31.1
0
LINE
8
BLACK
6
CONTINUOUS
10
-7
20
-31.6
11
-7
21
-44.6
0
LINE
8
BLACK
6
CONTINUOUS
10
-6.5
20
-45.1
11
6.5
21
-45.1
0
LINE
8
BLACK
6
CONTINUOUS
10
7
20
-44.6
11
7
21
-31.6
0
ARC
8
BLACK
10
6.5
20
-31.6
40
0.5
50
-0
51
90
0
ARC
8
BLACK
10
-6.5
20
-31.6
40
0.5
50
90
51
180
0
ARC
8
BLACK
10
-6.5
20
-44.6
40
0.5
50
180
51
270
0
ARC
8
BLACK
10
6.5
20
-44.6
40
0.5
50
-90
51
-0
0
LINE
8
BLACK
6
CONTINUOUS
10
6.5
20
-50.15
11
-6.5
21
-50.15
0
LINE
8
BLACK
6
CONTINUOUS
10
-7
20
-50.65
11
-7
21
-63.65
0
LINE
8
BLACK
6
CONTINUOUS
10
-6.5
20
-64.15
11
6.5
21
-64.15
0
LINE
8
BLACK
6
CONTINUOUS
10
7
20
-63.65
11
7
21
-50.65
0
ARC
8
BLACK
10
6.5
20
-63.65
40
0.5
50
-90
51
-0
0
ARC
8
BLACK
10
-6.5
20
-63.65
40
0.5
50
180
51
270
0
ARC
8
BLACK
10
-6.5
20
-50.65
40
0.5
50
90
51
180
0
ARC
8
BLACK
10
6.5
20
-50.65
40
0.5
50
-0
51
90
0
LINE
8
BLACK
6
CONTINUOUS
10
6.5
20
-12.05
11
-6.5
21
-12.05
0
LINE
8
BLACK
6
CONTINUOUS
10
-7
20
-12.55
11
-7
21
-25.55
0
LINE
8
BLACK
6
CONTINUOUS
10
-6.5
20
-26.05
11
6.5
21
-26.05
0
LINE
8
BLACK
6
CONTINUOUS
10
7
20
-25.55
11
7
21
-12.55
0
ARC
8
BLACK
10
6.5
20
-12.55
40
0.5
50
-0
51
90
0
ARC
8
BLACK
10
-6.5
20
-12.55
40
0.5
50
90
51
180
0
ARC
8
BLACK
10
-6.5
20
-25.55
40
0.5
50
180
51
270
0
ARC
8
BLACK
10
6.5
20
-25.55
40
0.5
50
-90
51
-0
0
LINE
8
BLACK
6
CONTINUOUS
10
6.5
20
7
11
-6.5
21
7
0
LINE
8
BLACK
6
CONTINUOUS
10
-7
20
6.5
11
-7
21
-6.5
0
LINE
8
BLACK
6
CONTINUOUS
10
-6.5
20
-7
11
6.5
21
-7
0
LINE
8
BLACK
6
CONTINUOUS
10
7
20
-6.5
11
7
21
6.5
0
ARC
8
BLACK
10
6.5
20
-6.5
40
0.5
50
-90
51
-0
0
ARC
8
BLACK
10
-6.5
20
-6.5
40
0.5
50
180
51
270
0
ARC
8
BLACK
10
-6.5
20
6.5
40
0.5
50
90
51
180
0
ARC
8
BLACK
10
6.5
20
6.5
40
0.5
50
-0
51
90
  0
ENDSEC
  0
EOF
