M48
; DRILL file {KiCad (6.0.1-0)} date Saturday, 23 April 2022 at 02:39:00 pm
; FORMAT={-:-/ absolute / metric / decimal}
; #@! TF.CreationDate,2022-04-23T14:39:00+10:00
; #@! TF.GenerationSoftware,Kicad,Pcbnew,(6.0.1-0)
; #@! TF.FileFunction,NonPlated,1,2,NPTH
FMAT,2
METRIC
; #@! TA.AperFunction,NonPlated,NPTH,ComponentDrill
T1C0.650
; #@! TA.AperFunction,NonPlated,NPTH,ComponentDrill
T2C0.787
; #@! TA.AperFunction,NonPlated,NPTH,ComponentDrill
T3C0.900
; #@! TA.AperFunction,NonPlated,NPTH,ComponentDrill
T4C1.750
; #@! TA.AperFunction,NonPlated,NPTH,ComponentDrill
T5C3.000
; #@! TA.AperFunction,NonPlated,NPTH,ComponentDrill
T6C3.048
; #@! TA.AperFunction,NonPlated,NPTH,ComponentDrill
T7C3.988
%
G90
G05
T1
X-3.275Y-28.86
X-3.275Y-34.64
X254.894Y-28.86
X254.894Y-34.64
T2
X6.985Y-8.191
X6.985Y-10.065
X8.255Y-8.191
X8.255Y-10.065
X9.525Y-8.191
X9.525Y-10.065
X10.795Y-8.191
X10.795Y-10.065
X12.065Y-8.191
X12.065Y-10.065
X36.354Y-85.185
X36.354Y-89.44
X37.624Y-85.185
X37.624Y-89.44
X38.894Y-85.185
X38.894Y-89.44
X40.164Y-85.185
X40.164Y-89.44
X41.434Y-85.185
X41.434Y-89.44
X77.629Y-85.185
X77.629Y-89.44
X78.899Y-85.185
X78.899Y-89.44
X80.169Y-85.185
X80.169Y-89.44
X81.439Y-85.185
X81.439Y-89.44
X82.709Y-85.185
X82.709Y-89.44
X102.235Y-8.191
X102.235Y-10.065
X103.505Y-8.191
X103.505Y-10.065
X104.775Y-8.191
X104.775Y-10.065
X106.045Y-8.191
X106.045Y-10.065
X107.315Y-8.191
X107.315Y-10.065
X123.285Y-12.541
X123.285Y-13.811
X123.285Y-15.081
X123.285Y-16.351
X123.285Y-17.621
X123.285Y-72.866
X123.285Y-74.136
X123.285Y-75.406
X123.285Y-76.676
X123.285Y-77.946
X129.127Y-12.541
X129.127Y-13.811
X129.127Y-15.081
X129.127Y-16.351
X129.127Y-17.621
X129.127Y-72.866
X129.127Y-74.136
X129.127Y-75.406
X129.127Y-76.676
X129.127Y-77.946
X145.097Y-8.191
X145.097Y-10.065
X146.368Y-8.191
X146.368Y-10.065
X147.637Y-8.191
X147.637Y-10.065
X148.907Y-8.191
X148.907Y-10.065
X150.177Y-8.191
X150.177Y-10.065
X169.704Y-85.185
X169.704Y-89.44
X170.974Y-85.185
X170.974Y-89.44
X172.244Y-85.185
X172.244Y-89.44
X173.514Y-85.185
X173.514Y-89.44
X174.784Y-85.185
X174.784Y-89.44
X201.454Y-85.185
X201.454Y-89.44
X202.724Y-85.185
X202.724Y-89.44
X203.994Y-85.185
X203.994Y-89.44
X205.264Y-85.185
X205.264Y-89.44
X206.534Y-85.185
X206.534Y-89.44
X240.347Y-8.191
X240.347Y-10.065
X241.617Y-8.191
X241.617Y-10.065
X242.887Y-8.191
X242.887Y-10.065
X244.157Y-8.191
X244.157Y-10.065
X245.427Y-8.191
X245.427Y-10.065
T3
X115.975Y-78.399
X118.975Y-78.399
X133.438Y-78.399
X136.438Y-78.399
T4
X-5.08Y0.0
X-5.08Y-19.05
X0.0Y-37.782
X0.0Y-47.942
X0.0Y-78.264
X0.0Y-88.424
X0.0Y-111.601
X0.0Y-121.761
X5.08Y0.0
X5.08Y-19.05
X13.97Y0.0
X13.97Y-19.05
X13.97Y-38.1
X13.97Y-57.15
X13.97Y-76.2
X13.97Y-117.475
X16.351Y-95.25
X24.13Y0.0
X24.13Y-19.05
X24.13Y-38.1
X24.13Y-57.15
X24.13Y-76.2
X24.13Y-117.475
X26.511Y-95.25
X33.02Y0.0
X33.02Y-19.05
X33.02Y-38.1
X33.02Y-57.15
X33.02Y-76.2
X33.02Y-117.475
X43.18Y0.0
X43.18Y-19.05
X43.18Y-38.1
X43.18Y-57.15
X43.18Y-76.2
X43.18Y-117.475
X52.07Y0.0
X52.07Y-19.05
X52.07Y-38.1
X52.07Y-57.15
X52.07Y-76.2
X52.07Y-117.475
X54.451Y-98.425
X62.23Y0.0
X62.23Y-19.05
X62.23Y-38.1
X62.23Y-57.15
X62.23Y-76.2
X62.23Y-117.475
X64.611Y-98.425
X71.12Y0.0
X71.12Y-19.05
X71.12Y-38.1
X71.12Y-57.15
X71.12Y-76.2
X71.12Y-117.475
X81.28Y0.0
X81.28Y-19.05
X81.28Y-38.1
X81.28Y-57.15
X81.28Y-76.2
X81.28Y-117.475
X90.17Y0.0
X90.17Y-19.05
X90.17Y-38.1
X90.17Y-57.15
X90.17Y-76.2
X90.17Y-95.25
X95.25Y-114.776
X95.25Y-124.936
X100.33Y0.0
X100.33Y-19.05
X100.33Y-38.1
X100.33Y-57.15
X100.33Y-76.2
X100.33Y-95.25
X109.22Y0.0
X109.22Y-19.05
X109.22Y-38.1
X109.22Y-57.15
X114.3Y-90.964
X114.3Y-101.124
X114.3Y-114.776
X114.3Y-124.936
X119.38Y0.0
X119.38Y-19.05
X119.38Y-38.1
X119.38Y-57.15
X133.032Y0.0
X133.032Y-19.05
X133.032Y-38.1
X138.112Y-56.832
X138.112Y-66.992
X138.112Y-90.964
X138.112Y-101.124
X138.112Y-114.776
X138.112Y-124.936
X143.192Y0.0
X143.192Y-19.05
X143.192Y-38.1
X152.082Y0.0
X152.082Y-19.05
X152.082Y-38.1
X152.082Y-57.15
X152.082Y-76.2
X152.082Y-95.25
X157.162Y-114.776
X157.162Y-124.936
X162.243Y0.0
X162.243Y-19.05
X162.243Y-38.1
X162.243Y-57.15
X162.243Y-76.2
X162.243Y-95.25
X171.132Y0.0
X171.132Y-19.05
X171.132Y-38.1
X171.132Y-57.15
X171.132Y-76.2
X171.132Y-117.475
X181.292Y0.0
X181.292Y-19.05
X181.292Y-38.1
X181.292Y-57.15
X181.292Y-76.2
X181.292Y-117.475
X183.039Y-98.425
X190.183Y0.0
X190.183Y-19.05
X190.183Y-38.1
X190.183Y-57.15
X190.183Y-76.2
X190.183Y-117.475
X193.199Y-98.425
X200.343Y0.0
X200.343Y-19.05
X200.343Y-38.1
X200.343Y-57.15
X200.343Y-76.2
X200.343Y-117.475
X209.232Y0.0
X209.232Y-19.05
X209.232Y-38.1
X209.232Y-57.15
X209.232Y-76.2
X209.232Y-117.475
X219.392Y0.0
X219.392Y-19.05
X219.392Y-38.1
X219.392Y-57.15
X219.392Y-76.2
X219.392Y-117.475
X228.282Y0.0
X228.282Y-19.05
X228.282Y-38.1
X228.282Y-57.15
X228.282Y-76.2
X228.282Y-117.475
X237.807Y-95.25
X238.442Y0.0
X238.442Y-19.05
X238.442Y-38.1
X238.442Y-57.15
X238.442Y-76.2
X238.442Y-117.475
X247.332Y0.0
X247.332Y-19.05
X247.332Y-38.1
X247.332Y-57.15
X247.332Y-76.2
X247.968Y-95.25
X252.412Y-111.601
X252.412Y-121.761
X257.493Y0.0
X257.493Y-19.05
X257.493Y-38.1
X257.493Y-57.15
X257.493Y-76.2
T5
X-2.54Y-5.08
X-2.54Y-24.13
X2.54Y-39.052
X2.54Y-79.534
X2.54Y-112.871
X3.81Y-2.54
X3.81Y-21.59
X5.08Y-45.402
X5.08Y-85.884
X5.08Y-119.221
X16.51Y-5.08
X16.51Y-24.13
X16.51Y-43.18
X16.51Y-62.23
X16.51Y-81.28
X16.51Y-122.555
X18.891Y-100.33
X22.86Y-2.54
X22.86Y-21.59
X22.86Y-40.64
X22.86Y-59.69
X22.86Y-78.74
X22.86Y-120.015
X25.241Y-97.79
X35.56Y-5.08
X35.56Y-24.13
X35.56Y-43.18
X35.56Y-62.23
X35.56Y-81.28
X35.56Y-122.555
X41.91Y-2.54
X41.91Y-21.59
X41.91Y-40.64
X41.91Y-59.69
X41.91Y-78.74
X41.91Y-120.015
X54.61Y-5.08
X54.61Y-24.13
X54.61Y-43.18
X54.61Y-62.23
X54.61Y-81.28
X54.61Y-122.555
X55.721Y-95.885
X60.96Y-2.54
X60.96Y-21.59
X60.96Y-40.64
X60.96Y-59.69
X60.96Y-78.74
X60.96Y-120.015
X62.071Y-93.345
X73.66Y-5.08
X73.66Y-24.13
X73.66Y-43.18
X73.66Y-62.23
X73.66Y-81.28
X73.66Y-122.555
X80.01Y-2.54
X80.01Y-21.59
X80.01Y-40.64
X80.01Y-59.69
X80.01Y-78.74
X80.01Y-120.015
X92.71Y-5.08
X92.71Y-24.13
X92.71Y-43.18
X92.71Y-62.23
X92.71Y-81.28
X92.71Y-100.33
X97.79Y-116.046
X99.06Y-2.54
X99.06Y-21.59
X99.06Y-40.64
X99.06Y-59.69
X99.06Y-78.74
X99.06Y-97.79
X100.33Y-122.396
X109.22Y-93.504
X109.22Y-117.316
X111.76Y-5.08
X111.76Y-24.13
X111.76Y-43.18
X111.76Y-62.23
X111.76Y-99.854
X111.76Y-123.666
X118.11Y-2.54
X118.11Y-21.59
X118.11Y-40.64
X118.11Y-59.69
X135.572Y-5.08
X135.572Y-24.13
X135.572Y-43.18
X140.653Y-58.102
X140.653Y-92.234
X140.653Y-116.046
X141.922Y-2.54
X141.922Y-21.59
X141.922Y-40.64
X143.192Y-64.453
X143.192Y-98.584
X143.192Y-122.396
X152.082Y-117.316
X154.623Y-5.08
X154.623Y-24.13
X154.623Y-43.18
X154.623Y-62.23
X154.623Y-81.28
X154.623Y-100.33
X154.623Y-123.666
X160.972Y-2.54
X160.972Y-21.59
X160.972Y-40.64
X160.972Y-59.69
X160.972Y-78.74
X160.972Y-97.79
X173.672Y-5.08
X173.672Y-24.13
X173.672Y-43.18
X173.672Y-62.23
X173.672Y-81.28
X173.672Y-122.555
X180.022Y-2.54
X180.022Y-21.59
X180.022Y-40.64
X180.022Y-59.69
X180.022Y-78.74
X180.022Y-120.015
X184.309Y-95.885
X190.659Y-93.345
X192.722Y-5.08
X192.722Y-24.13
X192.722Y-43.18
X192.722Y-62.23
X192.722Y-81.28
X192.722Y-122.555
X199.072Y-2.54
X199.072Y-21.59
X199.072Y-40.64
X199.072Y-59.69
X199.072Y-78.74
X199.072Y-120.015
X211.772Y-5.08
X211.772Y-24.13
X211.772Y-43.18
X211.772Y-62.23
X211.772Y-81.28
X211.772Y-122.555
X218.123Y-2.54
X218.123Y-21.59
X218.123Y-40.64
X218.123Y-59.69
X218.123Y-78.74
X218.123Y-120.015
X230.822Y-5.08
X230.822Y-24.13
X230.822Y-43.18
X230.822Y-62.23
X230.822Y-81.28
X230.822Y-122.555
X237.172Y-2.54
X237.172Y-21.59
X237.172Y-40.64
X237.172Y-59.69
X237.172Y-78.74
X237.172Y-120.015
X240.347Y-100.33
X246.697Y-97.79
X247.332Y-114.141
X249.873Y-5.08
X249.873Y-24.13
X249.873Y-43.18
X249.873Y-62.23
X249.873Y-81.28
X249.873Y-120.491
X256.222Y-2.54
X256.222Y-21.59
X256.222Y-40.64
X256.222Y-59.69
X256.222Y-78.74
T6
X47.593Y-91.44
X71.469Y-91.44
X176.181Y-91.44
X200.057Y-91.44
X230.95Y-102.235
X254.825Y-102.235
T7
X0.0Y0.0
X0.0Y-19.05
X0.0Y-42.862
X0.0Y-83.344
X0.0Y-116.681
X19.05Y0.0
X19.05Y-19.05
X19.05Y-38.1
X19.05Y-57.15
X19.05Y-76.2
X19.05Y-117.475
X21.431Y-95.25
X38.1Y0.0
X38.1Y-19.05
X38.1Y-38.1
X38.1Y-57.15
X38.1Y-76.2
X38.1Y-117.475
X47.593Y-106.68
X57.15Y0.0
X57.15Y-19.05
X57.15Y-38.1
X57.15Y-57.15
X57.15Y-76.2
X57.15Y-117.475
X59.531Y-98.425
X71.469Y-106.68
X76.2Y0.0
X76.2Y-19.05
X76.2Y-38.1
X76.2Y-57.15
X76.2Y-76.2
X76.2Y-117.475
X95.25Y0.0
X95.25Y-19.05
X95.25Y-38.1
X95.25Y-57.15
X95.25Y-76.2
X95.25Y-95.25
X95.25Y-119.856
X114.3Y0.0
X114.3Y-19.05
X114.3Y-38.1
X114.3Y-57.15
X114.3Y-96.044
X114.3Y-119.856
X138.112Y0.0
X138.112Y-19.05
X138.112Y-38.1
X138.112Y-61.912
X138.112Y-96.044
X138.112Y-119.856
X157.162Y0.0
X157.162Y-19.05
X157.162Y-38.1
X157.162Y-57.15
X157.162Y-76.2
X157.162Y-95.25
X157.162Y-119.856
X176.181Y-106.68
X176.213Y0.0
X176.213Y-19.05
X176.213Y-38.1
X176.213Y-57.15
X176.213Y-76.2
X176.213Y-117.475
X188.119Y-98.425
X195.262Y0.0
X195.262Y-19.05
X195.262Y-38.1
X195.262Y-57.15
X195.262Y-76.2
X195.262Y-117.475
X200.057Y-106.68
X214.312Y0.0
X214.312Y-19.05
X214.312Y-38.1
X214.312Y-57.15
X214.312Y-76.2
X214.312Y-117.475
X230.95Y-86.995
X233.362Y0.0
X233.362Y-19.05
X233.362Y-38.1
X233.362Y-57.15
X233.362Y-76.2
X233.362Y-117.475
X242.887Y-95.25
X252.412Y0.0
X252.412Y-19.05
X252.412Y-38.1
X252.412Y-57.15
X252.412Y-76.2
X252.412Y-116.681
X254.825Y-86.995
T0
M30
