G04 #@! TF.GenerationSoftware,KiCad,Pcbnew,(5.1.10-1-10_14)*
G04 #@! TF.CreationDate,2021-09-12T14:18:21+10:00*
G04 #@! TF.ProjectId,pcb,7063622e-6b69-4636-9164-5f7063625858,rev?*
G04 #@! TF.SameCoordinates,Original*
G04 #@! TF.FileFunction,Profile,NP*
%FSLAX46Y46*%
G04 Gerber Fmt 4.6, Leading zero omitted, Abs format (unit mm)*
G04 Created by KiCad (PCBNEW (5.1.10-1-10_14)) date 2021-09-12 14:18:21*
%MOMM*%
%LPD*%
G01*
G04 APERTURE LIST*
G04 #@! TA.AperFunction,Profile*
%ADD10C,0.100000*%
G04 #@! TD*
G04 APERTURE END LIST*
D10*
X22225000Y-91281250D02*
X27781250Y-91281250D01*
X88900000Y-8731250D02*
X92075000Y-8731250D01*
X88900000Y-8731250D02*
X88900000Y-6350000D01*
X98425000Y-11112500D02*
X98425000Y-8731250D01*
X92075000Y-11112500D02*
X92075000Y-8731250D01*
X230187500Y-85725000D02*
X223043750Y-85725000D01*
X230187500Y-91281250D02*
X224631250Y-91281250D01*
X10318750Y-91281250D02*
X15875000Y-91281250D01*
X205581250Y-110331250D02*
X224631250Y-110331250D01*
X205581250Y-127793750D02*
X205581250Y-110331250D01*
X261143750Y-127793750D02*
X205581250Y-127793750D01*
X261143750Y-110331250D02*
X261143750Y-127793750D01*
X242093750Y-110331250D02*
X261143750Y-110331250D01*
X242093750Y-91281250D02*
X242093750Y-110331250D01*
X236537500Y-91281250D02*
X242093750Y-91281250D01*
X224631250Y-92075000D02*
X224631250Y-91281250D01*
X224631250Y-110331250D02*
X224631250Y-92075000D01*
X236537500Y-85725000D02*
X261937500Y-85725000D01*
X223043750Y-102393750D02*
X223043750Y-85725000D01*
X22225000Y-85725000D02*
X29368750Y-85725000D01*
X10318750Y-110331250D02*
X10318750Y-91281250D01*
X-8731250Y-110331250D02*
X10318750Y-110331250D01*
X-8731250Y-110331250D02*
X-8731250Y-127793750D01*
X46831250Y-127793750D02*
X-8731250Y-127793750D01*
X46831250Y-110331250D02*
X46831250Y-127793750D01*
X27781250Y-110331250D02*
X46831250Y-110331250D01*
X27781250Y-91281250D02*
X27781250Y-110331250D01*
X22225000Y-91281250D02*
X22225000Y-85725000D01*
X15875000Y-91281250D02*
X15875000Y-85725000D01*
X29368750Y-102393750D02*
X42862500Y-102393750D01*
X29368750Y-85725000D02*
X29368750Y-102393750D01*
X-9525000Y-85725000D02*
X15875000Y-85725000D01*
X230187500Y-91281250D02*
X230187500Y-85725000D01*
X236537500Y-91281250D02*
X236537500Y-85725000D01*
X128587500Y-109537500D02*
X144462500Y-109537500D01*
X128587500Y-133350000D02*
X128587500Y-109537500D01*
X166687500Y-133350000D02*
X128587500Y-133350000D01*
X166687500Y-126206250D02*
X166687500Y-133350000D01*
X190500000Y-126206250D02*
X166687500Y-126206250D01*
X190500000Y-107156250D02*
X190500000Y-126206250D01*
X166687500Y-107156250D02*
X190500000Y-107156250D01*
X166687500Y-109537500D02*
X166687500Y-107156250D01*
X150812500Y-109537500D02*
X166687500Y-109537500D01*
X150812500Y-104775000D02*
X166687500Y-104775000D01*
X150812500Y-109537500D02*
X150812500Y-104775000D01*
X144462500Y-109537500D02*
X144462500Y-104775000D01*
X85725000Y-109537500D02*
X101600000Y-109537500D01*
X85725000Y-107156250D02*
X85725000Y-109537500D01*
X61912500Y-107156250D02*
X85725000Y-107156250D01*
X61912500Y-126206250D02*
X61912500Y-107156250D01*
X85725000Y-126206250D02*
X61912500Y-126206250D01*
X85725000Y-133350000D02*
X85725000Y-126206250D01*
X123825000Y-133350000D02*
X85725000Y-133350000D01*
X123825000Y-109537500D02*
X123825000Y-133350000D01*
X107950000Y-109537500D02*
X123825000Y-109537500D01*
X85725000Y-104775000D02*
X101600000Y-104775000D01*
X101600000Y-109537500D02*
X101600000Y-104775000D01*
X107950000Y-109537500D02*
X107950000Y-104775000D01*
X128587500Y-17462500D02*
X128587500Y0D01*
X230187500Y-8731250D02*
X227012500Y-8731250D01*
X224631250Y-11112500D02*
X230187500Y-11112500D01*
X236537500Y-11112500D02*
X236537500Y-8731250D01*
X230187500Y-11112500D02*
X230187500Y-8731250D01*
X223837500Y9525000D02*
X261937500Y9525000D01*
X223837500Y11906250D02*
X223837500Y9525000D01*
X204787500Y11906250D02*
X223837500Y11906250D01*
X204787500Y14287500D02*
X204787500Y11906250D01*
X185737500Y11906250D02*
X185737500Y14287500D01*
X166687500Y11906250D02*
X185737500Y11906250D01*
X166687500Y9525000D02*
X166687500Y11906250D01*
X261937500Y-8731250D02*
X261937500Y9525000D01*
X236537500Y-8731250D02*
X261937500Y-8731250D01*
X227012500Y-6350000D02*
X227012500Y-8731250D01*
X224631250Y-6350000D02*
X227012500Y-6350000D01*
X236537500Y-11112500D02*
X261937500Y-11112500D01*
X224631250Y-8731250D02*
X224631250Y-11112500D01*
X207962500Y-6350000D02*
X224631250Y-6350000D01*
X207962500Y-3968750D02*
X207962500Y-6350000D01*
X203993750Y-3968750D02*
X207962500Y-3968750D01*
X205581250Y-8731250D02*
X224631250Y-8731250D01*
X205581250Y-6350000D02*
X205581250Y-8731250D01*
X203993750Y-6350000D02*
X205581250Y-6350000D01*
X182562500Y-3968750D02*
X203993750Y-3968750D01*
X182562500Y-6350000D02*
X182562500Y-3968750D01*
X184943750Y-6350000D02*
X203993750Y-6350000D01*
X184943750Y-8731250D02*
X184943750Y-6350000D01*
X163512500Y-6350000D02*
X182562500Y-6350000D01*
X163512500Y-8731250D02*
X163512500Y-6350000D01*
X160337500Y-8731250D02*
X163512500Y-8731250D01*
X165893750Y-8731250D02*
X184943750Y-8731250D01*
X165893750Y-11112500D02*
X165893750Y-8731250D01*
X160337500Y-11112500D02*
X165893750Y-11112500D01*
X160337500Y-11112500D02*
X160337500Y-8731250D01*
X153987500Y-11112500D02*
X153987500Y-8731250D01*
X146843750Y-11112500D02*
X153987500Y-11112500D01*
X146843750Y-19843750D02*
X146843750Y-11112500D01*
X128587500Y-19843750D02*
X146843750Y-19843750D01*
X144462500Y-8731250D02*
X153987500Y-8731250D01*
X144462500Y-17462500D02*
X144462500Y-8731250D01*
X128587500Y-17462500D02*
X144462500Y-17462500D01*
X98425000Y-8731250D02*
X107950000Y-8731250D01*
X107950000Y-17462500D02*
X107950000Y-8731250D01*
X26987500Y-6350000D02*
X26987500Y-8731250D01*
X105568750Y-19843750D02*
X105568750Y-11112500D01*
X123825000Y-17462500D02*
X123825000Y0D01*
X28575000Y9525000D02*
X-9525000Y9525000D01*
X28575000Y11906250D02*
X28575000Y9525000D01*
X47625000Y11906250D02*
X28575000Y11906250D01*
X47625000Y14287500D02*
X47625000Y11906250D01*
X66675000Y11906250D02*
X66675000Y14287500D01*
X85725000Y11906250D02*
X66675000Y11906250D01*
X85725000Y9525000D02*
X85725000Y11906250D01*
X104775000Y9525000D02*
X85725000Y9525000D01*
X128587500Y-19843750D02*
X128587500Y-31750000D01*
X123825000Y-31750000D02*
X123825000Y-19843750D01*
X123825000Y-92075000D02*
X128587500Y-92075000D01*
X-9525000Y-85725000D02*
X-9525000Y-11112500D01*
X123825000Y-17462500D02*
X107950000Y-17462500D01*
X105568750Y-19843750D02*
X123825000Y-19843750D01*
X98425000Y-11112500D02*
X105568750Y-11112500D01*
X26987500Y-8731250D02*
X22225000Y-8731250D01*
X46037500Y-6350000D02*
X26987500Y-6350000D01*
X46037500Y-3968750D02*
X46037500Y-6350000D01*
X69850000Y-3968750D02*
X46037500Y-3968750D01*
X69850000Y-6350000D02*
X69850000Y-3968750D01*
X88900000Y-6350000D02*
X69850000Y-6350000D01*
X86518750Y-11112500D02*
X92075000Y-11112500D01*
X86518750Y-8731250D02*
X86518750Y-11112500D01*
X67468750Y-8731250D02*
X86518750Y-8731250D01*
X67468750Y-6350000D02*
X67468750Y-8731250D01*
X48418750Y-6350000D02*
X67468750Y-6350000D01*
X48418750Y-8731250D02*
X48418750Y-6350000D01*
X29368750Y-8731250D02*
X48418750Y-8731250D01*
X29368750Y-11112500D02*
X29368750Y-8731250D01*
X22225000Y-11112500D02*
X29368750Y-11112500D01*
X-9525000Y-8731250D02*
X-9525000Y9525000D01*
X15875000Y-11112500D02*
X-9525000Y-11112500D01*
X15875000Y-8731250D02*
X-9525000Y-8731250D01*
X22225000Y-11112500D02*
X22225000Y-8731250D01*
X15875000Y-11112500D02*
X15875000Y-8731250D01*
X85725000Y-102393750D02*
X42862500Y-102393750D01*
X85725000Y-104775000D02*
X85725000Y-102393750D01*
X128587500Y-38100000D02*
X128587500Y-85725000D01*
X123825000Y-85725000D02*
X123825000Y-38100000D01*
X123825000Y-104775000D02*
X123825000Y-92075000D01*
X128587500Y-104775000D02*
X128587500Y-92075000D01*
X123825000Y-85725000D02*
X128587500Y-85725000D01*
X123825000Y-38100000D02*
X128587500Y-38100000D01*
X144462500Y-104775000D02*
X128587500Y-104775000D01*
X166687500Y-102393750D02*
X166687500Y-104775000D01*
X223043750Y-102393750D02*
X166687500Y-102393750D01*
X261937500Y-11112500D02*
X261937500Y-85725000D01*
X185737500Y14287500D02*
X204787500Y14287500D01*
X147637500Y9525000D02*
X147637500Y0D01*
X147637500Y9525000D02*
X166687500Y9525000D01*
X128587500Y0D02*
X147637500Y0D01*
X123825000Y-31750000D02*
X128587500Y-31750000D01*
X104775000Y0D02*
X123825000Y0D01*
X104775000Y9525000D02*
X104775000Y0D01*
X47625000Y14287500D02*
X66675000Y14287500D01*
X123825000Y-104775000D02*
X107950000Y-104775000D01*
M02*
