G04 #@! TF.GenerationSoftware,KiCad,Pcbnew,(5.1.10-1-10_14)*
G04 #@! TF.CreationDate,2021-09-12T14:18:21+10:00*
G04 #@! TF.ProjectId,pcb,7063622e-6b69-4636-9164-5f7063625858,rev?*
G04 #@! TF.SameCoordinates,Original*
G04 #@! TF.FileFunction,Soldermask,Top*
G04 #@! TF.FilePolarity,Negative*
%FSLAX46Y46*%
G04 Gerber Fmt 4.6, Leading zero omitted, Abs format (unit mm)*
G04 Created by KiCad (PCBNEW (5.1.10-1-10_14)) date 2021-09-12 14:18:21*
%MOMM*%
%LPD*%
G01*
G04 APERTURE LIST*
%ADD10O,3.400000X3.400000*%
%ADD11C,3.000000*%
%ADD12C,3.987800*%
%ADD13C,1.750000*%
%ADD14C,3.048000*%
%ADD15O,1.750000X1.200000*%
%ADD16O,1.700000X1.700000*%
%ADD17R,1.700000X1.700000*%
%ADD18C,0.787400*%
%ADD19C,2.000000*%
%ADD20R,2.000000X3.200000*%
%ADD21R,2.000000X2.000000*%
%ADD22R,3.200000X2.000000*%
%ADD23C,0.650000*%
%ADD24O,2.100000X1.000000*%
%ADD25O,1.600000X1.000000*%
%ADD26C,0.900000*%
G04 APERTURE END LIST*
D10*
X246062500Y-46656250D03*
X246062500Y-42656250D03*
X6350000Y-42656250D03*
X6350000Y-46656250D03*
D11*
X119380000Y-93027500D03*
D12*
X114300000Y-90487500D03*
D11*
X116840000Y-86677500D03*
D13*
X114300000Y-85407500D03*
X114300000Y-95567500D03*
X5080000Y-119062500D03*
X-5080000Y-119062500D03*
D11*
X-3810000Y-116522500D03*
D12*
X0Y-119062500D03*
D11*
X2540000Y-113982500D03*
D13*
X162242500Y-57150000D03*
X152082500Y-57150000D03*
D11*
X153352500Y-54610000D03*
D12*
X157162500Y-57150000D03*
D11*
X159702500Y-52070000D03*
X140652500Y-80645000D03*
D12*
X138112500Y-85725000D03*
D11*
X134302500Y-83185000D03*
D13*
X133032500Y-85725000D03*
X143192500Y-85725000D03*
D14*
X131127500Y-73787000D03*
D12*
X146367500Y-73787000D03*
X146367500Y-97663000D03*
D14*
X131127500Y-97663000D03*
D13*
X43180000Y-73818750D03*
X33020000Y-73818750D03*
D11*
X34290000Y-71278750D03*
D12*
X38100000Y-73818750D03*
D11*
X40640000Y-68738750D03*
D15*
X256381250Y-43656250D03*
G36*
G01*
X257006251Y-46256250D02*
X255756249Y-46256250D01*
G75*
G02*
X255506250Y-46006251I0J249999D01*
G01*
X255506250Y-45306249D01*
G75*
G02*
X255756249Y-45056250I249999J0D01*
G01*
X257006251Y-45056250D01*
G75*
G02*
X257256250Y-45306249I0J-249999D01*
G01*
X257256250Y-46006251D01*
G75*
G02*
X257006251Y-46256250I-249999J0D01*
G01*
G37*
X-3968750Y-45656250D03*
G36*
G01*
X-4593751Y-43056250D02*
X-3343749Y-43056250D01*
G75*
G02*
X-3093750Y-43306249I0J-249999D01*
G01*
X-3093750Y-44006251D01*
G75*
G02*
X-3343749Y-44256250I-249999J0D01*
G01*
X-4593751Y-44256250D01*
G75*
G02*
X-4843750Y-44006251I0J249999D01*
G01*
X-4843750Y-43306249D01*
G75*
G02*
X-4593751Y-43056250I249999J0D01*
G01*
G37*
D16*
X200501250Y-100012500D03*
X197961250Y-100012500D03*
X195421250Y-100012500D03*
D17*
X192881250Y-100012500D03*
D18*
X97790000Y-8985250D03*
X96520000Y-8985250D03*
X92710000Y-8985250D03*
X93980000Y-8985250D03*
X95250000Y-8985250D03*
X92710000Y-10858500D03*
X93980000Y-10858500D03*
X97790000Y-10858500D03*
X96520000Y-10858500D03*
X95250000Y-10858500D03*
D13*
X5080000Y0D03*
X-5080000Y0D03*
D11*
X-3810000Y2540000D03*
D12*
X0Y0D03*
D11*
X2540000Y5080000D03*
D18*
X19050000Y-8985250D03*
X17780000Y-8985250D03*
X16510000Y-8985250D03*
X20320000Y-8985250D03*
X21590000Y-8985250D03*
D13*
X24130000Y-19050000D03*
X13970000Y-19050000D03*
D11*
X15240000Y-16510000D03*
D12*
X19050000Y-19050000D03*
D11*
X21590000Y-13970000D03*
D13*
X181292500Y2381250D03*
X171132500Y2381250D03*
D11*
X172402500Y4921250D03*
D12*
X176212500Y2381250D03*
D11*
X178752500Y7461250D03*
D18*
X233362500Y-10858500D03*
X234632500Y-10858500D03*
X235902500Y-10858500D03*
X232092500Y-10858500D03*
X230822500Y-10858500D03*
D13*
X219392500Y-73818750D03*
X209232500Y-73818750D03*
D11*
X210502500Y-71278750D03*
D12*
X214312500Y-73818750D03*
D11*
X216852500Y-68738750D03*
D13*
X257492500Y-76200000D03*
X247332500Y-76200000D03*
D11*
X248602500Y-73660000D03*
D12*
X252412500Y-76200000D03*
D11*
X254952500Y-71120000D03*
D13*
X228282500Y-100012500D03*
X238442500Y-100012500D03*
D11*
X237172500Y-102552500D03*
D12*
X233362500Y-100012500D03*
D11*
X230822500Y-105092500D03*
D13*
X219392500Y-119062500D03*
X209232500Y-119062500D03*
D11*
X210502500Y-116522500D03*
D12*
X214312500Y-119062500D03*
D11*
X216852500Y-113982500D03*
D13*
X257492500Y-119062500D03*
X247332500Y-119062500D03*
D11*
X248602500Y-116522500D03*
D12*
X252412500Y-119062500D03*
D11*
X254952500Y-113982500D03*
D18*
X19050000Y-85979000D03*
X17780000Y-85979000D03*
X16510000Y-85979000D03*
X20320000Y-85979000D03*
X21590000Y-85979000D03*
X19050000Y-91027250D03*
X20320000Y-91027250D03*
X21590000Y-91027250D03*
X17780000Y-91027250D03*
X16510000Y-91027250D03*
X233362500Y-85979000D03*
X232092500Y-85979000D03*
X230822500Y-85979000D03*
X234632500Y-85979000D03*
X235902500Y-85979000D03*
X233362500Y-91027250D03*
X234632500Y-91027250D03*
X235902500Y-91027250D03*
X232092500Y-91027250D03*
X230822500Y-91027250D03*
D19*
X135612500Y-35575000D03*
X140612500Y-35575000D03*
D20*
X132512500Y-28575000D03*
X143712500Y-28575000D03*
D19*
X135612500Y-21075000D03*
X138112500Y-21075000D03*
D21*
X140612500Y-21075000D03*
D19*
X107300000Y-28456250D03*
X107300000Y-33456250D03*
D22*
X114300000Y-25356250D03*
X114300000Y-36556250D03*
D19*
X121800000Y-28456250D03*
X121800000Y-30956250D03*
D21*
X121800000Y-33456250D03*
D18*
X145097500Y-109283500D03*
X146367500Y-109283500D03*
X150177500Y-109283500D03*
X148907500Y-109283500D03*
X147637500Y-109283500D03*
X150177500Y-105029000D03*
X148907500Y-105029000D03*
X145097500Y-105029000D03*
X146367500Y-105029000D03*
X147637500Y-105029000D03*
D13*
X183673750Y-116681250D03*
X173513750Y-116681250D03*
D11*
X174783750Y-114141250D03*
D12*
X178593750Y-116681250D03*
D11*
X181133750Y-111601250D03*
D13*
X157162500Y-116363750D03*
X157162500Y-126523750D03*
D11*
X154622500Y-125253750D03*
D12*
X157162500Y-121443750D03*
D11*
X152082500Y-118903750D03*
D13*
X138112500Y-116363750D03*
X138112500Y-126523750D03*
D11*
X135572500Y-125253750D03*
D12*
X138112500Y-121443750D03*
D11*
X133032500Y-118903750D03*
D18*
X104775000Y-105029000D03*
X103505000Y-105029000D03*
X102235000Y-105029000D03*
X106045000Y-105029000D03*
X107315000Y-105029000D03*
X104775000Y-109283500D03*
X106045000Y-109283500D03*
X107315000Y-109283500D03*
X103505000Y-109283500D03*
X102235000Y-109283500D03*
X235902500Y-8985250D03*
X234632500Y-8985250D03*
X230822500Y-8985250D03*
X232092500Y-8985250D03*
X233362500Y-8985250D03*
X154622500Y-10858500D03*
X155892500Y-10858500D03*
X159702500Y-10858500D03*
X158432500Y-10858500D03*
X157162500Y-10858500D03*
X159702500Y-8985250D03*
X158432500Y-8985250D03*
X154622500Y-8985250D03*
X155892500Y-8985250D03*
X157162500Y-8985250D03*
X16510000Y-10858500D03*
X17780000Y-10858500D03*
X21590000Y-10858500D03*
X20320000Y-10858500D03*
X19050000Y-10858500D03*
X124079000Y-32385000D03*
X124079000Y-33655000D03*
X124079000Y-37465000D03*
X124079000Y-36195000D03*
X124079000Y-34925000D03*
X128333500Y-37465000D03*
X128333500Y-36195000D03*
X128333500Y-32385000D03*
X128333500Y-33655000D03*
X128333500Y-34925000D03*
X128333500Y-91440000D03*
X128333500Y-90170000D03*
X128333500Y-86360000D03*
X128333500Y-87630000D03*
X128333500Y-88900000D03*
X124079000Y-86360000D03*
X124079000Y-87630000D03*
X124079000Y-91440000D03*
X124079000Y-90170000D03*
X124079000Y-88900000D03*
D13*
X114300000Y-126523750D03*
X114300000Y-116363750D03*
D11*
X116840000Y-117633750D03*
D12*
X114300000Y-121443750D03*
D11*
X119380000Y-123983750D03*
D13*
X95250000Y-126523750D03*
X95250000Y-116363750D03*
D11*
X97790000Y-117633750D03*
D12*
X95250000Y-121443750D03*
D11*
X100330000Y-123983750D03*
D13*
X78898750Y-116681250D03*
X68738750Y-116681250D03*
D11*
X70008750Y-114141250D03*
D12*
X73818750Y-116681250D03*
D11*
X76358750Y-111601250D03*
D13*
X119380000Y-9525000D03*
X109220000Y-9525000D03*
D11*
X110490000Y-6985000D03*
D12*
X114300000Y-9525000D03*
D11*
X116840000Y-4445000D03*
D12*
X180943250Y-84613750D03*
X204819250Y-84613750D03*
D14*
X180943250Y-99853750D03*
X204819250Y-99853750D03*
D13*
X197961250Y-92868750D03*
X187801250Y-92868750D03*
D11*
X189071250Y-90328750D03*
D12*
X192881250Y-92868750D03*
D11*
X195421250Y-87788750D03*
D13*
X200342500Y-71437500D03*
X190182500Y-71437500D03*
D11*
X191452500Y-68897500D03*
D12*
X195262500Y-71437500D03*
D11*
X197802500Y-66357500D03*
X133032500Y-49847500D03*
D12*
X138112500Y-52387500D03*
D11*
X135572500Y-56197500D03*
D13*
X138112500Y-57467500D03*
X138112500Y-47307500D03*
X114300000Y-64611250D03*
X114300000Y-54451250D03*
D11*
X116840000Y-55721250D03*
D12*
X114300000Y-59531250D03*
D11*
X119380000Y-62071250D03*
D13*
X114300000Y-36036250D03*
X114300000Y-25876250D03*
D11*
X116840000Y-27146250D03*
D12*
X114300000Y-30956250D03*
D11*
X119380000Y-33496250D03*
D12*
X52355750Y-84613750D03*
X76231750Y-84613750D03*
D14*
X52355750Y-99853750D03*
X76231750Y-99853750D03*
D13*
X69373750Y-92868750D03*
X59213750Y-92868750D03*
D11*
X60483750Y-90328750D03*
D12*
X64293750Y-92868750D03*
D11*
X66833750Y-87788750D03*
D23*
X257275000Y-28290000D03*
X257275000Y-22510000D03*
D24*
X256745000Y-21080000D03*
X256745000Y-29720000D03*
D25*
X260925000Y-21080000D03*
X260925000Y-29720000D03*
D23*
X-4862500Y-22510000D03*
X-4862500Y-28290000D03*
D24*
X-4332500Y-29720000D03*
X-4332500Y-21080000D03*
D25*
X-8512500Y-29720000D03*
X-8512500Y-21080000D03*
D13*
X257492500Y-57150000D03*
X247332500Y-57150000D03*
D11*
X248602500Y-54610000D03*
D12*
X252412500Y-57150000D03*
D11*
X254952500Y-52070000D03*
D13*
X257492500Y-38100000D03*
X247332500Y-38100000D03*
D11*
X248602500Y-35560000D03*
D12*
X252412500Y-38100000D03*
D11*
X254952500Y-33020000D03*
D13*
X257492500Y-19050000D03*
X247332500Y-19050000D03*
D11*
X248602500Y-16510000D03*
D12*
X252412500Y-19050000D03*
D11*
X254952500Y-13970000D03*
D13*
X257492500Y0D03*
X247332500Y0D03*
D11*
X248602500Y2540000D03*
D12*
X252412500Y0D03*
D11*
X254952500Y5080000D03*
D13*
X238442500Y-76200000D03*
X228282500Y-76200000D03*
D11*
X229552500Y-73660000D03*
D12*
X233362500Y-76200000D03*
D11*
X235902500Y-71120000D03*
D13*
X238442500Y-57150000D03*
X228282500Y-57150000D03*
D11*
X229552500Y-54610000D03*
D12*
X233362500Y-57150000D03*
D11*
X235902500Y-52070000D03*
D13*
X238442500Y-38100000D03*
X228282500Y-38100000D03*
D11*
X229552500Y-35560000D03*
D12*
X233362500Y-38100000D03*
D11*
X235902500Y-33020000D03*
D13*
X238442500Y-19050000D03*
X228282500Y-19050000D03*
D11*
X229552500Y-16510000D03*
D12*
X233362500Y-19050000D03*
D11*
X235902500Y-13970000D03*
D13*
X238442500Y0D03*
X228282500Y0D03*
D11*
X229552500Y2540000D03*
D12*
X233362500Y0D03*
D11*
X235902500Y5080000D03*
D13*
X219392500Y-54768750D03*
X209232500Y-54768750D03*
D11*
X210502500Y-52228750D03*
D12*
X214312500Y-54768750D03*
D11*
X216852500Y-49688750D03*
D13*
X219392500Y-35718750D03*
X209232500Y-35718750D03*
D11*
X210502500Y-33178750D03*
D12*
X214312500Y-35718750D03*
D11*
X216852500Y-30638750D03*
D13*
X219392500Y-16668750D03*
X209232500Y-16668750D03*
D11*
X210502500Y-14128750D03*
D12*
X214312500Y-16668750D03*
D11*
X216852500Y-11588750D03*
D13*
X219392500Y2381250D03*
X209232500Y2381250D03*
D11*
X210502500Y4921250D03*
D12*
X214312500Y2381250D03*
D11*
X216852500Y7461250D03*
D13*
X200342500Y-52387500D03*
X190182500Y-52387500D03*
D11*
X191452500Y-49847500D03*
D12*
X195262500Y-52387500D03*
D11*
X197802500Y-47307500D03*
D13*
X200342500Y-33337500D03*
X190182500Y-33337500D03*
D11*
X191452500Y-30797500D03*
D12*
X195262500Y-33337500D03*
D11*
X197802500Y-28257500D03*
D13*
X200342500Y-14287500D03*
X190182500Y-14287500D03*
D11*
X191452500Y-11747500D03*
D12*
X195262500Y-14287500D03*
D11*
X197802500Y-9207500D03*
D13*
X200342500Y4762500D03*
X190182500Y4762500D03*
D11*
X191452500Y7302500D03*
D12*
X195262500Y4762500D03*
D11*
X197802500Y9842500D03*
D13*
X181292500Y-73818750D03*
X171132500Y-73818750D03*
D11*
X172402500Y-71278750D03*
D12*
X176212500Y-73818750D03*
D11*
X178752500Y-68738750D03*
D13*
X181292500Y-54768750D03*
X171132500Y-54768750D03*
D11*
X172402500Y-52228750D03*
D12*
X176212500Y-54768750D03*
D11*
X178752500Y-49688750D03*
D13*
X181292500Y-35718750D03*
X171132500Y-35718750D03*
D11*
X172402500Y-33178750D03*
D12*
X176212500Y-35718750D03*
D11*
X178752500Y-30638750D03*
D13*
X181292500Y-16668750D03*
X171132500Y-16668750D03*
D11*
X172402500Y-14128750D03*
D12*
X176212500Y-16668750D03*
D11*
X178752500Y-11588750D03*
D13*
X238442500Y-119062500D03*
X228282500Y-119062500D03*
D11*
X229552500Y-116522500D03*
D12*
X233362500Y-119062500D03*
D11*
X235902500Y-113982500D03*
D13*
X162242500Y-95250000D03*
X152082500Y-95250000D03*
D11*
X153352500Y-92710000D03*
D12*
X157162500Y-95250000D03*
D11*
X159702500Y-90170000D03*
D13*
X162242500Y-76200000D03*
X152082500Y-76200000D03*
D11*
X153352500Y-73660000D03*
D12*
X157162500Y-76200000D03*
D11*
X159702500Y-71120000D03*
D13*
X162242500Y-38100000D03*
X152082500Y-38100000D03*
D11*
X153352500Y-35560000D03*
D12*
X157162500Y-38100000D03*
D11*
X159702500Y-33020000D03*
D13*
X162242500Y-19050000D03*
X152082500Y-19050000D03*
D11*
X153352500Y-16510000D03*
D12*
X157162500Y-19050000D03*
D11*
X159702500Y-13970000D03*
D13*
X162242500Y0D03*
X152082500Y0D03*
D11*
X153352500Y2540000D03*
D12*
X157162500Y0D03*
D11*
X159702500Y5080000D03*
D13*
X143192500Y-28575000D03*
X133032500Y-28575000D03*
D11*
X134302500Y-26035000D03*
D12*
X138112500Y-28575000D03*
D11*
X140652500Y-23495000D03*
D13*
X143192500Y-9525000D03*
X133032500Y-9525000D03*
D11*
X134302500Y-6985000D03*
D12*
X138112500Y-9525000D03*
D11*
X140652500Y-4445000D03*
D26*
X255675000Y-83673750D03*
X258675000Y-83673750D03*
D13*
X100330000Y-95250000D03*
X90170000Y-95250000D03*
D11*
X91440000Y-92710000D03*
D12*
X95250000Y-95250000D03*
D11*
X97790000Y-90170000D03*
D26*
X-6262500Y-83673750D03*
X-3262500Y-83673750D03*
D13*
X100330000Y-76200000D03*
X90170000Y-76200000D03*
D11*
X91440000Y-73660000D03*
D12*
X95250000Y-76200000D03*
D11*
X97790000Y-71120000D03*
D13*
X100330000Y-57150000D03*
X90170000Y-57150000D03*
D11*
X91440000Y-54610000D03*
D12*
X95250000Y-57150000D03*
D11*
X97790000Y-52070000D03*
D13*
X100330000Y-38100000D03*
X90170000Y-38100000D03*
D11*
X91440000Y-35560000D03*
D12*
X95250000Y-38100000D03*
D11*
X97790000Y-33020000D03*
D13*
X100330000Y-19050000D03*
X90170000Y-19050000D03*
D11*
X91440000Y-16510000D03*
D12*
X95250000Y-19050000D03*
D11*
X97790000Y-13970000D03*
D13*
X100330000Y0D03*
X90170000Y0D03*
D11*
X91440000Y2540000D03*
D12*
X95250000Y0D03*
D11*
X97790000Y5080000D03*
D13*
X81280000Y-73818750D03*
X71120000Y-73818750D03*
D11*
X72390000Y-71278750D03*
D12*
X76200000Y-73818750D03*
D11*
X78740000Y-68738750D03*
D13*
X81280000Y-54768750D03*
X71120000Y-54768750D03*
D11*
X72390000Y-52228750D03*
D12*
X76200000Y-54768750D03*
D11*
X78740000Y-49688750D03*
D13*
X81280000Y-35718750D03*
X71120000Y-35718750D03*
D11*
X72390000Y-33178750D03*
D12*
X76200000Y-35718750D03*
D11*
X78740000Y-30638750D03*
D13*
X81280000Y-16668750D03*
X71120000Y-16668750D03*
D11*
X72390000Y-14128750D03*
D12*
X76200000Y-16668750D03*
D11*
X78740000Y-11588750D03*
D13*
X81280000Y2381250D03*
X71120000Y2381250D03*
D11*
X72390000Y4921250D03*
D12*
X76200000Y2381250D03*
D11*
X78740000Y7461250D03*
D13*
X62230000Y-71437500D03*
X52070000Y-71437500D03*
D11*
X53340000Y-68897500D03*
D12*
X57150000Y-71437500D03*
D11*
X59690000Y-66357500D03*
D13*
X62230000Y-52387500D03*
X52070000Y-52387500D03*
D11*
X53340000Y-49847500D03*
D12*
X57150000Y-52387500D03*
D11*
X59690000Y-47307500D03*
D13*
X62230000Y-33337500D03*
X52070000Y-33337500D03*
D11*
X53340000Y-30797500D03*
D12*
X57150000Y-33337500D03*
D11*
X59690000Y-28257500D03*
D13*
X62230000Y-14287500D03*
X52070000Y-14287500D03*
D11*
X53340000Y-11747500D03*
D12*
X57150000Y-14287500D03*
D11*
X59690000Y-9207500D03*
D13*
X62230000Y4762500D03*
X52070000Y4762500D03*
D11*
X53340000Y7302500D03*
D12*
X57150000Y4762500D03*
D11*
X59690000Y9842500D03*
D13*
X43180000Y-54768750D03*
X33020000Y-54768750D03*
D11*
X34290000Y-52228750D03*
D12*
X38100000Y-54768750D03*
D11*
X40640000Y-49688750D03*
D13*
X43180000Y-35718750D03*
X33020000Y-35718750D03*
D11*
X34290000Y-33178750D03*
D12*
X38100000Y-35718750D03*
D11*
X40640000Y-30638750D03*
D13*
X43180000Y-16668750D03*
X33020000Y-16668750D03*
D11*
X34290000Y-14128750D03*
D12*
X38100000Y-16668750D03*
D11*
X40640000Y-11588750D03*
D13*
X43180000Y2381250D03*
X33020000Y2381250D03*
D11*
X34290000Y4921250D03*
D12*
X38100000Y2381250D03*
D11*
X40640000Y7461250D03*
D13*
X43180000Y-119062500D03*
X33020000Y-119062500D03*
D11*
X34290000Y-116522500D03*
D12*
X38100000Y-119062500D03*
D11*
X40640000Y-113982500D03*
D13*
X24130000Y-76200000D03*
X13970000Y-76200000D03*
D11*
X15240000Y-73660000D03*
D12*
X19050000Y-76200000D03*
D11*
X21590000Y-71120000D03*
D13*
X24130000Y-57150000D03*
X13970000Y-57150000D03*
D11*
X15240000Y-54610000D03*
D12*
X19050000Y-57150000D03*
D11*
X21590000Y-52070000D03*
D13*
X24130000Y-38100000D03*
X13970000Y-38100000D03*
D11*
X15240000Y-35560000D03*
D12*
X19050000Y-38100000D03*
D11*
X21590000Y-33020000D03*
D13*
X24130000Y0D03*
X13970000Y0D03*
D11*
X15240000Y2540000D03*
D12*
X19050000Y0D03*
D11*
X21590000Y5080000D03*
D13*
X24130000Y-119062500D03*
X13970000Y-119062500D03*
D11*
X15240000Y-116522500D03*
D12*
X19050000Y-119062500D03*
D11*
X21590000Y-113982500D03*
D13*
X13970000Y-100012500D03*
X24130000Y-100012500D03*
D11*
X22860000Y-102552500D03*
D12*
X19050000Y-100012500D03*
D11*
X16510000Y-105092500D03*
D13*
X5080000Y-76200000D03*
X-5080000Y-76200000D03*
D11*
X-3810000Y-73660000D03*
D12*
X0Y-76200000D03*
D11*
X2540000Y-71120000D03*
D13*
X5080000Y-57150000D03*
X-5080000Y-57150000D03*
D11*
X-3810000Y-54610000D03*
D12*
X0Y-57150000D03*
D11*
X2540000Y-52070000D03*
D13*
X5080000Y-38100000D03*
X-5080000Y-38100000D03*
D11*
X-3810000Y-35560000D03*
D12*
X0Y-38100000D03*
D11*
X2540000Y-33020000D03*
D13*
X5080000Y-19050000D03*
X-5080000Y-19050000D03*
D11*
X-3810000Y-16510000D03*
D12*
X0Y-19050000D03*
D11*
X2540000Y-13970000D03*
D16*
X56673750Y-100012500D03*
X59213750Y-100012500D03*
X61753750Y-100012500D03*
D17*
X64293750Y-100012500D03*
M02*
