G04 #@! TF.GenerationSoftware,KiCad,Pcbnew,(5.1.10-1-10_14)*
G04 #@! TF.CreationDate,2021-09-12T14:18:21+10:00*
G04 #@! TF.ProjectId,pcb,7063622e-6b69-4636-9164-5f7063625858,rev?*
G04 #@! TF.SameCoordinates,Original*
G04 #@! TF.FileFunction,Soldermask,Bot*
G04 #@! TF.FilePolarity,Negative*
%FSLAX46Y46*%
G04 Gerber Fmt 4.6, Leading zero omitted, Abs format (unit mm)*
G04 Created by KiCad (PCBNEW (5.1.10-1-10_14)) date 2021-09-12 14:18:21*
%MOMM*%
%LPD*%
G01*
G04 APERTURE LIST*
%ADD10O,3.400000X3.400000*%
%ADD11C,3.000000*%
%ADD12C,3.987800*%
%ADD13C,1.750000*%
%ADD14R,2.500000X2.550000*%
%ADD15R,1.700000X1.000000*%
%ADD16R,2.550000X2.500000*%
%ADD17C,3.048000*%
%ADD18R,1.524000X0.700000*%
%ADD19R,0.700000X1.524000*%
%ADD20O,1.750000X1.200000*%
%ADD21O,1.700000X1.700000*%
%ADD22R,1.700000X1.700000*%
%ADD23C,0.787400*%
%ADD24R,1.200000X0.900000*%
%ADD25C,2.000000*%
%ADD26R,2.000000X3.200000*%
%ADD27R,2.000000X2.000000*%
%ADD28R,3.200000X2.000000*%
%ADD29R,2.450000X0.600000*%
%ADD30R,2.450000X0.300000*%
%ADD31C,0.650000*%
%ADD32R,0.800000X0.900000*%
%ADD33R,1.060000X0.650000*%
%ADD34R,1.000000X0.800000*%
%ADD35R,0.700000X1.500000*%
%ADD36C,0.900000*%
%ADD37R,0.900000X1.200000*%
%ADD38R,1.000000X1.400000*%
%ADD39R,1.200000X1.400000*%
G04 APERTURE END LIST*
D10*
X246062500Y-46656250D03*
X246062500Y-42656250D03*
X6350000Y-42656250D03*
X6350000Y-46656250D03*
D11*
X119380000Y-93027500D03*
D12*
X114300000Y-90487500D03*
D11*
X116840000Y-86677500D03*
D13*
X114300000Y-85407500D03*
X114300000Y-95567500D03*
D14*
X116840000Y-83402500D03*
X119380000Y-96329500D03*
D15*
X79350000Y-90968750D03*
X73050000Y-90968750D03*
X79350000Y-94768750D03*
X73050000Y-94768750D03*
D16*
X5842000Y-113982500D03*
X-7085000Y-116522500D03*
D13*
X5080000Y-119062500D03*
X-5080000Y-119062500D03*
D11*
X-3810000Y-116522500D03*
D12*
X0Y-119062500D03*
D11*
X2540000Y-113982500D03*
D16*
X163004500Y-52070000D03*
X150077500Y-54610000D03*
D13*
X162242500Y-57150000D03*
X152082500Y-57150000D03*
D11*
X153352500Y-54610000D03*
D12*
X157162500Y-57150000D03*
D11*
X159702500Y-52070000D03*
X140652500Y-80645000D03*
D12*
X138112500Y-85725000D03*
D11*
X134302500Y-83185000D03*
D13*
X133032500Y-85725000D03*
X143192500Y-85725000D03*
D16*
X131027500Y-83185000D03*
X143954500Y-80645000D03*
D17*
X131127500Y-73787000D03*
D12*
X146367500Y-73787000D03*
X146367500Y-97663000D03*
D17*
X131127500Y-97663000D03*
D18*
X221062500Y-98568750D03*
X221062500Y-97468750D03*
X221062500Y-96368750D03*
X221062500Y-95268750D03*
X221062500Y-94168750D03*
X221062500Y-93068750D03*
X221062500Y-91968750D03*
X221062500Y-90868750D03*
X221062500Y-89768750D03*
X221062500Y-88668750D03*
X221062500Y-87568750D03*
X221062500Y-86468750D03*
X221062500Y-85368750D03*
D19*
X219812500Y-83868750D03*
X218712500Y-83868750D03*
X217612500Y-83868750D03*
X216512500Y-83868750D03*
X215412500Y-83868750D03*
X214312500Y-83868750D03*
X213212500Y-83868750D03*
X212112500Y-83868750D03*
X211012500Y-83868750D03*
X209912500Y-83868750D03*
X208812500Y-83868750D03*
D18*
X207562500Y-85368750D03*
X207562500Y-86468750D03*
X207562500Y-87568750D03*
X207562500Y-88668750D03*
X207562500Y-89768750D03*
X207562500Y-90868750D03*
X207562500Y-91968750D03*
X207562500Y-93068750D03*
X207562500Y-94168750D03*
X207562500Y-95268750D03*
X207562500Y-96368750D03*
X207562500Y-97468750D03*
X207562500Y-98568750D03*
D16*
X43942000Y-68738750D03*
X31015000Y-71278750D03*
D13*
X43180000Y-73818750D03*
X33020000Y-73818750D03*
D11*
X34290000Y-71278750D03*
D12*
X38100000Y-73818750D03*
D11*
X40640000Y-68738750D03*
D20*
X256381250Y-43656250D03*
G36*
G01*
X257006251Y-46256250D02*
X255756249Y-46256250D01*
G75*
G02*
X255506250Y-46006251I0J249999D01*
G01*
X255506250Y-45306249D01*
G75*
G02*
X255756249Y-45056250I249999J0D01*
G01*
X257006251Y-45056250D01*
G75*
G02*
X257256250Y-45306249I0J-249999D01*
G01*
X257256250Y-46006251D01*
G75*
G02*
X257006251Y-46256250I-249999J0D01*
G01*
G37*
X-3968750Y-45656250D03*
G36*
G01*
X-4593751Y-43056250D02*
X-3343749Y-43056250D01*
G75*
G02*
X-3093750Y-43306249I0J-249999D01*
G01*
X-3093750Y-44006251D01*
G75*
G02*
X-3343749Y-44256250I-249999J0D01*
G01*
X-4593751Y-44256250D01*
G75*
G02*
X-4843750Y-44006251I0J249999D01*
G01*
X-4843750Y-43306249D01*
G75*
G02*
X-4593751Y-43056250I249999J0D01*
G01*
G37*
D21*
X200501250Y-100012500D03*
X197961250Y-100012500D03*
X195421250Y-100012500D03*
D22*
X192881250Y-100012500D03*
D23*
X97790000Y-8985250D03*
X96520000Y-8985250D03*
X92710000Y-8985250D03*
X93980000Y-8985250D03*
X95250000Y-8985250D03*
X92710000Y-10858500D03*
X93980000Y-10858500D03*
X97790000Y-10858500D03*
X96520000Y-10858500D03*
X95250000Y-10858500D03*
D16*
X5842000Y5080000D03*
X-7085000Y2540000D03*
D13*
X5080000Y0D03*
X-5080000Y0D03*
D11*
X-3810000Y2540000D03*
D12*
X0Y0D03*
D11*
X2540000Y5080000D03*
D23*
X19050000Y-8985250D03*
X17780000Y-8985250D03*
X16510000Y-8985250D03*
X20320000Y-8985250D03*
X21590000Y-8985250D03*
D16*
X24892000Y-13970000D03*
X11965000Y-16510000D03*
D13*
X24130000Y-19050000D03*
X13970000Y-19050000D03*
D11*
X15240000Y-16510000D03*
D12*
X19050000Y-19050000D03*
D11*
X21590000Y-13970000D03*
D16*
X182054500Y7461250D03*
X169127500Y4921250D03*
D13*
X181292500Y2381250D03*
X171132500Y2381250D03*
D11*
X172402500Y4921250D03*
D12*
X176212500Y2381250D03*
D11*
X178752500Y7461250D03*
D23*
X233362500Y-10858500D03*
X234632500Y-10858500D03*
X235902500Y-10858500D03*
X232092500Y-10858500D03*
X230822500Y-10858500D03*
D16*
X220154500Y-68738750D03*
X207227500Y-71278750D03*
D13*
X219392500Y-73818750D03*
X209232500Y-73818750D03*
D11*
X210502500Y-71278750D03*
D12*
X214312500Y-73818750D03*
D11*
X216852500Y-68738750D03*
D16*
X258254500Y-71120000D03*
X245327500Y-73660000D03*
D13*
X257492500Y-76200000D03*
X247332500Y-76200000D03*
D11*
X248602500Y-73660000D03*
D12*
X252412500Y-76200000D03*
D11*
X254952500Y-71120000D03*
D24*
X11906250Y-80900000D03*
X11906250Y-84200000D03*
D18*
X49612500Y-98568750D03*
X49612500Y-97468750D03*
X49612500Y-96368750D03*
X49612500Y-95268750D03*
X49612500Y-94168750D03*
X49612500Y-93068750D03*
X49612500Y-91968750D03*
X49612500Y-90868750D03*
X49612500Y-89768750D03*
X49612500Y-88668750D03*
X49612500Y-87568750D03*
X49612500Y-86468750D03*
X49612500Y-85368750D03*
D19*
X48362500Y-83868750D03*
X47262500Y-83868750D03*
X46162500Y-83868750D03*
X45062500Y-83868750D03*
X43962500Y-83868750D03*
X42862500Y-83868750D03*
X41762500Y-83868750D03*
X40662500Y-83868750D03*
X39562500Y-83868750D03*
X38462500Y-83868750D03*
X37362500Y-83868750D03*
D18*
X36112500Y-85368750D03*
X36112500Y-86468750D03*
X36112500Y-87568750D03*
X36112500Y-88668750D03*
X36112500Y-89768750D03*
X36112500Y-90868750D03*
X36112500Y-91968750D03*
X36112500Y-93068750D03*
X36112500Y-94168750D03*
X36112500Y-95268750D03*
X36112500Y-96368750D03*
X36112500Y-97468750D03*
X36112500Y-98568750D03*
D16*
X227520500Y-105092500D03*
X240447500Y-102552500D03*
D13*
X228282500Y-100012500D03*
X238442500Y-100012500D03*
D11*
X237172500Y-102552500D03*
D12*
X233362500Y-100012500D03*
D11*
X230822500Y-105092500D03*
D16*
X220154500Y-113982500D03*
X207227500Y-116522500D03*
D13*
X219392500Y-119062500D03*
X209232500Y-119062500D03*
D11*
X210502500Y-116522500D03*
D12*
X214312500Y-119062500D03*
D11*
X216852500Y-113982500D03*
D16*
X258254500Y-113982500D03*
X245327500Y-116522500D03*
D13*
X257492500Y-119062500D03*
X247332500Y-119062500D03*
D11*
X248602500Y-116522500D03*
D12*
X252412500Y-119062500D03*
D11*
X254952500Y-113982500D03*
D23*
X19050000Y-85979000D03*
X17780000Y-85979000D03*
X16510000Y-85979000D03*
X20320000Y-85979000D03*
X21590000Y-85979000D03*
X19050000Y-91027250D03*
X20320000Y-91027250D03*
X21590000Y-91027250D03*
X17780000Y-91027250D03*
X16510000Y-91027250D03*
G36*
G01*
X229843751Y-82150000D02*
X228943749Y-82150000D01*
G75*
G02*
X228693750Y-81900001I0J249999D01*
G01*
X228693750Y-81374999D01*
G75*
G02*
X228943749Y-81125000I249999J0D01*
G01*
X229843751Y-81125000D01*
G75*
G02*
X230093750Y-81374999I0J-249999D01*
G01*
X230093750Y-81900001D01*
G75*
G02*
X229843751Y-82150000I-249999J0D01*
G01*
G37*
G36*
G01*
X229843751Y-83975000D02*
X228943749Y-83975000D01*
G75*
G02*
X228693750Y-83725001I0J249999D01*
G01*
X228693750Y-83199999D01*
G75*
G02*
X228943749Y-82950000I249999J0D01*
G01*
X229843751Y-82950000D01*
G75*
G02*
X230093750Y-83199999I0J-249999D01*
G01*
X230093750Y-83725001D01*
G75*
G02*
X229843751Y-83975000I-249999J0D01*
G01*
G37*
G36*
G01*
X251275001Y-82150000D02*
X250374999Y-82150000D01*
G75*
G02*
X250125000Y-81900001I0J249999D01*
G01*
X250125000Y-81374999D01*
G75*
G02*
X250374999Y-81125000I249999J0D01*
G01*
X251275001Y-81125000D01*
G75*
G02*
X251525000Y-81374999I0J-249999D01*
G01*
X251525000Y-81900001D01*
G75*
G02*
X251275001Y-82150000I-249999J0D01*
G01*
G37*
G36*
G01*
X251275001Y-83975000D02*
X250374999Y-83975000D01*
G75*
G02*
X250125000Y-83725001I0J249999D01*
G01*
X250125000Y-83199999D01*
G75*
G02*
X250374999Y-82950000I249999J0D01*
G01*
X251275001Y-82950000D01*
G75*
G02*
X251525000Y-83199999I0J-249999D01*
G01*
X251525000Y-83725001D01*
G75*
G02*
X251275001Y-83975000I-249999J0D01*
G01*
G37*
X233362500Y-85979000D03*
X232092500Y-85979000D03*
X230822500Y-85979000D03*
X234632500Y-85979000D03*
X235902500Y-85979000D03*
X233362500Y-91027250D03*
X234632500Y-91027250D03*
X235902500Y-91027250D03*
X232092500Y-91027250D03*
X230822500Y-91027250D03*
D25*
X135612500Y-35575000D03*
X140612500Y-35575000D03*
D26*
X132512500Y-28575000D03*
X143712500Y-28575000D03*
D25*
X135612500Y-21075000D03*
X138112500Y-21075000D03*
D27*
X140612500Y-21075000D03*
D25*
X107300000Y-28456250D03*
X107300000Y-33456250D03*
D28*
X114300000Y-25356250D03*
X114300000Y-36556250D03*
D25*
X121800000Y-28456250D03*
X121800000Y-30956250D03*
D27*
X121800000Y-33456250D03*
G36*
G01*
X161606250Y-82981249D02*
X161606250Y-84281251D01*
G75*
G02*
X161356251Y-84531250I-249999J0D01*
G01*
X160656249Y-84531250D01*
G75*
G02*
X160406250Y-84281251I0J249999D01*
G01*
X160406250Y-82981249D01*
G75*
G02*
X160656249Y-82731250I249999J0D01*
G01*
X161356251Y-82731250D01*
G75*
G02*
X161606250Y-82981249I0J-249999D01*
G01*
G37*
G36*
G01*
X168206250Y-82981249D02*
X168206250Y-84281251D01*
G75*
G02*
X167956251Y-84531250I-249999J0D01*
G01*
X167256249Y-84531250D01*
G75*
G02*
X167006250Y-84281251I0J249999D01*
G01*
X167006250Y-82981249D01*
G75*
G02*
X167256249Y-82731250I249999J0D01*
G01*
X167956251Y-82731250D01*
G75*
G02*
X168206250Y-82981249I0J-249999D01*
G01*
G37*
G36*
G01*
X162606250Y-79131250D02*
X162606250Y-80381250D01*
G75*
G02*
X162456250Y-80531250I-150000J0D01*
G01*
X162156250Y-80531250D01*
G75*
G02*
X162006250Y-80381250I0J150000D01*
G01*
X162006250Y-79131250D01*
G75*
G02*
X162156250Y-78981250I150000J0D01*
G01*
X162456250Y-78981250D01*
G75*
G02*
X162606250Y-79131250I0J-150000D01*
G01*
G37*
G36*
G01*
X163606250Y-79131250D02*
X163606250Y-80381250D01*
G75*
G02*
X163456250Y-80531250I-150000J0D01*
G01*
X163156250Y-80531250D01*
G75*
G02*
X163006250Y-80381250I0J150000D01*
G01*
X163006250Y-79131250D01*
G75*
G02*
X163156250Y-78981250I150000J0D01*
G01*
X163456250Y-78981250D01*
G75*
G02*
X163606250Y-79131250I0J-150000D01*
G01*
G37*
G36*
G01*
X164606250Y-79131250D02*
X164606250Y-80381250D01*
G75*
G02*
X164456250Y-80531250I-150000J0D01*
G01*
X164156250Y-80531250D01*
G75*
G02*
X164006250Y-80381250I0J150000D01*
G01*
X164006250Y-79131250D01*
G75*
G02*
X164156250Y-78981250I150000J0D01*
G01*
X164456250Y-78981250D01*
G75*
G02*
X164606250Y-79131250I0J-150000D01*
G01*
G37*
G36*
G01*
X165606250Y-79131250D02*
X165606250Y-80381250D01*
G75*
G02*
X165456250Y-80531250I-150000J0D01*
G01*
X165156250Y-80531250D01*
G75*
G02*
X165006250Y-80381250I0J150000D01*
G01*
X165006250Y-79131250D01*
G75*
G02*
X165156250Y-78981250I150000J0D01*
G01*
X165456250Y-78981250D01*
G75*
G02*
X165606250Y-79131250I0J-150000D01*
G01*
G37*
G36*
G01*
X166606250Y-79131250D02*
X166606250Y-80381250D01*
G75*
G02*
X166456250Y-80531250I-150000J0D01*
G01*
X166156250Y-80531250D01*
G75*
G02*
X166006250Y-80381250I0J150000D01*
G01*
X166006250Y-79131250D01*
G75*
G02*
X166156250Y-78981250I150000J0D01*
G01*
X166456250Y-78981250D01*
G75*
G02*
X166606250Y-79131250I0J-150000D01*
G01*
G37*
G36*
G01*
X167006250Y-112281251D02*
X167006250Y-110981249D01*
G75*
G02*
X167256249Y-110731250I249999J0D01*
G01*
X167956251Y-110731250D01*
G75*
G02*
X168206250Y-110981249I0J-249999D01*
G01*
X168206250Y-112281251D01*
G75*
G02*
X167956251Y-112531250I-249999J0D01*
G01*
X167256249Y-112531250D01*
G75*
G02*
X167006250Y-112281251I0J249999D01*
G01*
G37*
G36*
G01*
X160406250Y-112281251D02*
X160406250Y-110981249D01*
G75*
G02*
X160656249Y-110731250I249999J0D01*
G01*
X161356251Y-110731250D01*
G75*
G02*
X161606250Y-110981249I0J-249999D01*
G01*
X161606250Y-112281251D01*
G75*
G02*
X161356251Y-112531250I-249999J0D01*
G01*
X160656249Y-112531250D01*
G75*
G02*
X160406250Y-112281251I0J249999D01*
G01*
G37*
G36*
G01*
X166006250Y-116131250D02*
X166006250Y-114881250D01*
G75*
G02*
X166156250Y-114731250I150000J0D01*
G01*
X166456250Y-114731250D01*
G75*
G02*
X166606250Y-114881250I0J-150000D01*
G01*
X166606250Y-116131250D01*
G75*
G02*
X166456250Y-116281250I-150000J0D01*
G01*
X166156250Y-116281250D01*
G75*
G02*
X166006250Y-116131250I0J150000D01*
G01*
G37*
G36*
G01*
X165006250Y-116131250D02*
X165006250Y-114881250D01*
G75*
G02*
X165156250Y-114731250I150000J0D01*
G01*
X165456250Y-114731250D01*
G75*
G02*
X165606250Y-114881250I0J-150000D01*
G01*
X165606250Y-116131250D01*
G75*
G02*
X165456250Y-116281250I-150000J0D01*
G01*
X165156250Y-116281250D01*
G75*
G02*
X165006250Y-116131250I0J150000D01*
G01*
G37*
G36*
G01*
X164006250Y-116131250D02*
X164006250Y-114881250D01*
G75*
G02*
X164156250Y-114731250I150000J0D01*
G01*
X164456250Y-114731250D01*
G75*
G02*
X164606250Y-114881250I0J-150000D01*
G01*
X164606250Y-116131250D01*
G75*
G02*
X164456250Y-116281250I-150000J0D01*
G01*
X164156250Y-116281250D01*
G75*
G02*
X164006250Y-116131250I0J150000D01*
G01*
G37*
G36*
G01*
X163006250Y-116131250D02*
X163006250Y-114881250D01*
G75*
G02*
X163156250Y-114731250I150000J0D01*
G01*
X163456250Y-114731250D01*
G75*
G02*
X163606250Y-114881250I0J-150000D01*
G01*
X163606250Y-116131250D01*
G75*
G02*
X163456250Y-116281250I-150000J0D01*
G01*
X163156250Y-116281250D01*
G75*
G02*
X163006250Y-116131250I0J150000D01*
G01*
G37*
G36*
G01*
X162006250Y-116131250D02*
X162006250Y-114881250D01*
G75*
G02*
X162156250Y-114731250I150000J0D01*
G01*
X162456250Y-114731250D01*
G75*
G02*
X162606250Y-114881250I0J-150000D01*
G01*
X162606250Y-116131250D01*
G75*
G02*
X162456250Y-116281250I-150000J0D01*
G01*
X162156250Y-116281250D01*
G75*
G02*
X162006250Y-116131250I0J150000D01*
G01*
G37*
G36*
G01*
X236062500Y-93231251D02*
X236062500Y-91931249D01*
G75*
G02*
X236312499Y-91681250I249999J0D01*
G01*
X237012501Y-91681250D01*
G75*
G02*
X237262500Y-91931249I0J-249999D01*
G01*
X237262500Y-93231251D01*
G75*
G02*
X237012501Y-93481250I-249999J0D01*
G01*
X236312499Y-93481250D01*
G75*
G02*
X236062500Y-93231251I0J249999D01*
G01*
G37*
G36*
G01*
X229462500Y-93231251D02*
X229462500Y-91931249D01*
G75*
G02*
X229712499Y-91681250I249999J0D01*
G01*
X230412501Y-91681250D01*
G75*
G02*
X230662500Y-91931249I0J-249999D01*
G01*
X230662500Y-93231251D01*
G75*
G02*
X230412501Y-93481250I-249999J0D01*
G01*
X229712499Y-93481250D01*
G75*
G02*
X229462500Y-93231251I0J249999D01*
G01*
G37*
G36*
G01*
X235062500Y-97081250D02*
X235062500Y-95831250D01*
G75*
G02*
X235212500Y-95681250I150000J0D01*
G01*
X235512500Y-95681250D01*
G75*
G02*
X235662500Y-95831250I0J-150000D01*
G01*
X235662500Y-97081250D01*
G75*
G02*
X235512500Y-97231250I-150000J0D01*
G01*
X235212500Y-97231250D01*
G75*
G02*
X235062500Y-97081250I0J150000D01*
G01*
G37*
G36*
G01*
X234062500Y-97081250D02*
X234062500Y-95831250D01*
G75*
G02*
X234212500Y-95681250I150000J0D01*
G01*
X234512500Y-95681250D01*
G75*
G02*
X234662500Y-95831250I0J-150000D01*
G01*
X234662500Y-97081250D01*
G75*
G02*
X234512500Y-97231250I-150000J0D01*
G01*
X234212500Y-97231250D01*
G75*
G02*
X234062500Y-97081250I0J150000D01*
G01*
G37*
G36*
G01*
X233062500Y-97081250D02*
X233062500Y-95831250D01*
G75*
G02*
X233212500Y-95681250I150000J0D01*
G01*
X233512500Y-95681250D01*
G75*
G02*
X233662500Y-95831250I0J-150000D01*
G01*
X233662500Y-97081250D01*
G75*
G02*
X233512500Y-97231250I-150000J0D01*
G01*
X233212500Y-97231250D01*
G75*
G02*
X233062500Y-97081250I0J150000D01*
G01*
G37*
G36*
G01*
X232062500Y-97081250D02*
X232062500Y-95831250D01*
G75*
G02*
X232212500Y-95681250I150000J0D01*
G01*
X232512500Y-95681250D01*
G75*
G02*
X232662500Y-95831250I0J-150000D01*
G01*
X232662500Y-97081250D01*
G75*
G02*
X232512500Y-97231250I-150000J0D01*
G01*
X232212500Y-97231250D01*
G75*
G02*
X232062500Y-97081250I0J150000D01*
G01*
G37*
G36*
G01*
X231062500Y-97081250D02*
X231062500Y-95831250D01*
G75*
G02*
X231212500Y-95681250I150000J0D01*
G01*
X231512500Y-95681250D01*
G75*
G02*
X231662500Y-95831250I0J-150000D01*
G01*
X231662500Y-97081250D01*
G75*
G02*
X231512500Y-97231250I-150000J0D01*
G01*
X231212500Y-97231250D01*
G75*
G02*
X231062500Y-97081250I0J150000D01*
G01*
G37*
G36*
G01*
X230662500Y-63931249D02*
X230662500Y-65231251D01*
G75*
G02*
X230412501Y-65481250I-249999J0D01*
G01*
X229712499Y-65481250D01*
G75*
G02*
X229462500Y-65231251I0J249999D01*
G01*
X229462500Y-63931249D01*
G75*
G02*
X229712499Y-63681250I249999J0D01*
G01*
X230412501Y-63681250D01*
G75*
G02*
X230662500Y-63931249I0J-249999D01*
G01*
G37*
G36*
G01*
X237262500Y-63931249D02*
X237262500Y-65231251D01*
G75*
G02*
X237012501Y-65481250I-249999J0D01*
G01*
X236312499Y-65481250D01*
G75*
G02*
X236062500Y-65231251I0J249999D01*
G01*
X236062500Y-63931249D01*
G75*
G02*
X236312499Y-63681250I249999J0D01*
G01*
X237012501Y-63681250D01*
G75*
G02*
X237262500Y-63931249I0J-249999D01*
G01*
G37*
G36*
G01*
X231662500Y-60081250D02*
X231662500Y-61331250D01*
G75*
G02*
X231512500Y-61481250I-150000J0D01*
G01*
X231212500Y-61481250D01*
G75*
G02*
X231062500Y-61331250I0J150000D01*
G01*
X231062500Y-60081250D01*
G75*
G02*
X231212500Y-59931250I150000J0D01*
G01*
X231512500Y-59931250D01*
G75*
G02*
X231662500Y-60081250I0J-150000D01*
G01*
G37*
G36*
G01*
X232662500Y-60081250D02*
X232662500Y-61331250D01*
G75*
G02*
X232512500Y-61481250I-150000J0D01*
G01*
X232212500Y-61481250D01*
G75*
G02*
X232062500Y-61331250I0J150000D01*
G01*
X232062500Y-60081250D01*
G75*
G02*
X232212500Y-59931250I150000J0D01*
G01*
X232512500Y-59931250D01*
G75*
G02*
X232662500Y-60081250I0J-150000D01*
G01*
G37*
G36*
G01*
X233662500Y-60081250D02*
X233662500Y-61331250D01*
G75*
G02*
X233512500Y-61481250I-150000J0D01*
G01*
X233212500Y-61481250D01*
G75*
G02*
X233062500Y-61331250I0J150000D01*
G01*
X233062500Y-60081250D01*
G75*
G02*
X233212500Y-59931250I150000J0D01*
G01*
X233512500Y-59931250D01*
G75*
G02*
X233662500Y-60081250I0J-150000D01*
G01*
G37*
G36*
G01*
X234662500Y-60081250D02*
X234662500Y-61331250D01*
G75*
G02*
X234512500Y-61481250I-150000J0D01*
G01*
X234212500Y-61481250D01*
G75*
G02*
X234062500Y-61331250I0J150000D01*
G01*
X234062500Y-60081250D01*
G75*
G02*
X234212500Y-59931250I150000J0D01*
G01*
X234512500Y-59931250D01*
G75*
G02*
X234662500Y-60081250I0J-150000D01*
G01*
G37*
G36*
G01*
X235662500Y-60081250D02*
X235662500Y-61331250D01*
G75*
G02*
X235512500Y-61481250I-150000J0D01*
G01*
X235212500Y-61481250D01*
G75*
G02*
X235062500Y-61331250I0J150000D01*
G01*
X235062500Y-60081250D01*
G75*
G02*
X235212500Y-59931250I150000J0D01*
G01*
X235512500Y-59931250D01*
G75*
G02*
X235662500Y-60081250I0J-150000D01*
G01*
G37*
G36*
G01*
X90806250Y-112281251D02*
X90806250Y-110981249D01*
G75*
G02*
X91056249Y-110731250I249999J0D01*
G01*
X91756251Y-110731250D01*
G75*
G02*
X92006250Y-110981249I0J-249999D01*
G01*
X92006250Y-112281251D01*
G75*
G02*
X91756251Y-112531250I-249999J0D01*
G01*
X91056249Y-112531250D01*
G75*
G02*
X90806250Y-112281251I0J249999D01*
G01*
G37*
G36*
G01*
X84206250Y-112281251D02*
X84206250Y-110981249D01*
G75*
G02*
X84456249Y-110731250I249999J0D01*
G01*
X85156251Y-110731250D01*
G75*
G02*
X85406250Y-110981249I0J-249999D01*
G01*
X85406250Y-112281251D01*
G75*
G02*
X85156251Y-112531250I-249999J0D01*
G01*
X84456249Y-112531250D01*
G75*
G02*
X84206250Y-112281251I0J249999D01*
G01*
G37*
G36*
G01*
X89806250Y-116131250D02*
X89806250Y-114881250D01*
G75*
G02*
X89956250Y-114731250I150000J0D01*
G01*
X90256250Y-114731250D01*
G75*
G02*
X90406250Y-114881250I0J-150000D01*
G01*
X90406250Y-116131250D01*
G75*
G02*
X90256250Y-116281250I-150000J0D01*
G01*
X89956250Y-116281250D01*
G75*
G02*
X89806250Y-116131250I0J150000D01*
G01*
G37*
G36*
G01*
X88806250Y-116131250D02*
X88806250Y-114881250D01*
G75*
G02*
X88956250Y-114731250I150000J0D01*
G01*
X89256250Y-114731250D01*
G75*
G02*
X89406250Y-114881250I0J-150000D01*
G01*
X89406250Y-116131250D01*
G75*
G02*
X89256250Y-116281250I-150000J0D01*
G01*
X88956250Y-116281250D01*
G75*
G02*
X88806250Y-116131250I0J150000D01*
G01*
G37*
G36*
G01*
X87806250Y-116131250D02*
X87806250Y-114881250D01*
G75*
G02*
X87956250Y-114731250I150000J0D01*
G01*
X88256250Y-114731250D01*
G75*
G02*
X88406250Y-114881250I0J-150000D01*
G01*
X88406250Y-116131250D01*
G75*
G02*
X88256250Y-116281250I-150000J0D01*
G01*
X87956250Y-116281250D01*
G75*
G02*
X87806250Y-116131250I0J150000D01*
G01*
G37*
G36*
G01*
X86806250Y-116131250D02*
X86806250Y-114881250D01*
G75*
G02*
X86956250Y-114731250I150000J0D01*
G01*
X87256250Y-114731250D01*
G75*
G02*
X87406250Y-114881250I0J-150000D01*
G01*
X87406250Y-116131250D01*
G75*
G02*
X87256250Y-116281250I-150000J0D01*
G01*
X86956250Y-116281250D01*
G75*
G02*
X86806250Y-116131250I0J150000D01*
G01*
G37*
G36*
G01*
X85806250Y-116131250D02*
X85806250Y-114881250D01*
G75*
G02*
X85956250Y-114731250I150000J0D01*
G01*
X86256250Y-114731250D01*
G75*
G02*
X86406250Y-114881250I0J-150000D01*
G01*
X86406250Y-116131250D01*
G75*
G02*
X86256250Y-116281250I-150000J0D01*
G01*
X85956250Y-116281250D01*
G75*
G02*
X85806250Y-116131250I0J150000D01*
G01*
G37*
G36*
G01*
X85406250Y-82981249D02*
X85406250Y-84281251D01*
G75*
G02*
X85156251Y-84531250I-249999J0D01*
G01*
X84456249Y-84531250D01*
G75*
G02*
X84206250Y-84281251I0J249999D01*
G01*
X84206250Y-82981249D01*
G75*
G02*
X84456249Y-82731250I249999J0D01*
G01*
X85156251Y-82731250D01*
G75*
G02*
X85406250Y-82981249I0J-249999D01*
G01*
G37*
G36*
G01*
X92006250Y-82981249D02*
X92006250Y-84281251D01*
G75*
G02*
X91756251Y-84531250I-249999J0D01*
G01*
X91056249Y-84531250D01*
G75*
G02*
X90806250Y-84281251I0J249999D01*
G01*
X90806250Y-82981249D01*
G75*
G02*
X91056249Y-82731250I249999J0D01*
G01*
X91756251Y-82731250D01*
G75*
G02*
X92006250Y-82981249I0J-249999D01*
G01*
G37*
G36*
G01*
X86406250Y-79131250D02*
X86406250Y-80381250D01*
G75*
G02*
X86256250Y-80531250I-150000J0D01*
G01*
X85956250Y-80531250D01*
G75*
G02*
X85806250Y-80381250I0J150000D01*
G01*
X85806250Y-79131250D01*
G75*
G02*
X85956250Y-78981250I150000J0D01*
G01*
X86256250Y-78981250D01*
G75*
G02*
X86406250Y-79131250I0J-150000D01*
G01*
G37*
G36*
G01*
X87406250Y-79131250D02*
X87406250Y-80381250D01*
G75*
G02*
X87256250Y-80531250I-150000J0D01*
G01*
X86956250Y-80531250D01*
G75*
G02*
X86806250Y-80381250I0J150000D01*
G01*
X86806250Y-79131250D01*
G75*
G02*
X86956250Y-78981250I150000J0D01*
G01*
X87256250Y-78981250D01*
G75*
G02*
X87406250Y-79131250I0J-150000D01*
G01*
G37*
G36*
G01*
X88406250Y-79131250D02*
X88406250Y-80381250D01*
G75*
G02*
X88256250Y-80531250I-150000J0D01*
G01*
X87956250Y-80531250D01*
G75*
G02*
X87806250Y-80381250I0J150000D01*
G01*
X87806250Y-79131250D01*
G75*
G02*
X87956250Y-78981250I150000J0D01*
G01*
X88256250Y-78981250D01*
G75*
G02*
X88406250Y-79131250I0J-150000D01*
G01*
G37*
G36*
G01*
X89406250Y-79131250D02*
X89406250Y-80381250D01*
G75*
G02*
X89256250Y-80531250I-150000J0D01*
G01*
X88956250Y-80531250D01*
G75*
G02*
X88806250Y-80381250I0J150000D01*
G01*
X88806250Y-79131250D01*
G75*
G02*
X88956250Y-78981250I150000J0D01*
G01*
X89256250Y-78981250D01*
G75*
G02*
X89406250Y-79131250I0J-150000D01*
G01*
G37*
G36*
G01*
X90406250Y-79131250D02*
X90406250Y-80381250D01*
G75*
G02*
X90256250Y-80531250I-150000J0D01*
G01*
X89956250Y-80531250D01*
G75*
G02*
X89806250Y-80381250I0J150000D01*
G01*
X89806250Y-79131250D01*
G75*
G02*
X89956250Y-78981250I150000J0D01*
G01*
X90256250Y-78981250D01*
G75*
G02*
X90406250Y-79131250I0J-150000D01*
G01*
G37*
G36*
G01*
X16350000Y-63931249D02*
X16350000Y-65231251D01*
G75*
G02*
X16100001Y-65481250I-249999J0D01*
G01*
X15399999Y-65481250D01*
G75*
G02*
X15150000Y-65231251I0J249999D01*
G01*
X15150000Y-63931249D01*
G75*
G02*
X15399999Y-63681250I249999J0D01*
G01*
X16100001Y-63681250D01*
G75*
G02*
X16350000Y-63931249I0J-249999D01*
G01*
G37*
G36*
G01*
X22950000Y-63931249D02*
X22950000Y-65231251D01*
G75*
G02*
X22700001Y-65481250I-249999J0D01*
G01*
X21999999Y-65481250D01*
G75*
G02*
X21750000Y-65231251I0J249999D01*
G01*
X21750000Y-63931249D01*
G75*
G02*
X21999999Y-63681250I249999J0D01*
G01*
X22700001Y-63681250D01*
G75*
G02*
X22950000Y-63931249I0J-249999D01*
G01*
G37*
G36*
G01*
X17350000Y-60081250D02*
X17350000Y-61331250D01*
G75*
G02*
X17200000Y-61481250I-150000J0D01*
G01*
X16900000Y-61481250D01*
G75*
G02*
X16750000Y-61331250I0J150000D01*
G01*
X16750000Y-60081250D01*
G75*
G02*
X16900000Y-59931250I150000J0D01*
G01*
X17200000Y-59931250D01*
G75*
G02*
X17350000Y-60081250I0J-150000D01*
G01*
G37*
G36*
G01*
X18350000Y-60081250D02*
X18350000Y-61331250D01*
G75*
G02*
X18200000Y-61481250I-150000J0D01*
G01*
X17900000Y-61481250D01*
G75*
G02*
X17750000Y-61331250I0J150000D01*
G01*
X17750000Y-60081250D01*
G75*
G02*
X17900000Y-59931250I150000J0D01*
G01*
X18200000Y-59931250D01*
G75*
G02*
X18350000Y-60081250I0J-150000D01*
G01*
G37*
G36*
G01*
X19350000Y-60081250D02*
X19350000Y-61331250D01*
G75*
G02*
X19200000Y-61481250I-150000J0D01*
G01*
X18900000Y-61481250D01*
G75*
G02*
X18750000Y-61331250I0J150000D01*
G01*
X18750000Y-60081250D01*
G75*
G02*
X18900000Y-59931250I150000J0D01*
G01*
X19200000Y-59931250D01*
G75*
G02*
X19350000Y-60081250I0J-150000D01*
G01*
G37*
G36*
G01*
X20350000Y-60081250D02*
X20350000Y-61331250D01*
G75*
G02*
X20200000Y-61481250I-150000J0D01*
G01*
X19900000Y-61481250D01*
G75*
G02*
X19750000Y-61331250I0J150000D01*
G01*
X19750000Y-60081250D01*
G75*
G02*
X19900000Y-59931250I150000J0D01*
G01*
X20200000Y-59931250D01*
G75*
G02*
X20350000Y-60081250I0J-150000D01*
G01*
G37*
G36*
G01*
X21350000Y-60081250D02*
X21350000Y-61331250D01*
G75*
G02*
X21200000Y-61481250I-150000J0D01*
G01*
X20900000Y-61481250D01*
G75*
G02*
X20750000Y-61331250I0J150000D01*
G01*
X20750000Y-60081250D01*
G75*
G02*
X20900000Y-59931250I150000J0D01*
G01*
X21200000Y-59931250D01*
G75*
G02*
X21350000Y-60081250I0J-150000D01*
G01*
G37*
G36*
G01*
X21750000Y-93231251D02*
X21750000Y-91931249D01*
G75*
G02*
X21999999Y-91681250I249999J0D01*
G01*
X22700001Y-91681250D01*
G75*
G02*
X22950000Y-91931249I0J-249999D01*
G01*
X22950000Y-93231251D01*
G75*
G02*
X22700001Y-93481250I-249999J0D01*
G01*
X21999999Y-93481250D01*
G75*
G02*
X21750000Y-93231251I0J249999D01*
G01*
G37*
G36*
G01*
X15150000Y-93231251D02*
X15150000Y-91931249D01*
G75*
G02*
X15399999Y-91681250I249999J0D01*
G01*
X16100001Y-91681250D01*
G75*
G02*
X16350000Y-91931249I0J-249999D01*
G01*
X16350000Y-93231251D01*
G75*
G02*
X16100001Y-93481250I-249999J0D01*
G01*
X15399999Y-93481250D01*
G75*
G02*
X15150000Y-93231251I0J249999D01*
G01*
G37*
G36*
G01*
X20750000Y-97081250D02*
X20750000Y-95831250D01*
G75*
G02*
X20900000Y-95681250I150000J0D01*
G01*
X21200000Y-95681250D01*
G75*
G02*
X21350000Y-95831250I0J-150000D01*
G01*
X21350000Y-97081250D01*
G75*
G02*
X21200000Y-97231250I-150000J0D01*
G01*
X20900000Y-97231250D01*
G75*
G02*
X20750000Y-97081250I0J150000D01*
G01*
G37*
G36*
G01*
X19750000Y-97081250D02*
X19750000Y-95831250D01*
G75*
G02*
X19900000Y-95681250I150000J0D01*
G01*
X20200000Y-95681250D01*
G75*
G02*
X20350000Y-95831250I0J-150000D01*
G01*
X20350000Y-97081250D01*
G75*
G02*
X20200000Y-97231250I-150000J0D01*
G01*
X19900000Y-97231250D01*
G75*
G02*
X19750000Y-97081250I0J150000D01*
G01*
G37*
G36*
G01*
X18750000Y-97081250D02*
X18750000Y-95831250D01*
G75*
G02*
X18900000Y-95681250I150000J0D01*
G01*
X19200000Y-95681250D01*
G75*
G02*
X19350000Y-95831250I0J-150000D01*
G01*
X19350000Y-97081250D01*
G75*
G02*
X19200000Y-97231250I-150000J0D01*
G01*
X18900000Y-97231250D01*
G75*
G02*
X18750000Y-97081250I0J150000D01*
G01*
G37*
G36*
G01*
X17750000Y-97081250D02*
X17750000Y-95831250D01*
G75*
G02*
X17900000Y-95681250I150000J0D01*
G01*
X18200000Y-95681250D01*
G75*
G02*
X18350000Y-95831250I0J-150000D01*
G01*
X18350000Y-97081250D01*
G75*
G02*
X18200000Y-97231250I-150000J0D01*
G01*
X17900000Y-97231250D01*
G75*
G02*
X17750000Y-97081250I0J150000D01*
G01*
G37*
G36*
G01*
X16750000Y-97081250D02*
X16750000Y-95831250D01*
G75*
G02*
X16900000Y-95681250I150000J0D01*
G01*
X17200000Y-95681250D01*
G75*
G02*
X17350000Y-95831250I0J-150000D01*
G01*
X17350000Y-97081250D01*
G75*
G02*
X17200000Y-97231250I-150000J0D01*
G01*
X16900000Y-97231250D01*
G75*
G02*
X16750000Y-97081250I0J150000D01*
G01*
G37*
D23*
X145097500Y-109283500D03*
X146367500Y-109283500D03*
X150177500Y-109283500D03*
X148907500Y-109283500D03*
X147637500Y-109283500D03*
X150177500Y-105029000D03*
X148907500Y-105029000D03*
X145097500Y-105029000D03*
X146367500Y-105029000D03*
X147637500Y-105029000D03*
D16*
X184435750Y-111601250D03*
X171508750Y-114141250D03*
D13*
X183673750Y-116681250D03*
X173513750Y-116681250D03*
D11*
X174783750Y-114141250D03*
D12*
X178593750Y-116681250D03*
D11*
X181133750Y-111601250D03*
D14*
X152082500Y-115601750D03*
X154622500Y-128528750D03*
D13*
X157162500Y-116363750D03*
X157162500Y-126523750D03*
D11*
X154622500Y-125253750D03*
D12*
X157162500Y-121443750D03*
D11*
X152082500Y-118903750D03*
D14*
X133032500Y-115601750D03*
X135572500Y-128528750D03*
D13*
X138112500Y-116363750D03*
X138112500Y-126523750D03*
D11*
X135572500Y-125253750D03*
D12*
X138112500Y-121443750D03*
D11*
X133032500Y-118903750D03*
D23*
X104775000Y-105029000D03*
X103505000Y-105029000D03*
X102235000Y-105029000D03*
X106045000Y-105029000D03*
X107315000Y-105029000D03*
X104775000Y-109283500D03*
X106045000Y-109283500D03*
X107315000Y-109283500D03*
X103505000Y-109283500D03*
X102235000Y-109283500D03*
X235902500Y-8985250D03*
X234632500Y-8985250D03*
X230822500Y-8985250D03*
X232092500Y-8985250D03*
X233362500Y-8985250D03*
X154622500Y-10858500D03*
X155892500Y-10858500D03*
X159702500Y-10858500D03*
X158432500Y-10858500D03*
X157162500Y-10858500D03*
X159702500Y-8985250D03*
X158432500Y-8985250D03*
X154622500Y-8985250D03*
X155892500Y-8985250D03*
X157162500Y-8985250D03*
X16510000Y-10858500D03*
X17780000Y-10858500D03*
X21590000Y-10858500D03*
X20320000Y-10858500D03*
X19050000Y-10858500D03*
X124079000Y-32385000D03*
X124079000Y-33655000D03*
X124079000Y-37465000D03*
X124079000Y-36195000D03*
X124079000Y-34925000D03*
X128333500Y-37465000D03*
X128333500Y-36195000D03*
X128333500Y-32385000D03*
X128333500Y-33655000D03*
X128333500Y-34925000D03*
X128333500Y-91440000D03*
X128333500Y-90170000D03*
X128333500Y-86360000D03*
X128333500Y-87630000D03*
X128333500Y-88900000D03*
X124079000Y-86360000D03*
X124079000Y-87630000D03*
X124079000Y-91440000D03*
X124079000Y-90170000D03*
X124079000Y-88900000D03*
D15*
X179362500Y-90968750D03*
X173062500Y-90968750D03*
X179362500Y-94768750D03*
X173062500Y-94768750D03*
D14*
X119380000Y-127285750D03*
X116840000Y-114358750D03*
D13*
X114300000Y-126523750D03*
X114300000Y-116363750D03*
D11*
X116840000Y-117633750D03*
D12*
X114300000Y-121443750D03*
D11*
X119380000Y-123983750D03*
D14*
X100330000Y-127285750D03*
X97790000Y-114358750D03*
D13*
X95250000Y-126523750D03*
X95250000Y-116363750D03*
D11*
X97790000Y-117633750D03*
D12*
X95250000Y-121443750D03*
D11*
X100330000Y-123983750D03*
D16*
X79660750Y-111601250D03*
X66733750Y-114141250D03*
D13*
X78898750Y-116681250D03*
X68738750Y-116681250D03*
D11*
X70008750Y-114141250D03*
D12*
X73818750Y-116681250D03*
D11*
X76358750Y-111601250D03*
D16*
X120142000Y-4445000D03*
X107215000Y-6985000D03*
D13*
X119380000Y-9525000D03*
X109220000Y-9525000D03*
D11*
X110490000Y-6985000D03*
D12*
X114300000Y-9525000D03*
D11*
X116840000Y-4445000D03*
D24*
X160337500Y-36450000D03*
X160337500Y-39750000D03*
D12*
X180943250Y-84613750D03*
X204819250Y-84613750D03*
D17*
X180943250Y-99853750D03*
X204819250Y-99853750D03*
D16*
X198723250Y-87788750D03*
X185796250Y-90328750D03*
D13*
X197961250Y-92868750D03*
X187801250Y-92868750D03*
D11*
X189071250Y-90328750D03*
D12*
X192881250Y-92868750D03*
D11*
X195421250Y-87788750D03*
D16*
X201104500Y-66357500D03*
X188177500Y-68897500D03*
D13*
X200342500Y-71437500D03*
X190182500Y-71437500D03*
D11*
X191452500Y-68897500D03*
D12*
X195262500Y-71437500D03*
D11*
X197802500Y-66357500D03*
X133032500Y-49847500D03*
D12*
X138112500Y-52387500D03*
D11*
X135572500Y-56197500D03*
D13*
X138112500Y-57467500D03*
X138112500Y-47307500D03*
D14*
X135572500Y-59472500D03*
X133032500Y-46545500D03*
X119380000Y-65373250D03*
X116840000Y-52446250D03*
D13*
X114300000Y-64611250D03*
X114300000Y-54451250D03*
D11*
X116840000Y-55721250D03*
D12*
X114300000Y-59531250D03*
D11*
X119380000Y-62071250D03*
D14*
X119380000Y-36798250D03*
X116840000Y-23871250D03*
D13*
X114300000Y-36036250D03*
X114300000Y-25876250D03*
D11*
X116840000Y-27146250D03*
D12*
X114300000Y-30956250D03*
D11*
X119380000Y-33496250D03*
D12*
X52355750Y-84613750D03*
X76231750Y-84613750D03*
D17*
X52355750Y-99853750D03*
X76231750Y-99853750D03*
D16*
X70135750Y-87788750D03*
X57208750Y-90328750D03*
D13*
X69373750Y-92868750D03*
X59213750Y-92868750D03*
D11*
X60483750Y-90328750D03*
D12*
X64293750Y-92868750D03*
D11*
X66833750Y-87788750D03*
D29*
X255330000Y-28625000D03*
X255330000Y-22175000D03*
X255330000Y-27850000D03*
X255330000Y-22950000D03*
D30*
X255330000Y-23650000D03*
X255330000Y-27150000D03*
X255330000Y-24150000D03*
X255330000Y-26650000D03*
X255330000Y-24650000D03*
X255330000Y-26150000D03*
X255330000Y-25650000D03*
X255330000Y-25150000D03*
D31*
X257275000Y-28290000D03*
X257275000Y-22510000D03*
D29*
X-2917500Y-22175000D03*
X-2917500Y-28625000D03*
X-2917500Y-22950000D03*
X-2917500Y-27850000D03*
D30*
X-2917500Y-27150000D03*
X-2917500Y-23650000D03*
X-2917500Y-26650000D03*
X-2917500Y-24150000D03*
X-2917500Y-26150000D03*
X-2917500Y-24650000D03*
X-2917500Y-25150000D03*
X-2917500Y-25650000D03*
D31*
X-4862500Y-22510000D03*
X-4862500Y-28290000D03*
D32*
X234950000Y-83550000D03*
X235900000Y-81550000D03*
X234000000Y-81550000D03*
D33*
X248750000Y-83500000D03*
X248750000Y-81600000D03*
X246550000Y-81600000D03*
X246550000Y-82550000D03*
X246550000Y-83500000D03*
X3662500Y-81600000D03*
X3662500Y-83500000D03*
X5862500Y-83500000D03*
X5862500Y-82550000D03*
X5862500Y-81600000D03*
D32*
X17462500Y-83550000D03*
X18412500Y-81550000D03*
X16512500Y-81550000D03*
D16*
X258254500Y-52070000D03*
X245327500Y-54610000D03*
D13*
X257492500Y-57150000D03*
X247332500Y-57150000D03*
D11*
X248602500Y-54610000D03*
D12*
X252412500Y-57150000D03*
D11*
X254952500Y-52070000D03*
D16*
X258254500Y-33020000D03*
X245327500Y-35560000D03*
D13*
X257492500Y-38100000D03*
X247332500Y-38100000D03*
D11*
X248602500Y-35560000D03*
D12*
X252412500Y-38100000D03*
D11*
X254952500Y-33020000D03*
D16*
X258254500Y-13970000D03*
X245327500Y-16510000D03*
D13*
X257492500Y-19050000D03*
X247332500Y-19050000D03*
D11*
X248602500Y-16510000D03*
D12*
X252412500Y-19050000D03*
D11*
X254952500Y-13970000D03*
D16*
X258254500Y5080000D03*
X245327500Y2540000D03*
D13*
X257492500Y0D03*
X247332500Y0D03*
D11*
X248602500Y2540000D03*
D12*
X252412500Y0D03*
D11*
X254952500Y5080000D03*
D16*
X239204500Y-71120000D03*
X226277500Y-73660000D03*
D13*
X238442500Y-76200000D03*
X228282500Y-76200000D03*
D11*
X229552500Y-73660000D03*
D12*
X233362500Y-76200000D03*
D11*
X235902500Y-71120000D03*
D16*
X239204500Y-52070000D03*
X226277500Y-54610000D03*
D13*
X238442500Y-57150000D03*
X228282500Y-57150000D03*
D11*
X229552500Y-54610000D03*
D12*
X233362500Y-57150000D03*
D11*
X235902500Y-52070000D03*
D16*
X239204500Y-33020000D03*
X226277500Y-35560000D03*
D13*
X238442500Y-38100000D03*
X228282500Y-38100000D03*
D11*
X229552500Y-35560000D03*
D12*
X233362500Y-38100000D03*
D11*
X235902500Y-33020000D03*
D16*
X239204500Y-13970000D03*
X226277500Y-16510000D03*
D13*
X238442500Y-19050000D03*
X228282500Y-19050000D03*
D11*
X229552500Y-16510000D03*
D12*
X233362500Y-19050000D03*
D11*
X235902500Y-13970000D03*
D16*
X239204500Y5080000D03*
X226277500Y2540000D03*
D13*
X238442500Y0D03*
X228282500Y0D03*
D11*
X229552500Y2540000D03*
D12*
X233362500Y0D03*
D11*
X235902500Y5080000D03*
D16*
X220154500Y-49688750D03*
X207227500Y-52228750D03*
D13*
X219392500Y-54768750D03*
X209232500Y-54768750D03*
D11*
X210502500Y-52228750D03*
D12*
X214312500Y-54768750D03*
D11*
X216852500Y-49688750D03*
D16*
X220154500Y-30638750D03*
X207227500Y-33178750D03*
D13*
X219392500Y-35718750D03*
X209232500Y-35718750D03*
D11*
X210502500Y-33178750D03*
D12*
X214312500Y-35718750D03*
D11*
X216852500Y-30638750D03*
D16*
X220154500Y-11588750D03*
X207227500Y-14128750D03*
D13*
X219392500Y-16668750D03*
X209232500Y-16668750D03*
D11*
X210502500Y-14128750D03*
D12*
X214312500Y-16668750D03*
D11*
X216852500Y-11588750D03*
D16*
X220154500Y7461250D03*
X207227500Y4921250D03*
D13*
X219392500Y2381250D03*
X209232500Y2381250D03*
D11*
X210502500Y4921250D03*
D12*
X214312500Y2381250D03*
D11*
X216852500Y7461250D03*
D16*
X201104500Y-47307500D03*
X188177500Y-49847500D03*
D13*
X200342500Y-52387500D03*
X190182500Y-52387500D03*
D11*
X191452500Y-49847500D03*
D12*
X195262500Y-52387500D03*
D11*
X197802500Y-47307500D03*
D16*
X201104500Y-28257500D03*
X188177500Y-30797500D03*
D13*
X200342500Y-33337500D03*
X190182500Y-33337500D03*
D11*
X191452500Y-30797500D03*
D12*
X195262500Y-33337500D03*
D11*
X197802500Y-28257500D03*
D16*
X201104500Y-9207500D03*
X188177500Y-11747500D03*
D13*
X200342500Y-14287500D03*
X190182500Y-14287500D03*
D11*
X191452500Y-11747500D03*
D12*
X195262500Y-14287500D03*
D11*
X197802500Y-9207500D03*
D16*
X201104500Y9842500D03*
X188177500Y7302500D03*
D13*
X200342500Y4762500D03*
X190182500Y4762500D03*
D11*
X191452500Y7302500D03*
D12*
X195262500Y4762500D03*
D11*
X197802500Y9842500D03*
D16*
X182054500Y-68738750D03*
X169127500Y-71278750D03*
D13*
X181292500Y-73818750D03*
X171132500Y-73818750D03*
D11*
X172402500Y-71278750D03*
D12*
X176212500Y-73818750D03*
D11*
X178752500Y-68738750D03*
D16*
X182054500Y-49688750D03*
X169127500Y-52228750D03*
D13*
X181292500Y-54768750D03*
X171132500Y-54768750D03*
D11*
X172402500Y-52228750D03*
D12*
X176212500Y-54768750D03*
D11*
X178752500Y-49688750D03*
D16*
X182054500Y-30638750D03*
X169127500Y-33178750D03*
D13*
X181292500Y-35718750D03*
X171132500Y-35718750D03*
D11*
X172402500Y-33178750D03*
D12*
X176212500Y-35718750D03*
D11*
X178752500Y-30638750D03*
D16*
X182054500Y-11588750D03*
X169127500Y-14128750D03*
D13*
X181292500Y-16668750D03*
X171132500Y-16668750D03*
D11*
X172402500Y-14128750D03*
D12*
X176212500Y-16668750D03*
D11*
X178752500Y-11588750D03*
D16*
X239204500Y-113982500D03*
X226277500Y-116522500D03*
D13*
X238442500Y-119062500D03*
X228282500Y-119062500D03*
D11*
X229552500Y-116522500D03*
D12*
X233362500Y-119062500D03*
D11*
X235902500Y-113982500D03*
D16*
X163004500Y-90170000D03*
X150077500Y-92710000D03*
D13*
X162242500Y-95250000D03*
X152082500Y-95250000D03*
D11*
X153352500Y-92710000D03*
D12*
X157162500Y-95250000D03*
D11*
X159702500Y-90170000D03*
D16*
X163004500Y-71120000D03*
X150077500Y-73660000D03*
D13*
X162242500Y-76200000D03*
X152082500Y-76200000D03*
D11*
X153352500Y-73660000D03*
D12*
X157162500Y-76200000D03*
D11*
X159702500Y-71120000D03*
D16*
X163004500Y-33020000D03*
X150077500Y-35560000D03*
D13*
X162242500Y-38100000D03*
X152082500Y-38100000D03*
D11*
X153352500Y-35560000D03*
D12*
X157162500Y-38100000D03*
D11*
X159702500Y-33020000D03*
D16*
X163004500Y-13970000D03*
X150077500Y-16510000D03*
D13*
X162242500Y-19050000D03*
X152082500Y-19050000D03*
D11*
X153352500Y-16510000D03*
D12*
X157162500Y-19050000D03*
D11*
X159702500Y-13970000D03*
D16*
X163004500Y5080000D03*
X150077500Y2540000D03*
D13*
X162242500Y0D03*
X152082500Y0D03*
D11*
X153352500Y2540000D03*
D12*
X157162500Y0D03*
D11*
X159702500Y5080000D03*
D16*
X143954500Y-23495000D03*
X131027500Y-26035000D03*
D13*
X143192500Y-28575000D03*
X133032500Y-28575000D03*
D11*
X134302500Y-26035000D03*
D12*
X138112500Y-28575000D03*
D11*
X140652500Y-23495000D03*
D16*
X143954500Y-4445000D03*
X131027500Y-6985000D03*
D13*
X143192500Y-9525000D03*
X133032500Y-9525000D03*
D11*
X134302500Y-6985000D03*
D12*
X138112500Y-9525000D03*
D11*
X140652500Y-4445000D03*
D34*
X260825000Y-82563750D03*
X253525000Y-82563750D03*
X253525000Y-84773750D03*
X260825000Y-84773750D03*
D35*
X254925000Y-81913750D03*
X256425000Y-81913750D03*
X259425000Y-81913750D03*
D36*
X255675000Y-83673750D03*
X258675000Y-83673750D03*
D16*
X101092000Y-90170000D03*
X88165000Y-92710000D03*
D13*
X100330000Y-95250000D03*
X90170000Y-95250000D03*
D11*
X91440000Y-92710000D03*
D12*
X95250000Y-95250000D03*
D11*
X97790000Y-90170000D03*
D34*
X-1112500Y-82563750D03*
X-8412500Y-82563750D03*
X-8412500Y-84773750D03*
X-1112500Y-84773750D03*
D35*
X-7012500Y-81913750D03*
X-5512500Y-81913750D03*
X-2512500Y-81913750D03*
D36*
X-6262500Y-83673750D03*
X-3262500Y-83673750D03*
D16*
X101092000Y-71120000D03*
X88165000Y-73660000D03*
D13*
X100330000Y-76200000D03*
X90170000Y-76200000D03*
D11*
X91440000Y-73660000D03*
D12*
X95250000Y-76200000D03*
D11*
X97790000Y-71120000D03*
D16*
X101092000Y-52070000D03*
X88165000Y-54610000D03*
D13*
X100330000Y-57150000D03*
X90170000Y-57150000D03*
D11*
X91440000Y-54610000D03*
D12*
X95250000Y-57150000D03*
D11*
X97790000Y-52070000D03*
D16*
X101092000Y-33020000D03*
X88165000Y-35560000D03*
D13*
X100330000Y-38100000D03*
X90170000Y-38100000D03*
D11*
X91440000Y-35560000D03*
D12*
X95250000Y-38100000D03*
D11*
X97790000Y-33020000D03*
D16*
X101092000Y-13970000D03*
X88165000Y-16510000D03*
D13*
X100330000Y-19050000D03*
X90170000Y-19050000D03*
D11*
X91440000Y-16510000D03*
D12*
X95250000Y-19050000D03*
D11*
X97790000Y-13970000D03*
D16*
X101092000Y5080000D03*
X88165000Y2540000D03*
D13*
X100330000Y0D03*
X90170000Y0D03*
D11*
X91440000Y2540000D03*
D12*
X95250000Y0D03*
D11*
X97790000Y5080000D03*
D16*
X82042000Y-68738750D03*
X69115000Y-71278750D03*
D13*
X81280000Y-73818750D03*
X71120000Y-73818750D03*
D11*
X72390000Y-71278750D03*
D12*
X76200000Y-73818750D03*
D11*
X78740000Y-68738750D03*
D16*
X82042000Y-49688750D03*
X69115000Y-52228750D03*
D13*
X81280000Y-54768750D03*
X71120000Y-54768750D03*
D11*
X72390000Y-52228750D03*
D12*
X76200000Y-54768750D03*
D11*
X78740000Y-49688750D03*
D16*
X82042000Y-30638750D03*
X69115000Y-33178750D03*
D13*
X81280000Y-35718750D03*
X71120000Y-35718750D03*
D11*
X72390000Y-33178750D03*
D12*
X76200000Y-35718750D03*
D11*
X78740000Y-30638750D03*
D16*
X82042000Y-11588750D03*
X69115000Y-14128750D03*
D13*
X81280000Y-16668750D03*
X71120000Y-16668750D03*
D11*
X72390000Y-14128750D03*
D12*
X76200000Y-16668750D03*
D11*
X78740000Y-11588750D03*
D16*
X82042000Y7461250D03*
X69115000Y4921250D03*
D13*
X81280000Y2381250D03*
X71120000Y2381250D03*
D11*
X72390000Y4921250D03*
D12*
X76200000Y2381250D03*
D11*
X78740000Y7461250D03*
D16*
X62992000Y-66357500D03*
X50065000Y-68897500D03*
D13*
X62230000Y-71437500D03*
X52070000Y-71437500D03*
D11*
X53340000Y-68897500D03*
D12*
X57150000Y-71437500D03*
D11*
X59690000Y-66357500D03*
D16*
X62992000Y-47307500D03*
X50065000Y-49847500D03*
D13*
X62230000Y-52387500D03*
X52070000Y-52387500D03*
D11*
X53340000Y-49847500D03*
D12*
X57150000Y-52387500D03*
D11*
X59690000Y-47307500D03*
D16*
X62992000Y-28257500D03*
X50065000Y-30797500D03*
D13*
X62230000Y-33337500D03*
X52070000Y-33337500D03*
D11*
X53340000Y-30797500D03*
D12*
X57150000Y-33337500D03*
D11*
X59690000Y-28257500D03*
D16*
X62992000Y-9207500D03*
X50065000Y-11747500D03*
D13*
X62230000Y-14287500D03*
X52070000Y-14287500D03*
D11*
X53340000Y-11747500D03*
D12*
X57150000Y-14287500D03*
D11*
X59690000Y-9207500D03*
D16*
X62992000Y9842500D03*
X50065000Y7302500D03*
D13*
X62230000Y4762500D03*
X52070000Y4762500D03*
D11*
X53340000Y7302500D03*
D12*
X57150000Y4762500D03*
D11*
X59690000Y9842500D03*
D16*
X43942000Y-49688750D03*
X31015000Y-52228750D03*
D13*
X43180000Y-54768750D03*
X33020000Y-54768750D03*
D11*
X34290000Y-52228750D03*
D12*
X38100000Y-54768750D03*
D11*
X40640000Y-49688750D03*
D16*
X43942000Y-30638750D03*
X31015000Y-33178750D03*
D13*
X43180000Y-35718750D03*
X33020000Y-35718750D03*
D11*
X34290000Y-33178750D03*
D12*
X38100000Y-35718750D03*
D11*
X40640000Y-30638750D03*
D16*
X43942000Y-11588750D03*
X31015000Y-14128750D03*
D13*
X43180000Y-16668750D03*
X33020000Y-16668750D03*
D11*
X34290000Y-14128750D03*
D12*
X38100000Y-16668750D03*
D11*
X40640000Y-11588750D03*
D16*
X43942000Y7461250D03*
X31015000Y4921250D03*
D13*
X43180000Y2381250D03*
X33020000Y2381250D03*
D11*
X34290000Y4921250D03*
D12*
X38100000Y2381250D03*
D11*
X40640000Y7461250D03*
D16*
X43942000Y-113982500D03*
X31015000Y-116522500D03*
D13*
X43180000Y-119062500D03*
X33020000Y-119062500D03*
D11*
X34290000Y-116522500D03*
D12*
X38100000Y-119062500D03*
D11*
X40640000Y-113982500D03*
D16*
X24892000Y-71120000D03*
X11965000Y-73660000D03*
D13*
X24130000Y-76200000D03*
X13970000Y-76200000D03*
D11*
X15240000Y-73660000D03*
D12*
X19050000Y-76200000D03*
D11*
X21590000Y-71120000D03*
D16*
X24892000Y-52070000D03*
X11965000Y-54610000D03*
D13*
X24130000Y-57150000D03*
X13970000Y-57150000D03*
D11*
X15240000Y-54610000D03*
D12*
X19050000Y-57150000D03*
D11*
X21590000Y-52070000D03*
D16*
X24892000Y-33020000D03*
X11965000Y-35560000D03*
D13*
X24130000Y-38100000D03*
X13970000Y-38100000D03*
D11*
X15240000Y-35560000D03*
D12*
X19050000Y-38100000D03*
D11*
X21590000Y-33020000D03*
D16*
X24892000Y5080000D03*
X11965000Y2540000D03*
D13*
X24130000Y0D03*
X13970000Y0D03*
D11*
X15240000Y2540000D03*
D12*
X19050000Y0D03*
D11*
X21590000Y5080000D03*
D16*
X24892000Y-113982500D03*
X11965000Y-116522500D03*
D13*
X24130000Y-119062500D03*
X13970000Y-119062500D03*
D11*
X15240000Y-116522500D03*
D12*
X19050000Y-119062500D03*
D11*
X21590000Y-113982500D03*
D16*
X13208000Y-105092500D03*
X26135000Y-102552500D03*
D13*
X13970000Y-100012500D03*
X24130000Y-100012500D03*
D11*
X22860000Y-102552500D03*
D12*
X19050000Y-100012500D03*
D11*
X16510000Y-105092500D03*
D16*
X5842000Y-71120000D03*
X-7085000Y-73660000D03*
D13*
X5080000Y-76200000D03*
X-5080000Y-76200000D03*
D11*
X-3810000Y-73660000D03*
D12*
X0Y-76200000D03*
D11*
X2540000Y-71120000D03*
D16*
X5842000Y-52070000D03*
X-7085000Y-54610000D03*
D13*
X5080000Y-57150000D03*
X-5080000Y-57150000D03*
D11*
X-3810000Y-54610000D03*
D12*
X0Y-57150000D03*
D11*
X2540000Y-52070000D03*
D16*
X5842000Y-33020000D03*
X-7085000Y-35560000D03*
D13*
X5080000Y-38100000D03*
X-5080000Y-38100000D03*
D11*
X-3810000Y-35560000D03*
D12*
X0Y-38100000D03*
D11*
X2540000Y-33020000D03*
D16*
X5842000Y-13970000D03*
X-7085000Y-16510000D03*
D13*
X5080000Y-19050000D03*
X-5080000Y-19050000D03*
D11*
X-3810000Y-16510000D03*
D12*
X0Y-19050000D03*
D11*
X2540000Y-13970000D03*
G36*
G01*
X243287500Y-69506251D02*
X243287500Y-68606249D01*
G75*
G02*
X243537499Y-68356250I249999J0D01*
G01*
X244062501Y-68356250D01*
G75*
G02*
X244312500Y-68606249I0J-249999D01*
G01*
X244312500Y-69506251D01*
G75*
G02*
X244062501Y-69756250I-249999J0D01*
G01*
X243537499Y-69756250D01*
G75*
G02*
X243287500Y-69506251I0J249999D01*
G01*
G37*
G36*
G01*
X241462500Y-69506251D02*
X241462500Y-68606249D01*
G75*
G02*
X241712499Y-68356250I249999J0D01*
G01*
X242237501Y-68356250D01*
G75*
G02*
X242487500Y-68606249I0J-249999D01*
G01*
X242487500Y-69506251D01*
G75*
G02*
X242237501Y-69756250I-249999J0D01*
G01*
X241712499Y-69756250D01*
G75*
G02*
X241462500Y-69506251I0J249999D01*
G01*
G37*
G36*
G01*
X135337500Y-103637501D02*
X135337500Y-102737499D01*
G75*
G02*
X135587499Y-102487500I249999J0D01*
G01*
X136112501Y-102487500D01*
G75*
G02*
X136362500Y-102737499I0J-249999D01*
G01*
X136362500Y-103637501D01*
G75*
G02*
X136112501Y-103887500I-249999J0D01*
G01*
X135587499Y-103887500D01*
G75*
G02*
X135337500Y-103637501I0J249999D01*
G01*
G37*
G36*
G01*
X133512500Y-103637501D02*
X133512500Y-102737499D01*
G75*
G02*
X133762499Y-102487500I249999J0D01*
G01*
X134287501Y-102487500D01*
G75*
G02*
X134537500Y-102737499I0J-249999D01*
G01*
X134537500Y-103637501D01*
G75*
G02*
X134287501Y-103887500I-249999J0D01*
G01*
X133762499Y-103887500D01*
G75*
G02*
X133512500Y-103637501I0J249999D01*
G01*
G37*
G36*
G01*
X226562499Y-82950000D02*
X227462501Y-82950000D01*
G75*
G02*
X227712500Y-83199999I0J-249999D01*
G01*
X227712500Y-83725001D01*
G75*
G02*
X227462501Y-83975000I-249999J0D01*
G01*
X226562499Y-83975000D01*
G75*
G02*
X226312500Y-83725001I0J249999D01*
G01*
X226312500Y-83199999D01*
G75*
G02*
X226562499Y-82950000I249999J0D01*
G01*
G37*
G36*
G01*
X226562499Y-81125000D02*
X227462501Y-81125000D01*
G75*
G02*
X227712500Y-81374999I0J-249999D01*
G01*
X227712500Y-81900001D01*
G75*
G02*
X227462501Y-82150000I-249999J0D01*
G01*
X226562499Y-82150000D01*
G75*
G02*
X226312500Y-81900001I0J249999D01*
G01*
X226312500Y-81374999D01*
G75*
G02*
X226562499Y-81125000I249999J0D01*
G01*
G37*
G36*
G01*
X243287500Y-28231251D02*
X243287500Y-27331249D01*
G75*
G02*
X243537499Y-27081250I249999J0D01*
G01*
X244062501Y-27081250D01*
G75*
G02*
X244312500Y-27331249I0J-249999D01*
G01*
X244312500Y-28231251D01*
G75*
G02*
X244062501Y-28481250I-249999J0D01*
G01*
X243537499Y-28481250D01*
G75*
G02*
X243287500Y-28231251I0J249999D01*
G01*
G37*
G36*
G01*
X241462500Y-28231251D02*
X241462500Y-27331249D01*
G75*
G02*
X241712499Y-27081250I249999J0D01*
G01*
X242237501Y-27081250D01*
G75*
G02*
X242487500Y-27331249I0J-249999D01*
G01*
X242487500Y-28231251D01*
G75*
G02*
X242237501Y-28481250I-249999J0D01*
G01*
X241712499Y-28481250D01*
G75*
G02*
X241462500Y-28231251I0J249999D01*
G01*
G37*
G36*
G01*
X243287500Y-23468751D02*
X243287500Y-22568749D01*
G75*
G02*
X243537499Y-22318750I249999J0D01*
G01*
X244062501Y-22318750D01*
G75*
G02*
X244312500Y-22568749I0J-249999D01*
G01*
X244312500Y-23468751D01*
G75*
G02*
X244062501Y-23718750I-249999J0D01*
G01*
X243537499Y-23718750D01*
G75*
G02*
X243287500Y-23468751I0J249999D01*
G01*
G37*
G36*
G01*
X241462500Y-23468751D02*
X241462500Y-22568749D01*
G75*
G02*
X241712499Y-22318750I249999J0D01*
G01*
X242237501Y-22318750D01*
G75*
G02*
X242487500Y-22568749I0J-249999D01*
G01*
X242487500Y-23468751D01*
G75*
G02*
X242237501Y-23718750I-249999J0D01*
G01*
X241712499Y-23718750D01*
G75*
G02*
X241462500Y-23468751I0J249999D01*
G01*
G37*
G36*
G01*
X117075000Y-102737499D02*
X117075000Y-103637501D01*
G75*
G02*
X116825001Y-103887500I-249999J0D01*
G01*
X116299999Y-103887500D01*
G75*
G02*
X116050000Y-103637501I0J249999D01*
G01*
X116050000Y-102737499D01*
G75*
G02*
X116299999Y-102487500I249999J0D01*
G01*
X116825001Y-102487500D01*
G75*
G02*
X117075000Y-102737499I0J-249999D01*
G01*
G37*
G36*
G01*
X118900000Y-102737499D02*
X118900000Y-103637501D01*
G75*
G02*
X118650001Y-103887500I-249999J0D01*
G01*
X118124999Y-103887500D01*
G75*
G02*
X117875000Y-103637501I0J249999D01*
G01*
X117875000Y-102737499D01*
G75*
G02*
X118124999Y-102487500I249999J0D01*
G01*
X118650001Y-102487500D01*
G75*
G02*
X118900000Y-102737499I0J-249999D01*
G01*
G37*
G36*
G01*
X23468751Y-82150000D02*
X22568749Y-82150000D01*
G75*
G02*
X22318750Y-81900001I0J249999D01*
G01*
X22318750Y-81374999D01*
G75*
G02*
X22568749Y-81125000I249999J0D01*
G01*
X23468751Y-81125000D01*
G75*
G02*
X23718750Y-81374999I0J-249999D01*
G01*
X23718750Y-81900001D01*
G75*
G02*
X23468751Y-82150000I-249999J0D01*
G01*
G37*
G36*
G01*
X23468751Y-83975000D02*
X22568749Y-83975000D01*
G75*
G02*
X22318750Y-83725001I0J249999D01*
G01*
X22318750Y-83199999D01*
G75*
G02*
X22568749Y-82950000I249999J0D01*
G01*
X23468751Y-82950000D01*
G75*
G02*
X23718750Y-83199999I0J-249999D01*
G01*
X23718750Y-83725001D01*
G75*
G02*
X23468751Y-83975000I-249999J0D01*
G01*
G37*
G36*
G01*
X24949999Y-82950000D02*
X25850001Y-82950000D01*
G75*
G02*
X26100000Y-83199999I0J-249999D01*
G01*
X26100000Y-83725001D01*
G75*
G02*
X25850001Y-83975000I-249999J0D01*
G01*
X24949999Y-83975000D01*
G75*
G02*
X24700000Y-83725001I0J249999D01*
G01*
X24700000Y-83199999D01*
G75*
G02*
X24949999Y-82950000I249999J0D01*
G01*
G37*
G36*
G01*
X24949999Y-81125000D02*
X25850001Y-81125000D01*
G75*
G02*
X26100000Y-81374999I0J-249999D01*
G01*
X26100000Y-81900001D01*
G75*
G02*
X25850001Y-82150000I-249999J0D01*
G01*
X24949999Y-82150000D01*
G75*
G02*
X24700000Y-81900001I0J249999D01*
G01*
X24700000Y-81374999D01*
G75*
G02*
X24949999Y-81125000I249999J0D01*
G01*
G37*
G36*
G01*
X14687500Y-28231251D02*
X14687500Y-27331249D01*
G75*
G02*
X14937499Y-27081250I249999J0D01*
G01*
X15462501Y-27081250D01*
G75*
G02*
X15712500Y-27331249I0J-249999D01*
G01*
X15712500Y-28231251D01*
G75*
G02*
X15462501Y-28481250I-249999J0D01*
G01*
X14937499Y-28481250D01*
G75*
G02*
X14687500Y-28231251I0J249999D01*
G01*
G37*
G36*
G01*
X12862500Y-28231251D02*
X12862500Y-27331249D01*
G75*
G02*
X13112499Y-27081250I249999J0D01*
G01*
X13637501Y-27081250D01*
G75*
G02*
X13887500Y-27331249I0J-249999D01*
G01*
X13887500Y-28231251D01*
G75*
G02*
X13637501Y-28481250I-249999J0D01*
G01*
X13112499Y-28481250D01*
G75*
G02*
X12862500Y-28231251I0J249999D01*
G01*
G37*
G36*
G01*
X9125000Y-22568749D02*
X9125000Y-23468751D01*
G75*
G02*
X8875001Y-23718750I-249999J0D01*
G01*
X8349999Y-23718750D01*
G75*
G02*
X8100000Y-23468751I0J249999D01*
G01*
X8100000Y-22568749D01*
G75*
G02*
X8349999Y-22318750I249999J0D01*
G01*
X8875001Y-22318750D01*
G75*
G02*
X9125000Y-22568749I0J-249999D01*
G01*
G37*
G36*
G01*
X10950000Y-22568749D02*
X10950000Y-23468751D01*
G75*
G02*
X10700001Y-23718750I-249999J0D01*
G01*
X10174999Y-23718750D01*
G75*
G02*
X9925000Y-23468751I0J249999D01*
G01*
X9925000Y-22568749D01*
G75*
G02*
X10174999Y-22318750I249999J0D01*
G01*
X10700001Y-22318750D01*
G75*
G02*
X10950000Y-22568749I0J-249999D01*
G01*
G37*
G36*
G01*
X255137499Y-19450000D02*
X256037501Y-19450000D01*
G75*
G02*
X256287500Y-19699999I0J-249999D01*
G01*
X256287500Y-20225001D01*
G75*
G02*
X256037501Y-20475000I-249999J0D01*
G01*
X255137499Y-20475000D01*
G75*
G02*
X254887500Y-20225001I0J249999D01*
G01*
X254887500Y-19699999D01*
G75*
G02*
X255137499Y-19450000I249999J0D01*
G01*
G37*
G36*
G01*
X255137499Y-17625000D02*
X256037501Y-17625000D01*
G75*
G02*
X256287500Y-17874999I0J-249999D01*
G01*
X256287500Y-18400001D01*
G75*
G02*
X256037501Y-18650000I-249999J0D01*
G01*
X255137499Y-18650000D01*
G75*
G02*
X254887500Y-18400001I0J249999D01*
G01*
X254887500Y-17874999D01*
G75*
G02*
X255137499Y-17625000I249999J0D01*
G01*
G37*
G36*
G01*
X2037501Y-82150000D02*
X1137499Y-82150000D01*
G75*
G02*
X887500Y-81900001I0J249999D01*
G01*
X887500Y-81374999D01*
G75*
G02*
X1137499Y-81125000I249999J0D01*
G01*
X2037501Y-81125000D01*
G75*
G02*
X2287500Y-81374999I0J-249999D01*
G01*
X2287500Y-81900001D01*
G75*
G02*
X2037501Y-82150000I-249999J0D01*
G01*
G37*
G36*
G01*
X2037501Y-83975000D02*
X1137499Y-83975000D01*
G75*
G02*
X887500Y-83725001I0J249999D01*
G01*
X887500Y-83199999D01*
G75*
G02*
X1137499Y-82950000I249999J0D01*
G01*
X2037501Y-82950000D01*
G75*
G02*
X2287500Y-83199999I0J-249999D01*
G01*
X2287500Y-83725001D01*
G75*
G02*
X2037501Y-83975000I-249999J0D01*
G01*
G37*
G36*
G01*
X9925000Y-69506251D02*
X9925000Y-68606249D01*
G75*
G02*
X10174999Y-68356250I249999J0D01*
G01*
X10700001Y-68356250D01*
G75*
G02*
X10950000Y-68606249I0J-249999D01*
G01*
X10950000Y-69506251D01*
G75*
G02*
X10700001Y-69756250I-249999J0D01*
G01*
X10174999Y-69756250D01*
G75*
G02*
X9925000Y-69506251I0J249999D01*
G01*
G37*
G36*
G01*
X8100000Y-69506251D02*
X8100000Y-68606249D01*
G75*
G02*
X8349999Y-68356250I249999J0D01*
G01*
X8875001Y-68356250D01*
G75*
G02*
X9125000Y-68606249I0J-249999D01*
G01*
X9125000Y-69506251D01*
G75*
G02*
X8875001Y-69756250I-249999J0D01*
G01*
X8349999Y-69756250D01*
G75*
G02*
X8100000Y-69506251I0J249999D01*
G01*
G37*
G36*
G01*
X9125000Y-27331249D02*
X9125000Y-28231251D01*
G75*
G02*
X8875001Y-28481250I-249999J0D01*
G01*
X8349999Y-28481250D01*
G75*
G02*
X8100000Y-28231251I0J249999D01*
G01*
X8100000Y-27331249D01*
G75*
G02*
X8349999Y-27081250I249999J0D01*
G01*
X8875001Y-27081250D01*
G75*
G02*
X9125000Y-27331249I0J-249999D01*
G01*
G37*
G36*
G01*
X10950000Y-27331249D02*
X10950000Y-28231251D01*
G75*
G02*
X10700001Y-28481250I-249999J0D01*
G01*
X10174999Y-28481250D01*
G75*
G02*
X9925000Y-28231251I0J249999D01*
G01*
X9925000Y-27331249D01*
G75*
G02*
X10174999Y-27081250I249999J0D01*
G01*
X10700001Y-27081250D01*
G75*
G02*
X10950000Y-27331249I0J-249999D01*
G01*
G37*
D32*
X243681250Y-83550000D03*
X244631250Y-81550000D03*
X242731250Y-81550000D03*
X8731250Y-83550000D03*
X9681250Y-81550000D03*
X7781250Y-81550000D03*
D21*
X56673750Y-100012500D03*
X59213750Y-100012500D03*
X61753750Y-100012500D03*
D22*
X64293750Y-100012500D03*
G36*
G01*
X243662500Y-67300000D02*
X243662500Y-66050000D01*
G75*
G02*
X243912500Y-65800000I250000J0D01*
G01*
X244662500Y-65800000D01*
G75*
G02*
X244912500Y-66050000I0J-250000D01*
G01*
X244912500Y-67300000D01*
G75*
G02*
X244662500Y-67550000I-250000J0D01*
G01*
X243912500Y-67550000D01*
G75*
G02*
X243662500Y-67300000I0J250000D01*
G01*
G37*
G36*
G01*
X240862500Y-67300000D02*
X240862500Y-66050000D01*
G75*
G02*
X241112500Y-65800000I250000J0D01*
G01*
X241862500Y-65800000D01*
G75*
G02*
X242112500Y-66050000I0J-250000D01*
G01*
X242112500Y-67300000D01*
G75*
G02*
X241862500Y-67550000I-250000J0D01*
G01*
X241112500Y-67550000D01*
G75*
G02*
X240862500Y-67300000I0J250000D01*
G01*
G37*
G36*
G01*
X10300000Y-67300000D02*
X10300000Y-66050000D01*
G75*
G02*
X10550000Y-65800000I250000J0D01*
G01*
X11300000Y-65800000D01*
G75*
G02*
X11550000Y-66050000I0J-250000D01*
G01*
X11550000Y-67300000D01*
G75*
G02*
X11300000Y-67550000I-250000J0D01*
G01*
X10550000Y-67550000D01*
G75*
G02*
X10300000Y-67300000I0J250000D01*
G01*
G37*
G36*
G01*
X7500000Y-67300000D02*
X7500000Y-66050000D01*
G75*
G02*
X7750000Y-65800000I250000J0D01*
G01*
X8500000Y-65800000D01*
G75*
G02*
X8750000Y-66050000I0J-250000D01*
G01*
X8750000Y-67300000D01*
G75*
G02*
X8500000Y-67550000I-250000J0D01*
G01*
X7750000Y-67550000D01*
G75*
G02*
X7500000Y-67300000I0J250000D01*
G01*
G37*
D24*
X181768750Y-115031250D03*
X181768750Y-118331250D03*
D37*
X155512500Y-118268750D03*
X158812500Y-118268750D03*
D24*
X255587500Y-74550000D03*
X255587500Y-77850000D03*
X255587500Y-55500000D03*
X255587500Y-58800000D03*
X255587500Y-36450000D03*
X255587500Y-39750000D03*
D37*
X245331250Y-19843750D03*
X242031250Y-19843750D03*
D24*
X255587500Y1650000D03*
X255587500Y-1650000D03*
D37*
X136462500Y-118268750D03*
X139762500Y-118268750D03*
D24*
X236537500Y-74550000D03*
X236537500Y-77850000D03*
X236537500Y-55500000D03*
X236537500Y-58800000D03*
X236537500Y-36450000D03*
X236537500Y-39750000D03*
X236537500Y-17400000D03*
X236537500Y-20700000D03*
X236537500Y1650000D03*
X236537500Y-1650000D03*
X217487500Y-72168750D03*
X217487500Y-75468750D03*
X217487500Y-53118750D03*
X217487500Y-56418750D03*
X217487500Y-34068750D03*
X217487500Y-37368750D03*
X217487500Y-15018750D03*
X217487500Y-18318750D03*
X217487500Y4031250D03*
X217487500Y731250D03*
X196056250Y-91218750D03*
X196056250Y-94518750D03*
X198437500Y-69787500D03*
X198437500Y-73087500D03*
X198437500Y-50737500D03*
X198437500Y-54037500D03*
X198437500Y-31687500D03*
X198437500Y-34987500D03*
X198437500Y-12637500D03*
X198437500Y-15937500D03*
X198437500Y6412500D03*
X198437500Y3112500D03*
X255587500Y-117412500D03*
X255587500Y-120712500D03*
X179387500Y-72168750D03*
X179387500Y-75468750D03*
X179387500Y-53118750D03*
X179387500Y-56418750D03*
X179387500Y-34068750D03*
X179387500Y-37368750D03*
X179387500Y-15018750D03*
X179387500Y-18318750D03*
X179387500Y4031250D03*
X179387500Y731250D03*
X236537500Y-117412500D03*
X236537500Y-120712500D03*
X230187500Y-101662500D03*
X230187500Y-98362500D03*
X240506250Y-80900000D03*
X240506250Y-84200000D03*
X160337500Y-93600000D03*
X160337500Y-96900000D03*
X160337500Y-74550000D03*
X160337500Y-77850000D03*
X160337500Y-55500000D03*
X160337500Y-58800000D03*
X160337500Y-17400000D03*
X160337500Y-20700000D03*
X160337500Y1650000D03*
X160337500Y-1650000D03*
X217487500Y-117412500D03*
X217487500Y-120712500D03*
X141287500Y-84075000D03*
X141287500Y-87375000D03*
D37*
X136462500Y-49212500D03*
X139762500Y-49212500D03*
D24*
X144822500Y-34080000D03*
X144822500Y-37380000D03*
X141287500Y-7875000D03*
X141287500Y-11175000D03*
G36*
G01*
X130518750Y-102731250D02*
X130518750Y-103643750D01*
G75*
G02*
X130275000Y-103887500I-243750J0D01*
G01*
X129787500Y-103887500D01*
G75*
G02*
X129543750Y-103643750I0J243750D01*
G01*
X129543750Y-102731250D01*
G75*
G02*
X129787500Y-102487500I243750J0D01*
G01*
X130275000Y-102487500D01*
G75*
G02*
X130518750Y-102731250I0J-243750D01*
G01*
G37*
G36*
G01*
X132393750Y-102731250D02*
X132393750Y-103643750D01*
G75*
G02*
X132150000Y-103887500I-243750J0D01*
G01*
X131662500Y-103887500D01*
G75*
G02*
X131418750Y-103643750I0J243750D01*
G01*
X131418750Y-102731250D01*
G75*
G02*
X131662500Y-102487500I243750J0D01*
G01*
X132150000Y-102487500D01*
G75*
G02*
X132393750Y-102731250I0J-243750D01*
G01*
G37*
D38*
X250668750Y-26500000D03*
X252568750Y-26500000D03*
X252568750Y-24300000D03*
D39*
X250848750Y-24300000D03*
D37*
X115950000Y-124618750D03*
X112650000Y-124618750D03*
X115950000Y-93662500D03*
X112650000Y-93662500D03*
X115950000Y-62706250D03*
X112650000Y-62706250D03*
X108806250Y-37306250D03*
X105506250Y-37306250D03*
D24*
X117475000Y-7875000D03*
X117475000Y-11175000D03*
D37*
X96900000Y-124618750D03*
X93600000Y-124618750D03*
D38*
X1743750Y-24300000D03*
X-156250Y-24300000D03*
X-156250Y-26500000D03*
D39*
X1563750Y-26500000D03*
G36*
G01*
X121893750Y-103643750D02*
X121893750Y-102731250D01*
G75*
G02*
X122137500Y-102487500I243750J0D01*
G01*
X122625000Y-102487500D01*
G75*
G02*
X122868750Y-102731250I0J-243750D01*
G01*
X122868750Y-103643750D01*
G75*
G02*
X122625000Y-103887500I-243750J0D01*
G01*
X122137500Y-103887500D01*
G75*
G02*
X121893750Y-103643750I0J243750D01*
G01*
G37*
G36*
G01*
X120018750Y-103643750D02*
X120018750Y-102731250D01*
G75*
G02*
X120262500Y-102487500I243750J0D01*
G01*
X120750000Y-102487500D01*
G75*
G02*
X120993750Y-102731250I0J-243750D01*
G01*
X120993750Y-103643750D01*
G75*
G02*
X120750000Y-103887500I-243750J0D01*
G01*
X120262500Y-103887500D01*
G75*
G02*
X120018750Y-103643750I0J243750D01*
G01*
G37*
D24*
X98425000Y-93600000D03*
X98425000Y-96900000D03*
X98425000Y-74550000D03*
X98425000Y-77850000D03*
X98425000Y-55500000D03*
X98425000Y-58800000D03*
X98425000Y-36450000D03*
X98425000Y-39750000D03*
X98425000Y-17400000D03*
X98425000Y-20700000D03*
X98425000Y1650000D03*
X98425000Y-1650000D03*
X76993750Y-115031250D03*
X76993750Y-118331250D03*
X79375000Y-72168750D03*
X79375000Y-75468750D03*
X79375000Y-53118750D03*
X79375000Y-56418750D03*
X79375000Y-34068750D03*
X79375000Y-37368750D03*
X79375000Y-15018750D03*
X79375000Y-18318750D03*
X79375000Y4031250D03*
X79375000Y731250D03*
X67468750Y-91218750D03*
X67468750Y-94518750D03*
X60325000Y-69787500D03*
X60325000Y-73087500D03*
X60325000Y-50737500D03*
X60325000Y-54037500D03*
X60325000Y-31687500D03*
X60325000Y-34987500D03*
X60325000Y-12637500D03*
X60325000Y-15937500D03*
X60325000Y6412500D03*
X60325000Y3112500D03*
X41275000Y-72168750D03*
X41275000Y-75468750D03*
X41275000Y-53118750D03*
X41275000Y-56418750D03*
X41275000Y-34068750D03*
X41275000Y-37368750D03*
X41275000Y-15018750D03*
X41275000Y-18318750D03*
X41275000Y4031250D03*
X41275000Y731250D03*
X41275000Y-117412500D03*
X41275000Y-120712500D03*
X22225000Y-74550000D03*
X22225000Y-77850000D03*
X22225000Y-55500000D03*
X22225000Y-58800000D03*
X22225000Y-36450000D03*
X22225000Y-39750000D03*
X22225000Y-17400000D03*
X22225000Y-20700000D03*
X22225000Y1650000D03*
X22225000Y-1650000D03*
X22225000Y-117412500D03*
X22225000Y-120712500D03*
X15875000Y-101662500D03*
X15875000Y-98362500D03*
X3175000Y-74550000D03*
X3175000Y-77850000D03*
X3175000Y-55500000D03*
X3175000Y-58800000D03*
X3175000Y-36450000D03*
X3175000Y-39750000D03*
X3175000Y-17400000D03*
X3175000Y-20700000D03*
X3175000Y1650000D03*
X3175000Y-1650000D03*
X3175000Y-117412500D03*
X3175000Y-120712500D03*
G36*
G01*
X232250000Y-82100000D02*
X231300000Y-82100000D01*
G75*
G02*
X231050000Y-81850000I0J250000D01*
G01*
X231050000Y-81350000D01*
G75*
G02*
X231300000Y-81100000I250000J0D01*
G01*
X232250000Y-81100000D01*
G75*
G02*
X232500000Y-81350000I0J-250000D01*
G01*
X232500000Y-81850000D01*
G75*
G02*
X232250000Y-82100000I-250000J0D01*
G01*
G37*
G36*
G01*
X232250000Y-84000000D02*
X231300000Y-84000000D01*
G75*
G02*
X231050000Y-83750000I0J250000D01*
G01*
X231050000Y-83250000D01*
G75*
G02*
X231300000Y-83000000I250000J0D01*
G01*
X232250000Y-83000000D01*
G75*
G02*
X232500000Y-83250000I0J-250000D01*
G01*
X232500000Y-83750000D01*
G75*
G02*
X232250000Y-84000000I-250000J0D01*
G01*
G37*
G36*
G01*
X237650000Y-83000000D02*
X238600000Y-83000000D01*
G75*
G02*
X238850000Y-83250000I0J-250000D01*
G01*
X238850000Y-83750000D01*
G75*
G02*
X238600000Y-84000000I-250000J0D01*
G01*
X237650000Y-84000000D01*
G75*
G02*
X237400000Y-83750000I0J250000D01*
G01*
X237400000Y-83250000D01*
G75*
G02*
X237650000Y-83000000I250000J0D01*
G01*
G37*
G36*
G01*
X237650000Y-81100000D02*
X238600000Y-81100000D01*
G75*
G02*
X238850000Y-81350000I0J-250000D01*
G01*
X238850000Y-81850000D01*
G75*
G02*
X238600000Y-82100000I-250000J0D01*
G01*
X237650000Y-82100000D01*
G75*
G02*
X237400000Y-81850000I0J250000D01*
G01*
X237400000Y-81350000D01*
G75*
G02*
X237650000Y-81100000I250000J0D01*
G01*
G37*
G36*
G01*
X225106250Y-82100000D02*
X224156250Y-82100000D01*
G75*
G02*
X223906250Y-81850000I0J250000D01*
G01*
X223906250Y-81350000D01*
G75*
G02*
X224156250Y-81100000I250000J0D01*
G01*
X225106250Y-81100000D01*
G75*
G02*
X225356250Y-81350000I0J-250000D01*
G01*
X225356250Y-81850000D01*
G75*
G02*
X225106250Y-82100000I-250000J0D01*
G01*
G37*
G36*
G01*
X225106250Y-84000000D02*
X224156250Y-84000000D01*
G75*
G02*
X223906250Y-83750000I0J250000D01*
G01*
X223906250Y-83250000D01*
G75*
G02*
X224156250Y-83000000I250000J0D01*
G01*
X225106250Y-83000000D01*
G75*
G02*
X225356250Y-83250000I0J-250000D01*
G01*
X225356250Y-83750000D01*
G75*
G02*
X225106250Y-84000000I-250000J0D01*
G01*
G37*
G36*
G01*
X259081250Y-19500000D02*
X260031250Y-19500000D01*
G75*
G02*
X260281250Y-19750000I0J-250000D01*
G01*
X260281250Y-20250000D01*
G75*
G02*
X260031250Y-20500000I-250000J0D01*
G01*
X259081250Y-20500000D01*
G75*
G02*
X258831250Y-20250000I0J250000D01*
G01*
X258831250Y-19750000D01*
G75*
G02*
X259081250Y-19500000I250000J0D01*
G01*
G37*
G36*
G01*
X259081250Y-17600000D02*
X260031250Y-17600000D01*
G75*
G02*
X260281250Y-17850000I0J-250000D01*
G01*
X260281250Y-18350000D01*
G75*
G02*
X260031250Y-18600000I-250000J0D01*
G01*
X259081250Y-18600000D01*
G75*
G02*
X258831250Y-18350000I0J250000D01*
G01*
X258831250Y-17850000D01*
G75*
G02*
X259081250Y-17600000I250000J0D01*
G01*
G37*
G36*
G01*
X13812500Y-83000000D02*
X14762500Y-83000000D01*
G75*
G02*
X15012500Y-83250000I0J-250000D01*
G01*
X15012500Y-83750000D01*
G75*
G02*
X14762500Y-84000000I-250000J0D01*
G01*
X13812500Y-84000000D01*
G75*
G02*
X13562500Y-83750000I0J250000D01*
G01*
X13562500Y-83250000D01*
G75*
G02*
X13812500Y-83000000I250000J0D01*
G01*
G37*
G36*
G01*
X13812500Y-81100000D02*
X14762500Y-81100000D01*
G75*
G02*
X15012500Y-81350000I0J-250000D01*
G01*
X15012500Y-81850000D01*
G75*
G02*
X14762500Y-82100000I-250000J0D01*
G01*
X13812500Y-82100000D01*
G75*
G02*
X13562500Y-81850000I0J250000D01*
G01*
X13562500Y-81350000D01*
G75*
G02*
X13812500Y-81100000I250000J0D01*
G01*
G37*
G36*
G01*
X20162500Y-83000000D02*
X21112500Y-83000000D01*
G75*
G02*
X21362500Y-83250000I0J-250000D01*
G01*
X21362500Y-83750000D01*
G75*
G02*
X21112500Y-84000000I-250000J0D01*
G01*
X20162500Y-84000000D01*
G75*
G02*
X19912500Y-83750000I0J250000D01*
G01*
X19912500Y-83250000D01*
G75*
G02*
X20162500Y-83000000I250000J0D01*
G01*
G37*
G36*
G01*
X20162500Y-81100000D02*
X21112500Y-81100000D01*
G75*
G02*
X21362500Y-81350000I0J-250000D01*
G01*
X21362500Y-81850000D01*
G75*
G02*
X21112500Y-82100000I-250000J0D01*
G01*
X20162500Y-82100000D01*
G75*
G02*
X19912500Y-81850000I0J250000D01*
G01*
X19912500Y-81350000D01*
G75*
G02*
X20162500Y-81100000I250000J0D01*
G01*
G37*
G36*
G01*
X18600000Y-27306250D02*
X18600000Y-28256250D01*
G75*
G02*
X18350000Y-28506250I-250000J0D01*
G01*
X17850000Y-28506250D01*
G75*
G02*
X17600000Y-28256250I0J250000D01*
G01*
X17600000Y-27306250D01*
G75*
G02*
X17850000Y-27056250I250000J0D01*
G01*
X18350000Y-27056250D01*
G75*
G02*
X18600000Y-27306250I0J-250000D01*
G01*
G37*
G36*
G01*
X20500000Y-27306250D02*
X20500000Y-28256250D01*
G75*
G02*
X20250000Y-28506250I-250000J0D01*
G01*
X19750000Y-28506250D01*
G75*
G02*
X19500000Y-28256250I0J250000D01*
G01*
X19500000Y-27306250D01*
G75*
G02*
X19750000Y-27056250I250000J0D01*
G01*
X20250000Y-27056250D01*
G75*
G02*
X20500000Y-27306250I0J-250000D01*
G01*
G37*
G36*
G01*
X28256250Y-82100000D02*
X27306250Y-82100000D01*
G75*
G02*
X27056250Y-81850000I0J250000D01*
G01*
X27056250Y-81350000D01*
G75*
G02*
X27306250Y-81100000I250000J0D01*
G01*
X28256250Y-81100000D01*
G75*
G02*
X28506250Y-81350000I0J-250000D01*
G01*
X28506250Y-81850000D01*
G75*
G02*
X28256250Y-82100000I-250000J0D01*
G01*
G37*
G36*
G01*
X28256250Y-84000000D02*
X27306250Y-84000000D01*
G75*
G02*
X27056250Y-83750000I0J250000D01*
G01*
X27056250Y-83250000D01*
G75*
G02*
X27306250Y-83000000I250000J0D01*
G01*
X28256250Y-83000000D01*
G75*
G02*
X28506250Y-83250000I0J-250000D01*
G01*
X28506250Y-83750000D01*
G75*
G02*
X28256250Y-84000000I-250000J0D01*
G01*
G37*
M02*
