G04 #@! TF.GenerationSoftware,KiCad,Pcbnew,(6.0.1-0)*
G04 #@! TF.CreationDate,2022-04-23T14:38:49+10:00*
G04 #@! TF.ProjectId,pcb,7063622e-6b69-4636-9164-5f7063625858,rev?*
G04 #@! TF.SameCoordinates,Original*
G04 #@! TF.FileFunction,Soldermask,Bot*
G04 #@! TF.FilePolarity,Negative*
%FSLAX46Y46*%
G04 Gerber Fmt 4.6, Leading zero omitted, Abs format (unit mm)*
G04 Created by KiCad (PCBNEW (6.0.1-0)) date 2022-04-23 14:38:49*
%MOMM*%
%LPD*%
G01*
G04 APERTURE LIST*
G04 Aperture macros list*
%AMRoundRect*
0 Rectangle with rounded corners*
0 $1 Rounding radius*
0 $2 $3 $4 $5 $6 $7 $8 $9 X,Y pos of 4 corners*
0 Add a 4 corners polygon primitive as box body*
4,1,4,$2,$3,$4,$5,$6,$7,$8,$9,$2,$3,0*
0 Add four circle primitives for the rounded corners*
1,1,$1+$1,$2,$3*
1,1,$1+$1,$4,$5*
1,1,$1+$1,$6,$7*
1,1,$1+$1,$8,$9*
0 Add four rect primitives between the rounded corners*
20,1,$1+$1,$2,$3,$4,$5,0*
20,1,$1+$1,$4,$5,$6,$7,0*
20,1,$1+$1,$6,$7,$8,$9,0*
20,1,$1+$1,$8,$9,$2,$3,0*%
G04 Aperture macros list end*
%ADD10C,3.048000*%
%ADD11C,3.000000*%
%ADD12C,3.987800*%
%ADD13C,1.750000*%
%ADD14R,2.550000X2.500000*%
%ADD15C,0.787400*%
%ADD16O,3.400000X3.400000*%
%ADD17R,2.500000X2.550000*%
%ADD18RoundRect,0.250000X0.475000X-0.250000X0.475000X0.250000X-0.475000X0.250000X-0.475000X-0.250000X0*%
%ADD19RoundRect,0.250000X-0.475000X0.250000X-0.475000X-0.250000X0.475000X-0.250000X0.475000X0.250000X0*%
%ADD20R,1.200000X1.400000*%
%ADD21R,1.000000X1.400000*%
%ADD22RoundRect,0.250000X-0.625000X0.375000X-0.625000X-0.375000X0.625000X-0.375000X0.625000X0.375000X0*%
%ADD23R,1.700000X1.700000*%
%ADD24O,1.700000X1.700000*%
%ADD25R,0.800000X0.900000*%
%ADD26RoundRect,0.249998X0.450002X-0.262502X0.450002X0.262502X-0.450002X0.262502X-0.450002X-0.262502X0*%
%ADD27RoundRect,0.249998X-0.450002X0.262502X-0.450002X-0.262502X0.450002X-0.262502X0.450002X0.262502X0*%
%ADD28RoundRect,0.249998X0.262502X0.450002X-0.262502X0.450002X-0.262502X-0.450002X0.262502X-0.450002X0*%
%ADD29C,0.900000*%
%ADD30R,1.000000X0.800000*%
%ADD31R,0.700000X1.500000*%
%ADD32R,1.060000X0.650000*%
%ADD33C,0.650000*%
%ADD34R,2.450000X0.600000*%
%ADD35R,2.450000X0.300000*%
%ADD36R,1.700000X1.000000*%
%ADD37R,1.524000X0.700000*%
%ADD38R,0.700000X1.524000*%
%ADD39RoundRect,0.243750X0.243750X0.456250X-0.243750X0.456250X-0.243750X-0.456250X0.243750X-0.456250X0*%
%ADD40R,1.200000X0.900000*%
%ADD41RoundRect,0.249999X-0.625001X0.350001X-0.625001X-0.350001X0.625001X-0.350001X0.625001X0.350001X0*%
%ADD42O,1.750000X1.200000*%
%ADD43RoundRect,0.249999X0.625001X-0.350001X0.625001X0.350001X-0.625001X0.350001X-0.625001X-0.350001X0*%
%ADD44R,0.900000X1.200000*%
%ADD45RoundRect,0.150000X0.150000X0.625000X-0.150000X0.625000X-0.150000X-0.625000X0.150000X-0.625000X0*%
%ADD46RoundRect,0.250000X0.350000X0.650000X-0.350000X0.650000X-0.350000X-0.650000X0.350000X-0.650000X0*%
%ADD47RoundRect,0.250000X-0.450000X0.262500X-0.450000X-0.262500X0.450000X-0.262500X0.450000X0.262500X0*%
%ADD48RoundRect,0.250000X0.450000X-0.262500X0.450000X0.262500X-0.450000X0.262500X-0.450000X-0.262500X0*%
%ADD49RoundRect,0.250000X0.625000X-0.375000X0.625000X0.375000X-0.625000X0.375000X-0.625000X-0.375000X0*%
%ADD50RoundRect,0.150000X-0.150000X-0.625000X0.150000X-0.625000X0.150000X0.625000X-0.150000X0.625000X0*%
%ADD51RoundRect,0.250000X-0.350000X-0.650000X0.350000X-0.650000X0.350000X0.650000X-0.350000X0.650000X0*%
%ADD52RoundRect,0.243750X-0.243750X-0.456250X0.243750X-0.456250X0.243750X0.456250X-0.243750X0.456250X0*%
%ADD53R,2.000000X2.000000*%
%ADD54C,2.000000*%
%ADD55R,2.000000X3.200000*%
%ADD56RoundRect,0.250000X-0.262500X-0.450000X0.262500X-0.450000X0.262500X0.450000X-0.262500X0.450000X0*%
G04 APERTURE END LIST*
D10*
X254825500Y-102235000D03*
D11*
X246697500Y-97790000D03*
D12*
X254825500Y-86995000D03*
D13*
X247967500Y-95250000D03*
X237807500Y-95250000D03*
D10*
X230949500Y-102235000D03*
D12*
X242887500Y-95250000D03*
D11*
X240347500Y-100330000D03*
D12*
X230949500Y-86995000D03*
D14*
X249972500Y-97790000D03*
X237045500Y-100330000D03*
D15*
X129127250Y-15081250D03*
X129127250Y-17621250D03*
X129127250Y-12541250D03*
X129127250Y-13811250D03*
X129127250Y-16351250D03*
D16*
X85725000Y-52006250D03*
X85725000Y-48006250D03*
X166687500Y-48006250D03*
X166687500Y-52006250D03*
D12*
X76200000Y-38100000D03*
D13*
X71120000Y-38100000D03*
D11*
X80010000Y-40640000D03*
X73660000Y-43180000D03*
D13*
X81280000Y-38100000D03*
D14*
X83285000Y-40640000D03*
X70358000Y-43180000D03*
D15*
X242887500Y-8191500D03*
X244157500Y-8191500D03*
X245427500Y-8191500D03*
X240347500Y-8191500D03*
X241617500Y-8191500D03*
D12*
X200056750Y-106680000D03*
D10*
X200056750Y-91440000D03*
D11*
X184308750Y-95885000D03*
X190658750Y-93345000D03*
D10*
X176180750Y-91440000D03*
D12*
X176180750Y-106680000D03*
D13*
X193198750Y-98425000D03*
X183038750Y-98425000D03*
D12*
X188118750Y-98425000D03*
D14*
X181033750Y-95885000D03*
X193960750Y-93345000D03*
D15*
X80168750Y-85185250D03*
X78898750Y-85185250D03*
X82708750Y-85185250D03*
X81438750Y-85185250D03*
X77628750Y-85185250D03*
X8255000Y-8191500D03*
X9525000Y-8191500D03*
X6985000Y-8191500D03*
X12065000Y-8191500D03*
X10795000Y-8191500D03*
D11*
X60960000Y-2540000D03*
D13*
X52070000Y0D03*
D12*
X57150000Y0D03*
D11*
X54610000Y-5080000D03*
D13*
X62230000Y0D03*
D14*
X64235000Y-2540000D03*
X51308000Y-5080000D03*
D13*
X109220000Y-57150000D03*
D12*
X114300000Y-57150000D03*
D11*
X118110000Y-59690000D03*
D13*
X119380000Y-57150000D03*
D11*
X111760000Y-62230000D03*
D14*
X121385000Y-59690000D03*
X108458000Y-62230000D03*
D12*
X233362500Y-117475000D03*
D11*
X230822500Y-122555000D03*
X237172500Y-120015000D03*
D13*
X228282500Y-117475000D03*
X238442500Y-117475000D03*
D14*
X240447500Y-120015000D03*
X227520500Y-122555000D03*
D11*
X192722500Y-5080000D03*
D13*
X190182500Y0D03*
X200342500Y0D03*
D12*
X195262500Y0D03*
D11*
X199072500Y-2540000D03*
D14*
X202347500Y-2540000D03*
X189420500Y-5080000D03*
D11*
X118110000Y-40640000D03*
D13*
X109220000Y-38100000D03*
D11*
X111760000Y-43180000D03*
D13*
X119380000Y-38100000D03*
D12*
X114300000Y-38100000D03*
D14*
X121385000Y-40640000D03*
X108458000Y-43180000D03*
D12*
X233362500Y-19050000D03*
D13*
X238442500Y-19050000D03*
X228282500Y-19050000D03*
D11*
X237172500Y-21590000D03*
X230822500Y-24130000D03*
D14*
X240447500Y-21590000D03*
X227520500Y-24130000D03*
D11*
X173672500Y-122555000D03*
D12*
X176212500Y-117475000D03*
D13*
X181292500Y-117475000D03*
X171132500Y-117475000D03*
D11*
X180022500Y-120015000D03*
D14*
X183297500Y-120015000D03*
X170370500Y-122555000D03*
D11*
X41910000Y-40640000D03*
D12*
X38100000Y-38100000D03*
D13*
X43180000Y-38100000D03*
X33020000Y-38100000D03*
D11*
X35560000Y-43180000D03*
D14*
X45185000Y-40640000D03*
X32258000Y-43180000D03*
D13*
X100330000Y0D03*
X90170000Y0D03*
D11*
X92710000Y-5080000D03*
D12*
X95250000Y0D03*
D11*
X99060000Y-2540000D03*
D14*
X102335000Y-2540000D03*
X89408000Y-5080000D03*
D15*
X82708750Y-89439750D03*
X78898750Y-89439750D03*
X77628750Y-89439750D03*
X81438750Y-89439750D03*
X80168750Y-89439750D03*
D12*
X0Y-116681250D03*
D13*
X0Y-111601250D03*
X0Y-121761250D03*
D11*
X2540000Y-112871250D03*
X5080000Y-119221250D03*
D17*
X2540000Y-109596250D03*
X5080000Y-122523250D03*
D11*
X256222500Y-2540000D03*
D12*
X252412500Y0D03*
D11*
X249872500Y-5080000D03*
D13*
X247332500Y0D03*
X257492500Y0D03*
D14*
X259497500Y-2540000D03*
X246570500Y-5080000D03*
D13*
X209232500Y0D03*
X219392500Y0D03*
D11*
X211772500Y-5080000D03*
D12*
X214312500Y0D03*
D11*
X218122500Y-2540000D03*
D14*
X221397500Y-2540000D03*
X208470500Y-5080000D03*
D11*
X160972500Y-97790000D03*
D13*
X152082500Y-95250000D03*
D12*
X157162500Y-95250000D03*
D11*
X154622500Y-100330000D03*
D13*
X162242500Y-95250000D03*
D14*
X164247500Y-97790000D03*
X151320500Y-100330000D03*
D12*
X233362500Y-57150000D03*
D13*
X238442500Y-57150000D03*
D11*
X230822500Y-62230000D03*
D13*
X228282500Y-57150000D03*
D11*
X237172500Y-59690000D03*
D14*
X240447500Y-59690000D03*
X227520500Y-62230000D03*
D11*
X60960000Y-120015000D03*
D12*
X57150000Y-117475000D03*
D13*
X52070000Y-117475000D03*
X62230000Y-117475000D03*
D11*
X54610000Y-122555000D03*
D14*
X64235000Y-120015000D03*
X51308000Y-122555000D03*
D12*
X19050000Y-19050000D03*
D13*
X24130000Y-19050000D03*
D11*
X16510000Y-24130000D03*
X22860000Y-21590000D03*
D13*
X13970000Y-19050000D03*
D14*
X26135000Y-21590000D03*
X13208000Y-24130000D03*
D15*
X103505000Y-8191500D03*
X104775000Y-8191500D03*
X106045000Y-8191500D03*
X102235000Y-8191500D03*
X107315000Y-8191500D03*
X241617500Y-10064750D03*
X240347500Y-10064750D03*
X245427500Y-10064750D03*
X242887500Y-10064750D03*
X244157500Y-10064750D03*
D11*
X192722500Y-81280000D03*
D13*
X190182500Y-76200000D03*
D11*
X199072500Y-78740000D03*
D12*
X195262500Y-76200000D03*
D13*
X200342500Y-76200000D03*
D14*
X202347500Y-78740000D03*
X189420500Y-81280000D03*
D11*
X111760000Y-99853750D03*
D13*
X114300000Y-101123750D03*
X114300000Y-90963750D03*
D11*
X109220000Y-93503750D03*
D12*
X114300000Y-96043750D03*
D17*
X111760000Y-103128750D03*
X109220000Y-90201750D03*
D13*
X138112500Y-66992500D03*
D11*
X140652500Y-58102500D03*
X143192500Y-64452500D03*
D12*
X138112500Y-61912500D03*
D13*
X138112500Y-56832500D03*
D17*
X140652500Y-54827500D03*
X143192500Y-67754500D03*
D12*
X19050000Y-117475000D03*
D13*
X13970000Y-117475000D03*
D11*
X22860000Y-120015000D03*
X16510000Y-122555000D03*
D13*
X24130000Y-117475000D03*
D14*
X26135000Y-120015000D03*
X13208000Y-122555000D03*
D11*
X160972500Y-40640000D03*
D12*
X157162500Y-38100000D03*
D11*
X154622500Y-43180000D03*
D13*
X162242500Y-38100000D03*
X152082500Y-38100000D03*
D14*
X164247500Y-40640000D03*
X151320500Y-43180000D03*
D12*
X76200000Y-117475000D03*
D13*
X71120000Y-117475000D03*
D11*
X73660000Y-122555000D03*
D13*
X81280000Y-117475000D03*
D11*
X80010000Y-120015000D03*
D14*
X83285000Y-120015000D03*
X70358000Y-122555000D03*
D13*
X90170000Y-76200000D03*
D12*
X95250000Y-76200000D03*
D13*
X100330000Y-76200000D03*
D11*
X99060000Y-78740000D03*
X92710000Y-81280000D03*
D14*
X102335000Y-78740000D03*
X89408000Y-81280000D03*
D13*
X52070000Y-19050000D03*
D11*
X60960000Y-21590000D03*
D12*
X57150000Y-19050000D03*
D11*
X54610000Y-24130000D03*
D13*
X62230000Y-19050000D03*
D14*
X64235000Y-21590000D03*
X51308000Y-24130000D03*
D13*
X0Y-78263750D03*
D11*
X5080000Y-85883750D03*
X2540000Y-79533750D03*
D13*
X0Y-88423750D03*
D12*
X0Y-83343750D03*
D17*
X2540000Y-76258750D03*
X5080000Y-89185750D03*
D11*
X211772500Y-122555000D03*
D12*
X214312500Y-117475000D03*
D11*
X218122500Y-120015000D03*
D13*
X209232500Y-117475000D03*
X219392500Y-117475000D03*
D14*
X221397500Y-120015000D03*
X208470500Y-122555000D03*
D11*
X80010000Y-59690000D03*
D12*
X76200000Y-57150000D03*
D11*
X73660000Y-62230000D03*
D13*
X81280000Y-57150000D03*
X71120000Y-57150000D03*
D14*
X83285000Y-59690000D03*
X70358000Y-62230000D03*
D13*
X257492500Y-19050000D03*
X247332500Y-19050000D03*
D11*
X256222500Y-21590000D03*
D12*
X252412500Y-19050000D03*
D11*
X249872500Y-24130000D03*
D14*
X259497500Y-21590000D03*
X246570500Y-24130000D03*
D13*
X181292500Y-57150000D03*
D11*
X180022500Y-59690000D03*
D12*
X176212500Y-57150000D03*
D11*
X173672500Y-62230000D03*
D13*
X171132500Y-57150000D03*
D14*
X183297500Y-59690000D03*
X170370500Y-62230000D03*
D13*
X16351250Y-95250000D03*
D12*
X21431250Y-95250000D03*
D11*
X25241250Y-97790000D03*
X18891250Y-100330000D03*
D13*
X26511250Y-95250000D03*
D14*
X28516250Y-97790000D03*
X15589250Y-100330000D03*
D15*
X206533750Y-85185250D03*
X201453750Y-85185250D03*
X203993750Y-85185250D03*
X205263750Y-85185250D03*
X202723750Y-85185250D03*
D14*
X227520500Y-81280000D03*
X240447500Y-78740000D03*
D11*
X230822500Y-81280000D03*
D12*
X233362500Y-76200000D03*
D11*
X237172500Y-78740000D03*
D13*
X238442500Y-76200000D03*
X228282500Y-76200000D03*
D11*
X143192500Y-98583750D03*
D12*
X138112500Y-96043750D03*
D13*
X138112500Y-90963750D03*
D11*
X140652500Y-92233750D03*
D13*
X138112500Y-101123750D03*
D17*
X140652500Y-88958750D03*
X143192500Y-101885750D03*
D15*
X206533750Y-89439750D03*
X201453750Y-89439750D03*
X203993750Y-89439750D03*
X202723750Y-89439750D03*
X205263750Y-89439750D03*
X172243750Y-85185250D03*
X169703750Y-85185250D03*
X173513750Y-85185250D03*
X174783750Y-85185250D03*
X170973750Y-85185250D03*
D11*
X218122500Y-78740000D03*
D13*
X219392500Y-76200000D03*
X209232500Y-76200000D03*
D11*
X211772500Y-81280000D03*
D12*
X214312500Y-76200000D03*
D14*
X221397500Y-78740000D03*
X208470500Y-81280000D03*
D11*
X80010000Y-2540000D03*
D12*
X76200000Y0D03*
D11*
X73660000Y-5080000D03*
D13*
X81280000Y0D03*
X71120000Y0D03*
D14*
X83285000Y-2540000D03*
X70358000Y-5080000D03*
D15*
X41433750Y-85185250D03*
X37623750Y-85185250D03*
X38893750Y-85185250D03*
X36353750Y-85185250D03*
X40163750Y-85185250D03*
D12*
X38100000Y-117475000D03*
D13*
X43180000Y-117475000D03*
D11*
X41910000Y-120015000D03*
X35560000Y-122555000D03*
D13*
X33020000Y-117475000D03*
D14*
X45185000Y-120015000D03*
X32258000Y-122555000D03*
D13*
X43180000Y-57150000D03*
X33020000Y-57150000D03*
D11*
X41910000Y-59690000D03*
D12*
X38100000Y-57150000D03*
D11*
X35560000Y-62230000D03*
D14*
X45185000Y-59690000D03*
X32258000Y-62230000D03*
D13*
X138112500Y-114776250D03*
D11*
X143192500Y-122396250D03*
D12*
X138112500Y-119856250D03*
D13*
X138112500Y-124936250D03*
D11*
X140652500Y-116046250D03*
D17*
X140652500Y-112771250D03*
X143192500Y-125698250D03*
D11*
X249872500Y-120491250D03*
D13*
X252412500Y-111601250D03*
X252412500Y-121761250D03*
D11*
X247332500Y-114141250D03*
D12*
X252412500Y-116681250D03*
D17*
X249872500Y-123766250D03*
X247332500Y-110839250D03*
D12*
X233362500Y0D03*
D13*
X228282500Y0D03*
X238442500Y0D03*
D11*
X237172500Y-2540000D03*
X230822500Y-5080000D03*
D14*
X240447500Y-2540000D03*
X227520500Y-5080000D03*
D11*
X160972500Y-59690000D03*
D13*
X152082500Y-57150000D03*
D11*
X154622500Y-62230000D03*
D12*
X157162500Y-57150000D03*
D13*
X162242500Y-57150000D03*
D14*
X164247500Y-59690000D03*
X151320500Y-62230000D03*
D11*
X60960000Y-40640000D03*
X54610000Y-43180000D03*
D12*
X57150000Y-38100000D03*
D13*
X52070000Y-38100000D03*
X62230000Y-38100000D03*
D14*
X64235000Y-40640000D03*
X51308000Y-43180000D03*
D12*
X0Y-19050000D03*
D11*
X-2540000Y-24130000D03*
D13*
X-5080000Y-19050000D03*
X5080000Y-19050000D03*
D11*
X3810000Y-21590000D03*
D14*
X7085000Y-21590000D03*
X-5842000Y-24130000D03*
D15*
X6985000Y-10064750D03*
X10795000Y-10064750D03*
X8255000Y-10064750D03*
X9525000Y-10064750D03*
X12065000Y-10064750D03*
D12*
X38100000Y-19050000D03*
D11*
X35560000Y-24130000D03*
X41910000Y-21590000D03*
D13*
X33020000Y-19050000D03*
X43180000Y-19050000D03*
D14*
X45185000Y-21590000D03*
X32258000Y-24130000D03*
D11*
X3810000Y-2540000D03*
D12*
X0Y0D03*
D13*
X5080000Y0D03*
X-5080000Y0D03*
D11*
X-2540000Y-5080000D03*
D14*
X7085000Y-2540000D03*
X-5842000Y-5080000D03*
D13*
X52070000Y-76200000D03*
D11*
X54610000Y-81280000D03*
X60960000Y-78740000D03*
D12*
X57150000Y-76200000D03*
D13*
X62230000Y-76200000D03*
D14*
X64235000Y-78740000D03*
X51308000Y-81280000D03*
D12*
X157162500Y-19050000D03*
D13*
X162242500Y-19050000D03*
X152082500Y-19050000D03*
D11*
X160972500Y-21590000D03*
X154622500Y-24130000D03*
D14*
X164247500Y-21590000D03*
X151320500Y-24130000D03*
D13*
X143192500Y-38100000D03*
D11*
X141922500Y-40640000D03*
D13*
X133032500Y-38100000D03*
D11*
X135572500Y-43180000D03*
D12*
X138112500Y-38100000D03*
D14*
X145197500Y-40640000D03*
X132270500Y-43180000D03*
D15*
X147637500Y-8191500D03*
X150177500Y-8191500D03*
X146367500Y-8191500D03*
X145097500Y-8191500D03*
X148907500Y-8191500D03*
D11*
X211772500Y-43180000D03*
D13*
X219392500Y-38100000D03*
D11*
X218122500Y-40640000D03*
D13*
X209232500Y-38100000D03*
D12*
X214312500Y-38100000D03*
D14*
X221397500Y-40640000D03*
X208470500Y-43180000D03*
D15*
X150177500Y-10064750D03*
X146367500Y-10064750D03*
X148907500Y-10064750D03*
X145097500Y-10064750D03*
X147637500Y-10064750D03*
D12*
X19050000Y-76200000D03*
D13*
X24130000Y-76200000D03*
D11*
X22860000Y-78740000D03*
D13*
X13970000Y-76200000D03*
D11*
X16510000Y-81280000D03*
D14*
X26135000Y-78740000D03*
X13208000Y-81280000D03*
D13*
X100330000Y-19050000D03*
D11*
X92710000Y-24130000D03*
D12*
X95250000Y-19050000D03*
D13*
X90170000Y-19050000D03*
D11*
X99060000Y-21590000D03*
D14*
X102335000Y-21590000D03*
X89408000Y-24130000D03*
D13*
X33020000Y0D03*
D12*
X38100000Y0D03*
D11*
X35560000Y-5080000D03*
D13*
X43180000Y0D03*
D11*
X41910000Y-2540000D03*
D14*
X45185000Y-2540000D03*
X32258000Y-5080000D03*
D13*
X219392500Y-19050000D03*
X209232500Y-19050000D03*
D11*
X218122500Y-21590000D03*
D12*
X214312500Y-19050000D03*
D11*
X211772500Y-24130000D03*
D14*
X221397500Y-21590000D03*
X208470500Y-24130000D03*
D11*
X73660000Y-81280000D03*
X80010000Y-78740000D03*
D13*
X71120000Y-76200000D03*
D12*
X76200000Y-76200000D03*
D13*
X81280000Y-76200000D03*
D14*
X83285000Y-78740000D03*
X70358000Y-81280000D03*
D12*
X57150000Y-57150000D03*
D13*
X52070000Y-57150000D03*
D11*
X60960000Y-59690000D03*
D13*
X62230000Y-57150000D03*
D11*
X54610000Y-62230000D03*
D14*
X64235000Y-59690000D03*
X51308000Y-62230000D03*
D13*
X54451250Y-98425000D03*
X64611250Y-98425000D03*
D11*
X55721250Y-95885000D03*
D12*
X47593250Y-106680000D03*
D11*
X62071250Y-93345000D03*
D10*
X71469250Y-91440000D03*
X47593250Y-91440000D03*
D12*
X71469250Y-106680000D03*
X59531250Y-98425000D03*
D14*
X52446250Y-95885000D03*
X65373250Y-93345000D03*
D12*
X214312500Y-57150000D03*
D13*
X209232500Y-57150000D03*
X219392500Y-57150000D03*
D11*
X218122500Y-59690000D03*
X211772500Y-62230000D03*
D14*
X221397500Y-59690000D03*
X208470500Y-62230000D03*
D15*
X174783750Y-89439750D03*
X172243750Y-89439750D03*
X170973750Y-89439750D03*
X169703750Y-89439750D03*
X173513750Y-89439750D03*
D13*
X152082500Y-76200000D03*
D12*
X157162500Y-76200000D03*
D13*
X162242500Y-76200000D03*
D11*
X160972500Y-78740000D03*
X154622500Y-81280000D03*
D14*
X164247500Y-78740000D03*
X151320500Y-81280000D03*
D12*
X95250000Y-119856250D03*
D11*
X100330000Y-122396250D03*
D13*
X95250000Y-114776250D03*
D11*
X97790000Y-116046250D03*
D13*
X95250000Y-124936250D03*
D17*
X97790000Y-112771250D03*
X100330000Y-125698250D03*
D13*
X257492500Y-76200000D03*
D12*
X252412500Y-76200000D03*
D13*
X247332500Y-76200000D03*
D11*
X256222500Y-78740000D03*
X249872500Y-81280000D03*
D14*
X259497500Y-78740000D03*
X246570500Y-81280000D03*
D13*
X190182500Y-38100000D03*
D11*
X192722500Y-43180000D03*
D12*
X195262500Y-38100000D03*
D13*
X200342500Y-38100000D03*
D11*
X199072500Y-40640000D03*
D14*
X202347500Y-40640000D03*
X189420500Y-43180000D03*
D12*
X195262500Y-19050000D03*
D11*
X199072500Y-21590000D03*
D13*
X200342500Y-19050000D03*
X190182500Y-19050000D03*
D11*
X192722500Y-24130000D03*
D14*
X202347500Y-21590000D03*
X189420500Y-24130000D03*
D15*
X123285250Y-13811250D03*
X123285250Y-12541250D03*
X123285250Y-16351250D03*
X123285250Y-17621250D03*
X123285250Y-15081250D03*
D13*
X13970000Y0D03*
X24130000Y0D03*
D11*
X16510000Y-5080000D03*
X22860000Y-2540000D03*
D12*
X19050000Y0D03*
D14*
X26135000Y-2540000D03*
X13208000Y-5080000D03*
D13*
X81280000Y-19050000D03*
D12*
X76200000Y-19050000D03*
D11*
X80010000Y-21590000D03*
X73660000Y-24130000D03*
D13*
X71120000Y-19050000D03*
D14*
X83285000Y-21590000D03*
X70358000Y-24130000D03*
D12*
X95250000Y-57150000D03*
D13*
X100330000Y-57150000D03*
X90170000Y-57150000D03*
D11*
X92710000Y-62230000D03*
X99060000Y-59690000D03*
D14*
X102335000Y-59690000D03*
X89408000Y-62230000D03*
D13*
X190182500Y-117475000D03*
X200342500Y-117475000D03*
D11*
X192722500Y-122555000D03*
D12*
X195262500Y-117475000D03*
D11*
X199072500Y-120015000D03*
D14*
X202347500Y-120015000D03*
X189420500Y-122555000D03*
D12*
X95250000Y-38100000D03*
D11*
X92710000Y-43180000D03*
D13*
X90170000Y-38100000D03*
D11*
X99060000Y-40640000D03*
D13*
X100330000Y-38100000D03*
D14*
X102335000Y-40640000D03*
X89408000Y-43180000D03*
D11*
X111760000Y-24130000D03*
D13*
X119380000Y-19050000D03*
D11*
X118110000Y-21590000D03*
D13*
X109220000Y-19050000D03*
D12*
X114300000Y-19050000D03*
D14*
X121385000Y-21590000D03*
X108458000Y-24130000D03*
D15*
X38893750Y-89439750D03*
X36353750Y-89439750D03*
X40163750Y-89439750D03*
X37623750Y-89439750D03*
X41433750Y-89439750D03*
X103505000Y-10064750D03*
X102235000Y-10064750D03*
X104775000Y-10064750D03*
X107315000Y-10064750D03*
X106045000Y-10064750D03*
D12*
X176212500Y-38100000D03*
D11*
X173672500Y-43180000D03*
D13*
X181292500Y-38100000D03*
D11*
X180022500Y-40640000D03*
D13*
X171132500Y-38100000D03*
D14*
X183297500Y-40640000D03*
X170370500Y-43180000D03*
D13*
X143192500Y0D03*
D12*
X138112500Y0D03*
D11*
X141922500Y-2540000D03*
D13*
X133032500Y0D03*
D11*
X135572500Y-5080000D03*
D14*
X145197500Y-2540000D03*
X132270500Y-5080000D03*
D12*
X233362500Y-38100000D03*
D13*
X238442500Y-38100000D03*
D11*
X230822500Y-43180000D03*
D13*
X228282500Y-38100000D03*
D11*
X237172500Y-40640000D03*
D14*
X240447500Y-40640000D03*
X227520500Y-43180000D03*
D11*
X135572500Y-24130000D03*
X141922500Y-21590000D03*
D13*
X133032500Y-19050000D03*
X143192500Y-19050000D03*
D12*
X138112500Y-19050000D03*
D14*
X145197500Y-21590000D03*
X132270500Y-24130000D03*
D15*
X123285250Y-77946250D03*
X123285250Y-75406250D03*
X123285250Y-72866250D03*
X123285250Y-76676250D03*
X123285250Y-74136250D03*
D13*
X0Y-37782500D03*
D11*
X2540000Y-39052500D03*
D12*
X0Y-42862500D03*
D13*
X0Y-47942500D03*
D11*
X5080000Y-45402500D03*
D17*
X2540000Y-35777500D03*
X5080000Y-48704500D03*
D13*
X171132500Y0D03*
D11*
X180022500Y-2540000D03*
D12*
X176212500Y0D03*
D13*
X181292500Y0D03*
D11*
X173672500Y-5080000D03*
D14*
X183297500Y-2540000D03*
X170370500Y-5080000D03*
D12*
X252412500Y-57150000D03*
D13*
X247332500Y-57150000D03*
D11*
X256222500Y-59690000D03*
X249872500Y-62230000D03*
D13*
X257492500Y-57150000D03*
D14*
X259497500Y-59690000D03*
X246570500Y-62230000D03*
D12*
X19050000Y-38100000D03*
D11*
X16510000Y-43180000D03*
X22860000Y-40640000D03*
D13*
X13970000Y-38100000D03*
X24130000Y-38100000D03*
D14*
X26135000Y-40640000D03*
X13208000Y-43180000D03*
D15*
X129127250Y-74136250D03*
X129127250Y-75406250D03*
X129127250Y-76676250D03*
X129127250Y-77946250D03*
X129127250Y-72866250D03*
D13*
X114300000Y-124936250D03*
D12*
X114300000Y-119856250D03*
D11*
X111760000Y-123666250D03*
X109220000Y-117316250D03*
D13*
X114300000Y-114776250D03*
D17*
X111760000Y-126941250D03*
X109220000Y-114014250D03*
D11*
X22860000Y-59690000D03*
D12*
X19050000Y-57150000D03*
D13*
X13970000Y-57150000D03*
X24130000Y-57150000D03*
D11*
X16510000Y-62230000D03*
D14*
X26135000Y-59690000D03*
X13208000Y-62230000D03*
D12*
X157162500Y-119856250D03*
D11*
X154622500Y-123666250D03*
X152082500Y-117316250D03*
D13*
X157162500Y-124936250D03*
X157162500Y-114776250D03*
D17*
X154622500Y-126941250D03*
X152082500Y-114014250D03*
D11*
X154622500Y-5080000D03*
X160972500Y-2540000D03*
D13*
X152082500Y0D03*
D12*
X157162500Y0D03*
D13*
X162242500Y0D03*
D14*
X164247500Y-2540000D03*
X151320500Y-5080000D03*
D12*
X176212500Y-19050000D03*
D11*
X180022500Y-21590000D03*
D13*
X171132500Y-19050000D03*
X181292500Y-19050000D03*
D11*
X173672500Y-24130000D03*
D14*
X183297500Y-21590000D03*
X170370500Y-24130000D03*
D12*
X252412500Y-38100000D03*
D13*
X257492500Y-38100000D03*
D11*
X249872500Y-43180000D03*
D13*
X247332500Y-38100000D03*
D11*
X256222500Y-40640000D03*
D14*
X259497500Y-40640000D03*
X246570500Y-43180000D03*
D13*
X119380000Y0D03*
D11*
X118110000Y-2540000D03*
D12*
X114300000Y0D03*
D11*
X111760000Y-5080000D03*
D13*
X109220000Y0D03*
D14*
X121385000Y-2540000D03*
X108458000Y-5080000D03*
D11*
X35560000Y-81280000D03*
D12*
X38100000Y-76200000D03*
D13*
X33020000Y-76200000D03*
X43180000Y-76200000D03*
D11*
X41910000Y-78740000D03*
D14*
X45185000Y-78740000D03*
X32258000Y-81280000D03*
D13*
X200342500Y-57150000D03*
X190182500Y-57150000D03*
D11*
X192722500Y-62230000D03*
D12*
X195262500Y-57150000D03*
D11*
X199072500Y-59690000D03*
D14*
X202347500Y-59690000D03*
X189420500Y-62230000D03*
D13*
X171132500Y-76200000D03*
D11*
X180022500Y-78740000D03*
D13*
X181292500Y-76200000D03*
D12*
X176212500Y-76200000D03*
D11*
X173672500Y-81280000D03*
D14*
X183297500Y-78740000D03*
X170370500Y-81280000D03*
D13*
X90170000Y-95250000D03*
X100330000Y-95250000D03*
D11*
X92710000Y-100330000D03*
X99060000Y-97790000D03*
D12*
X95250000Y-95250000D03*
D14*
X102335000Y-97790000D03*
X89408000Y-100330000D03*
D18*
X-4762500Y-40637500D03*
X-4762500Y-38737500D03*
D19*
X163512500Y-68900000D03*
X163512500Y-70800000D03*
D18*
X157162500Y-70800000D03*
X157162500Y-68900000D03*
D20*
X248467500Y-30650000D03*
D21*
X250187500Y-30650000D03*
X250187500Y-32850000D03*
X248287500Y-32850000D03*
D22*
X7937500Y-25587500D03*
X7937500Y-28387500D03*
D23*
X259556250Y-126037500D03*
D24*
X259556250Y-123497500D03*
X259556250Y-120957500D03*
X259556250Y-118417500D03*
D25*
X168118750Y-68850000D03*
X170018750Y-68850000D03*
X169068750Y-70850000D03*
D26*
X-7143750Y-45362500D03*
X-7143750Y-43537500D03*
D27*
X10318750Y-26075000D03*
X10318750Y-27900000D03*
X-7143750Y-18137500D03*
X-7143750Y-19962500D03*
D28*
X109656250Y-76200000D03*
X107831250Y-76200000D03*
D27*
X245268750Y-18137500D03*
X245268750Y-19962500D03*
X245268750Y-37187500D03*
X245268750Y-39012500D03*
D26*
X176212500Y-70762500D03*
X176212500Y-68937500D03*
D27*
X152400000Y-68937500D03*
X152400000Y-70762500D03*
D26*
X154781250Y-70762500D03*
X154781250Y-68937500D03*
D29*
X136437500Y-78398750D03*
D30*
X138587500Y-79498750D03*
X138587500Y-77288750D03*
D29*
X133437500Y-78398750D03*
D30*
X131287500Y-79498750D03*
X131287500Y-77288750D03*
D31*
X137187500Y-76638750D03*
X134187500Y-76638750D03*
X132687500Y-76638750D03*
D32*
X171937500Y-70800000D03*
X171937500Y-69850000D03*
X171937500Y-68900000D03*
X174137500Y-68900000D03*
X174137500Y-70800000D03*
D25*
X159387500Y-68850000D03*
X161287500Y-68850000D03*
X160337500Y-70850000D03*
D33*
X-3275000Y-28860000D03*
X-3275000Y-34640000D03*
D34*
X-1330000Y-34975000D03*
X-1330000Y-34200000D03*
D35*
X-1330000Y-33500000D03*
X-1330000Y-33000000D03*
X-1330000Y-32500000D03*
X-1330000Y-32000000D03*
X-1330000Y-31500000D03*
X-1330000Y-31000000D03*
X-1330000Y-30500000D03*
X-1330000Y-30000000D03*
D34*
X-1330000Y-29300000D03*
X-1330000Y-28525000D03*
D33*
X254893750Y-34640000D03*
X254893750Y-28860000D03*
D34*
X252948750Y-28525000D03*
X252948750Y-29300000D03*
D35*
X252948750Y-30000000D03*
X252948750Y-30500000D03*
X252948750Y-31000000D03*
X252948750Y-31500000D03*
X252948750Y-32000000D03*
X252948750Y-32500000D03*
X252948750Y-33000000D03*
X252948750Y-33500000D03*
D34*
X252948750Y-34200000D03*
X252948750Y-34975000D03*
D36*
X131787500Y-69537500D03*
X138087500Y-69537500D03*
X138087500Y-73337500D03*
X131787500Y-73337500D03*
D20*
X3151250Y-32850000D03*
D21*
X1431250Y-32850000D03*
X1431250Y-30650000D03*
X3331250Y-30650000D03*
D18*
X150018750Y-70800000D03*
X150018750Y-68900000D03*
D30*
X113825000Y-79498750D03*
X121125000Y-77288750D03*
X121125000Y-79498750D03*
X113825000Y-77288750D03*
D29*
X118975000Y-78398750D03*
X115975000Y-78398750D03*
D31*
X119725000Y-76638750D03*
X116725000Y-76638750D03*
X115225000Y-76638750D03*
D32*
X80475000Y-68900000D03*
X80475000Y-69850000D03*
X80475000Y-70800000D03*
X78275000Y-70800000D03*
X78275000Y-68900000D03*
D37*
X213250000Y-100200000D03*
X213250000Y-99100000D03*
X213250000Y-98000000D03*
X213250000Y-96900000D03*
X213250000Y-95800000D03*
X213250000Y-94700000D03*
X213250000Y-93600000D03*
X213250000Y-92500000D03*
X213250000Y-91400000D03*
X213250000Y-90300000D03*
X213250000Y-89200000D03*
X213250000Y-88100000D03*
X213250000Y-87000000D03*
D38*
X214500000Y-85500000D03*
X215600000Y-85500000D03*
X216700000Y-85500000D03*
X217800000Y-85500000D03*
X218900000Y-85500000D03*
X220000000Y-85500000D03*
X221100000Y-85500000D03*
X222200000Y-85500000D03*
X223300000Y-85500000D03*
X224400000Y-85500000D03*
X225500000Y-85500000D03*
D37*
X226750000Y-87000000D03*
X226750000Y-88100000D03*
X226750000Y-89200000D03*
X226750000Y-90300000D03*
X226750000Y-91400000D03*
X226750000Y-92500000D03*
X226750000Y-93600000D03*
X226750000Y-94700000D03*
X226750000Y-95800000D03*
X226750000Y-96900000D03*
X226750000Y-98000000D03*
X226750000Y-99100000D03*
X226750000Y-100200000D03*
D38*
X-4950000Y-56000000D03*
X-3850000Y-56000000D03*
X-2750000Y-56000000D03*
X-1650000Y-56000000D03*
X-550000Y-56000000D03*
X550000Y-56000000D03*
X1650000Y-56000000D03*
X2750000Y-56000000D03*
X3850000Y-56000000D03*
X4950000Y-56000000D03*
X6050000Y-56000000D03*
X7150000Y-56000000D03*
X8250000Y-56000000D03*
D37*
X9750000Y-57250000D03*
X9750000Y-58350000D03*
X9750000Y-59450000D03*
X9750000Y-60550000D03*
X9750000Y-61650000D03*
X9750000Y-62750000D03*
X9750000Y-63850000D03*
X9750000Y-64950000D03*
X9750000Y-66050000D03*
X9750000Y-67150000D03*
X9750000Y-68250000D03*
D38*
X8250000Y-69500000D03*
X7150000Y-69500000D03*
X6050000Y-69500000D03*
X4950000Y-69500000D03*
X3850000Y-69500000D03*
X2750000Y-69500000D03*
X1650000Y-69500000D03*
X550000Y-69500000D03*
X-550000Y-69500000D03*
X-1650000Y-69500000D03*
X-2750000Y-69500000D03*
X-3850000Y-69500000D03*
X-4950000Y-69500000D03*
D39*
X109681250Y-72231250D03*
X107806250Y-72231250D03*
D40*
X86518750Y-71500000D03*
X86518750Y-68200000D03*
D25*
X82393750Y-68850000D03*
X84293750Y-68850000D03*
X83343750Y-70850000D03*
D26*
X76200000Y-70762500D03*
X76200000Y-68937500D03*
D27*
X100012500Y-68937500D03*
X100012500Y-70762500D03*
D26*
X97631250Y-70762500D03*
X97631250Y-68937500D03*
D18*
X102393750Y-70800000D03*
X102393750Y-68900000D03*
D19*
X95250000Y-68900000D03*
X95250000Y-70800000D03*
X88900000Y-68900000D03*
X88900000Y-70800000D03*
D25*
X91125000Y-68850000D03*
X93025000Y-68850000D03*
X92075000Y-70850000D03*
D23*
X-7143750Y-126037500D03*
D24*
X-7143750Y-123497500D03*
X-7143750Y-120957500D03*
X-7143750Y-118417500D03*
D26*
X-7143750Y-40600000D03*
X-7143750Y-38775000D03*
D41*
X149156250Y-49006250D03*
D42*
X149156250Y-51006250D03*
D43*
X103256250Y-51006250D03*
D42*
X103256250Y-49006250D03*
D40*
X211137500Y1650000D03*
X211137500Y-1650000D03*
X92075000Y-74550000D03*
X92075000Y-77850000D03*
X211137500Y-55500000D03*
X211137500Y-58800000D03*
X192087500Y-55500000D03*
X192087500Y-58800000D03*
X34925000Y-36450000D03*
X34925000Y-39750000D03*
D44*
X136462500Y-65087500D03*
X139762500Y-65087500D03*
D40*
X191293750Y-100075000D03*
X191293750Y-96775000D03*
X192087500Y-36450000D03*
X192087500Y-39750000D03*
X192087500Y1650000D03*
X192087500Y-1650000D03*
X-3175000Y-17400000D03*
X-3175000Y-20700000D03*
X165893750Y-71500000D03*
X165893750Y-68200000D03*
X73025000Y1650000D03*
X73025000Y-1650000D03*
X53975000Y1650000D03*
X53975000Y-1650000D03*
X211137500Y-115825000D03*
X211137500Y-119125000D03*
D45*
X205700000Y-46418750D03*
X204700000Y-46418750D03*
X203700000Y-46418750D03*
X202700000Y-46418750D03*
X201700000Y-46418750D03*
X200700000Y-46418750D03*
D46*
X207000000Y-50293750D03*
X199400000Y-50293750D03*
D40*
X34925000Y-55500000D03*
X34925000Y-58800000D03*
X62706250Y-100075000D03*
X62706250Y-96775000D03*
X153987500Y-55500000D03*
X153987500Y-58800000D03*
X15875000Y-115825000D03*
X15875000Y-119125000D03*
X73025000Y-17400000D03*
X73025000Y-20700000D03*
D44*
X136462500Y-123031250D03*
X139762500Y-123031250D03*
D47*
X242887500Y-18137500D03*
X242887500Y-19962500D03*
D40*
X53975000Y-17400000D03*
X53975000Y-20700000D03*
X230187500Y-55500000D03*
X230187500Y-58800000D03*
X192087500Y-17400000D03*
X192087500Y-20700000D03*
X-3175000Y1650000D03*
X-3175000Y-1650000D03*
D48*
X245268750Y-48537500D03*
X245268750Y-46712500D03*
D40*
X173037500Y-74550000D03*
X173037500Y-77850000D03*
D49*
X242887500Y-49025000D03*
X242887500Y-46225000D03*
D40*
X249237500Y-36450000D03*
X249237500Y-39750000D03*
X34925000Y-115825000D03*
X34925000Y-119125000D03*
D44*
X93600000Y-123031250D03*
X96900000Y-123031250D03*
X115950000Y-116681250D03*
X112650000Y-116681250D03*
D40*
X111125000Y-36450000D03*
X111125000Y-39750000D03*
X230187500Y-17400000D03*
X230187500Y-20700000D03*
X53975000Y-74550000D03*
X53975000Y-77850000D03*
X15875000Y-74550000D03*
X15875000Y-77850000D03*
X173037500Y1650000D03*
X173037500Y-1650000D03*
X92075000Y-17400000D03*
X92075000Y-20700000D03*
X111125000Y1650000D03*
X111125000Y-1650000D03*
D19*
X242887500Y-37150000D03*
X242887500Y-39050000D03*
D50*
X37187500Y-100425000D03*
X38187500Y-100425000D03*
X39187500Y-100425000D03*
X40187500Y-100425000D03*
X41187500Y-100425000D03*
X42187500Y-100425000D03*
D51*
X43487500Y-96550000D03*
X35887500Y-96550000D03*
D40*
X53975000Y-55500000D03*
X53975000Y-58800000D03*
X53975000Y-115825000D03*
X53975000Y-119125000D03*
D44*
X-1650000Y-46037500D03*
X1650000Y-46037500D03*
D40*
X18256250Y-93600000D03*
X18256250Y-96900000D03*
X153987500Y1650000D03*
X153987500Y-1650000D03*
X153987500Y-36450000D03*
X153987500Y-39750000D03*
X73025000Y-74550000D03*
X73025000Y-77850000D03*
D44*
X136462500Y-99218750D03*
X139762500Y-99218750D03*
D40*
X34925000Y1650000D03*
X34925000Y-1650000D03*
X148431250Y-17400000D03*
X148431250Y-20700000D03*
D44*
X254062500Y-113506250D03*
X250762500Y-113506250D03*
D40*
X73025000Y-55500000D03*
X73025000Y-58800000D03*
X192087500Y-115825000D03*
X192087500Y-119125000D03*
X173037500Y-17400000D03*
X173037500Y-20700000D03*
X92075000Y-93600000D03*
X92075000Y-96900000D03*
D45*
X42187500Y-46418750D03*
X41187500Y-46418750D03*
X40187500Y-46418750D03*
X39187500Y-46418750D03*
X38187500Y-46418750D03*
X37187500Y-46418750D03*
D46*
X35887500Y-50293750D03*
X43487500Y-50293750D03*
D40*
X92075000Y-55500000D03*
X92075000Y-58800000D03*
X15875000Y-55500000D03*
X15875000Y-58800000D03*
X134937500Y-36450000D03*
X134937500Y-39750000D03*
X249237500Y-55500000D03*
X249237500Y-58800000D03*
X230187500Y-74550000D03*
X230187500Y-77850000D03*
X153987500Y-93600000D03*
X153987500Y-96900000D03*
D52*
X142731250Y-72231250D03*
X144606250Y-72231250D03*
D40*
X153987500Y-17400000D03*
X153987500Y-20700000D03*
X134937500Y1650000D03*
X134937500Y-1650000D03*
D44*
X-1650000Y-119856250D03*
X1650000Y-119856250D03*
D40*
X211137500Y-36450000D03*
X211137500Y-39750000D03*
D44*
X-1650000Y-86518750D03*
X1650000Y-86518750D03*
D40*
X73025000Y-115825000D03*
X73025000Y-119125000D03*
X230187500Y-36450000D03*
X230187500Y-39750000D03*
X15875000Y-17400000D03*
X15875000Y-20700000D03*
X249237500Y-17400000D03*
X249237500Y-20700000D03*
D53*
X116800000Y-26550000D03*
D54*
X111800000Y-26550000D03*
X114300000Y-26550000D03*
D55*
X119900000Y-19050000D03*
X108700000Y-19050000D03*
D54*
X111800000Y-12050000D03*
X116800000Y-12050000D03*
D56*
X142756250Y-76200000D03*
X144581250Y-76200000D03*
D40*
X15875000Y1650000D03*
X15875000Y-1650000D03*
X249237500Y-74550000D03*
X249237500Y-77850000D03*
D53*
X140612500Y-26550000D03*
D54*
X135612500Y-26550000D03*
X138112500Y-26550000D03*
D55*
X143712500Y-19050000D03*
X132512500Y-19050000D03*
D54*
X135612500Y-12050000D03*
X140612500Y-12050000D03*
D40*
X211137500Y-17400000D03*
X211137500Y-20700000D03*
X173037500Y-55500000D03*
X173037500Y-58800000D03*
X34925000Y-74550000D03*
X34925000Y-77850000D03*
X92075000Y-36450000D03*
X92075000Y-39750000D03*
X15875000Y-36450000D03*
X15875000Y-39750000D03*
X53975000Y-36450000D03*
X53975000Y-39750000D03*
D50*
X200700000Y-100425000D03*
X201700000Y-100425000D03*
X202700000Y-100425000D03*
X203700000Y-100425000D03*
X204700000Y-100425000D03*
X205700000Y-100425000D03*
D51*
X207000000Y-96550000D03*
X199400000Y-96550000D03*
D44*
X115950000Y-92868750D03*
X112650000Y-92868750D03*
D40*
X173037500Y-36450000D03*
X173037500Y-39750000D03*
X34925000Y-17400000D03*
X34925000Y-20700000D03*
X73025000Y-36450000D03*
X73025000Y-39750000D03*
D44*
X158812500Y-116681250D03*
X155512500Y-116681250D03*
D40*
X192087500Y-74550000D03*
X192087500Y-77850000D03*
X92075000Y1650000D03*
X92075000Y-1650000D03*
X230187500Y-115825000D03*
X230187500Y-119125000D03*
X239712500Y-93600000D03*
X239712500Y-96900000D03*
X211137500Y-74550000D03*
X211137500Y-77850000D03*
X230187500Y1650000D03*
X230187500Y-1650000D03*
X249237500Y1650000D03*
X249237500Y-1650000D03*
D36*
X120625000Y-73337500D03*
X114325000Y-73337500D03*
X114325000Y-69537500D03*
X120625000Y-69537500D03*
D40*
X153987500Y-74550000D03*
X153987500Y-77850000D03*
X173037500Y-115825000D03*
X173037500Y-119125000D03*
X111125000Y-55500000D03*
X111125000Y-58800000D03*
X105568750Y-17400000D03*
X105568750Y-20700000D03*
M02*
