M48
; DRILL file {KiCad (6.0.1-0)} date Saturday, 23 April 2022 at 02:39:00 pm
; FORMAT={-:-/ absolute / metric / decimal}
; #@! TF.CreationDate,2022-04-23T14:39:00+10:00
; #@! TF.GenerationSoftware,Kicad,Pcbnew,(6.0.1-0)
; #@! TF.FileFunction,Plated,1,2,PTH
FMAT,2
METRIC
; #@! TA.AperFunction,Plated,PTH,ViaDrill
T1C0.400
; #@! TA.AperFunction,Plated,PTH,ComponentDrill
T2C0.600
; #@! TA.AperFunction,Plated,PTH,ComponentDrill
T3C0.750
; #@! TA.AperFunction,Plated,PTH,ComponentDrill
T4C1.000
; #@! TA.AperFunction,Plated,PTH,ComponentDrill
T5C1.500
; #@! TA.AperFunction,Plated,PTH,ComponentDrill
T6C2.250
%
G90
G05
T1
X-7.144Y-16.669
X-7.144Y-21.431
X-7.144Y-42.069
X-4.95Y-71.1
X-4.763Y-30.956
X-4.763Y-32.544
X-3.85Y-54.4
X-3.175Y-19.05
X-2.75Y-54.4
X0.174Y-46.038
X0.45Y-57.5
X0.55Y-71.1
X0.6Y-27.75
X0.6Y-34.2
X1.65Y-71.1
X3.151Y-32.85
X4.763Y-35.777
X4.763Y-76.259
X4.763Y-109.596
X4.9Y-57.5
X5.556Y-40.656
X5.65Y-33.15
X7.085Y-0.318
X7.085Y-23.812
X7.15Y-57.25
X7.3Y-54.15
X8.15Y-58.35
X8.15Y-59.45
X8.15Y-60.55
X8.15Y-61.65
X8.906Y3.0
X9.0Y-12.15
X9.6Y-31.05
X10.319Y-24.606
X10.6Y-31.05
X11.35Y-66.05
X11.6Y-31.05
X18.65Y-66.15
X19.05Y-22.225
X19.5Y-62.15
X25.4Y-34.131
X26.135Y-4.763
X26.135Y-23.812
X26.135Y-42.862
X26.135Y-61.912
X26.135Y-72.0
X26.135Y-80.962
X26.135Y-117.792
X28.516Y-100.012
X37.188Y-45.362
X37.188Y-101.512
X38.188Y-45.331
X38.188Y-101.481
X39.188Y-45.362
X39.188Y-101.512
X39.4Y-33.65
X40.188Y-45.331
X40.188Y-101.481
X41.188Y-45.362
X41.188Y-101.512
X42.188Y-45.331
X42.188Y-102.782
X44.4Y-67.05
X45.185Y-4.763
X45.185Y-23.812
X45.185Y-42.862
X45.185Y-61.912
X45.185Y-72.0
X45.185Y-80.962
X45.185Y-117.792
X45.925Y-64.5
X45.925Y-66.0
X46.038Y-35.1
X46.038Y-52.387
X46.038Y-54.15
X46.65Y-65.25
X46.65Y-66.75
X47.15Y-113.5
X49.1Y-64.5
X49.1Y-66.0
X49.212Y-35.1
X49.212Y-52.387
X49.212Y-54.15
X49.825Y-65.25
X49.825Y-66.75
X52.446Y-112.0
X54.0Y-101.512
X54.0Y-112.0
X64.235Y-4.763
X64.235Y-23.812
X64.235Y-42.862
X64.235Y-61.912
X64.235Y-72.0
X64.235Y-80.962
X64.235Y-117.792
X71.5Y-68.3
X71.5Y-69.7
X76.2Y-60.325
X76.2Y-65.881
X76.2Y-71.55
X79.375Y-66.675
X79.4Y-71.55
X79.534Y-100.075
X80.169Y-48.419
X83.285Y-4.763
X83.285Y-23.812
X83.285Y-42.862
X83.285Y-61.912
X83.285Y-80.962
X83.285Y-112.0
X84.95Y-71.1
X91.125Y-66.925
X95.567Y-112.771
X98.8Y-69.85
X101.1Y-51.9
X101.203Y-69.85
X102.335Y-23.812
X102.335Y-42.862
X102.335Y-53.0
X102.335Y-61.912
X102.335Y-80.962
X102.335Y-100.012
X104.775Y-126.941
X105.0Y-71.525
X105.569Y-19.05
X106.045Y-2.54
X106.68Y-11.112
X111.962Y-73.337
X113.983Y-103.129
X117.475Y-71.438
X118.312Y-73.337
X118.707Y-76.639
X121.385Y-4.763
X121.385Y-23.812
X121.385Y-42.862
X121.385Y-61.912
X134.375Y-113.5
X136.17Y-76.639
X138.43Y-112.771
X142.875Y-54.828
X145.197Y-0.318
X145.197Y-23.812
X145.197Y-42.862
X145.95Y-29.25
X145.95Y-52.75
X146.25Y-71.55
X146.7Y-28.5
X146.7Y-53.45
X148.431Y-19.05
X148.7Y-68.9
X150.8Y-84.7
X153.591Y-68.938
X156.845Y-126.941
X160.162Y-110.5
X160.338Y-69.8
X163.5Y-84.7
X163.512Y-28.575
X164.248Y-4.763
X164.248Y-23.812
X164.248Y-42.862
X164.248Y-61.912
X164.248Y-80.962
X164.248Y-100.012
X165.894Y-69.85
X168.1Y-67.55
X170.4Y-70.85
X177.531Y-70.763
X181.034Y-101.481
X181.034Y-111.25
X182.297Y-113.5
X183.297Y-4.763
X183.297Y-23.812
X183.297Y-42.862
X183.297Y-61.912
X183.297Y-80.962
X183.297Y-117.792
X191.294Y-102.782
X191.294Y-110.5
X200.597Y-112.771
X200.7Y-102.782
X201.7Y-101.481
X202.347Y-4.763
X202.347Y-14.5
X202.347Y-23.812
X202.347Y-42.862
X202.347Y-61.912
X202.347Y-80.962
X202.347Y-117.792
X202.7Y-101.512
X203.7Y-47.95
X203.7Y-49.0
X203.7Y-50.05
X203.7Y-51.1
X203.7Y-52.15
X203.7Y-53.2
X203.7Y-101.481
X204.7Y-101.512
X205.7Y-101.512
X205.7Y-112.0
X214.0Y-62.25
X214.85Y-88.1
X214.85Y-90.3
X214.85Y-91.4
X214.85Y-92.5
X214.85Y-93.6
X214.85Y-94.7
X214.85Y-96.9
X214.85Y-98.0
X214.85Y-99.1
X215.0Y-62.25
X215.6Y-83.9
X216.0Y-62.25
X216.7Y-83.9
X217.0Y-62.25
X217.0Y-71.0
X217.8Y-83.9
X218.0Y-62.25
X218.0Y-71.0
X218.9Y-83.9
X220.0Y-83.95
X221.1Y-87.0
X221.397Y-4.763
X221.397Y-23.812
X221.397Y-42.862
X221.397Y-53.24
X221.397Y-61.912
X221.397Y-117.792
X221.4Y-76.517
X222.2Y-87.0
X222.225Y-71.75
X222.25Y-35.1
X222.25Y-54.15
X222.25Y-54.15
X222.25Y-67.675
X222.25Y-73.2
X223.3Y-87.0
X225.15Y-95.8
X225.425Y-35.1
X225.85Y-47.95
X226.4Y-64.25
X226.4Y-78.2
X226.75Y-79.4
X226.75Y-85.6
X226.9Y-47.95
X227.4Y-64.25
X227.95Y-47.95
X228.15Y-54.15
X228.15Y-71.75
X228.15Y-73.2
X228.6Y-78.95
X229.0Y-47.95
X230.188Y-76.2
X233.5Y-99.85
X233.55Y-95.75
X235.744Y-85.725
X237.143Y-49.212
X238.25Y-89.5
X239.0Y-36.275
X239.15Y-73.2
X239.45Y-90.3
X240.447Y-23.812
X240.447Y-42.862
X240.447Y-61.912
X240.447Y-80.962
X240.447Y-117.792
X242.0Y-14.5
X242.252Y-2.54
X242.887Y-21.431
X242.887Y-40.481
X243.539Y3.0
X244.078Y-32.85
X244.078Y-44.225
X244.7Y-16.05
X245.269Y-21.431
X245.269Y-40.481
X246.062Y-94.456
X246.9Y-17.2
X247.425Y-36.025
X247.65Y-78.95
X247.65Y-123.766
X248.468Y-29.357
X249.237Y-38.1
X249.237Y-57.15
X249.6Y-34.975
X251.051Y-28.525
X255.5Y-126.1
X256.381Y-30.956
X256.381Y-32.544
X256.5Y-120.957
X259.498Y-4.763
X259.498Y-23.812
X259.498Y-42.862
X259.498Y-61.912
X259.498Y-80.962
T3
X103.256Y-49.006
X103.256Y-51.006
X149.156Y-49.006
X149.156Y-51.006
T4
X-7.144Y-118.417
X-7.144Y-120.957
X-7.144Y-123.497
X-7.144Y-126.037
X111.8Y-12.05
X111.8Y-26.55
X114.3Y-26.55
X116.8Y-12.05
X116.8Y-26.55
X135.612Y-12.05
X135.612Y-26.55
X138.112Y-26.55
X140.612Y-12.05
X140.612Y-26.55
X259.556Y-118.417
X259.556Y-120.957
X259.556Y-123.497
X259.556Y-126.037
T6
X85.725Y-48.006
X85.725Y-52.006
X166.688Y-48.006
X166.688Y-52.006
T2
G00X-7.225Y-27.43
M15
G01X-6.625Y-27.43
M16
G05
G00X-7.225Y-36.07
M15
G01X-6.625Y-36.07
M16
G05
G00X-3.295Y-27.43
M15
G01X-2.195Y-27.43
M16
G05
G00X-3.295Y-36.07
M15
G01X-2.195Y-36.07
M16
G05
G00X254.914Y-27.43
M15
G01X253.814Y-27.43
M16
G05
G00X254.914Y-36.07
M15
G01X253.814Y-36.07
M16
G05
G00X258.844Y-27.43
M15
G01X258.244Y-27.43
M16
G05
G00X258.844Y-36.07
M15
G01X258.244Y-36.07
M16
G05
T5
G00X108.7Y-19.7
M15
G01X108.7Y-18.4
M16
G05
G00X119.9Y-19.7
M15
G01X119.9Y-18.4
M16
G05
G00X132.512Y-19.7
M15
G01X132.512Y-18.4
M16
G05
G00X143.713Y-19.7
M15
G01X143.713Y-18.4
M16
G05
T0
M30
