M48
; DRILL file {KiCad (5.1.10-1-10_14)} date Sunday, September 12, 2021 at 02:18:23 PM
; FORMAT={-:-/ absolute / inch / decimal}
; #@! TF.CreationDate,2021-09-12T14:18:23+10:00
; #@! TF.GenerationSoftware,Kicad,Pcbnew,(5.1.10-1-10_14)
; #@! TF.FileFunction,Plated,1,2,PTH
FMAT,2
INCH
T1C0.0157
T2C0.0236
T3C0.0295
T4C0.0394
T5C0.0591
T6C0.0886
%
G90
G05
T1
X-0.298Y-1.077
X-0.2789Y0.1961
X-0.2789Y-0.5539
X-0.2789Y-1.3039
X-0.2789Y-2.0539
X-0.2789Y-2.8039
X-0.2789Y-4.4914
X-0.25Y-0.9688
X-0.25Y-1.0312
X-0.15Y-3.225
X-0.0312Y-1.0938
X0.0938Y-1.0938
X0.1562Y-0.9375
X0.1562Y-1.0625
X0.1562Y-3.25
X0.2812Y-3.25
X0.2812Y-0.9062
X0.2812Y-1.0938
X0.3369Y-3.1801
X0.3391Y-2.7766
X0.3438Y-3.25
X0.375Y-0.75
X0.375Y-2.625
X0.4711Y0.1961
X0.4711Y-0.5539
X0.4711Y-1.3039
X0.4711Y-2.0539
X0.4711Y-2.8039
X0.5312Y-0.9062
X0.5312Y-2.7188
X0.5625Y-3.3438
X0.625Y-0.7812
X0.625Y-0.875
X0.6501Y-3.1624
X0.675Y-3.3438
X0.725Y-3.3438
X0.75Y-3.7495
X0.751Y-3.253
X0.7894Y-3.7495
X0.8125Y-3.1562
X0.875Y-1.0938
X0.935Y-3.065
X1.0Y-3.1562
X1.1142Y-2.315
X1.125Y-3.0938
X1.125Y-4.4914
X1.1562Y-3.25
X1.2211Y0.2898
X1.2211Y-0.4602
X1.2211Y-0.7789
X1.2211Y-1.2102
X1.2211Y-1.9602
X1.2211Y-2.7102
X1.2211Y-4.4914
X1.4646Y-3.5775
X1.4646Y-3.6208
X1.4646Y-3.6641
X1.4646Y-3.7074
X1.4646Y-3.7507
X1.471Y-3.2549
X1.498Y-3.4043
X1.498Y-3.4688
X1.5Y-2.5312
X1.5576Y-3.2549
X1.5637Y-3.0325
X1.6009Y-3.2549
X1.6442Y-3.2549
X1.6875Y-3.2549
X1.7308Y-3.2549
X1.7741Y-3.2549
X1.81Y-1.4712
X1.81Y-2.2212
X1.81Y-2.9712
X1.8174Y-3.2549
X1.875Y-0.5625
X1.9104Y-3.6208
X1.9104Y-3.6641
X1.9272Y-2.8012
X1.935Y-1.4712
X1.935Y-2.2212
X1.9711Y0.3836
X1.9711Y-0.3664
X1.9711Y-1.1164
X1.9711Y-1.8664
X1.9711Y-2.6164
X2.0079Y-2.9712
X2.125Y-1.4062
X2.125Y-2.1562
X2.1562Y-3.8438
X2.3031Y-3.3228
X2.3031Y-3.4559
X2.6562Y-3.6562
X2.7142Y-3.7546
X2.7188Y-3.9375
X2.7211Y0.2898
X2.7211Y-0.4602
X2.7211Y-1.2102
X2.7211Y-1.9602
X2.7211Y-2.7102
X2.7211Y-3.1539
X2.876Y-3.5312
X3.0Y-3.6562
X3.0625Y-3.75
X3.3275Y-3.14
X3.375Y-1.0625
X3.4294Y-3.188
X3.4688Y-3.2274
X3.4711Y0.1961
X3.4711Y-0.5539
X3.4711Y-1.3039
X3.4711Y-2.0539
X3.4711Y-2.8039
X3.4711Y-3.5539
X3.5025Y-0.8413
X3.5081Y-3.2667
X3.5399Y-3.8413
X3.5475Y-3.3061
X3.5625Y-1.0625
X3.875Y-0.75
X3.875Y-1.5
X3.875Y-2.25
X4.125Y-3.5625
X4.2188Y-1.4688
X4.5Y-2.4688
X4.5312Y-4.0625
X4.625Y-2.3438
X4.6875Y-0.9375
X4.6961Y-2.0648
X4.6961Y-3.2836
X4.7667Y-1.689
X4.8182Y-4.0057
X5.1193Y-4.0057
X5.1586Y-0.1789
X5.1586Y-3.1789
X5.1875Y-0.875
X5.25Y-2.625
X5.4062Y-4.0625
X5.7812Y-1.6562
X5.7812Y-2.4062
X5.9086Y0.1961
X5.9086Y-0.5539
X5.9086Y-1.3039
X5.9086Y-2.0539
X5.9086Y-2.8039
X5.9086Y-3.5539
X6.1125Y-0.2812
X6.2812Y-3.1562
X6.5625Y-0.9375
X6.565Y-0.815
X6.6586Y0.2898
X6.6586Y-0.4602
X6.6586Y-1.2102
X6.6586Y-1.9602
X6.6586Y-2.7102
X6.6929Y-3.8386
X6.9375Y-3.6562
X7.0615Y-3.5312
X7.4086Y0.3836
X7.4086Y-0.3664
X7.4086Y-1.1164
X7.4086Y-1.8664
X7.4086Y-2.6164
X7.4086Y-3.3664
X8.1586Y0.2898
X8.1586Y-0.4602
X8.1586Y-1.2102
X8.1586Y-1.9602
X8.1586Y-2.7102
X8.1586Y-4.4914
X8.25Y-3.375
X8.25Y-3.6875
X8.2812Y-3.6562
X8.2812Y-3.75
X8.2835Y-3.4567
X8.3125Y-3.7812
X8.3438Y-3.75
X8.3622Y-3.358
X8.375Y-3.7812
X8.5079Y-3.5866
X8.5389Y-3.3674
X8.5625Y-3.125
X8.5913Y-3.0913
X8.6142Y-3.6969
X8.6506Y-3.8807
X8.6604Y-3.4043
X8.6604Y-3.4476
X8.6604Y-3.4909
X8.6604Y-3.5342
X8.6604Y-3.5775
X8.6604Y-3.7074
X8.6604Y-3.7507
X8.6614Y-3.1848
X8.7032Y-3.2899
X8.75Y-2.3413
X8.7525Y-1.5913
X8.7617Y-3.2215
X8.7746Y-3.2605
X8.8775Y-1.5913
X8.8775Y-2.3413
X8.8775Y-3.0913
X8.9086Y0.1961
X8.9086Y-0.5539
X8.9086Y-1.3039
X8.9086Y-2.0539
X8.9086Y-2.6227
X8.9375Y-3.1562
X9.0Y-3.125
X9.0625Y-0.8125
X9.0625Y-0.875
X9.1088Y-3.7495
X9.125Y-3.1562
X9.1378Y-3.6969
X9.1481Y-2.4537
X9.1481Y-3.7495
X9.1875Y-1.375
X9.1875Y-2.4537
X9.1875Y-3.7495
X9.2269Y-2.4537
X9.2269Y-3.7495
X9.241Y-3.6683
X9.2662Y-2.4537
X9.3071Y-3.8425
X9.3307Y-3.2992
X9.5266Y-2.7766
X9.5625Y-1.2812
X9.5625Y-2.625
X9.5625Y-4.4914
X9.5709Y-2.7992
X9.5869Y-3.1801
X9.6562Y-0.9062
X9.6562Y-1.0938
X9.6586Y0.1961
X9.6586Y-0.5539
X9.6586Y-1.3039
X9.6586Y-2.0539
X9.6586Y-2.8039
X9.6586Y-4.4914
X9.75Y-3.25
X9.7812Y-0.875
X9.7812Y-0.9375
X9.8438Y-0.9062
X9.9375Y-1.1562
X9.9375Y-3.1562
X9.9688Y-0.9062
X10.1875Y-0.9688
X10.1875Y-1.0312
X10.1875Y-2.7188
X10.1875Y-2.875
T3
X-0.1562Y-1.7188
X-0.1562Y-1.7975
X10.0938Y-1.7188
X10.0938Y-1.7975
T4
X2.2312Y-3.9375
X2.3312Y-3.9375
X2.4312Y-3.9375
X2.5312Y-3.9375
X4.2244Y-1.1203
X4.2244Y-1.3172
X4.7953Y-1.1203
X4.7953Y-1.2188
X4.7953Y-1.3172
X5.3391Y-0.8297
X5.3391Y-1.4006
X5.4375Y-0.8297
X5.5359Y-0.8297
X5.5359Y-1.4006
X7.5938Y-3.9375
X7.6937Y-3.9375
X7.7938Y-3.9375
X7.8937Y-3.9375
T6
X0.25Y-1.6794
X0.25Y-1.8369
X9.6875Y-1.6794
X9.6875Y-1.8369
T2
G00X-0.3469Y-0.8299
M15
G01X-0.3233Y-0.8299
M16
G05
G00X-0.3469Y-1.1701
M15
G01X-0.3233Y-1.1701
M16
G05
G00X-0.1922Y-0.8299
M15
G01X-0.1489Y-0.8299
M16
G05
G00X-0.1922Y-1.1701
M15
G01X-0.1489Y-1.1701
M16
G05
G00X10.1297Y-0.8299
M15
G01X10.0864Y-0.8299
M16
G05
G00X10.1297Y-1.1701
M15
G01X10.0864Y-1.1701
M16
G05
G00X10.2844Y-0.8299
M15
G01X10.2608Y-0.8299
M16
G05
G00X10.2844Y-1.1701
M15
G01X10.2608Y-1.1701
M16
G05
T5
G00X4.5256Y-0.9983
M15
G01X4.4744Y-0.9983
M16
G05
G00X4.5256Y-1.4392
M15
G01X4.4744Y-1.4392
M16
G05
G00X5.217Y-1.0994
M15
G01X5.217Y-1.1506
M16
G05
G00X5.658Y-1.0994
M15
G01X5.658Y-1.1506
M16
G05
T0
M30
