M48
; DRILL file {KiCad (5.1.10-1-10_14)} date Sunday, September 12, 2021 at 02:18:23 PM
; FORMAT={-:-/ absolute / inch / decimal}
; #@! TF.CreationDate,2021-09-12T14:18:23+10:00
; #@! TF.GenerationSoftware,Kicad,Pcbnew,(5.1.10-1-10_14)
; #@! TF.FileFunction,NonPlated,1,2,NPTH
FMAT,2
INCH
T1C0.0256
T2C0.0310
T3C0.0354
T4C0.0689
T5C0.1181
T6C0.1200
T7C0.1570
%
G90
G05
T1
X-0.1914Y-0.8862
X-0.1914Y-1.1138
X10.1289Y-0.8862
X10.1289Y-1.1138
T2
X0.65Y-0.3538
X0.65Y-0.4275
X0.65Y-3.385
X0.65Y-3.5837
X0.7Y-0.3538
X0.7Y-0.4275
X0.7Y-3.385
X0.7Y-3.5837
X0.75Y-0.3538
X0.75Y-0.4275
X0.75Y-3.385
X0.75Y-3.5837
X0.8Y-0.3538
X0.8Y-0.4275
X0.8Y-3.385
X0.8Y-3.5837
X0.85Y-0.3538
X0.85Y-0.4275
X0.85Y-3.385
X0.85Y-3.5837
X3.65Y-0.3538
X3.65Y-0.4275
X3.7Y-0.3538
X3.7Y-0.4275
X3.75Y-0.3538
X3.75Y-0.4275
X3.8Y-0.3538
X3.8Y-0.4275
X3.85Y-0.3538
X3.85Y-0.4275
X4.025Y-4.135
X4.025Y-4.3025
X4.075Y-4.135
X4.075Y-4.3025
X4.125Y-4.135
X4.125Y-4.3025
X4.175Y-4.135
X4.175Y-4.3025
X4.225Y-4.135
X4.225Y-4.3025
X4.885Y-1.275
X4.885Y-1.325
X4.885Y-1.375
X4.885Y-1.425
X4.885Y-1.475
X4.885Y-3.4
X4.885Y-3.45
X4.885Y-3.5
X4.885Y-3.55
X4.885Y-3.6
X5.0525Y-1.275
X5.0525Y-1.325
X5.0525Y-1.375
X5.0525Y-1.425
X5.0525Y-1.475
X5.0525Y-3.4
X5.0525Y-3.45
X5.0525Y-3.5
X5.0525Y-3.55
X5.0525Y-3.6
X5.7125Y-4.135
X5.7125Y-4.3025
X5.7625Y-4.135
X5.7625Y-4.3025
X5.8125Y-4.135
X5.8125Y-4.3025
X5.8625Y-4.135
X5.8625Y-4.3025
X5.9125Y-4.135
X5.9125Y-4.3025
X6.0875Y-0.3538
X6.0875Y-0.4275
X6.1375Y-0.3538
X6.1375Y-0.4275
X6.1875Y-0.3538
X6.1875Y-0.4275
X6.2375Y-0.3538
X6.2375Y-0.4275
X6.2875Y-0.3538
X6.2875Y-0.4275
X9.0875Y-0.3538
X9.0875Y-0.4275
X9.0875Y-3.385
X9.0875Y-3.5837
X9.1375Y-0.3538
X9.1375Y-0.4275
X9.1375Y-3.385
X9.1375Y-3.5837
X9.1875Y-0.3538
X9.1875Y-0.4275
X9.1875Y-3.385
X9.1875Y-3.5837
X9.2375Y-0.3538
X9.2375Y-0.4275
X9.2375Y-3.385
X9.2375Y-3.5837
X9.2875Y-0.3538
X9.2875Y-0.4275
X9.2875Y-3.385
X9.2875Y-3.5837
T3
X-0.2466Y-3.2942
X-0.1284Y-3.2942
X10.0659Y-3.2942
X10.1841Y-3.2942
T4
X-0.2Y0.0
X-0.2Y-0.75
X-0.2Y-1.5
X-0.2Y-2.25
X-0.2Y-3.0
X-0.2Y-4.6875
X0.2Y0.0
X0.2Y-0.75
X0.2Y-1.5
X0.2Y-2.25
X0.2Y-3.0
X0.2Y-4.6875
X0.55Y0.0
X0.55Y-0.75
X0.55Y-1.5
X0.55Y-2.25
X0.55Y-3.0
X0.55Y-3.9375
X0.55Y-4.6875
X0.95Y0.0
X0.95Y-0.75
X0.95Y-1.5
X0.95Y-2.25
X0.95Y-3.0
X0.95Y-3.9375
X0.95Y-4.6875
X1.3Y0.0938
X1.3Y-0.6562
X1.3Y-1.4062
X1.3Y-2.1562
X1.3Y-2.9062
X1.3Y-4.6875
X1.7Y0.0938
X1.7Y-0.6562
X1.7Y-1.4062
X1.7Y-2.1562
X1.7Y-2.9062
X1.7Y-4.6875
X2.05Y0.1875
X2.05Y-0.5625
X2.05Y-1.3125
X2.05Y-2.0625
X2.05Y-2.8125
X2.3312Y-3.6562
X2.45Y0.1875
X2.45Y-0.5625
X2.45Y-1.3125
X2.45Y-2.0625
X2.45Y-2.8125
X2.7062Y-4.5938
X2.7312Y-3.6562
X2.8Y0.0938
X2.8Y-0.6562
X2.8Y-1.4062
X2.8Y-2.1562
X2.8Y-2.9062
X3.1062Y-4.5938
X3.2Y0.0938
X3.2Y-0.6562
X3.2Y-1.4062
X3.2Y-2.1562
X3.2Y-2.9062
X3.55Y0.0
X3.55Y-0.75
X3.55Y-1.5
X3.55Y-2.25
X3.55Y-3.0
X3.55Y-3.75
X3.75Y-4.5812
X3.75Y-4.9813
X3.95Y0.0
X3.95Y-0.75
X3.95Y-1.5
X3.95Y-2.25
X3.95Y-3.0
X3.95Y-3.75
X4.3Y-0.375
X4.5Y-1.0188
X4.5Y-1.4187
X4.5Y-2.1437
X4.5Y-2.5437
X4.5Y-3.3625
X4.5Y-3.7625
X4.5Y-4.5812
X4.5Y-4.9813
X4.7Y-0.375
X5.2375Y-0.375
X5.2375Y-1.125
X5.2375Y-3.375
X5.4375Y-1.8625
X5.4375Y-2.2625
X5.4375Y-4.5812
X5.4375Y-4.9813
X5.6375Y-0.375
X5.6375Y-1.125
X5.6375Y-3.375
X5.9875Y0.0
X5.9875Y-0.75
X5.9875Y-1.5
X5.9875Y-2.25
X5.9875Y-3.0
X5.9875Y-3.75
X6.1875Y-4.5812
X6.1875Y-4.9813
X6.3875Y0.0
X6.3875Y-0.75
X6.3875Y-1.5
X6.3875Y-2.25
X6.3875Y-3.0
X6.3875Y-3.75
X6.7375Y0.0938
X6.7375Y-0.6562
X6.7375Y-1.4062
X6.7375Y-2.1562
X6.7375Y-2.9062
X6.8312Y-4.5938
X7.1375Y0.0938
X7.1375Y-0.6562
X7.1375Y-1.4062
X7.1375Y-2.1562
X7.1375Y-2.9062
X7.2313Y-4.5938
X7.3937Y-3.6562
X7.4875Y0.1875
X7.4875Y-0.5625
X7.4875Y-1.3125
X7.4875Y-2.0625
X7.4875Y-2.8125
X7.7938Y-3.6562
X7.8875Y0.1875
X7.8875Y-0.5625
X7.8875Y-1.3125
X7.8875Y-2.0625
X7.8875Y-2.8125
X8.2375Y0.0938
X8.2375Y-0.6562
X8.2375Y-1.4062
X8.2375Y-2.1562
X8.2375Y-2.9062
X8.2375Y-4.6875
X8.6375Y0.0938
X8.6375Y-0.6562
X8.6375Y-1.4062
X8.6375Y-2.1562
X8.6375Y-2.9062
X8.6375Y-4.6875
X8.9875Y0.0
X8.9875Y-0.75
X8.9875Y-1.5
X8.9875Y-2.25
X8.9875Y-3.0
X8.9875Y-3.9375
X8.9875Y-4.6875
X9.3875Y0.0
X9.3875Y-0.75
X9.3875Y-1.5
X9.3875Y-2.25
X9.3875Y-3.0
X9.3875Y-3.9375
X9.3875Y-4.6875
X9.7375Y0.0
X9.7375Y-0.75
X9.7375Y-1.5
X9.7375Y-2.25
X9.7375Y-3.0
X9.7375Y-4.6875
X10.1375Y0.0
X10.1375Y-0.75
X10.1375Y-1.5
X10.1375Y-2.25
X10.1375Y-3.0
X10.1375Y-4.6875
T5
X-0.15Y0.1
X-0.15Y-0.65
X-0.15Y-1.4
X-0.15Y-2.15
X-0.15Y-2.9
X-0.15Y-4.5875
X0.1Y0.2
X0.1Y-0.55
X0.1Y-1.3
X0.1Y-2.05
X0.1Y-2.8
X0.1Y-4.4875
X0.6Y0.1
X0.6Y-0.65
X0.6Y-1.4
X0.6Y-2.15
X0.6Y-2.9
X0.6Y-4.5875
X0.65Y-4.1375
X0.85Y0.2
X0.85Y-0.55
X0.85Y-1.3
X0.85Y-2.05
X0.85Y-2.8
X0.85Y-4.4875
X0.9Y-4.0375
X1.35Y0.1938
X1.35Y-0.5563
X1.35Y-1.3062
X1.35Y-2.0562
X1.35Y-2.8062
X1.35Y-4.5875
X1.6Y0.2938
X1.6Y-0.4562
X1.6Y-1.2063
X1.6Y-1.9563
X1.6Y-2.7062
X1.6Y-4.4875
X2.1Y0.2875
X2.1Y-0.4625
X2.1Y-1.2125
X2.1Y-1.9625
X2.1Y-2.7125
X2.35Y0.3875
X2.35Y-0.3625
X2.35Y-1.1125
X2.35Y-1.8625
X2.35Y-2.6125
X2.3813Y-3.5562
X2.6313Y-3.4562
X2.7563Y-4.4937
X2.85Y0.1938
X2.85Y-0.5563
X2.85Y-1.3062
X2.85Y-2.0562
X2.85Y-2.8062
X3.0063Y-4.3937
X3.1Y0.2938
X3.1Y-0.4562
X3.1Y-1.2063
X3.1Y-1.9563
X3.1Y-2.7062
X3.6Y0.1
X3.6Y-0.65
X3.6Y-1.4
X3.6Y-2.15
X3.6Y-2.9
X3.6Y-3.65
X3.85Y0.2
X3.85Y-0.55
X3.85Y-1.3
X3.85Y-2.05
X3.85Y-2.8
X3.85Y-3.55
X3.85Y-4.6312
X3.95Y-4.8812
X4.35Y-0.275
X4.6Y-0.175
X4.6Y-1.0687
X4.6Y-2.1938
X4.6Y-3.4125
X4.6Y-4.6312
X4.7Y-1.3187
X4.7Y-2.4438
X4.7Y-3.6625
X4.7Y-4.8812
X5.2375Y-1.9625
X5.2375Y-4.6812
X5.2875Y-0.275
X5.2875Y-1.025
X5.2875Y-3.275
X5.3375Y-2.2125
X5.3375Y-4.9312
X5.5375Y-0.175
X5.5375Y-0.925
X5.5375Y-3.175
X5.9875Y-4.6812
X6.0375Y0.1
X6.0375Y-0.65
X6.0375Y-1.4
X6.0375Y-2.15
X6.0375Y-2.9
X6.0375Y-3.65
X6.0875Y-4.9312
X6.2875Y0.2
X6.2875Y-0.55
X6.2875Y-1.3
X6.2875Y-2.05
X6.2875Y-2.8
X6.2875Y-3.55
X6.7875Y0.1938
X6.7875Y-0.5563
X6.7875Y-1.3062
X6.7875Y-2.0562
X6.7875Y-2.8062
X6.8812Y-4.4937
X7.0375Y0.2938
X7.0375Y-0.4562
X7.0375Y-1.2063
X7.0375Y-1.9563
X7.0375Y-2.7062
X7.1312Y-4.3937
X7.4437Y-3.5562
X7.5375Y0.2875
X7.5375Y-0.4625
X7.5375Y-1.2125
X7.5375Y-1.9625
X7.5375Y-2.7125
X7.6937Y-3.4562
X7.7875Y0.3875
X7.7875Y-0.3625
X7.7875Y-1.1125
X7.7875Y-1.8625
X7.7875Y-2.6125
X8.2875Y0.1938
X8.2875Y-0.5563
X8.2875Y-1.3062
X8.2875Y-2.0562
X8.2875Y-2.8062
X8.2875Y-4.5875
X8.5375Y0.2938
X8.5375Y-0.4562
X8.5375Y-1.2063
X8.5375Y-1.9563
X8.5375Y-2.7062
X8.5375Y-4.4875
X9.0375Y0.1
X9.0375Y-0.65
X9.0375Y-1.4
X9.0375Y-2.15
X9.0375Y-2.9
X9.0375Y-4.5875
X9.0875Y-4.1375
X9.2875Y0.2
X9.2875Y-0.55
X9.2875Y-1.3
X9.2875Y-2.05
X9.2875Y-2.8
X9.2875Y-4.4875
X9.3375Y-4.0375
X9.7875Y0.1
X9.7875Y-0.65
X9.7875Y-1.4
X9.7875Y-2.15
X9.7875Y-2.9
X9.7875Y-4.5875
X10.0375Y0.2
X10.0375Y-0.55
X10.0375Y-1.3
X10.0375Y-2.05
X10.0375Y-2.8
X10.0375Y-4.4875
T6
X2.0612Y-3.9312
X3.0012Y-3.9312
X5.1625Y-2.905
X5.1625Y-3.845
X7.1238Y-3.9312
X8.0638Y-3.9312
T7
X0.0Y0.0
X0.0Y-0.75
X0.0Y-1.5
X0.0Y-2.25
X0.0Y-3.0
X0.0Y-4.6875
X0.75Y0.0
X0.75Y-0.75
X0.75Y-1.5
X0.75Y-2.25
X0.75Y-3.0
X0.75Y-3.9375
X0.75Y-4.6875
X1.5Y0.0938
X1.5Y-0.6562
X1.5Y-1.4062
X1.5Y-2.1562
X1.5Y-2.9062
X1.5Y-4.6875
X2.0612Y-3.3312
X2.25Y0.1875
X2.25Y-0.5625
X2.25Y-1.3125
X2.25Y-2.0625
X2.25Y-2.8125
X2.5312Y-3.6562
X2.9062Y-4.5938
X3.0Y0.0938
X3.0Y-0.6562
X3.0Y-1.4062
X3.0Y-2.1562
X3.0Y-2.9062
X3.0012Y-3.3312
X3.75Y0.0
X3.75Y-0.75
X3.75Y-1.5
X3.75Y-2.25
X3.75Y-3.0
X3.75Y-3.75
X3.75Y-4.7812
X4.5Y-0.375
X4.5Y-1.2188
X4.5Y-2.3438
X4.5Y-3.5625
X4.5Y-4.7812
X5.4375Y-0.375
X5.4375Y-1.125
X5.4375Y-2.0625
X5.4375Y-3.375
X5.4375Y-4.7812
X5.7625Y-2.905
X5.7625Y-3.845
X6.1875Y0.0
X6.1875Y-0.75
X6.1875Y-1.5
X6.1875Y-2.25
X6.1875Y-3.0
X6.1875Y-3.75
X6.1875Y-4.7812
X6.9375Y0.0938
X6.9375Y-0.6562
X6.9375Y-1.4062
X6.9375Y-2.1562
X6.9375Y-2.9062
X7.0312Y-4.5938
X7.1238Y-3.3312
X7.5938Y-3.6562
X7.6875Y0.1875
X7.6875Y-0.5625
X7.6875Y-1.3125
X7.6875Y-2.0625
X7.6875Y-2.8125
X8.0638Y-3.3312
X8.4375Y0.0938
X8.4375Y-0.6562
X8.4375Y-1.4062
X8.4375Y-2.1562
X8.4375Y-2.9062
X8.4375Y-4.6875
X9.1875Y0.0
X9.1875Y-0.75
X9.1875Y-1.5
X9.1875Y-2.25
X9.1875Y-3.0
X9.1875Y-3.9375
X9.1875Y-4.6875
X9.9375Y0.0
X9.9375Y-0.75
X9.9375Y-1.5
X9.9375Y-2.25
X9.9375Y-3.0
X9.9375Y-4.6875
T0
M30
