G04 #@! TF.GenerationSoftware,KiCad,Pcbnew,(6.0.1-0)*
G04 #@! TF.CreationDate,2022-04-23T14:38:49+10:00*
G04 #@! TF.ProjectId,pcb,7063622e-6b69-4636-9164-5f7063625858,rev?*
G04 #@! TF.SameCoordinates,Original*
G04 #@! TF.FileFunction,Profile,NP*
%FSLAX46Y46*%
G04 Gerber Fmt 4.6, Leading zero omitted, Abs format (unit mm)*
G04 Created by KiCad (PCBNEW (6.0.1-0)) date 2022-04-23 14:38:49*
%MOMM*%
%LPD*%
G01*
G04 APERTURE LIST*
G04 #@! TA.AperFunction,Profile*
%ADD10C,0.100000*%
G04 #@! TD*
G04 APERTURE END LIST*
D10*
X210343750Y-102393750D02*
G75*
G03*
X211931250Y-103981250I1587500J0D01*
G01*
X103981250Y-108743750D02*
G75*
G03*
X105568750Y-107156250I0J1587500D01*
G01*
X-8731250Y-6350000D02*
G75*
G03*
X-7143750Y-7937500I1587500J0D01*
G01*
X-7143750Y-7937500D02*
X6350000Y-7937500D01*
X42068750Y-89693750D02*
X42068750Y-84931250D01*
X261143750Y-126206250D02*
X261143750Y-11906250D01*
X121443750Y-10318750D02*
X107950000Y-10318750D01*
X-7143750Y-10318750D02*
X6350000Y-10318750D01*
X11906250Y-126206250D02*
X84931250Y-126206250D01*
X6350000Y-7937500D02*
X6350000Y-10318750D01*
X164306250Y-130968750D02*
G75*
G03*
X165893750Y-129381250I0J1587500D01*
G01*
X167481250Y-126206250D02*
X240506250Y-126206250D01*
X148431250Y-102393750D02*
G75*
G03*
X150018750Y-103981250I1587500J0D01*
G01*
X261143750Y7143750D02*
G75*
G03*
X259556250Y8731250I-1587500J0D01*
G01*
X150812500Y-7937500D02*
X239712500Y-7937500D01*
X84931250Y-107156250D02*
G75*
G03*
X86518750Y-108743750I1587500J0D01*
G01*
X148431250Y-81756250D02*
X148431250Y-102393750D01*
X129381250Y-72231250D02*
X123031250Y-72231250D01*
X129381250Y-78581250D02*
X123031250Y-78581250D01*
X200818750Y-89693750D02*
X200818750Y-84931250D01*
X105568750Y-80168750D02*
X121443750Y-80168750D01*
X240506250Y-108743750D02*
X210343750Y-108743750D01*
X35718750Y-89693750D02*
G75*
G03*
X34131250Y-91281250I0J-1587500D01*
G01*
X208756250Y-107156250D02*
G75*
G03*
X210343750Y-108743750I1587500J0D01*
G01*
X245268750Y-127793750D02*
X259556250Y-127793750D01*
X123031250Y-72231250D02*
X123031250Y-18256250D01*
X239712500Y-7937500D02*
X239712500Y-10318750D01*
X246062500Y-7937500D02*
X259556250Y-7937500D01*
X86518750Y-86518750D02*
G75*
G03*
X84931250Y-84931250I-1587500J0D01*
G01*
X11906250Y-108743750D02*
X32543750Y-108743750D01*
X88106250Y-103981250D02*
X102393750Y-103981250D01*
X86518750Y-127793750D02*
X86518750Y-129381250D01*
X164306250Y-103981250D02*
G75*
G03*
X165893750Y-102393750I0J1587500D01*
G01*
X123031250Y7143750D02*
G75*
G03*
X121443750Y8731250I-1587500J0D01*
G01*
X211931250Y-103981250D02*
X242093750Y-103981250D01*
X77374750Y-84931250D02*
X77374750Y-89693750D01*
X145256250Y-84931250D02*
X130968750Y-84931250D01*
X129381250Y-129381250D02*
G75*
G03*
X130968750Y-130968750I1587500J0D01*
G01*
X165893750Y-108743750D02*
G75*
G03*
X167481250Y-107156250I0J1587500D01*
G01*
X-8731250Y-126206250D02*
G75*
G03*
X-7143750Y-127793750I1587500J0D01*
G01*
X107950000Y-7937500D02*
X107950000Y-10318750D01*
X123031250Y-86518750D02*
G75*
G03*
X121443750Y-84931250I-1587500J0D01*
G01*
X165893750Y-129381250D02*
X165893750Y-127793750D01*
X77374750Y-89693750D02*
X42068750Y-89693750D01*
X167481250Y-126206250D02*
G75*
G03*
X165893750Y-127793750I0J-1587500D01*
G01*
X88106250Y-130968750D02*
X121443750Y-130968750D01*
X-7143750Y-10318750D02*
G75*
G03*
X-8731250Y-11906250I0J-1587500D01*
G01*
X103981250Y-108743750D02*
X86518750Y-108743750D01*
X259556250Y-7937500D02*
G75*
G03*
X261143750Y-6350000I0J1587500D01*
G01*
X34131250Y-84931250D02*
X35718750Y-84931250D01*
X105568750Y-80168750D02*
G75*
G03*
X103981250Y-81756250I0J-1587500D01*
G01*
X10318750Y-124618750D02*
G75*
G03*
X11906250Y-126206250I1587500J0D01*
G01*
X246062500Y-7937500D02*
X246062500Y-10318750D01*
X130968750Y-7937500D02*
X144462500Y-7937500D01*
X129381250Y-6350000D02*
G75*
G03*
X130968750Y-7937500I1587500J0D01*
G01*
X42068750Y-84931250D02*
X77374750Y-84931250D01*
X167481250Y-84931250D02*
G75*
G03*
X165893750Y-86518750I0J-1587500D01*
G01*
X10318750Y-110331250D02*
X10318750Y-124618750D01*
X175418750Y-89693750D02*
X200818750Y-89693750D01*
X105568750Y-86518750D02*
X105568750Y-107156250D01*
X7143750Y-127793750D02*
G75*
G03*
X8731250Y-126206250I0J1587500D01*
G01*
X84931250Y-107156250D02*
X84931250Y-91281250D01*
X123031250Y-11906250D02*
G75*
G03*
X121443750Y-10318750I-1587500J0D01*
G01*
X8731250Y-126206250D02*
X8731250Y-105568750D01*
X210343750Y-86518750D02*
X210343750Y-102393750D01*
X146843750Y-107156250D02*
G75*
G03*
X148431250Y-108743750I1587500J0D01*
G01*
X34131250Y-84931250D02*
G75*
G03*
X32543750Y-86518750I0J-1587500D01*
G01*
X261143750Y-11906250D02*
G75*
G03*
X259556250Y-10318750I-1587500J0D01*
G01*
X102393750Y-103981250D02*
G75*
G03*
X103981250Y-102393750I0J1587500D01*
G01*
X86518750Y-127793750D02*
G75*
G03*
X84931250Y-126206250I-1587500J0D01*
G01*
X130968750Y-10318750D02*
X144462500Y-10318750D01*
X167481250Y-84931250D02*
X169068750Y-84931250D01*
X86518750Y-86518750D02*
X86518750Y-102393750D01*
X150812500Y-10318750D02*
X150812500Y-7937500D01*
X103981250Y-102393750D02*
X103981250Y-81756250D01*
X86518750Y-129381250D02*
G75*
G03*
X88106250Y-130968750I1587500J0D01*
G01*
X84931250Y-84931250D02*
X83343750Y-84931250D01*
X208756250Y-107156250D02*
X208756250Y-91281250D01*
X107156250Y-84931250D02*
G75*
G03*
X105568750Y-86518750I0J-1587500D01*
G01*
X240506250Y-126206250D02*
G75*
G03*
X242093750Y-124618750I0J1587500D01*
G01*
X32543750Y-108743750D02*
G75*
G03*
X34131250Y-107156250I0J1587500D01*
G01*
X84931250Y-91281250D02*
G75*
G03*
X83343750Y-89693750I-1587500J0D01*
G01*
X169068750Y-89693750D02*
G75*
G03*
X167481250Y-91281250I0J-1587500D01*
G01*
X123031250Y-129381250D02*
X123031250Y-86518750D01*
X242093750Y-110331250D02*
G75*
G03*
X240506250Y-108743750I-1587500J0D01*
G01*
X-7143750Y-127793750D02*
X7143750Y-127793750D01*
X130968750Y-130968750D02*
X164306250Y-130968750D01*
X10318750Y-103981250D02*
X30956250Y-103981250D01*
X261143750Y-6350000D02*
X261143750Y7143750D01*
X208756250Y-84931250D02*
X207168750Y-84931250D01*
X35718750Y-89693750D02*
X35718750Y-84931250D01*
X-8731250Y-11906250D02*
X-8731250Y-126206250D01*
X129381250Y-18256250D02*
X129381250Y-72231250D01*
X-8731250Y7143750D02*
X-8731250Y-6350000D01*
X129381250Y7143750D02*
X129381250Y-6350000D01*
X83343750Y-89693750D02*
X83343750Y-84931250D01*
X239712500Y-10318750D02*
X150812500Y-10318750D01*
X-7143750Y8731250D02*
G75*
G03*
X-8731250Y7143750I0J-1587500D01*
G01*
X146843750Y-107156250D02*
X146843750Y-86518750D01*
X129381250Y-78581250D02*
G75*
G03*
X130968750Y-80168750I1587500J0D01*
G01*
X121443750Y-7937500D02*
X107950000Y-7937500D01*
X169068750Y-89693750D02*
X169068750Y-84931250D01*
X259556250Y-10318750D02*
X246062500Y-10318750D01*
X34131250Y-91281250D02*
X34131250Y-107156250D01*
X148431250Y-81756250D02*
G75*
G03*
X146843750Y-80168750I-1587500J0D01*
G01*
X146843750Y-86518750D02*
G75*
G03*
X145256250Y-84931250I-1587500J0D01*
G01*
X130968750Y-84931250D02*
G75*
G03*
X129381250Y-86518750I0J-1587500D01*
G01*
X30956250Y-103981250D02*
G75*
G03*
X32543750Y-102393750I0J1587500D01*
G01*
X12700000Y-7937500D02*
X101600000Y-7937500D01*
X208756250Y-91281250D02*
G75*
G03*
X207168750Y-89693750I-1587500J0D01*
G01*
X121443750Y-130968750D02*
G75*
G03*
X123031250Y-129381250I0J1587500D01*
G01*
X243681250Y-105568750D02*
X243681250Y-126206250D01*
X129381250Y-86518750D02*
X129381250Y-129381250D01*
X165893750Y-102393750D02*
X165893750Y-86518750D01*
X101600000Y-7937500D02*
X101600000Y-10318750D01*
X243681250Y-126206250D02*
G75*
G03*
X245268750Y-127793750I1587500J0D01*
G01*
X12700000Y-10318750D02*
X12700000Y-7937500D01*
X150018750Y-103981250D02*
X164306250Y-103981250D01*
X165893750Y-108743750D02*
X148431250Y-108743750D01*
X175418750Y-84931250D02*
X175418750Y-89693750D01*
X121443750Y-84931250D02*
X107156250Y-84931250D01*
X207168750Y-89693750D02*
X207168750Y-84931250D01*
X11906250Y-108743750D02*
G75*
G03*
X10318750Y-110331250I0J-1587500D01*
G01*
X121443750Y-7937500D02*
G75*
G03*
X123031250Y-6350000I0J1587500D01*
G01*
X121443750Y-80168750D02*
G75*
G03*
X123031250Y-78581250I0J1587500D01*
G01*
X130968750Y-10318750D02*
G75*
G03*
X129381250Y-11906250I0J-1587500D01*
G01*
X130968750Y8731250D02*
G75*
G03*
X129381250Y7143750I0J-1587500D01*
G01*
X144462500Y-10318750D02*
X144462500Y-7937500D01*
X243681250Y-105568750D02*
G75*
G03*
X242093750Y-103981250I-1587500J0D01*
G01*
X130968750Y-80168750D02*
X146843750Y-80168750D01*
X121443750Y8731250D02*
X-7143750Y8731250D01*
X167481250Y-91281250D02*
X167481250Y-107156250D01*
X123031250Y7143750D02*
X123031250Y-6350000D01*
X101600000Y-10318750D02*
X12700000Y-10318750D01*
X130968750Y8731250D02*
X259556250Y8731250D01*
X200818750Y-84931250D02*
X175418750Y-84931250D01*
X123031250Y-18256250D02*
X129381250Y-18256250D01*
X242093750Y-124618750D02*
X242093750Y-110331250D01*
X10318750Y-103981250D02*
G75*
G03*
X8731250Y-105568750I0J-1587500D01*
G01*
X86518750Y-102393750D02*
G75*
G03*
X88106250Y-103981250I1587500J0D01*
G01*
X32543750Y-102393750D02*
X32543750Y-86518750D01*
X210343750Y-86518750D02*
G75*
G03*
X208756250Y-84931250I-1587500J0D01*
G01*
X123031250Y-11906250D02*
X129381250Y-11906250D01*
X259556250Y-127793750D02*
G75*
G03*
X261143750Y-126206250I0J1587500D01*
G01*
M02*
