G04 #@! TF.GenerationSoftware,KiCad,Pcbnew,(6.0.1-0)*
G04 #@! TF.CreationDate,2022-04-23T14:38:48+10:00*
G04 #@! TF.ProjectId,pcb,7063622e-6b69-4636-9164-5f7063625858,rev?*
G04 #@! TF.SameCoordinates,Original*
G04 #@! TF.FileFunction,Soldermask,Top*
G04 #@! TF.FilePolarity,Negative*
%FSLAX46Y46*%
G04 Gerber Fmt 4.6, Leading zero omitted, Abs format (unit mm)*
G04 Created by KiCad (PCBNEW (6.0.1-0)) date 2022-04-23 14:38:48*
%MOMM*%
%LPD*%
G01*
G04 APERTURE LIST*
G04 Aperture macros list*
%AMRoundRect*
0 Rectangle with rounded corners*
0 $1 Rounding radius*
0 $2 $3 $4 $5 $6 $7 $8 $9 X,Y pos of 4 corners*
0 Add a 4 corners polygon primitive as box body*
4,1,4,$2,$3,$4,$5,$6,$7,$8,$9,$2,$3,0*
0 Add four circle primitives for the rounded corners*
1,1,$1+$1,$2,$3*
1,1,$1+$1,$4,$5*
1,1,$1+$1,$6,$7*
1,1,$1+$1,$8,$9*
0 Add four rect primitives between the rounded corners*
20,1,$1+$1,$2,$3,$4,$5,0*
20,1,$1+$1,$4,$5,$6,$7,0*
20,1,$1+$1,$6,$7,$8,$9,0*
20,1,$1+$1,$8,$9,$2,$3,0*%
G04 Aperture macros list end*
%ADD10C,3.048000*%
%ADD11C,3.000000*%
%ADD12C,3.987800*%
%ADD13C,1.750000*%
%ADD14C,0.787400*%
%ADD15O,3.400000X3.400000*%
%ADD16R,1.700000X1.700000*%
%ADD17O,1.700000X1.700000*%
%ADD18C,0.900000*%
%ADD19C,0.650000*%
%ADD20O,1.600000X1.000000*%
%ADD21O,2.100000X1.000000*%
%ADD22RoundRect,0.249999X-0.625001X0.350001X-0.625001X-0.350001X0.625001X-0.350001X0.625001X0.350001X0*%
%ADD23O,1.750000X1.200000*%
%ADD24RoundRect,0.249999X0.625001X-0.350001X0.625001X0.350001X-0.625001X0.350001X-0.625001X-0.350001X0*%
%ADD25R,2.000000X2.000000*%
%ADD26C,2.000000*%
%ADD27R,2.000000X3.200000*%
G04 APERTURE END LIST*
D10*
X254825500Y-102235000D03*
D11*
X246697500Y-97790000D03*
D12*
X254825500Y-86995000D03*
D13*
X247967500Y-95250000D03*
X237807500Y-95250000D03*
D10*
X230949500Y-102235000D03*
D12*
X242887500Y-95250000D03*
D11*
X240347500Y-100330000D03*
D12*
X230949500Y-86995000D03*
D14*
X129127250Y-15081250D03*
X129127250Y-17621250D03*
X129127250Y-12541250D03*
X129127250Y-13811250D03*
X129127250Y-16351250D03*
D15*
X85725000Y-52006250D03*
X85725000Y-48006250D03*
X166687500Y-48006250D03*
X166687500Y-52006250D03*
D12*
X76200000Y-38100000D03*
D13*
X71120000Y-38100000D03*
D11*
X80010000Y-40640000D03*
X73660000Y-43180000D03*
D13*
X81280000Y-38100000D03*
D14*
X242887500Y-8191500D03*
X244157500Y-8191500D03*
X245427500Y-8191500D03*
X240347500Y-8191500D03*
X241617500Y-8191500D03*
D12*
X200056750Y-106680000D03*
D10*
X200056750Y-91440000D03*
D11*
X184308750Y-95885000D03*
X190658750Y-93345000D03*
D10*
X176180750Y-91440000D03*
D12*
X176180750Y-106680000D03*
D13*
X193198750Y-98425000D03*
X183038750Y-98425000D03*
D12*
X188118750Y-98425000D03*
D14*
X80168750Y-85185250D03*
X78898750Y-85185250D03*
X82708750Y-85185250D03*
X81438750Y-85185250D03*
X77628750Y-85185250D03*
X8255000Y-8191500D03*
X9525000Y-8191500D03*
X6985000Y-8191500D03*
X12065000Y-8191500D03*
X10795000Y-8191500D03*
D11*
X60960000Y-2540000D03*
D13*
X52070000Y0D03*
D12*
X57150000Y0D03*
D11*
X54610000Y-5080000D03*
D13*
X62230000Y0D03*
X109220000Y-57150000D03*
D12*
X114300000Y-57150000D03*
D11*
X118110000Y-59690000D03*
D13*
X119380000Y-57150000D03*
D11*
X111760000Y-62230000D03*
D12*
X233362500Y-117475000D03*
D11*
X230822500Y-122555000D03*
X237172500Y-120015000D03*
D13*
X228282500Y-117475000D03*
X238442500Y-117475000D03*
D11*
X192722500Y-5080000D03*
D13*
X190182500Y0D03*
X200342500Y0D03*
D12*
X195262500Y0D03*
D11*
X199072500Y-2540000D03*
X118110000Y-40640000D03*
D13*
X109220000Y-38100000D03*
D11*
X111760000Y-43180000D03*
D13*
X119380000Y-38100000D03*
D12*
X114300000Y-38100000D03*
X233362500Y-19050000D03*
D13*
X238442500Y-19050000D03*
X228282500Y-19050000D03*
D11*
X237172500Y-21590000D03*
X230822500Y-24130000D03*
X173672500Y-122555000D03*
D12*
X176212500Y-117475000D03*
D13*
X181292500Y-117475000D03*
X171132500Y-117475000D03*
D11*
X180022500Y-120015000D03*
X41910000Y-40640000D03*
D12*
X38100000Y-38100000D03*
D13*
X43180000Y-38100000D03*
X33020000Y-38100000D03*
D11*
X35560000Y-43180000D03*
D13*
X100330000Y0D03*
X90170000Y0D03*
D11*
X92710000Y-5080000D03*
D12*
X95250000Y0D03*
D11*
X99060000Y-2540000D03*
D14*
X82708750Y-89439750D03*
X78898750Y-89439750D03*
X77628750Y-89439750D03*
X81438750Y-89439750D03*
X80168750Y-89439750D03*
D12*
X0Y-116681250D03*
D13*
X0Y-111601250D03*
X0Y-121761250D03*
D11*
X2540000Y-112871250D03*
X5080000Y-119221250D03*
X256222500Y-2540000D03*
D12*
X252412500Y0D03*
D11*
X249872500Y-5080000D03*
D13*
X247332500Y0D03*
X257492500Y0D03*
X209232500Y0D03*
X219392500Y0D03*
D11*
X211772500Y-5080000D03*
D12*
X214312500Y0D03*
D11*
X218122500Y-2540000D03*
X160972500Y-97790000D03*
D13*
X152082500Y-95250000D03*
D12*
X157162500Y-95250000D03*
D11*
X154622500Y-100330000D03*
D13*
X162242500Y-95250000D03*
D12*
X233362500Y-57150000D03*
D13*
X238442500Y-57150000D03*
D11*
X230822500Y-62230000D03*
D13*
X228282500Y-57150000D03*
D11*
X237172500Y-59690000D03*
X60960000Y-120015000D03*
D12*
X57150000Y-117475000D03*
D13*
X52070000Y-117475000D03*
X62230000Y-117475000D03*
D11*
X54610000Y-122555000D03*
D12*
X19050000Y-19050000D03*
D13*
X24130000Y-19050000D03*
D11*
X16510000Y-24130000D03*
X22860000Y-21590000D03*
D13*
X13970000Y-19050000D03*
D14*
X103505000Y-8191500D03*
X104775000Y-8191500D03*
X106045000Y-8191500D03*
X102235000Y-8191500D03*
X107315000Y-8191500D03*
X241617500Y-10064750D03*
X240347500Y-10064750D03*
X245427500Y-10064750D03*
X242887500Y-10064750D03*
X244157500Y-10064750D03*
D11*
X192722500Y-81280000D03*
D13*
X190182500Y-76200000D03*
D11*
X199072500Y-78740000D03*
D12*
X195262500Y-76200000D03*
D13*
X200342500Y-76200000D03*
D11*
X111760000Y-99853750D03*
D13*
X114300000Y-101123750D03*
X114300000Y-90963750D03*
D11*
X109220000Y-93503750D03*
D12*
X114300000Y-96043750D03*
D13*
X138112500Y-66992500D03*
D11*
X140652500Y-58102500D03*
X143192500Y-64452500D03*
D12*
X138112500Y-61912500D03*
D13*
X138112500Y-56832500D03*
D12*
X19050000Y-117475000D03*
D13*
X13970000Y-117475000D03*
D11*
X22860000Y-120015000D03*
X16510000Y-122555000D03*
D13*
X24130000Y-117475000D03*
D11*
X160972500Y-40640000D03*
D12*
X157162500Y-38100000D03*
D11*
X154622500Y-43180000D03*
D13*
X162242500Y-38100000D03*
X152082500Y-38100000D03*
D12*
X76200000Y-117475000D03*
D13*
X71120000Y-117475000D03*
D11*
X73660000Y-122555000D03*
D13*
X81280000Y-117475000D03*
D11*
X80010000Y-120015000D03*
D13*
X90170000Y-76200000D03*
D12*
X95250000Y-76200000D03*
D13*
X100330000Y-76200000D03*
D11*
X99060000Y-78740000D03*
X92710000Y-81280000D03*
D13*
X52070000Y-19050000D03*
D11*
X60960000Y-21590000D03*
D12*
X57150000Y-19050000D03*
D11*
X54610000Y-24130000D03*
D13*
X62230000Y-19050000D03*
X0Y-78263750D03*
D11*
X5080000Y-85883750D03*
X2540000Y-79533750D03*
D13*
X0Y-88423750D03*
D12*
X0Y-83343750D03*
D11*
X211772500Y-122555000D03*
D12*
X214312500Y-117475000D03*
D11*
X218122500Y-120015000D03*
D13*
X209232500Y-117475000D03*
X219392500Y-117475000D03*
D11*
X80010000Y-59690000D03*
D12*
X76200000Y-57150000D03*
D11*
X73660000Y-62230000D03*
D13*
X81280000Y-57150000D03*
X71120000Y-57150000D03*
X257492500Y-19050000D03*
X247332500Y-19050000D03*
D11*
X256222500Y-21590000D03*
D12*
X252412500Y-19050000D03*
D11*
X249872500Y-24130000D03*
D13*
X181292500Y-57150000D03*
D11*
X180022500Y-59690000D03*
D12*
X176212500Y-57150000D03*
D11*
X173672500Y-62230000D03*
D13*
X171132500Y-57150000D03*
X16351250Y-95250000D03*
D12*
X21431250Y-95250000D03*
D11*
X25241250Y-97790000D03*
X18891250Y-100330000D03*
D13*
X26511250Y-95250000D03*
D14*
X206533750Y-85185250D03*
X201453750Y-85185250D03*
X203993750Y-85185250D03*
X205263750Y-85185250D03*
X202723750Y-85185250D03*
D11*
X230822500Y-81280000D03*
D12*
X233362500Y-76200000D03*
D11*
X237172500Y-78740000D03*
D13*
X238442500Y-76200000D03*
X228282500Y-76200000D03*
D11*
X143192500Y-98583750D03*
D12*
X138112500Y-96043750D03*
D13*
X138112500Y-90963750D03*
D11*
X140652500Y-92233750D03*
D13*
X138112500Y-101123750D03*
D14*
X206533750Y-89439750D03*
X201453750Y-89439750D03*
X203993750Y-89439750D03*
X202723750Y-89439750D03*
X205263750Y-89439750D03*
X172243750Y-85185250D03*
X169703750Y-85185250D03*
X173513750Y-85185250D03*
X174783750Y-85185250D03*
X170973750Y-85185250D03*
D11*
X218122500Y-78740000D03*
D13*
X219392500Y-76200000D03*
X209232500Y-76200000D03*
D11*
X211772500Y-81280000D03*
D12*
X214312500Y-76200000D03*
D11*
X80010000Y-2540000D03*
D12*
X76200000Y0D03*
D11*
X73660000Y-5080000D03*
D13*
X81280000Y0D03*
X71120000Y0D03*
D14*
X41433750Y-85185250D03*
X37623750Y-85185250D03*
X38893750Y-85185250D03*
X36353750Y-85185250D03*
X40163750Y-85185250D03*
D12*
X38100000Y-117475000D03*
D13*
X43180000Y-117475000D03*
D11*
X41910000Y-120015000D03*
X35560000Y-122555000D03*
D13*
X33020000Y-117475000D03*
X43180000Y-57150000D03*
X33020000Y-57150000D03*
D11*
X41910000Y-59690000D03*
D12*
X38100000Y-57150000D03*
D11*
X35560000Y-62230000D03*
D13*
X138112500Y-114776250D03*
D11*
X143192500Y-122396250D03*
D12*
X138112500Y-119856250D03*
D13*
X138112500Y-124936250D03*
D11*
X140652500Y-116046250D03*
X249872500Y-120491250D03*
D13*
X252412500Y-111601250D03*
X252412500Y-121761250D03*
D11*
X247332500Y-114141250D03*
D12*
X252412500Y-116681250D03*
X233362500Y0D03*
D13*
X228282500Y0D03*
X238442500Y0D03*
D11*
X237172500Y-2540000D03*
X230822500Y-5080000D03*
X160972500Y-59690000D03*
D13*
X152082500Y-57150000D03*
D11*
X154622500Y-62230000D03*
D12*
X157162500Y-57150000D03*
D13*
X162242500Y-57150000D03*
D11*
X60960000Y-40640000D03*
X54610000Y-43180000D03*
D12*
X57150000Y-38100000D03*
D13*
X52070000Y-38100000D03*
X62230000Y-38100000D03*
D12*
X0Y-19050000D03*
D11*
X-2540000Y-24130000D03*
D13*
X-5080000Y-19050000D03*
X5080000Y-19050000D03*
D11*
X3810000Y-21590000D03*
D14*
X6985000Y-10064750D03*
X10795000Y-10064750D03*
X8255000Y-10064750D03*
X9525000Y-10064750D03*
X12065000Y-10064750D03*
D12*
X38100000Y-19050000D03*
D11*
X35560000Y-24130000D03*
X41910000Y-21590000D03*
D13*
X33020000Y-19050000D03*
X43180000Y-19050000D03*
D11*
X3810000Y-2540000D03*
D12*
X0Y0D03*
D13*
X5080000Y0D03*
X-5080000Y0D03*
D11*
X-2540000Y-5080000D03*
D13*
X52070000Y-76200000D03*
D11*
X54610000Y-81280000D03*
X60960000Y-78740000D03*
D12*
X57150000Y-76200000D03*
D13*
X62230000Y-76200000D03*
D12*
X157162500Y-19050000D03*
D13*
X162242500Y-19050000D03*
X152082500Y-19050000D03*
D11*
X160972500Y-21590000D03*
X154622500Y-24130000D03*
D13*
X143192500Y-38100000D03*
D11*
X141922500Y-40640000D03*
D13*
X133032500Y-38100000D03*
D11*
X135572500Y-43180000D03*
D12*
X138112500Y-38100000D03*
D14*
X147637500Y-8191500D03*
X150177500Y-8191500D03*
X146367500Y-8191500D03*
X145097500Y-8191500D03*
X148907500Y-8191500D03*
D11*
X211772500Y-43180000D03*
D13*
X219392500Y-38100000D03*
D11*
X218122500Y-40640000D03*
D13*
X209232500Y-38100000D03*
D12*
X214312500Y-38100000D03*
D14*
X150177500Y-10064750D03*
X146367500Y-10064750D03*
X148907500Y-10064750D03*
X145097500Y-10064750D03*
X147637500Y-10064750D03*
D12*
X19050000Y-76200000D03*
D13*
X24130000Y-76200000D03*
D11*
X22860000Y-78740000D03*
D13*
X13970000Y-76200000D03*
D11*
X16510000Y-81280000D03*
D13*
X100330000Y-19050000D03*
D11*
X92710000Y-24130000D03*
D12*
X95250000Y-19050000D03*
D13*
X90170000Y-19050000D03*
D11*
X99060000Y-21590000D03*
D13*
X33020000Y0D03*
D12*
X38100000Y0D03*
D11*
X35560000Y-5080000D03*
D13*
X43180000Y0D03*
D11*
X41910000Y-2540000D03*
D13*
X219392500Y-19050000D03*
X209232500Y-19050000D03*
D11*
X218122500Y-21590000D03*
D12*
X214312500Y-19050000D03*
D11*
X211772500Y-24130000D03*
X73660000Y-81280000D03*
X80010000Y-78740000D03*
D13*
X71120000Y-76200000D03*
D12*
X76200000Y-76200000D03*
D13*
X81280000Y-76200000D03*
D12*
X57150000Y-57150000D03*
D13*
X52070000Y-57150000D03*
D11*
X60960000Y-59690000D03*
D13*
X62230000Y-57150000D03*
D11*
X54610000Y-62230000D03*
D13*
X54451250Y-98425000D03*
X64611250Y-98425000D03*
D11*
X55721250Y-95885000D03*
D12*
X47593250Y-106680000D03*
D11*
X62071250Y-93345000D03*
D10*
X71469250Y-91440000D03*
X47593250Y-91440000D03*
D12*
X71469250Y-106680000D03*
X59531250Y-98425000D03*
X214312500Y-57150000D03*
D13*
X209232500Y-57150000D03*
X219392500Y-57150000D03*
D11*
X218122500Y-59690000D03*
X211772500Y-62230000D03*
D14*
X174783750Y-89439750D03*
X172243750Y-89439750D03*
X170973750Y-89439750D03*
X169703750Y-89439750D03*
X173513750Y-89439750D03*
D13*
X152082500Y-76200000D03*
D12*
X157162500Y-76200000D03*
D13*
X162242500Y-76200000D03*
D11*
X160972500Y-78740000D03*
X154622500Y-81280000D03*
D12*
X95250000Y-119856250D03*
D11*
X100330000Y-122396250D03*
D13*
X95250000Y-114776250D03*
D11*
X97790000Y-116046250D03*
D13*
X95250000Y-124936250D03*
X257492500Y-76200000D03*
D12*
X252412500Y-76200000D03*
D13*
X247332500Y-76200000D03*
D11*
X256222500Y-78740000D03*
X249872500Y-81280000D03*
D13*
X190182500Y-38100000D03*
D11*
X192722500Y-43180000D03*
D12*
X195262500Y-38100000D03*
D13*
X200342500Y-38100000D03*
D11*
X199072500Y-40640000D03*
D12*
X195262500Y-19050000D03*
D11*
X199072500Y-21590000D03*
D13*
X200342500Y-19050000D03*
X190182500Y-19050000D03*
D11*
X192722500Y-24130000D03*
D14*
X123285250Y-13811250D03*
X123285250Y-12541250D03*
X123285250Y-16351250D03*
X123285250Y-17621250D03*
X123285250Y-15081250D03*
D13*
X13970000Y0D03*
X24130000Y0D03*
D11*
X16510000Y-5080000D03*
X22860000Y-2540000D03*
D12*
X19050000Y0D03*
D13*
X81280000Y-19050000D03*
D12*
X76200000Y-19050000D03*
D11*
X80010000Y-21590000D03*
X73660000Y-24130000D03*
D13*
X71120000Y-19050000D03*
D12*
X95250000Y-57150000D03*
D13*
X100330000Y-57150000D03*
X90170000Y-57150000D03*
D11*
X92710000Y-62230000D03*
X99060000Y-59690000D03*
D13*
X190182500Y-117475000D03*
X200342500Y-117475000D03*
D11*
X192722500Y-122555000D03*
D12*
X195262500Y-117475000D03*
D11*
X199072500Y-120015000D03*
D12*
X95250000Y-38100000D03*
D11*
X92710000Y-43180000D03*
D13*
X90170000Y-38100000D03*
D11*
X99060000Y-40640000D03*
D13*
X100330000Y-38100000D03*
D11*
X111760000Y-24130000D03*
D13*
X119380000Y-19050000D03*
D11*
X118110000Y-21590000D03*
D13*
X109220000Y-19050000D03*
D12*
X114300000Y-19050000D03*
D14*
X38893750Y-89439750D03*
X36353750Y-89439750D03*
X40163750Y-89439750D03*
X37623750Y-89439750D03*
X41433750Y-89439750D03*
X103505000Y-10064750D03*
X102235000Y-10064750D03*
X104775000Y-10064750D03*
X107315000Y-10064750D03*
X106045000Y-10064750D03*
D12*
X176212500Y-38100000D03*
D11*
X173672500Y-43180000D03*
D13*
X181292500Y-38100000D03*
D11*
X180022500Y-40640000D03*
D13*
X171132500Y-38100000D03*
X143192500Y0D03*
D12*
X138112500Y0D03*
D11*
X141922500Y-2540000D03*
D13*
X133032500Y0D03*
D11*
X135572500Y-5080000D03*
D12*
X233362500Y-38100000D03*
D13*
X238442500Y-38100000D03*
D11*
X230822500Y-43180000D03*
D13*
X228282500Y-38100000D03*
D11*
X237172500Y-40640000D03*
X135572500Y-24130000D03*
X141922500Y-21590000D03*
D13*
X133032500Y-19050000D03*
X143192500Y-19050000D03*
D12*
X138112500Y-19050000D03*
D14*
X123285250Y-77946250D03*
X123285250Y-75406250D03*
X123285250Y-72866250D03*
X123285250Y-76676250D03*
X123285250Y-74136250D03*
D13*
X0Y-37782500D03*
D11*
X2540000Y-39052500D03*
D12*
X0Y-42862500D03*
D13*
X0Y-47942500D03*
D11*
X5080000Y-45402500D03*
D13*
X171132500Y0D03*
D11*
X180022500Y-2540000D03*
D12*
X176212500Y0D03*
D13*
X181292500Y0D03*
D11*
X173672500Y-5080000D03*
D12*
X252412500Y-57150000D03*
D13*
X247332500Y-57150000D03*
D11*
X256222500Y-59690000D03*
X249872500Y-62230000D03*
D13*
X257492500Y-57150000D03*
D12*
X19050000Y-38100000D03*
D11*
X16510000Y-43180000D03*
X22860000Y-40640000D03*
D13*
X13970000Y-38100000D03*
X24130000Y-38100000D03*
D14*
X129127250Y-74136250D03*
X129127250Y-75406250D03*
X129127250Y-76676250D03*
X129127250Y-77946250D03*
X129127250Y-72866250D03*
D13*
X114300000Y-124936250D03*
D12*
X114300000Y-119856250D03*
D11*
X111760000Y-123666250D03*
X109220000Y-117316250D03*
D13*
X114300000Y-114776250D03*
D11*
X22860000Y-59690000D03*
D12*
X19050000Y-57150000D03*
D13*
X13970000Y-57150000D03*
X24130000Y-57150000D03*
D11*
X16510000Y-62230000D03*
D12*
X157162500Y-119856250D03*
D11*
X154622500Y-123666250D03*
X152082500Y-117316250D03*
D13*
X157162500Y-124936250D03*
X157162500Y-114776250D03*
D11*
X154622500Y-5080000D03*
X160972500Y-2540000D03*
D13*
X152082500Y0D03*
D12*
X157162500Y0D03*
D13*
X162242500Y0D03*
D12*
X176212500Y-19050000D03*
D11*
X180022500Y-21590000D03*
D13*
X171132500Y-19050000D03*
X181292500Y-19050000D03*
D11*
X173672500Y-24130000D03*
D12*
X252412500Y-38100000D03*
D13*
X257492500Y-38100000D03*
D11*
X249872500Y-43180000D03*
D13*
X247332500Y-38100000D03*
D11*
X256222500Y-40640000D03*
D13*
X119380000Y0D03*
D11*
X118110000Y-2540000D03*
D12*
X114300000Y0D03*
D11*
X111760000Y-5080000D03*
D13*
X109220000Y0D03*
D11*
X35560000Y-81280000D03*
D12*
X38100000Y-76200000D03*
D13*
X33020000Y-76200000D03*
X43180000Y-76200000D03*
D11*
X41910000Y-78740000D03*
D13*
X200342500Y-57150000D03*
X190182500Y-57150000D03*
D11*
X192722500Y-62230000D03*
D12*
X195262500Y-57150000D03*
D11*
X199072500Y-59690000D03*
D13*
X171132500Y-76200000D03*
D11*
X180022500Y-78740000D03*
D13*
X181292500Y-76200000D03*
D12*
X176212500Y-76200000D03*
D11*
X173672500Y-81280000D03*
D13*
X90170000Y-95250000D03*
X100330000Y-95250000D03*
D11*
X92710000Y-100330000D03*
X99060000Y-97790000D03*
D12*
X95250000Y-95250000D03*
D16*
X259556250Y-126037500D03*
D17*
X259556250Y-123497500D03*
X259556250Y-120957500D03*
X259556250Y-118417500D03*
D18*
X136437500Y-78398750D03*
X133437500Y-78398750D03*
D19*
X-3275000Y-28860000D03*
X-3275000Y-34640000D03*
D20*
X-6925000Y-27430000D03*
D21*
X-2745000Y-36070000D03*
X-2745000Y-27430000D03*
D20*
X-6925000Y-36070000D03*
D19*
X254893750Y-34640000D03*
X254893750Y-28860000D03*
D20*
X258543750Y-27430000D03*
X258543750Y-36070000D03*
D21*
X254363750Y-36070000D03*
X254363750Y-27430000D03*
D18*
X118975000Y-78398750D03*
X115975000Y-78398750D03*
D16*
X-7143750Y-126037500D03*
D17*
X-7143750Y-123497500D03*
X-7143750Y-120957500D03*
X-7143750Y-118417500D03*
D22*
X149156250Y-49006250D03*
D23*
X149156250Y-51006250D03*
D24*
X103256250Y-51006250D03*
D23*
X103256250Y-49006250D03*
D25*
X116800000Y-26550000D03*
D26*
X111800000Y-26550000D03*
X114300000Y-26550000D03*
D27*
X119900000Y-19050000D03*
X108700000Y-19050000D03*
D26*
X111800000Y-12050000D03*
X116800000Y-12050000D03*
D25*
X140612500Y-26550000D03*
D26*
X135612500Y-26550000D03*
X138112500Y-26550000D03*
D27*
X143712500Y-19050000D03*
X132512500Y-19050000D03*
D26*
X135612500Y-12050000D03*
X140612500Y-12050000D03*
M02*
